<svg version="1.1" id="Layer_1" xmlns="http://www.w3.org/2000/svg" xmlns:xlink="http://www.w3.org/1999/xlink" x="0px" y="0px"
	 width="100%" viewBox="0 0 512 512" enable-background="new 0 0 512 512" xml:space="preserve">
<path fill="#A64141" opacity="1.000000" stroke="none" 
	d="
M289.000000,513.000000 
	C267.979095,513.000000 246.958206,513.000000 225.565430,512.588379 
	C219.137802,511.092987 213.028824,510.244049 207.035599,508.884766 
	C181.447693,503.081207 156.814072,494.776337 133.709167,482.010254 
	C103.931717,465.557465 78.562012,444.078430 57.126320,417.723297 
	C38.738041,395.114960 24.821867,370.036713 15.115789,342.655121 
	C9.182314,325.916351 4.755740,308.741241 2.900802,290.990173 
	C2.825385,290.268463 1.658414,289.660797 1.000003,289.000000 
	C1.000000,267.979095 1.000000,246.958206 1.411655,225.565430 
	C2.907044,219.137833 3.755981,213.028870 5.115269,207.035645 
	C10.918695,181.447708 19.223705,156.814102 31.989746,133.709167 
	C48.442535,103.931679 69.921593,78.561920 96.276756,57.126240 
	C118.885101,38.737984 143.963455,24.822031 171.344986,15.115663 
	C188.083725,9.182014 205.258881,4.756107 223.009827,2.900800 
	C223.731552,2.825364 224.339203,1.658409 225.000000,1.000001 
	C246.020889,1.000000 267.041779,1.000000 288.434570,1.411659 
	C294.853088,2.906368 300.950012,3.765641 306.937653,5.111307 
	C332.506042,10.857599 357.052399,19.279425 380.156006,31.945778 
	C410.110413,48.368015 435.489960,70.020233 457.003296,96.440132 
	C475.480621,119.131546 489.309692,144.380051 499.018738,171.905121 
	C504.868927,188.490295 509.207336,205.467987 511.099060,223.014633 
	C511.176849,223.736343 512.341614,224.340866 513.000000,225.000000 
	C513.000000,246.020889 513.000000,267.041779 512.588379,288.434570 
	C511.092987,294.862213 510.243927,300.971161 508.884705,306.964447 
	C503.081451,332.552307 494.776276,357.185669 482.010376,380.290497 
	C465.557648,410.068054 444.078613,435.437805 417.723480,456.873535 
	C395.115112,475.261841 370.036804,489.178040 342.655212,498.884216 
	C325.916412,504.817719 308.741272,509.244293 290.990204,511.099274 
	C290.268494,511.174713 289.660828,512.341614 289.000000,513.000000 
M159.324493,299.139984 
	C162.409012,303.454620 164.957077,308.309418 168.667282,311.993988 
	C188.945312,332.131775 222.780746,324.843109 234.846542,297.742645 
	C244.208328,276.715485 243.828140,254.675247 240.262543,232.551224 
	C238.231445,219.948685 233.290329,208.466995 223.154648,200.158112 
	C200.843842,181.868469 167.587982,191.023163 157.293167,219.075745 
	C147.612274,245.455383 148.231705,272.215912 159.324493,299.139984 
M313.771149,191.066315 
	C295.567810,192.621841 283.622131,202.620560 277.133667,219.168228 
	C269.688446,238.155991 269.673401,257.904297 272.706543,277.746796 
	C274.654144,290.487701 279.182404,302.169037 288.204407,311.723877 
	C304.189178,328.652771 341.047424,329.908356 354.754333,297.646484 
	C365.676300,271.939575 365.497284,245.276917 356.237946,219.107697 
	C349.470398,199.981064 335.044037,190.959549 313.771149,191.066315 
M113.958488,231.260788 
	C114.678680,216.443466 109.706711,204.442398 96.489159,196.746124 
	C76.398216,185.047607 45.044693,191.721344 31.301052,210.295288 
	C34.157066,213.314926 36.980602,216.300247 40.113716,219.612869 
	C41.942928,217.997604 43.647667,216.465057 45.381340,214.965988 
	C53.625965,207.837097 62.793671,203.786362 74.103676,204.628281 
	C91.471573,205.921173 101.458351,219.078842 97.440681,236.048752 
	C95.307289,245.059845 90.808937,252.963562 84.502609,259.376556 
	C68.515976,275.633667 52.196602,291.581543 35.541065,307.151093 
	C30.966303,311.427612 30.600491,315.529266 31.762449,320.687073 
	C61.609440,320.687073 91.191582,320.687073 120.745651,320.687073 
	C120.745651,315.955536 120.745651,311.546814 120.745651,307.287354 
	C99.294830,307.287354 78.167442,307.287354 56.149647,307.287354 
	C58.504070,305.065918 60.334518,303.430664 62.062542,301.693542 
	C73.455376,290.240692 85.196777,279.104828 96.089249,267.193298 
	C105.136353,257.299744 112.409225,246.097977 113.958488,231.260788 
M453.890594,221.351700 
	C431.890808,250.805496 422.789612,284.315765 422.172150,320.726257 
	C428.077179,320.726257 433.488831,320.726257 438.996918,320.726257 
	C439.316254,316.134064 439.712708,311.825134 439.900909,307.507111 
	C441.521210,270.332550 453.517395,237.174225 478.517395,209.274628 
	C482.794739,204.501175 483.935638,199.757187 482.626129,193.738297 
	C452.155060,193.738297 421.660553,193.738297 391.069153,193.738297 
	C391.069153,198.444717 391.069153,202.733612 391.069153,207.859711 
	C415.193878,207.859711 439.127472,207.859711 463.916870,207.859711 
	C460.225983,212.794205 457.250793,216.771820 453.890594,221.351700 
z"/>
<path fill="#000000" opacity="1.000000" stroke="none" 
	d="
M513.000000,224.531342 
	C512.341614,224.340866 511.176849,223.736343 511.099060,223.014633 
	C509.207336,205.467987 504.868927,188.490295 499.018738,171.905121 
	C489.309692,144.380051 475.480621,119.131546 457.003296,96.440132 
	C435.489960,70.020233 410.110413,48.368015 380.156006,31.945778 
	C357.052399,19.279425 332.506042,10.857599 306.937653,5.111307 
	C300.950012,3.765641 294.853088,2.906368 288.903198,1.411659 
	C363.593719,1.000000 438.187408,1.000000 513.000000,1.000000 
	C513.000000,75.354088 513.000000,149.708389 513.000000,224.531342 
z"/>
<path fill="#000000" opacity="1.000000" stroke="none" 
	d="
M224.531342,1.000001 
	C224.339203,1.658409 223.731552,2.825364 223.009827,2.900800 
	C205.258881,4.756107 188.083725,9.182014 171.344986,15.115663 
	C143.963455,24.822031 118.885101,38.737984 96.276756,57.126240 
	C69.921593,78.561920 48.442535,103.931679 31.989746,133.709167 
	C19.223705,156.814102 10.918695,181.447708 5.115269,207.035645 
	C3.755981,213.028870 2.907044,219.137833 1.411655,225.096771 
	C1.000000,150.406296 1.000000,75.812576 1.000000,1.000000 
	C75.354088,1.000000 149.708389,1.000000 224.531342,1.000001 
z"/>
<path fill="#000000" opacity="1.000000" stroke="none" 
	d="
M1.000003,289.468658 
	C1.658414,289.660797 2.825385,290.268463 2.900802,290.990173 
	C4.755740,308.741241 9.182314,325.916351 15.115789,342.655121 
	C24.821867,370.036713 38.738041,395.114960 57.126320,417.723297 
	C78.562012,444.078430 103.931717,465.557465 133.709167,482.010254 
	C156.814072,494.776337 181.447693,503.081207 207.035599,508.884766 
	C213.028824,510.244049 219.137802,511.092987 225.096771,512.588379 
	C150.406296,513.000000 75.812599,513.000000 1.000000,513.000000 
	C1.000000,438.645905 1.000000,364.291626 1.000003,289.468658 
z"/>
<path fill="#000000" opacity="1.000000" stroke="none" 
	d="
M289.468689,513.000000 
	C289.660828,512.341614 290.268494,511.174713 290.990204,511.099274 
	C308.741272,509.244293 325.916412,504.817719 342.655212,498.884216 
	C370.036804,489.178040 395.115112,475.261841 417.723480,456.873535 
	C444.078613,435.437805 465.557648,410.068054 482.010376,380.290497 
	C494.776276,357.185669 503.081451,332.552307 508.884705,306.964447 
	C510.243927,300.971161 511.092987,294.862213 512.588379,288.903229 
	C513.000000,363.593719 513.000000,438.187408 513.000000,513.000000 
	C438.645905,513.000000 364.291626,513.000000 289.468689,513.000000 
z"/>
<path fill="#FEFCFC" opacity="1.000000" stroke="none" 
	d="
M159.179810,298.795135 
	C148.231705,272.215912 147.612274,245.455383 157.293167,219.075745 
	C167.587982,191.023163 200.843842,181.868469 223.154648,200.158112 
	C233.290329,208.466995 238.231445,219.948685 240.262543,232.551224 
	C243.828140,254.675247 244.208328,276.715485 234.846542,297.742645 
	C222.780746,324.843109 188.945312,332.131775 168.667282,311.993988 
	C164.957077,308.309418 162.409012,303.454620 159.179810,298.795135 
M203.359360,309.154785 
	C213.165421,306.477997 218.346130,299.186981 221.901367,290.379425 
	C226.282654,279.525452 227.130569,268.076294 227.080139,256.549225 
	C227.023026,243.499619 225.986496,230.590927 219.722443,218.726654 
	C214.890015,209.573883 207.354080,204.256607 196.970917,204.206680 
	C186.621811,204.156891 179.006851,209.284058 173.986710,218.372986 
	C168.687607,227.966904 167.079834,238.465942 166.555954,249.139847 
	C165.767227,265.209534 166.377136,281.178131 174.202774,295.822601 
	C180.207840,307.060120 190.116684,311.621765 203.359360,309.154785 
z"/>
<path fill="#FEFCFC" opacity="1.000000" stroke="none" 
	d="
M314.230896,191.058838 
	C335.044037,190.959549 349.470398,199.981064 356.237946,219.107697 
	C365.497284,245.276917 365.676300,271.939575 354.754333,297.646484 
	C341.047424,329.908356 304.189178,328.652771 288.204407,311.723877 
	C279.182404,302.169037 274.654144,290.487701 272.706543,277.746796 
	C269.673401,257.904297 269.688446,238.155991 277.133667,219.168228 
	C283.622131,202.620560 295.567810,192.621841 314.230896,191.058838 
M346.884613,265.267273 
	C346.952606,263.104126 347.080048,260.940979 347.078949,258.777863 
	C347.072083,245.064667 346.339172,231.475693 339.835541,218.945190 
	C334.976868,209.583847 327.326202,204.167084 316.730255,204.207138 
	C306.389801,204.246201 298.834137,209.456909 293.879425,218.576721 
	C288.736511,228.043030 287.121490,238.349991 286.585663,248.860855 
	C285.775391,264.755280 286.366882,280.514038 293.840607,295.110199 
	C298.608521,304.421936 306.088104,310.023468 316.809021,310.047241 
	C327.579407,310.071136 334.898956,304.280334 339.758179,295.056854 
	C344.507812,286.041443 346.116119,276.227020 346.884613,265.267273 
z"/>
<path fill="#FEFCFC" opacity="1.000000" stroke="none" 
	d="
M113.945351,231.718735 
	C112.409225,246.097977 105.136353,257.299744 96.089249,267.193298 
	C85.196777,279.104828 73.455376,290.240692 62.062542,301.693542 
	C60.334518,303.430664 58.504070,305.065918 56.149647,307.287354 
	C78.167442,307.287354 99.294830,307.287354 120.745651,307.287354 
	C120.745651,311.546814 120.745651,315.955536 120.745651,320.687073 
	C91.191582,320.687073 61.609440,320.687073 31.762449,320.687073 
	C30.600491,315.529266 30.966303,311.427612 35.541065,307.151093 
	C52.196602,291.581543 68.515976,275.633667 84.502609,259.376556 
	C90.808937,252.963562 95.307289,245.059845 97.440681,236.048752 
	C101.458351,219.078842 91.471573,205.921173 74.103676,204.628281 
	C62.793671,203.786362 53.625965,207.837097 45.381340,214.965988 
	C43.647667,216.465057 41.942928,217.997604 40.113716,219.612869 
	C36.980602,216.300247 34.157066,213.314926 31.301052,210.295288 
	C45.044693,191.721344 76.398216,185.047607 96.489159,196.746124 
	C109.706711,204.442398 114.678680,216.443466 113.945351,231.718735 
z"/>
<path fill="#FCF9F9" opacity="1.000000" stroke="none" 
	d="
M454.083130,221.050568 
	C457.250793,216.771820 460.225983,212.794205 463.916870,207.859711 
	C439.127472,207.859711 415.193878,207.859711 391.069153,207.859711 
	C391.069153,202.733612 391.069153,198.444717 391.069153,193.738297 
	C421.660553,193.738297 452.155060,193.738297 482.626129,193.738297 
	C483.935638,199.757187 482.794739,204.501175 478.517395,209.274628 
	C453.517395,237.174225 441.521210,270.332550 439.900909,307.507111 
	C439.712708,311.825134 439.316254,316.134064 438.996918,320.726257 
	C433.488831,320.726257 428.077179,320.726257 422.172150,320.726257 
	C422.789612,284.315765 431.890808,250.805496 454.083130,221.050568 
z"/>
<path fill="#A74343" opacity="1.000000" stroke="none" 
	d="
M202.955597,309.262085 
	C190.116684,311.621765 180.207840,307.060120 174.202774,295.822601 
	C166.377136,281.178131 165.767227,265.209534 166.555954,249.139847 
	C167.079834,238.465942 168.687607,227.966904 173.986710,218.372986 
	C179.006851,209.284058 186.621811,204.156891 196.970917,204.206680 
	C207.354080,204.256607 214.890015,209.573883 219.722443,218.726654 
	C225.986496,230.590927 227.023026,243.499619 227.080139,256.549225 
	C227.130569,268.076294 226.282654,279.525452 221.901367,290.379425 
	C218.346130,299.186981 213.165421,306.477997 202.955597,309.262085 
M185.940018,262.296417 
	C189.054977,267.337555 193.500320,269.821564 199.396805,268.527161 
	C204.569748,267.391571 207.759827,263.925385 208.801041,258.688202 
	C210.048187,252.415192 208.081543,247.122223 203.529968,244.155548 
	C196.436813,239.532242 186.734528,243.132401 185.040543,251.428574 
	C184.381760,254.654968 185.353149,258.214233 185.940018,262.296417 
z"/>
<path fill="#A74343" opacity="1.000000" stroke="none" 
	d="
M346.863586,265.738281 
	C346.116119,276.227020 344.507812,286.041443 339.758179,295.056854 
	C334.898956,304.280334 327.579407,310.071136 316.809021,310.047241 
	C306.088104,310.023468 298.608521,304.421936 293.840607,295.110199 
	C286.366882,280.514038 285.775391,264.755280 286.585663,248.860855 
	C287.121490,238.349991 288.736511,228.043030 293.879425,218.576721 
	C298.834137,209.456909 306.389801,204.246201 316.730255,204.207138 
	C327.326202,204.167084 334.976868,209.583847 339.835541,218.945190 
	C346.339172,231.475693 347.072083,245.064667 347.078949,258.777863 
	C347.080048,260.940979 346.952606,263.104126 346.863586,265.738281 
M308.747681,265.825378 
	C309.877594,266.514191 310.942749,267.356232 312.148468,267.865692 
	C317.849640,270.274811 324.106293,268.154297 327.271790,262.829803 
	C330.678680,257.099274 329.264069,248.466843 324.301971,244.707016 
	C319.275391,240.898315 312.372925,241.373413 307.910156,245.835266 
	C302.966156,250.778244 303.088226,258.770813 308.747681,265.825378 
z"/>
<path fill="#FDFBFB" opacity="1.000000" stroke="none" 
	d="
M185.760986,261.959137 
	C185.353149,258.214233 184.381760,254.654968 185.040543,251.428574 
	C186.734528,243.132401 196.436813,239.532242 203.529968,244.155548 
	C208.081543,247.122223 210.048187,252.415192 208.801041,258.688202 
	C207.759827,263.925385 204.569748,267.391571 199.396805,268.527161 
	C193.500320,269.821564 189.054977,267.337555 185.760986,261.959137 
z"/>
<path fill="#FDFBFB" opacity="1.000000" stroke="none" 
	d="
M308.477600,265.566650 
	C303.088226,258.770813 302.966156,250.778244 307.910156,245.835266 
	C312.372925,241.373413 319.275391,240.898315 324.301971,244.707016 
	C329.264069,248.466843 330.678680,257.099274 327.271790,262.829803 
	C324.106293,268.154297 317.849640,270.274811 312.148468,267.865692 
	C310.942749,267.356232 309.877594,266.514191 308.477600,265.566650 
z"/>
</svg>