<svg version="1.1" id="Layer_1" xmlns="http://www.w3.org/2000/svg" xmlns:xlink="http://www.w3.org/1999/xlink" x="0px" y="0px"
	 width="100%" viewBox="0 0 512 512" enable-background="new 0 0 512 512" xml:space="preserve">
<path fill="#A64141" opacity="1.000000" stroke="none" 
	d="
M289.000000,513.000000 
	C267.979095,513.000000 246.958206,513.000000 225.565491,512.588318 
	C219.137909,511.092926 213.028915,510.243988 207.035675,508.884674 
	C181.447769,503.081207 156.814194,494.776245 133.709274,482.010193 
	C103.931793,465.557404 78.561996,444.078461 57.126324,417.723267 
	C38.738091,395.114929 24.821869,370.036682 15.115820,342.655029 
	C9.182377,325.916260 4.755767,308.741119 2.900840,290.990021 
	C2.825430,290.268372 1.658420,289.660736 0.999997,289.000000 
	C1.000000,267.979095 1.000000,246.958206 1.411656,225.565491 
	C2.907060,219.137909 3.756008,213.028900 5.115312,207.035645 
	C10.918778,181.447708 19.223753,156.814087 31.989815,133.709167 
	C48.442635,103.931679 69.921654,78.561852 96.276871,57.126209 
	C118.885246,38.738026 143.963562,24.822012 171.345139,15.115684 
	C188.083878,9.182062 205.259033,4.756131 223.009979,2.900840 
	C223.731659,2.825412 224.339249,1.658418 225.000000,0.999997 
	C246.020889,1.000000 267.041779,1.000000 288.434509,1.411656 
	C294.852997,2.906377 300.949921,3.765685 306.937561,5.111351 
	C332.505951,10.857585 357.052277,19.279509 380.155914,31.945833 
	C410.110382,48.368046 435.489929,70.020287 457.003296,96.440193 
	C475.480591,119.131622 489.309662,144.380142 499.018707,171.905258 
	C504.868866,188.490448 509.207336,205.468140 511.099060,223.014786 
	C511.176849,223.736450 512.341614,224.340927 513.000000,225.000000 
	C513.000000,246.020889 513.000000,267.041779 512.588379,288.434509 
	C511.092926,294.862030 510.243896,300.970886 508.884705,306.964081 
	C503.081635,332.552063 494.776276,357.185394 482.010406,380.290283 
	C465.557709,410.067902 444.078674,435.437744 417.723450,456.873474 
	C395.115082,475.261841 370.036774,489.178009 342.655121,498.884155 
	C325.916321,504.817657 308.741150,509.244263 290.989990,511.099121 
	C290.268311,511.174530 289.660736,512.341553 289.000000,513.000000 
M152.643494,235.126114 
	C152.214355,238.591354 151.602432,242.045242 151.386703,245.523727 
	C150.264771,263.613800 151.023666,281.481781 158.986557,298.238342 
	C166.394531,313.827087 178.490067,322.992462 196.078293,323.257172 
	C213.379074,323.517548 226.742462,315.549469 233.629135,299.921265 
	C246.149811,271.507568 246.974854,242.035202 233.690796,213.877228 
	C219.691986,184.204178 178.921692,182.731689 161.663788,210.684097 
	C157.334961,217.695450 155.709717,226.376007 152.643494,235.126114 
M40.376930,219.146561 
	C42.156139,217.652130 43.941261,216.164673 45.713562,214.662094 
	C53.884480,207.734726 62.931179,203.814087 74.036507,204.625458 
	C91.632149,205.911011 101.483574,219.133011 97.306725,236.431793 
	C95.171921,245.273300 90.741798,253.009186 84.570015,259.292480 
	C68.601585,275.549377 52.304321,291.502960 35.643227,307.046936 
	C31.072971,311.310730 30.631641,315.396881 31.688271,320.756348 
	C61.489365,320.756348 91.056091,320.756348 120.816772,320.756348 
	C120.816772,316.103790 120.816772,311.701569 120.816772,307.283386 
	C99.401642,307.283386 78.239357,307.283386 57.077072,307.283386 
	C56.652863,306.876648 56.228653,306.469910 55.804443,306.063171 
	C57.343266,305.118835 59.115265,304.416138 60.383972,303.191895 
	C70.448967,293.479462 80.643867,283.885406 90.350243,273.822327 
	C99.155418,264.693512 107.058670,254.770355 111.515442,242.638504 
	C119.287369,221.482391 109.682266,200.164795 89.455490,193.566986 
	C77.285820,189.597305 65.074577,190.093552 53.213707,194.433014 
	C44.414967,197.652161 37.180183,203.459702 30.577291,210.621445 
	C33.856365,213.715958 36.746681,216.443588 40.376930,219.146561 
M296.536560,213.651199 
	C301.821106,213.651199 307.105621,213.651199 312.599701,213.651199 
	C312.599701,245.101746 312.599701,275.989075 312.599701,307.477295 
	C300.397827,307.477295 288.479828,307.477295 276.493530,307.477295 
	C276.493530,312.301178 276.493530,316.519043 276.493530,320.614624 
	C305.412354,320.614624 333.966705,320.614624 362.539673,320.614624 
	C362.539673,316.141571 362.539673,312.065399 362.539673,307.244385 
	C351.369659,307.244385 340.500519,307.244385 329.154968,307.244385 
	C329.154968,268.920105 329.154968,231.344971 329.154968,192.206116 
	C323.023529,193.509033 317.627319,194.508072 312.313965,195.838257 
	C308.939728,196.683029 305.738953,198.211975 302.371307,199.093948 
	C296.462463,200.641403 290.485168,201.927734 284.609253,203.306396 
	C283.499512,213.651199 283.499512,213.651199 293.553833,213.651169 
	C294.220245,213.651169 294.886688,213.651169 296.536560,213.651199 
M405.582031,307.431702 
	C402.511475,307.431702 399.440887,307.431702 396.442688,307.431702 
	C396.442688,312.445435 396.442688,316.537781 396.442688,320.669678 
	C425.310425,320.669678 453.864899,320.669678 482.600708,320.669678 
	C482.600708,316.246429 482.600708,312.163055 482.600708,307.431152 
	C473.238556,307.431152 464.111267,307.207184 455.002991,307.526184 
	C450.490570,307.684235 449.084137,306.447601 449.113159,301.734467 
	C449.323334,267.581177 449.226013,233.425949 449.225983,199.271347 
	C449.225983,197.351547 449.225983,195.431763 449.225983,191.893570 
	C442.241821,193.594040 436.374664,194.904388 430.574127,196.462646 
	C421.935852,198.783249 413.344635,201.278915 404.637085,203.727188 
	C404.637085,206.620316 404.637085,209.850067 404.637085,213.787354 
	C414.221497,213.787354 423.428589,213.787354 432.637695,213.787354 
	C432.637695,245.266220 432.637695,276.020782 432.637695,307.431763 
	C423.779572,307.431763 415.169006,307.431763 405.582031,307.431702 
z"/>
<path fill="#ffffff" opacity="0" stroke="none" 
	d="
M513.000000,224.531342 
	C512.341614,224.340927 511.176849,223.736450 511.099060,223.014786 
	C509.207336,205.468140 504.868866,188.490448 499.018707,171.905258 
	C489.309662,144.380142 475.480591,119.131622 457.003296,96.440193 
	C435.489929,70.020287 410.110382,48.368046 380.155914,31.945833 
	C357.052277,19.279509 332.505951,10.857585 306.937561,5.111351 
	C300.949921,3.765685 294.852997,2.906377 288.903168,1.411656 
	C363.593719,1.000000 438.187408,1.000000 513.000000,1.000000 
	C513.000000,75.354088 513.000000,149.708389 513.000000,224.531342 
z"/>
<path fill="#ffffff" opacity="0" stroke="none" 
	d="
M224.531342,0.999997 
	C224.339249,1.658418 223.731659,2.825412 223.009979,2.900840 
	C205.259033,4.756131 188.083878,9.182062 171.345139,15.115684 
	C143.963562,24.822012 118.885246,38.738026 96.276871,57.126209 
	C69.921654,78.561852 48.442635,103.931679 31.989815,133.709167 
	C19.223753,156.814087 10.918778,181.447708 5.115312,207.035645 
	C3.756008,213.028900 2.907060,219.137909 1.411656,225.096832 
	C1.000000,150.406296 1.000000,75.812576 1.000000,1.000000 
	C75.354088,1.000000 149.708389,1.000000 224.531342,0.999997 
z"/>
<path fill="#ffffff" opacity="0" stroke="none" 
	d="
M0.999997,289.468658 
	C1.658420,289.660736 2.825430,290.268372 2.900840,290.990021 
	C4.755767,308.741119 9.182377,325.916260 15.115820,342.655029 
	C24.821869,370.036682 38.738091,395.114929 57.126324,417.723267 
	C78.561996,444.078461 103.931793,465.557404 133.709274,482.010193 
	C156.814194,494.776245 181.447769,503.081207 207.035675,508.884674 
	C213.028915,510.243988 219.137909,511.092926 225.096832,512.588318 
	C150.406296,513.000000 75.812599,513.000000 1.000000,513.000000 
	C1.000000,438.645905 1.000000,364.291626 0.999997,289.468658 
z"/>
<path fill="#ffffff" opacity="0" stroke="none" 
	d="
M289.468628,513.000000 
	C289.660736,512.341553 290.268311,511.174530 290.989990,511.099121 
	C308.741150,509.244263 325.916321,504.817657 342.655121,498.884155 
	C370.036774,489.178009 395.115082,475.261841 417.723450,456.873474 
	C444.078674,435.437744 465.557709,410.067902 482.010406,380.290283 
	C494.776276,357.185394 503.081635,332.552063 508.884705,306.964081 
	C510.243896,300.970886 511.092926,294.862030 512.588379,288.903198 
	C513.000000,363.593719 513.000000,438.187408 513.000000,513.000000 
	C438.645905,513.000000 364.291626,513.000000 289.468628,513.000000 
z"/>
<path fill="#FEFCFC" opacity="1.000000" stroke="none" 
	d="
M152.742722,234.707764 
	C155.709717,226.376007 157.334961,217.695450 161.663788,210.684097 
	C178.921692,182.731689 219.691986,184.204178 233.690796,213.877228 
	C246.974854,242.035202 246.149811,271.507568 233.629135,299.921265 
	C226.742462,315.549469 213.379074,323.517548 196.078293,323.257172 
	C178.490067,322.992462 166.394531,313.827087 158.986557,298.238342 
	C151.023666,281.481781 150.264771,263.613800 151.386703,245.523727 
	C151.602432,242.045242 152.214355,238.591354 152.742722,234.707764 
M167.783905,275.625885 
	C168.949219,284.500397 171.577255,292.848022 176.993561,300.098083 
	C183.292099,308.529083 193.482651,311.941467 203.632065,309.082916 
	C213.192978,306.390076 218.416824,299.250519 221.805588,290.579834 
	C227.844513,275.128296 227.738190,258.995483 226.384064,242.818222 
	C225.614929,233.629486 223.464111,224.756714 218.607407,216.758560 
	C211.419800,204.921768 197.481232,200.819962 185.187897,207.002197 
	C177.899475,210.667526 173.759735,217.108292 171.180237,224.488617 
	C165.448563,240.887863 165.311264,257.756256 167.783905,275.625885 
z"/>
<path fill="#FEFCFC" opacity="1.000000" stroke="none" 
	d="
M40.006966,219.158905 
	C36.746681,216.443588 33.856365,213.715958 30.577291,210.621445 
	C37.180183,203.459702 44.414967,197.652161 53.213707,194.433014 
	C65.074577,190.093552 77.285820,189.597305 89.455490,193.566986 
	C109.682266,200.164795 119.287369,221.482391 111.515442,242.638504 
	C107.058670,254.770355 99.155418,264.693512 90.350243,273.822327 
	C80.643867,283.885406 70.448967,293.479462 60.383972,303.191895 
	C59.115265,304.416138 57.343266,305.118835 55.804443,306.063171 
	C56.228653,306.469910 56.652863,306.876648 57.077072,307.283386 
	C78.239357,307.283386 99.401642,307.283386 120.816772,307.283386 
	C120.816772,311.701569 120.816772,316.103790 120.816772,320.756348 
	C91.056091,320.756348 61.489365,320.756348 31.688271,320.756348 
	C30.631641,315.396881 31.072971,311.310730 35.643227,307.046936 
	C52.304321,291.502960 68.601585,275.549377 84.570015,259.292480 
	C90.741798,253.009186 95.171921,245.273300 97.306725,236.431793 
	C101.483574,219.133011 91.632149,205.911011 74.036507,204.625458 
	C62.931179,203.814087 53.884480,207.734726 45.713562,214.662094 
	C43.941261,216.164673 42.156139,217.652130 40.006966,219.158905 
z"/>
<path fill="#FDFBFB" opacity="1.000000" stroke="none" 
	d="
M296.044830,213.651184 
	C294.886688,213.651169 294.220245,213.651169 293.553833,213.651169 
	C283.499512,213.651199 283.499512,213.651199 284.609253,203.306396 
	C290.485168,201.927734 296.462463,200.641403 302.371307,199.093948 
	C305.738953,198.211975 308.939728,196.683029 312.313965,195.838257 
	C317.627319,194.508072 323.023529,193.509033 329.154968,192.206116 
	C329.154968,231.344971 329.154968,268.920105 329.154968,307.244385 
	C340.500519,307.244385 351.369659,307.244385 362.539673,307.244385 
	C362.539673,312.065399 362.539673,316.141571 362.539673,320.614624 
	C333.966705,320.614624 305.412354,320.614624 276.493530,320.614624 
	C276.493530,316.519043 276.493530,312.301178 276.493530,307.477295 
	C288.479828,307.477295 300.397827,307.477295 312.599701,307.477295 
	C312.599701,275.989075 312.599701,245.101746 312.599701,213.651199 
	C307.105621,213.651199 301.821106,213.651199 296.044830,213.651184 
z"/>
<path fill="#FDFBFB" opacity="1.000000" stroke="none" 
	d="
M406.070251,307.431732 
	C415.169006,307.431763 423.779572,307.431763 432.637695,307.431763 
	C432.637695,276.020782 432.637695,245.266220 432.637695,213.787354 
	C423.428589,213.787354 414.221497,213.787354 404.637085,213.787354 
	C404.637085,209.850067 404.637085,206.620316 404.637085,203.727188 
	C413.344635,201.278915 421.935852,198.783249 430.574127,196.462646 
	C436.374664,194.904388 442.241821,193.594040 449.225983,191.893570 
	C449.225983,195.431763 449.225983,197.351547 449.225983,199.271347 
	C449.226013,233.425949 449.323334,267.581177 449.113159,301.734467 
	C449.084137,306.447601 450.490570,307.684235 455.002991,307.526184 
	C464.111267,307.207184 473.238556,307.431152 482.600708,307.431152 
	C482.600708,312.163055 482.600708,316.246429 482.600708,320.669678 
	C453.864899,320.669678 425.310425,320.669678 396.442688,320.669678 
	C396.442688,316.537781 396.442688,312.445435 396.442688,307.431702 
	C399.440887,307.431702 402.511475,307.431702 406.070251,307.431732 
z"/>
<path fill="#A74343" opacity="1.000000" stroke="none" 
	d="
M167.700989,275.194519 
	C165.311264,257.756256 165.448563,240.887863 171.180237,224.488617 
	C173.759735,217.108292 177.899475,210.667526 185.187897,207.002197 
	C197.481232,200.819962 211.419800,204.921768 218.607407,216.758560 
	C223.464111,224.756714 225.614929,233.629486 226.384064,242.818222 
	C227.738190,258.995483 227.844513,275.128296 221.805588,290.579834 
	C218.416824,299.250519 213.192978,306.390076 203.632065,309.082916 
	C193.482651,311.941467 183.292099,308.529083 176.993561,300.098083 
	C171.577255,292.848022 168.949219,284.500397 167.700989,275.194519 
M191.274658,267.496704 
	C198.221054,269.998657 204.054932,268.285797 207.294937,262.793030 
	C210.561935,257.254517 209.308456,248.769989 204.664673,244.989105 
	C199.908813,241.116974 193.381561,241.268417 188.609909,245.173752 
	C182.543808,250.138519 182.687164,262.877594 191.274658,267.496704 
z"/>
<path fill="#FDFBFB" opacity="1.000000" stroke="none" 
	d="
M190.942276,267.307709 
	C182.687164,262.877594 182.543808,250.138519 188.609909,245.173752 
	C193.381561,241.268417 199.908813,241.116974 204.664673,244.989105 
	C209.308456,248.769989 210.561935,257.254517 207.294937,262.793030 
	C204.054932,268.285797 198.221054,269.998657 190.942276,267.307709 
z"/>
</svg>