<svg version="1.1" id="Layer_1" xmlns="http://www.w3.org/2000/svg" xmlns:xlink="http://www.w3.org/1999/xlink" x="0px" y="0px"
	 width="100%" viewBox="0 0 512 512" enable-background="new 0 0 512 512" xml:space="preserve">
<path fill="#BFAE9F" opacity="1.000000" stroke="none" 
	d="
M289.000000,513.000000 
	C267.979095,513.000000 246.958206,513.000000 225.802551,512.663757 
	C224.827744,511.888245 224.026520,511.182129 223.141357,511.053497 
	C217.805923,510.277954 212.359070,510.047638 207.118698,508.877258 
	C181.537796,503.163910 156.975479,494.766754 133.859360,482.079987 
	C106.138145,466.865784 82.287651,447.139099 61.715561,423.246399 
	C45.959770,404.947388 33.173195,384.811584 23.304434,362.770538 
	C13.016696,339.793732 5.795760,315.983643 2.917268,290.913116 
	C2.836683,290.211273 1.663635,289.634888 0.999998,289.000000 
	C1.000000,267.979095 1.000000,246.958206 1.336231,225.802551 
	C2.101964,224.995071 2.788501,224.369385 2.921394,223.642456 
	C4.323793,215.971512 5.473532,208.251480 7.006208,200.607788 
	C12.285183,174.280777 22.404694,149.805267 35.915096,126.706688 
	C50.472992,101.817215 69.077560,80.325508 90.915482,61.521320 
	C105.825905,48.682266 122.047043,37.846844 139.513306,28.907297 
	C165.849518,15.427950 193.586349,6.309246 223.092026,2.917479 
	C223.792236,2.836988 224.366821,1.663625 225.000000,1.000003 
	C246.020889,1.000000 267.041779,1.000000 288.197449,1.336225 
	C293.347687,2.772715 298.321014,4.147220 303.385864,4.926347 
	C326.821716,8.531473 348.915955,16.352690 370.092865,26.674652 
	C401.573700,42.018902 428.554016,63.246555 451.453339,89.830421 
	C467.106232,108.001884 479.954926,127.836319 489.945587,149.594452 
	C500.707001,173.031128 508.135437,197.407562 511.082733,223.092087 
	C511.163086,223.792175 512.336365,224.366852 513.000000,225.000000 
	C513.000000,246.020889 513.000000,267.041779 512.663757,288.197449 
	C511.888245,289.172272 511.182129,289.973572 511.053497,290.858795 
	C510.277954,296.194000 510.046967,301.640472 508.877411,306.880890 
	C503.167175,332.466278 494.763611,357.030701 482.076965,380.148956 
	C466.864746,407.869476 447.137421,431.720245 423.241821,452.287872 
	C404.941711,468.039276 384.808044,480.828796 362.768127,490.697083 
	C339.792297,500.984375 315.982666,508.204590 290.912994,511.082703 
	C290.211212,511.163269 289.634857,512.336365 289.000000,513.000000 
M306.080902,293.067352 
	C306.080902,293.067352 306.281281,293.263672 306.206757,294.021851 
	C305.954834,295.469635 305.481201,296.918945 305.490967,298.364960 
	C305.525665,303.517303 305.800171,308.668488 305.800385,313.820129 
	C305.800415,314.896881 305.283997,316.219788 304.552704,317.010254 
	C299.967377,321.966644 295.439911,326.982330 288.079987,327.905914 
	C285.665070,328.208954 283.361298,329.397919 281.006714,330.181763 
	C281.114563,330.923218 281.222443,331.664642 281.330292,332.406097 
	C283.553894,332.406097 285.798035,332.595764 287.995972,332.358276 
	C290.774170,332.058075 293.497314,331.253418 296.275146,330.943481 
	C302.691467,330.227539 309.117340,329.313629 315.556122,329.153412 
	C323.795258,328.948486 332.056152,329.278107 340.297699,329.618530 
	C346.654297,329.881104 352.991760,330.625549 359.348419,330.842468 
	C360.126892,330.869049 360.971619,328.954926 361.785614,327.940155 
	C360.743073,327.246124 359.702820,325.973877 358.657501,325.969696 
	C355.854858,325.958496 353.048645,326.764282 350.246429,326.749542 
	C344.328857,326.718475 337.742371,320.987396 337.066193,315.208344 
	C336.488037,310.267456 336.017700,305.267700 336.106537,300.304810 
	C336.287567,290.192841 337.135651,280.090057 337.207947,269.979919 
	C337.255615,263.311035 334.901367,256.446533 339.018066,251.723785 
	C338.147797,248.489456 337.112671,246.370071 337.103485,244.246216 
	C337.084717,239.907776 337.908539,235.563950 337.863861,231.227707 
	C337.766754,221.798126 337.394958,212.369904 337.031830,202.945099 
	C336.820892,197.469849 335.872925,191.804382 342.415070,188.933060 
	C342.639862,188.834396 342.579041,188.085022 342.720551,187.212234 
	C340.861298,187.836014 339.304077,188.358475 337.121429,189.090775 
	C337.121429,187.071503 337.264221,185.616669 337.080292,184.204391 
	C336.904816,182.857010 336.388855,181.553970 336.022614,180.231430 
	C334.643005,180.833176 333.188416,181.306931 331.899017,182.062622 
	C328.975464,183.776047 326.343079,186.519974 323.218231,187.255219 
	C314.201965,189.376678 305.016815,190.811752 295.862274,192.296082 
	C292.952606,192.767868 289.833313,192.133972 286.997162,192.801468 
	C285.315857,193.197159 284.000305,195.146942 282.520294,196.397934 
	C284.226196,196.999039 285.904724,197.998749 287.643738,198.118332 
	C291.274811,198.368057 295.080780,197.547928 298.532318,198.363434 
	C300.499695,198.828262 303.092438,201.510635 303.321381,203.441437 
	C303.777466,207.286728 302.796326,211.302460 302.373016,215.613235 
	C302.747040,215.596619 304.032227,215.539505 306.211060,215.442673 
	C304.065674,218.425629 302.427979,220.702682 300.790253,222.979736 
	C301.064484,223.192551 301.338715,223.405365 301.612946,223.618164 
	C303.070679,223.103607 304.528412,222.589050 306.572205,221.867615 
	C306.702698,224.152390 306.953979,225.925751 306.875732,227.684479 
	C306.661682,232.495697 305.905060,237.316956 306.097351,242.104767 
	C306.467072,251.310684 308.330383,260.565704 307.690186,269.667847 
	C307.196899,276.681702 308.442047,284.310608 304.310120,290.896667 
	C304.162292,291.132324 305.328888,292.192688 306.080902,293.067352 
M189.457108,315.896881 
	C192.507492,319.177277 195.355728,322.677948 198.645859,325.697113 
	C208.849655,335.060547 215.887344,335.731171 227.878357,328.934601 
	C228.690506,328.474304 229.765472,328.208710 230.693512,328.264374 
	C238.202560,328.714905 243.915833,323.832458 247.894836,319.338440 
	C259.494812,306.236908 269.419250,291.807648 269.216522,272.984100 
	C269.166595,268.349304 269.656494,263.710632 269.827850,259.071106 
	C270.053650,252.958984 270.209900,246.844299 270.303131,243.782562 
	C269.227692,240.924438 268.470337,239.400330 268.087311,237.787323 
	C267.388885,234.845856 267.401611,231.646286 266.255524,228.916336 
	C262.075287,218.958923 257.584137,209.130371 253.097000,199.304916 
	C252.251541,197.453659 251.206436,195.468613 249.707916,194.179413 
	C243.162750,188.548599 235.727524,184.576538 227.281662,182.384216 
	C221.280243,180.826401 215.396973,178.890991 209.646271,182.795456 
	C201.845581,188.091766 193.368576,192.613800 187.829041,200.641068 
	C184.450775,205.536469 180.254333,210.217896 178.316559,215.667862 
	C175.903503,222.454559 171.087479,228.697418 172.098373,236.559647 
	C172.195282,237.313309 171.859314,238.275772 171.408539,238.920547 
	C169.327515,241.897232 168.934357,244.424576 169.730453,248.512009 
	C171.317261,256.659210 170.623856,265.247467 170.911896,273.652222 
	C171.029312,277.078888 170.271118,280.957062 171.611313,283.839355 
	C175.266968,291.701324 179.802841,299.156433 184.043686,306.742706 
	C185.653412,309.622284 187.409897,312.419800 189.457108,315.896881 
M148.892212,289.161652 
	C148.980225,293.788605 147.596588,298.140839 143.584244,300.374939 
	C137.436203,303.798187 130.713791,305.196716 123.438889,305.013397 
	C108.211967,304.629608 93.703415,297.082245 78.131317,300.911102 
	C78.265572,293.536377 83.283363,286.611053 89.310364,282.121582 
	C99.795197,274.311432 111.641678,270.772858 124.160713,268.154541 
	C133.092255,266.286530 141.954285,263.050903 147.390182,255.071182 
	C150.362793,250.707504 152.256851,245.455383 153.889328,240.364105 
	C157.432220,229.314697 156.610916,218.159302 152.151703,207.618439 
	C149.427048,201.177826 145.256256,195.345001 141.689941,189.265610 
	C138.495102,183.819458 133.821426,181.060699 127.383537,181.328583 
	C124.735710,181.438766 122.022896,181.422546 119.421211,180.982040 
	C96.229622,177.055420 72.791733,193.300644 68.887108,216.482117 
	C68.108658,221.103729 68.560936,226.022263 69.037003,230.744278 
	C69.727745,237.595444 72.874908,243.407898 78.092842,247.952225 
	C82.028465,251.379776 86.135620,250.551086 89.995819,247.802734 
	C94.014893,244.941269 97.298256,236.774734 95.836777,233.566010 
	C92.610336,226.482361 87.319122,222.415726 79.355362,221.572479 
	C77.155563,221.339554 73.346489,219.197067 73.382179,218.025345 
	C73.512306,213.753098 73.732231,208.551239 76.165283,205.479492 
	C80.936584,199.455734 86.963501,194.320633 92.939575,189.385422 
	C99.552559,183.924179 107.566521,183.521606 115.526360,185.542252 
	C117.810738,186.122162 120.308678,188.287048 121.477493,190.404739 
	C125.947304,198.503265 128.287476,207.375870 127.657539,216.620438 
	C127.095589,224.867279 125.263443,233.022003 124.549362,241.265671 
	C123.867775,249.134323 119.064819,254.221893 113.514503,258.631195 
	C109.649673,261.701477 105.002342,263.810272 100.631073,266.214966 
	C89.356461,272.417267 79.632904,279.974396 75.052650,292.735687 
	C71.545235,302.507874 71.122818,312.570892 71.390175,322.731720 
	C71.416359,323.726929 73.116081,324.678070 74.039009,325.649689 
	C74.696297,324.645447 75.752052,323.704498 75.923767,322.623169 
	C76.233368,320.673401 75.907974,318.632874 76.034523,316.642151 
	C76.480057,309.633453 81.933868,304.760223 88.873169,304.984863 
	C96.517052,305.232269 100.333939,310.228912 103.017876,316.461151 
	C104.591988,320.116302 104.050850,324.631195 108.699554,326.899536 
	C113.150368,329.071350 116.893471,333.082092 121.494370,334.463104 
	C127.775993,336.348602 141.027481,329.386292 144.161591,323.340179 
	C147.273605,317.336700 151.549881,311.811249 151.667084,304.475708 
	C151.788025,296.905945 152.559998,289.348053 152.830795,281.777222 
	C152.861328,280.923035 151.489746,280.018707 150.768372,279.137634 
	C150.174728,280.013947 149.189590,280.838959 149.066650,281.776917 
	C148.787216,283.908844 148.931503,286.096283 148.892212,289.161652 
M422.673859,194.752121 
	C424.606415,192.227081 426.538940,189.702042 428.471497,187.177017 
	C428.275177,187.016418 428.078857,186.855820 427.882568,186.695236 
	C426.355164,187.453278 424.827759,188.211319 422.586304,189.323761 
	C422.461945,187.368607 422.496033,186.122101 422.278412,184.921204 
	C421.989227,183.325455 421.503784,181.765259 421.102661,180.189789 
	C419.658905,181.024963 418.164032,181.784180 416.783875,182.713776 
	C414.882294,183.994598 413.237823,186.172684 411.186371,186.627548 
	C401.481445,188.779495 391.696198,190.597168 381.894165,192.267578 
	C378.503845,192.845352 374.927094,192.349258 371.548218,192.963654 
	C370.207123,193.207520 369.172150,195.134689 367.997803,196.295456 
	C369.485382,196.957275 370.942566,198.087158 372.466705,198.186111 
	C375.930450,198.411011 379.430573,197.997299 382.909485,198.088196 
	C386.861298,198.191437 388.628418,200.090729 388.902283,204.357559 
	C389.160004,208.372742 389.923157,212.152237 384.978943,215.700714 
	C388.088379,215.700714 389.368225,215.700714 391.521027,215.700714 
	C389.334747,218.569229 387.646790,220.783951 385.958801,222.998657 
	C386.242798,223.244705 386.526794,223.490738 386.810822,223.736771 
	C388.271149,223.193665 389.731476,222.650543 391.793732,221.883560 
	C391.912323,224.189438 392.133698,225.956589 392.068756,227.713165 
	C391.884918,232.684998 391.198456,237.670364 391.427704,242.617142 
	C391.706482,248.633133 393.914856,254.579361 391.374481,260.645386 
	C390.957703,261.640564 391.769257,263.154999 392.026886,264.426636 
	C392.419067,266.362366 393.322418,268.345673 393.134460,270.221130 
	C392.391815,277.632172 391.308563,285.009033 390.293518,292.847351 
	C390.332611,292.901367 391.292145,293.655426 391.433197,294.540009 
	C391.733093,296.420776 391.703369,298.372711 391.637421,300.289581 
	C391.469940,305.155365 391.227661,310.018921 390.960358,314.880371 
	C390.925262,315.518799 390.765350,316.398438 390.330719,316.728790 
	C385.468842,320.423950 382.504242,326.651215 375.344482,327.345734 
	C372.260895,327.644867 369.291931,329.125122 366.270874,330.068817 
	C366.362915,330.859741 366.454926,331.650635 366.546967,332.441559 
	C368.748352,332.441559 370.970825,332.633484 373.145966,332.394623 
	C376.089508,332.071381 378.979828,331.266602 381.923065,330.936707 
	C388.175964,330.235809 394.439362,329.355682 400.714844,329.196808 
	C408.959045,328.988098 417.224548,329.266083 425.470520,329.594482 
	C431.828705,329.847687 438.167145,330.608398 444.525360,330.836060 
	C445.292114,330.863495 446.127686,328.969391 446.931366,327.965881 
	C445.992462,327.298645 445.061249,326.083984 444.113159,326.070679 
	C441.638214,326.035950 439.160950,326.703400 436.675568,326.774261 
	C430.164581,326.960022 423.236450,321.542816 422.357849,315.224731 
	C421.676605,310.325745 421.333466,305.326202 421.433624,300.383362 
	C421.641144,290.139526 422.599915,279.902161 422.555298,269.665161 
	C422.526825,263.122864 420.293304,256.474396 423.798157,252.411057 
	C422.851227,246.020386 420.875793,241.054077 421.740845,236.645050 
	C423.183777,229.290283 423.392426,222.239578 422.567444,214.839279 
	C421.859161,208.485306 422.531158,201.977463 422.673859,194.752121 
z"/>
<path fill="#FFFFFF" opacity="1.000000" stroke="none" 
	d="
M513.000000,224.531342 
	C512.336365,224.366852 511.163086,223.792175 511.082733,223.092087 
	C508.135437,197.407562 500.707001,173.031128 489.945587,149.594452 
	C479.954926,127.836319 467.106232,108.001884 451.453339,89.830421 
	C428.554016,63.246555 401.573700,42.018902 370.092865,26.674652 
	C348.915955,16.352690 326.821716,8.531473 303.385864,4.926347 
	C298.321014,4.147220 293.347687,2.772715 288.666107,1.336225 
	C363.593719,1.000000 438.187408,1.000000 513.000000,1.000000 
	C513.000000,75.354088 513.000000,149.708389 513.000000,224.531342 
z"/>
<path fill="#FFFFFF" opacity="1.000000" stroke="none" 
	d="
M224.531342,1.000003 
	C224.366821,1.663625 223.792236,2.836988 223.092026,2.917479 
	C193.586349,6.309246 165.849518,15.427950 139.513306,28.907297 
	C122.047043,37.846844 105.825905,48.682266 90.915482,61.521320 
	C69.077560,80.325508 50.472992,101.817215 35.915096,126.706688 
	C22.404694,149.805267 12.285183,174.280777 7.006208,200.607788 
	C5.473532,208.251480 4.323793,215.971512 2.921394,223.642456 
	C2.788501,224.369385 2.101964,224.995071 1.336231,225.333893 
	C1.000000,150.406296 1.000000,75.812576 1.000000,1.000000 
	C75.354088,1.000000 149.708389,1.000000 224.531342,1.000003 
z"/>
<path fill="#FFFFFF" opacity="1.000000" stroke="none" 
	d="
M0.999998,289.468658 
	C1.663635,289.634888 2.836683,290.211273 2.917268,290.913116 
	C5.795760,315.983643 13.016696,339.793732 23.304434,362.770538 
	C33.173195,384.811584 45.959770,404.947388 61.715561,423.246399 
	C82.287651,447.139099 106.138145,466.865784 133.859360,482.079987 
	C156.975479,494.766754 181.537796,503.163910 207.118698,508.877258 
	C212.359070,510.047638 217.805923,510.277954 223.141357,511.053497 
	C224.026520,511.182129 224.827744,511.888245 225.333893,512.663757 
	C150.406296,513.000000 75.812599,513.000000 1.000000,513.000000 
	C1.000000,438.645905 1.000000,364.291626 0.999998,289.468658 
z"/>
<path fill="#FFFFFF" opacity="1.000000" stroke="none" 
	d="
M289.468658,513.000000 
	C289.634857,512.336365 290.211212,511.163269 290.912994,511.082703 
	C315.982666,508.204590 339.792297,500.984375 362.768127,490.697083 
	C384.808044,480.828796 404.941711,468.039276 423.241821,452.287872 
	C447.137421,431.720245 466.864746,407.869476 482.076965,380.148956 
	C494.763611,357.030701 503.167175,332.466278 508.877411,306.880890 
	C510.046967,301.640472 510.277954,296.194000 511.053497,290.858795 
	C511.182129,289.973572 511.888245,289.172272 512.663757,288.666107 
	C513.000000,363.593719 513.000000,438.187408 513.000000,513.000000 
	C438.645905,513.000000 364.291626,513.000000 289.468658,513.000000 
z"/>
<path fill="#FBFAF9" opacity="1.000000" stroke="none" 
	d="
M189.278290,315.575806 
	C187.409897,312.419800 185.653412,309.622284 184.043686,306.742706 
	C179.802841,299.156433 175.266968,291.701324 171.611313,283.839355 
	C170.271118,280.957062 171.029312,277.078888 170.911896,273.652222 
	C170.623856,265.247467 171.317261,256.659210 169.730453,248.512009 
	C168.934357,244.424576 169.327515,241.897232 171.408539,238.920547 
	C171.859314,238.275772 172.195282,237.313309 172.098373,236.559647 
	C171.087479,228.697418 175.903503,222.454559 178.316559,215.667862 
	C180.254333,210.217896 184.450775,205.536469 187.829041,200.641068 
	C193.368576,192.613800 201.845581,188.091766 209.646271,182.795456 
	C215.396973,178.890991 221.280243,180.826401 227.281662,182.384216 
	C235.727524,184.576538 243.162750,188.548599 249.707916,194.179413 
	C251.206436,195.468613 252.251541,197.453659 253.097000,199.304916 
	C257.584137,209.130371 262.075287,218.958923 266.255524,228.916336 
	C267.401611,231.646286 267.388885,234.845856 268.087311,237.787323 
	C268.470337,239.400330 269.227692,240.924438 270.303131,243.782562 
	C270.209900,246.844299 270.053650,252.958984 269.827850,259.071106 
	C269.656494,263.710632 269.166595,268.349304 269.216522,272.984100 
	C269.419250,291.807648 259.494812,306.236908 247.894836,319.338440 
	C243.915833,323.832458 238.202560,328.714905 230.693512,328.264374 
	C229.765472,328.208710 228.690506,328.474304 227.878357,328.934601 
	C215.887344,335.731171 208.849655,335.060547 198.645859,325.697113 
	C195.355728,322.677948 192.507492,319.177277 189.278290,315.575806 
M188.618286,213.049850 
	C188.823807,213.106018 189.029327,213.162186 189.474731,213.018158 
	C189.278580,212.968781 189.082443,212.919388 188.618286,213.049850 
M257.966675,222.059479 
	C258.430176,220.872070 258.893646,219.684647 259.357117,218.497223 
	C259.033142,218.367310 258.709167,218.237396 258.385162,218.107483 
	C257.851990,219.339249 257.318848,220.571014 256.396118,222.074600 
	C256.158875,222.294373 255.983887,222.555801 255.217514,223.090317 
	C253.848663,223.964203 252.319382,224.666107 251.151642,225.755539 
	C249.694412,227.115021 249.311111,228.578018 252.187073,229.677811 
	C251.929108,230.625580 251.671143,231.573349 251.413193,232.521103 
	C251.762100,232.769058 252.111023,233.016998 252.459946,233.264938 
	C255.580414,230.613556 258.700897,227.962173 261.821350,225.310791 
	C261.494446,224.899414 261.167542,224.488052 260.840637,224.076675 
	C257.893066,225.726334 254.945496,227.375992 252.064178,228.365372 
	C253.491943,226.691971 254.919708,225.018570 256.735413,223.086212 
	C256.992767,222.905518 257.218048,222.691086 257.966675,222.059479 
M250.746002,309.051941 
	C251.146805,307.733734 251.547607,306.415527 251.992218,304.467407 
	C252.023972,304.048340 252.055725,303.629303 252.271652,302.538666 
	C253.423553,301.434875 254.488327,300.218506 255.742905,299.247314 
	C260.447937,295.605133 263.957764,291.311188 263.970367,285.005707 
	C263.970367,285.005707 263.996857,285.045593 264.507202,284.673798 
	C264.686737,284.068268 264.866272,283.462738 265.096069,282.609985 
	C265.096069,282.609985 265.115906,282.358429 265.344055,281.535919 
	C265.475464,277.901703 268.734589,273.477661 262.770966,271.312500 
	C262.617462,271.256775 262.966064,269.818115 263.740448,268.976196 
	C264.289062,268.380219 265.266113,267.818695 265.317200,267.182739 
	C265.665894,262.844849 266.049957,258.487640 265.980408,254.143738 
	C265.886475,248.278839 265.623444,242.372559 262.772919,236.366776 
	C263.177460,234.562866 263.581970,232.758957 264.197845,230.012589 
	C258.836151,233.046326 254.436844,235.535538 249.352890,238.174728 
	C246.327759,239.892319 242.643616,241.115326 242.674164,245.126175 
	C243.160492,245.493744 243.646805,245.861298 244.133118,246.228867 
	C246.084427,243.476685 248.035736,240.724503 250.782043,238.091034 
	C252.305267,238.709290 253.828491,239.327545 254.684555,240.362625 
	C251.555832,243.045395 248.426773,245.727768 245.298447,248.411011 
	C240.936203,252.152634 240.723343,254.021713 244.037399,258.538544 
	C242.924988,260.271210 241.836700,261.966309 241.095840,263.120270 
	C243.424606,264.620819 245.215698,265.774933 247.443222,267.210266 
	C244.869553,269.259979 242.506882,270.356537 241.469849,272.199188 
	C240.525345,273.877380 240.862701,276.380554 241.066071,278.478302 
	C241.093399,278.760284 243.642380,278.797821 245.019699,279.667053 
	C243.896225,280.811981 242.752518,281.937836 241.653030,283.105377 
	C238.296524,286.669708 238.111526,289.862976 240.750931,292.303467 
	C239.665222,296.392975 238.146820,300.237000 237.760147,304.191711 
	C237.476151,307.096283 238.674835,310.145844 239.118866,312.609711 
	C236.976578,315.798798 234.911072,318.873627 232.845551,321.948456 
	C233.307892,322.321564 233.770248,322.694641 234.232605,323.067719 
	C235.113678,322.303772 236.049545,321.593658 236.864212,320.764465 
	C238.474426,319.125580 240.416855,315.753357 241.522629,316.018097 
	C247.934021,317.553375 247.437790,311.535797 249.982620,309.001404 
	C249.982620,309.001404 249.999649,309.044586 250.746002,309.051941 
M242.047791,202.048599 
	C242.047791,202.048599 242.164124,202.184525 241.677261,202.645889 
	C236.515060,204.913925 241.073212,206.546478 241.167923,207.381897 
	C244.535416,206.519180 247.257217,205.821884 250.311539,205.039398 
	C249.236786,203.276093 248.417221,200.324295 246.571899,199.382706 
	C244.921829,198.540710 242.140396,199.915924 239.858170,200.312836 
	C239.936386,200.778778 240.014603,201.244720 240.092819,201.710663 
	C240.706100,201.777664 241.319366,201.844666 242.047791,202.048599 
M179.986435,246.987640 
	C179.986435,246.987640 179.958542,246.958298 180.057007,247.667206 
	C178.365509,249.449661 176.526382,251.116318 175.016418,253.041199 
	C172.630386,256.082855 173.531998,260.629242 176.229568,261.135681 
	C176.229568,259.223846 175.431213,256.556244 176.398834,255.487473 
	C178.305313,253.381775 181.377487,252.389252 183.635452,250.532486 
	C189.116211,246.025574 198.989716,246.496918 199.038361,235.686829 
	C199.066910,229.341492 201.125397,223.005280 202.328735,216.344315 
	C200.344482,216.669067 199.300018,216.840012 197.881149,217.072250 
	C199.883743,214.454453 201.514053,212.323273 203.144379,210.192108 
	C202.758575,209.780334 202.372757,209.368576 201.986954,208.956802 
	C193.839813,213.857895 185.539230,218.545975 179.470047,226.397705 
	C180.123535,226.869446 180.745148,227.318176 181.381149,227.777298 
	C177.398529,231.429947 173.607864,244.720764 175.509796,248.792877 
	C176.999420,248.205612 178.505646,247.611816 179.986435,246.987640 
M184.986298,286.284454 
	C183.784149,286.804016 182.582001,287.323547 180.640152,288.142548 
	C176.924011,292.067963 179.925995,294.879303 182.189224,298.324402 
	C184.046616,297.197266 185.633270,296.234406 187.219910,295.271545 
	C187.294235,296.972595 186.454758,297.929108 185.877640,299.023895 
	C185.287903,300.142609 184.955597,301.397034 184.510574,302.592041 
	C185.810394,302.567841 187.170029,302.779327 188.396988,302.467987 
	C190.614975,301.905121 192.753738,301.030060 194.925568,300.285370 
	C195.140961,300.744385 195.356354,301.203430 195.571747,301.662445 
	C193.063187,303.263214 190.554642,304.864014 187.776337,306.636902 
	C191.007538,317.198761 199.375046,322.745026 208.061920,328.538452 
	C208.335159,328.558350 208.608398,328.578247 208.881638,328.598175 
	C208.681122,328.291473 208.480606,327.984802 208.051743,327.010071 
	C205.484207,321.980896 202.916672,316.951691 200.100067,311.434631 
	C200.244186,311.004974 201.688995,309.002319 201.243561,307.600128 
	C199.818451,303.114166 198.712616,298.844879 200.184219,294.099762 
	C200.790268,292.145599 200.519547,289.836548 200.297714,287.725708 
	C199.818924,283.169922 197.355011,277.872284 198.919540,274.278259 
	C201.183716,269.076935 200.049454,264.218201 200.672668,259.253967 
	C201.164520,255.336166 200.667404,252.069565 196.563293,250.883270 
	C197.906067,248.750885 199.097473,246.858856 200.288895,244.966827 
	C199.723740,244.518112 199.158585,244.069397 198.593430,243.620682 
	C195.808426,246.057037 193.223312,248.786469 190.188263,250.856155 
	C186.323090,253.491959 188.465500,254.618500 191.972412,256.033081 
	C188.457855,258.076569 185.631561,259.719910 182.623383,261.468964 
	C183.964615,263.490082 184.932022,264.947876 185.957825,266.493622 
	C184.398178,267.641876 183.007858,268.537933 181.762527,269.603485 
	C174.892975,275.481293 174.905106,275.495483 179.302979,282.005951 
	C179.154755,282.562347 179.006531,283.118774 178.858292,283.675171 
	C179.337509,283.202972 179.816727,282.730804 181.008621,282.191193 
	C185.320374,285.378632 186.699142,278.047546 191.462753,279.614044 
	C189.229416,282.044983 187.371994,284.066711 184.986298,286.284454 
M204.432678,298.748901 
	C203.378815,308.665253 204.447067,318.092896 211.612900,325.728516 
	C213.007355,327.214417 215.608505,328.598877 217.492325,328.411774 
	C224.728226,327.693115 230.723740,321.862366 231.972855,314.535858 
	C232.999130,308.516388 232.992706,302.292572 234.353760,296.368317 
	C235.278381,292.343811 236.680008,289.043457 231.086731,287.942841 
	C236.708145,278.590637 236.708145,278.590637 232.486420,275.565094 
	C233.336960,274.208313 234.119965,272.803131 235.050781,271.503845 
	C237.777084,267.698334 236.312469,263.373718 236.873901,259.326202 
	C238.420609,248.175323 240.682297,237.077927 238.691971,225.862183 
	C236.742783,214.878098 234.136322,203.999878 231.495682,193.153748 
	C230.145935,187.609818 224.947968,186.713684 220.449371,186.342911 
	C216.093674,185.983917 213.192276,189.125870 211.380203,193.033203 
	C209.287415,197.545853 208.453888,202.618668 207.424377,207.248505 
	C205.145050,217.498947 204.789490,228.226288 204.197144,238.789856 
	C203.508820,251.064667 203.194519,263.371216 203.128845,275.666168 
	C203.089188,283.089783 203.830582,290.517517 204.432678,298.748901 
M245.904282,219.507523 
	C244.645676,220.548004 243.387085,221.588486 242.128479,222.628967 
	C242.469772,223.052948 242.811066,223.476929 243.152359,223.900909 
	C246.853836,221.138870 250.555313,218.376816 253.303375,216.326218 
	C253.771790,213.648361 254.047089,212.074570 254.385086,210.142395 
	C252.735733,210.672012 251.280548,211.139267 249.271622,211.784348 
	C249.917816,210.224396 250.338348,209.209152 250.758896,208.193924 
	C250.381485,207.868622 250.004074,207.543304 249.626663,207.218002 
	C246.652283,209.512695 243.677902,211.807404 239.965912,214.671143 
	C243.834320,215.352127 246.115631,215.753723 249.150101,216.287903 
	C247.790237,217.711258 247.124863,218.407684 245.904282,219.507523 
M197.010956,208.514618 
	C199.420517,206.407883 201.830093,204.301147 204.239655,202.194427 
	C203.658844,201.567657 203.078033,200.940903 202.497208,200.314148 
	C198.637161,203.733246 194.777100,207.152344 190.917053,210.571442 
	C191.247910,210.961090 191.578751,211.350739 191.909607,211.740387 
	C193.387436,210.755005 194.865265,209.769623 197.010956,208.514618 
M248.140823,229.335281 
	C246.451843,229.460495 244.762878,229.585724 242.275238,229.770172 
	C242.571915,231.724915 242.856888,233.602615 243.141876,235.480301 
	C243.682983,235.549850 244.224106,235.619400 244.765228,235.688934 
	C246.048996,233.717133 247.332779,231.745346 248.140823,229.335281 
M235.420074,194.593079 
	C236.566940,193.647568 237.713806,192.702057 238.860687,191.756561 
	C237.617096,190.756821 236.373520,189.757080 235.129929,188.757324 
	C234.725388,189.141754 234.320831,189.526169 233.916275,189.910583 
	C234.302612,191.266907 234.688965,192.623245 235.420074,194.593079 
M205.217255,193.073013 
	C202.702728,194.882751 200.188202,196.692490 197.673676,198.502228 
	C198.071976,198.999756 198.470291,199.497299 198.868591,199.994827 
	C201.213654,197.705368 205.553421,197.825256 205.217255,193.073013 
M179.284622,263.806824 
	C177.356781,265.549255 175.428925,267.291656 173.501083,269.034088 
	C173.983398,269.549744 174.465729,270.065430 174.948044,270.581085 
	C177.124435,268.611145 179.300827,266.641205 181.477203,264.671265 
	C180.930481,264.251373 180.383774,263.831512 179.284622,263.806824 
M192.726730,202.971298 
	C193.944138,204.505188 193.944138,204.505188 196.034149,201.051819 
	C194.680786,201.719513 193.903442,202.103012 192.726730,202.971298 
M186.556320,255.341095 
	C186.556320,255.341095 186.432999,255.569016 186.432999,255.569016 
	C186.432999,255.569016 186.707825,255.527649 186.556320,255.341095 
z"/>
<path fill="#FCFBFA" opacity="1.000000" stroke="none" 
	d="
M148.897888,288.711426 
	C148.931503,286.096283 148.787216,283.908844 149.066650,281.776917 
	C149.189590,280.838959 150.174728,280.013947 150.768372,279.137634 
	C151.489746,280.018707 152.861328,280.923035 152.830795,281.777222 
	C152.559998,289.348053 151.788025,296.905945 151.667084,304.475708 
	C151.549881,311.811249 147.273605,317.336700 144.161591,323.340179 
	C141.027481,329.386292 127.775993,336.348602 121.494370,334.463104 
	C116.893471,333.082092 113.150368,329.071350 108.699554,326.899536 
	C104.050850,324.631195 104.591988,320.116302 103.017876,316.461151 
	C100.333939,310.228912 96.517052,305.232269 88.873169,304.984863 
	C81.933868,304.760223 76.480057,309.633453 76.034523,316.642151 
	C75.907974,318.632874 76.233368,320.673401 75.923767,322.623169 
	C75.752052,323.704498 74.696297,324.645447 74.039001,325.649689 
	C73.116081,324.678070 71.416359,323.726929 71.390175,322.731720 
	C71.122818,312.570892 71.545235,302.507874 75.052650,292.735687 
	C79.632904,279.974396 89.356461,272.417267 100.631073,266.214966 
	C105.002342,263.810272 109.649673,261.701477 113.514503,258.631195 
	C119.064819,254.221893 123.867775,249.134323 124.549362,241.265671 
	C125.263443,233.022003 127.095589,224.867279 127.657539,216.620438 
	C128.287476,207.375870 125.947304,198.503265 121.477493,190.404739 
	C120.308678,188.287048 117.810738,186.122162 115.526360,185.542252 
	C107.566521,183.521606 99.552559,183.924179 92.939575,189.385422 
	C86.963501,194.320633 80.936584,199.455734 76.165283,205.479492 
	C73.732231,208.551239 73.512306,213.753098 73.382179,218.025345 
	C73.346489,219.197067 77.155563,221.339554 79.355362,221.572479 
	C87.319122,222.415726 92.610336,226.482361 95.836777,233.566010 
	C97.298256,236.774734 94.014893,244.941269 89.995819,247.802734 
	C86.135620,250.551086 82.028465,251.379776 78.092842,247.952225 
	C72.874908,243.407898 69.727745,237.595444 69.037003,230.744278 
	C68.560936,226.022263 68.108658,221.103729 68.887108,216.482117 
	C72.791733,193.300644 96.229622,177.055420 119.421211,180.982040 
	C122.022896,181.422546 124.735710,181.438766 127.383537,181.328583 
	C133.821426,181.060699 138.495102,183.819458 141.689941,189.265610 
	C145.256256,195.345001 149.427048,201.177826 152.151703,207.618439 
	C156.610916,218.159302 157.432220,229.314697 153.889328,240.364105 
	C152.256851,245.455383 150.362793,250.707504 147.390182,255.071182 
	C141.954285,263.050903 133.092255,266.286530 124.160713,268.154541 
	C111.641678,270.772858 99.795197,274.311432 89.310364,282.121582 
	C83.283363,286.611053 78.265572,293.536377 78.131317,300.911102 
	C93.703415,297.082245 108.211967,304.629608 123.438889,305.013397 
	C130.713791,305.196716 137.436203,303.798187 143.584244,300.374939 
	C147.596588,298.140839 148.980225,293.788605 148.897888,288.711426 
M142.339264,252.965164 
	C141.796890,252.632812 141.254501,252.300461 141.080154,251.366135 
	C148.995712,245.285110 151.996307,236.941208 151.137070,227.379105 
	C150.582535,221.207809 149.311935,215.068207 146.077988,209.463791 
	C143.695251,205.334488 142.327103,200.611557 139.868820,196.538223 
	C138.942169,195.002777 136.220032,194.550919 134.316406,193.605087 
	C133.216812,195.941437 131.280518,198.256973 131.221710,200.619232 
	C131.141617,203.835297 132.494751,207.087036 133.322296,210.713440 
	C134.752914,210.910339 136.633057,211.169113 138.513199,211.427902 
	C137.490204,212.892151 136.143997,213.300980 135.029480,214.053146 
	C134.220673,214.598984 133.718521,215.599258 133.079636,216.396912 
	C134.002548,216.786606 134.998703,217.625961 135.835907,217.489594 
	C139.857193,216.834641 139.453506,218.841309 138.801346,220.936417 
	C136.983154,220.839188 135.555817,220.762863 134.128494,220.686539 
	C134.341446,223.165298 134.554398,225.644043 134.779678,228.266312 
	C133.756500,229.628937 130.927017,231.881363 131.316040,233.135315 
	C133.240265,239.337891 128.967987,243.903503 127.478104,249.012009 
	C126.410774,252.671646 122.781143,255.874756 119.678345,258.572662 
	C116.196518,261.600098 112.020943,263.829681 107.216057,267.025757 
	C114.050438,265.868347 119.743088,265.120697 125.331200,263.895996 
	C130.733047,262.712128 131.467758,261.191223 130.102570,255.023941 
	C133.391907,254.017212 136.744415,252.991150 139.884323,252.649216 
	C138.632568,254.437958 137.380814,256.226715 136.129059,258.015472 
	C136.598846,258.396179 137.068634,258.776917 137.538437,259.157654 
	C139.357880,257.104279 141.177322,255.050934 143.486038,252.871658 
	C143.474045,252.477371 143.462036,252.083069 143.450027,251.688782 
	C143.300568,252.126389 143.151093,252.563995 142.339264,252.965164 
M114.712151,319.968811 
	C117.216736,316.598267 119.721321,313.227722 122.154839,309.952820 
	C118.236992,308.734314 114.615868,312.488525 113.002785,319.726898 
	C112.803741,320.249542 112.604698,320.772217 112.405647,321.294830 
	C113.000114,320.934082 113.594582,320.573303 114.712151,319.968811 
M91.557114,237.852722 
	C90.342796,235.197021 89.128487,232.541321 87.657623,229.324524 
	C85.983864,229.942810 84.104729,230.636963 81.739731,231.510590 
	C84.923721,234.689697 83.753677,236.343246 80.623047,237.614883 
	C77.078880,239.054504 76.166107,240.701645 80.497917,242.537842 
	C81.219086,242.843536 81.581993,243.994354 82.553802,245.392456 
	C85.621162,242.946426 88.407898,240.724167 91.557114,237.852722 
M136.271942,317.639008 
	C138.341171,322.858795 131.500671,323.596344 130.936371,328.250122 
	C141.130142,325.611572 141.397858,316.168213 145.769226,309.885254 
	C145.399002,309.542542 145.028763,309.199829 144.658524,308.857117 
	C141.950485,311.565277 139.242432,314.273468 136.271942,317.639008 
M127.228455,314.892212 
	C128.574799,313.100220 129.921143,311.308228 131.396530,309.344482 
	C127.642632,309.016907 122.064125,314.286407 120.905685,319.396240 
	C123.211342,317.928619 125.073288,316.743408 127.228455,314.892212 
M120.134651,328.787659 
	C123.140816,326.306641 126.146980,323.825653 129.153137,321.344635 
	C128.553238,320.695343 127.953346,320.046051 127.353447,319.396759 
	C124.969917,322.675507 120.330780,323.560669 120.134651,328.787659 
M130.480087,317.745056 
	C130.480087,317.745056 130.603439,317.469879 130.603439,317.469879 
	C130.603439,317.469879 130.321976,317.533447 130.480087,317.745056 
z"/>
<path fill="#FBFAF9" opacity="1.000000" stroke="none" 
	d="
M422.633331,195.144897 
	C422.531158,201.977463 421.859161,208.485306 422.567444,214.839279 
	C423.392426,222.239578 423.183777,229.290283 421.740845,236.645050 
	C420.875793,241.054077 422.851227,246.020386 423.798157,252.411057 
	C420.293304,256.474396 422.526825,263.122864 422.555298,269.665161 
	C422.599915,279.902161 421.641144,290.139526 421.433624,300.383362 
	C421.333466,305.326202 421.676605,310.325745 422.357849,315.224731 
	C423.236450,321.542816 430.164581,326.960022 436.675568,326.774261 
	C439.160950,326.703400 441.638214,326.035950 444.113159,326.070679 
	C445.061249,326.083984 445.992462,327.298645 446.931366,327.965881 
	C446.127686,328.969391 445.292114,330.863495 444.525360,330.836060 
	C438.167145,330.608398 431.828705,329.847687 425.470520,329.594482 
	C417.224548,329.266083 408.959045,328.988098 400.714844,329.196808 
	C394.439362,329.355682 388.175964,330.235809 381.923065,330.936707 
	C378.979828,331.266602 376.089508,332.071381 373.145966,332.394623 
	C370.970825,332.633484 368.748352,332.441559 366.546967,332.441559 
	C366.454926,331.650635 366.362915,330.859741 366.270874,330.068817 
	C369.291931,329.125122 372.260895,327.644867 375.344482,327.345734 
	C382.504242,326.651215 385.468842,320.423950 390.330719,316.728790 
	C390.765350,316.398438 390.925262,315.518799 390.960358,314.880371 
	C391.227661,310.018921 391.469940,305.155365 391.637421,300.289581 
	C391.703369,298.372711 391.733093,296.420776 391.433197,294.540009 
	C391.292145,293.655426 390.332611,292.901367 390.293518,292.847351 
	C391.308563,285.009033 392.391815,277.632172 393.134460,270.221130 
	C393.322418,268.345673 392.419067,266.362366 392.026886,264.426636 
	C391.769257,263.154999 390.957703,261.640564 391.374481,260.645386 
	C393.914856,254.579361 391.706482,248.633133 391.427704,242.617142 
	C391.198456,237.670364 391.884918,232.684998 392.068756,227.713165 
	C392.133698,225.956589 391.912323,224.189438 391.793732,221.883560 
	C389.731476,222.650543 388.271149,223.193665 386.810822,223.736771 
	C386.526794,223.490738 386.242798,223.244705 385.958801,222.998657 
	C387.646790,220.783951 389.334747,218.569229 391.521027,215.700714 
	C389.368225,215.700714 388.088379,215.700714 384.978943,215.700714 
	C389.923157,212.152237 389.160004,208.372742 388.902283,204.357559 
	C388.628418,200.090729 386.861298,198.191437 382.909485,198.088196 
	C379.430573,197.997299 375.930450,198.411011 372.466705,198.186111 
	C370.942566,198.087158 369.485382,196.957275 367.997803,196.295471 
	C369.172150,195.134689 370.207123,193.207520 371.548218,192.963654 
	C374.927094,192.349258 378.503845,192.845352 381.894165,192.267578 
	C391.696198,190.597168 401.481445,188.779495 411.186371,186.627548 
	C413.237823,186.172684 414.882294,183.994598 416.783875,182.713776 
	C418.164032,181.784180 419.658905,181.024963 421.102661,180.189789 
	C421.503784,181.765259 421.989227,183.325455 422.278412,184.921204 
	C422.496033,186.122101 422.461945,187.368607 422.586304,189.323761 
	C424.827759,188.211319 426.355164,187.453278 427.882568,186.695236 
	C428.078857,186.855820 428.275177,187.016418 428.471497,187.177017 
	C426.538940,189.702042 424.606415,192.227081 422.633331,195.144897 
M416.870117,311.332306 
	C415.691833,311.481964 414.513550,311.631622 413.249573,311.750854 
	C413.249573,311.750854 413.216644,311.666138 413.357239,311.013123 
	C419.831238,306.458649 420.361694,298.819946 414.339142,294.328064 
	C417.779419,290.437317 419.114777,286.261200 417.981476,280.791290 
	C417.176147,276.904175 418.634186,272.581421 418.847076,268.441010 
	C419.078522,263.939606 420.241669,259.214600 416.253784,254.534241 
	C409.963013,259.680634 403.802338,264.635742 397.788208,269.762756 
	C397.136047,270.318726 397.220673,271.861938 397.152008,272.959015 
	C396.767853,279.098724 396.441620,285.242065 396.115387,291.032928 
	C397.856171,291.948608 398.928192,292.512512 400.167847,293.164581 
	C398.630249,295.169891 396.445007,296.776520 396.336670,298.512817 
	C396.229431,300.230988 398.218201,302.079956 398.813843,303.077789 
	C397.347321,305.885925 396.033417,308.401855 394.719513,310.917755 
	C395.140594,311.321991 395.561676,311.726227 395.982758,312.130493 
	C398.192322,311.347198 401.354858,311.220673 402.432343,309.657196 
	C405.632812,305.013184 410.499115,307.192963 414.135559,304.985718 
	C414.309113,305.379730 414.482635,305.773743 414.656189,306.167755 
	C412.388672,307.553192 410.121124,308.938629 407.608826,310.219727 
	C407.608826,310.219727 407.343536,310.240234 406.651947,309.983398 
	C400.877930,311.538513 404.673401,314.224518 406.196564,317.245422 
	C404.475891,318.157257 402.736084,319.079254 400.933258,319.523438 
	C400.790894,319.255524 400.648529,318.987610 400.506134,318.719696 
	C400.439423,319.150726 400.372711,319.581757 400.142181,320.724854 
	C399.540314,321.971222 398.938446,323.217560 398.336609,324.463928 
	C398.674835,324.956909 399.013092,325.449890 399.351349,325.942841 
	C402.178223,324.440338 405.531708,323.468292 407.706726,321.309143 
	C410.852112,318.186676 413.820129,315.646759 418.890472,316.908630 
	C418.597229,314.969482 418.384247,313.560974 418.475891,311.882019 
	C418.178009,311.742798 417.880157,311.603577 416.870117,311.332306 
M403.898773,233.886108 
	C403.898773,233.886108 404.095306,234.080612 403.818359,234.727921 
	C403.086243,235.385147 402.461487,236.294266 401.604889,236.659393 
	C395.287445,239.352127 394.344666,243.383148 397.862000,246.729111 
	C397.539215,250.606232 397.328979,253.364792 397.071808,256.118958 
	C396.949219,257.432281 396.641876,258.733948 396.596069,260.047089 
	C396.558960,261.112000 396.787659,262.186218 396.898468,263.256287 
	C398.100311,263.042694 399.597351,263.211517 400.453766,262.550415 
	C404.486237,259.437469 408.381653,256.141724 412.242645,252.814514 
	C413.693939,251.563843 414.919891,250.051682 416.380585,248.520355 
	C415.032623,247.442398 414.130829,246.721237 413.131348,245.921936 
	C419.929688,241.280304 419.929688,241.280304 416.041412,234.756851 
	C421.245270,222.534271 420.348541,210.415466 418.531067,198.414185 
	C415.752838,198.414185 413.557617,198.414185 411.362427,198.414185 
	C411.235260,197.948273 411.108063,197.482361 410.980896,197.016449 
	C417.587250,198.243942 417.312561,193.809372 417.837891,189.715988 
	C408.849182,192.470917 397.447510,201.196030 394.747406,207.319244 
	C395.868408,207.420059 396.955505,207.517822 398.038025,207.615173 
	C396.805908,209.284576 395.810303,210.633560 394.031708,213.043396 
	C397.485291,212.380661 399.518311,211.990540 401.906799,211.936661 
	C401.906799,211.936661 402.260345,212.274963 401.853088,212.801270 
	C396.404510,216.881927 393.142242,221.676758 397.331909,230.017395 
	C399.427246,226.771774 401.137604,224.122437 402.847992,221.473083 
	C402.981750,221.892624 403.115509,222.312164 403.249268,222.731705 
	C407.652679,221.297333 412.056061,219.862961 416.459442,218.428589 
	C415.154663,220.784744 413.624451,222.979599 411.651917,223.500916 
	C404.848083,225.299042 401.000275,230.515961 395.828888,236.079712 
	C399.116608,235.081757 401.410706,234.385437 403.898773,233.886108 
M418.980408,319.552551 
	C414.582245,318.989624 412.369263,321.586090 409.582367,325.757385 
	C413.581421,325.289917 416.323151,325.106323 418.999329,324.585541 
	C419.992126,324.392303 420.830994,323.408142 421.740082,322.784698 
	C421.049194,321.804138 420.358307,320.823578 418.980408,319.552551 
z"/>
<path fill="#FBFAF9" opacity="1.000000" stroke="none" 
	d="
M305.882904,292.868683 
	C305.328888,292.192688 304.162292,291.132324 304.310120,290.896667 
	C308.442047,284.310608 307.196899,276.681702 307.690186,269.667847 
	C308.330383,260.565704 306.467072,251.310684 306.097351,242.104767 
	C305.905060,237.316956 306.661682,232.495697 306.875732,227.684479 
	C306.953979,225.925751 306.702698,224.152390 306.572205,221.867615 
	C304.528412,222.589050 303.070679,223.103607 301.612946,223.618164 
	C301.338715,223.405365 301.064484,223.192551 300.790253,222.979736 
	C302.427979,220.702682 304.065674,218.425629 306.211060,215.442673 
	C304.032227,215.539505 302.747040,215.596619 302.373016,215.613235 
	C302.796326,211.302460 303.777466,207.286728 303.321381,203.441437 
	C303.092438,201.510635 300.499695,198.828262 298.532318,198.363434 
	C295.080780,197.547928 291.274811,198.368057 287.643738,198.118332 
	C285.904724,197.998749 284.226196,196.999039 282.520294,196.397934 
	C284.000305,195.146942 285.315857,193.197159 286.997162,192.801468 
	C289.833313,192.133972 292.952606,192.767868 295.862274,192.296082 
	C305.016815,190.811752 314.201965,189.376678 323.218231,187.255219 
	C326.343079,186.519974 328.975464,183.776047 331.899017,182.062622 
	C333.188416,181.306931 334.643005,180.833176 336.022583,180.231430 
	C336.388855,181.553970 336.904816,182.857010 337.080292,184.204391 
	C337.264221,185.616669 337.121429,187.071503 337.121429,189.090775 
	C339.304077,188.358475 340.861298,187.836014 342.720551,187.212234 
	C342.579041,188.085022 342.639862,188.834396 342.415070,188.933060 
	C335.872925,191.804382 336.820892,197.469849 337.031830,202.945099 
	C337.394958,212.369904 337.766754,221.798126 337.863861,231.227707 
	C337.908539,235.563950 337.084717,239.907776 337.103485,244.246216 
	C337.112671,246.370071 338.147797,248.489456 339.018066,251.723785 
	C334.901367,256.446533 337.255615,263.311035 337.207947,269.979919 
	C337.135651,280.090057 336.287567,290.192841 336.106537,300.304810 
	C336.017700,305.267700 336.488037,310.267456 337.066193,315.208344 
	C337.742371,320.987396 344.328857,326.718475 350.246429,326.749542 
	C353.048645,326.764282 355.854858,325.958496 358.657501,325.969696 
	C359.702820,325.973877 360.743073,327.246124 361.785614,327.940155 
	C360.971619,328.954926 360.126892,330.869049 359.348419,330.842468 
	C352.991760,330.625549 346.654297,329.881104 340.297699,329.618530 
	C332.056152,329.278107 323.795258,328.948486 315.556122,329.153412 
	C309.117340,329.313629 302.691467,330.227539 296.275146,330.943481 
	C293.497314,331.253418 290.774170,332.058075 287.995972,332.358276 
	C285.798035,332.595764 283.553894,332.406097 281.330292,332.406097 
	C281.222443,331.664642 281.114563,330.923218 281.006714,330.181763 
	C283.361298,329.397919 285.665070,328.208954 288.079987,327.905914 
	C295.439911,326.982330 299.967377,321.966644 304.552704,317.010254 
	C305.283997,316.219788 305.800415,314.896881 305.800385,313.820129 
	C305.800171,308.668488 305.525665,303.517303 305.490967,298.364960 
	C305.481201,296.918945 305.954834,295.469635 306.352905,293.530334 
	C306.293671,292.982147 306.088287,292.925415 305.882904,292.868683 
M318.103912,310.131958 
	C318.103912,310.131958 318.308197,310.376892 318.281433,311.066711 
	C318.900391,313.016907 319.519348,314.967072 320.255859,317.287537 
	C317.861572,319.369873 315.207031,321.678558 311.894745,324.559265 
	C317.168610,325.796326 320.233398,323.943939 322.856201,320.968475 
	C325.572601,317.886841 328.574310,315.563629 333.458893,316.770416 
	C333.283203,315.333130 333.404816,313.975037 332.926025,312.879303 
	C331.774902,310.245026 332.233734,307.845795 332.758179,305.108490 
	C333.526459,301.098572 333.328461,296.868835 329.828491,294.709229 
	C330.987732,291.451599 333.318634,288.252441 332.878021,285.496399 
	C331.669159,277.934937 332.849426,270.694794 333.840454,263.333527 
	C334.074280,261.596741 333.664398,259.702972 333.228394,257.962158 
	C332.509827,255.093140 330.670990,254.626190 328.433685,256.401917 
	C323.490204,260.325500 318.509491,264.218994 313.811096,268.423279 
	C312.580383,269.524597 311.796875,271.696594 311.723114,273.416138 
	C311.471008,279.290436 311.626526,285.182220 311.626526,291.271820 
	C312.470886,291.744598 313.629974,292.393585 314.009735,292.606232 
	C313.093506,295.571838 312.203125,297.930267 311.660339,300.366180 
	C311.171875,302.558258 311.081146,304.837524 310.783630,307.074127 
	C310.586304,308.557587 310.333618,310.033691 309.984344,312.301056 
	C313.255096,311.305206 315.573761,310.599243 318.103912,310.131958 
M315.679688,213.649261 
	C309.926117,217.501404 308.818726,222.833206 311.196259,230.901276 
	C313.668335,227.172943 315.481354,224.438644 316.434265,223.001526 
	C322.124176,221.188065 326.860931,219.678406 331.597687,218.168747 
	C331.790527,218.536270 331.983337,218.903793 332.176178,219.271301 
	C329.809692,220.826187 327.525513,222.529755 325.055115,223.896820 
	C322.223999,225.463501 318.857574,226.277954 316.417053,228.269058 
	C314.365723,229.942657 313.308960,232.835297 311.534851,235.623734 
	C313.815369,235.086899 316.175018,234.531418 318.534698,233.975952 
	C317.451202,235.550461 316.061371,236.433350 314.562653,237.052795 
	C311.104309,238.482193 309.806976,243.015961 312.355255,246.302856 
	C312.877380,246.530014 313.399475,246.757156 313.833771,247.664352 
	C312.791412,249.752014 311.328949,251.745895 310.835541,253.956116 
	C310.417908,255.826767 311.094513,257.951111 311.339630,259.956757 
	C311.486237,261.156158 311.734375,262.343109 311.936859,263.535645 
	C313.122955,263.134796 314.535919,263.018433 315.456299,262.284393 
	C319.689911,258.908112 323.823517,255.402512 327.907898,251.845551 
	C329.082764,250.822357 329.973267,249.472656 331.094513,248.154678 
	C329.580109,247.327393 328.582947,246.782654 327.375854,246.123215 
	C335.010773,241.188156 335.010773,241.188156 330.388641,234.484451 
	C331.478790,232.445969 332.922485,230.715805 333.332306,228.768112 
	C334.070648,225.259155 334.538177,221.615417 334.492126,218.036057 
	C334.406494,211.379166 333.870850,204.728088 333.536621,198.344589 
	C330.537048,198.344589 328.443512,198.344589 326.349976,198.344589 
	C326.202301,197.890366 326.054626,197.436157 325.906982,196.981934 
	C333.170013,198.383469 331.207458,192.864319 332.243561,189.528030 
	C323.877502,194.473495 314.370850,197.867020 309.054840,207.199905 
	C310.543457,207.445084 311.479584,207.599258 312.386810,207.748672 
	C311.234680,209.484085 310.307617,210.880524 308.641327,213.390350 
	C312.031250,212.379410 314.018616,211.786743 316.004425,211.827011 
	C316.021606,212.249619 316.038757,212.672226 315.679688,213.649261 
M326.104187,325.660034 
	C328.852325,325.279999 331.622528,325.007965 334.335266,324.454407 
	C335.154388,324.287231 336.440033,323.302063 336.407776,322.756927 
	C336.352112,321.816895 335.642212,320.614868 334.836700,320.072784 
	C331.610962,317.901764 326.717499,320.672089 326.104187,325.660034 
M313.864349,320.015076 
	C314.680389,318.460449 315.496460,316.905823 316.312500,315.351196 
	C315.936920,314.985870 315.561340,314.620544 315.185760,314.255219 
	C313.533356,315.649536 311.880920,317.043884 310.228485,318.438202 
	C311.205872,318.987854 312.183258,319.537506 313.864349,320.015076 
z"/>
<path fill="#C0AFA0" opacity="1.000000" stroke="none" 
	d="
M204.326843,298.346161 
	C203.830582,290.517517 203.089188,283.089783 203.128845,275.666168 
	C203.194519,263.371216 203.508820,251.064667 204.197144,238.789856 
	C204.789490,228.226288 205.145050,217.498947 207.424377,207.248505 
	C208.453888,202.618668 209.287415,197.545853 211.380203,193.033203 
	C213.192276,189.125870 216.093674,185.983917 220.449371,186.342911 
	C224.947968,186.713684 230.145935,187.609818 231.495682,193.153748 
	C234.136322,203.999878 236.742783,214.878098 238.691971,225.862183 
	C240.682297,237.077927 238.420609,248.175323 236.873901,259.326202 
	C236.312469,263.373718 237.777084,267.698334 235.050781,271.503845 
	C234.119965,272.803131 233.336960,274.208313 232.485428,275.564514 
	C236.708145,278.590637 236.708145,278.590637 231.086731,287.942841 
	C236.680008,289.043457 235.278381,292.343811 234.353760,296.368317 
	C232.992706,302.292572 232.999130,308.516388 231.972855,314.535858 
	C230.723740,321.862366 224.728226,327.693115 217.492325,328.411774 
	C215.608505,328.598877 213.007355,327.214417 211.612900,325.728516 
	C204.447067,318.092896 203.378815,308.665253 204.326843,298.346161 
z"/>
<path fill="#C3B3A5" opacity="1.000000" stroke="none" 
	d="
M179.848724,281.846985 
	C174.905106,275.495483 174.892975,275.481293 181.762527,269.603485 
	C183.007858,268.537933 184.398178,267.641876 185.957825,266.493622 
	C184.932022,264.947876 183.964615,263.490082 182.623383,261.468964 
	C185.631561,259.719910 188.457855,258.076569 191.972412,256.033081 
	C188.465500,254.618500 186.323090,253.491959 190.188263,250.856155 
	C193.223312,248.786469 195.808426,246.057037 198.593430,243.620682 
	C199.158585,244.069397 199.723740,244.518112 200.288895,244.966827 
	C199.097473,246.858856 197.906067,248.750885 196.563293,250.883270 
	C200.667404,252.069565 201.164520,255.336166 200.672668,259.253967 
	C200.049454,264.218201 201.183716,269.076935 198.919540,274.278259 
	C197.355011,277.872284 199.818924,283.169922 200.297714,287.725708 
	C200.519547,289.836548 200.790268,292.145599 200.184219,294.099762 
	C198.712616,298.844879 199.818451,303.114166 201.243561,307.600128 
	C201.688995,309.002319 200.244186,311.004974 200.100067,311.434631 
	C202.916672,316.951691 205.484207,321.980896 208.046860,327.483826 
	C208.041977,327.957550 207.803024,328.236298 207.803024,328.236298 
	C199.375046,322.745026 191.007538,317.198761 187.776337,306.636902 
	C190.554642,304.864014 193.063187,303.263214 195.571747,301.662445 
	C195.356354,301.203430 195.140961,300.744385 194.925568,300.285370 
	C192.753738,301.030060 190.614975,301.905121 188.396988,302.467987 
	C187.170029,302.779327 185.810394,302.567841 184.510574,302.592041 
	C184.955597,301.397034 185.287903,300.142609 185.877640,299.023895 
	C186.454758,297.929108 187.294235,296.972595 187.219910,295.271545 
	C185.633270,296.234406 184.046616,297.197266 182.189224,298.324402 
	C179.925995,294.879303 176.924011,292.067963 180.922562,288.380188 
	C180.886093,289.924683 180.567200,291.231537 180.024048,293.457550 
	C186.663666,291.627594 191.868454,289.614563 196.258987,284.063141 
	C191.977463,284.870209 188.746017,285.479340 185.514572,286.088470 
	C187.371994,284.066711 189.229416,282.044983 191.462753,279.614044 
	C186.699142,278.047546 185.320374,285.378632 180.539398,282.123169 
	C180.070160,282.055145 179.848724,281.846985 179.848724,281.846985 
z"/>
<path fill="#C2B2A3" opacity="1.000000" stroke="none" 
	d="
M264.014496,284.990723 
	C263.957764,291.311188 260.447937,295.605133 255.742905,299.247314 
	C254.488327,300.218506 253.423553,301.434875 251.770081,302.859131 
	C249.905106,303.649261 248.541718,304.118927 247.178314,304.588593 
	C248.127731,306.062744 249.077133,307.536926 250.026550,309.011078 
	C247.437790,311.535797 247.934021,317.553375 241.522629,316.018097 
	C240.416855,315.753357 238.474426,319.125580 236.864212,320.764465 
	C236.049545,321.593658 235.113678,322.303772 234.232605,323.067719 
	C233.770248,322.694641 233.307892,322.321564 232.845551,321.948456 
	C234.911072,318.873627 236.976578,315.798798 239.118866,312.609711 
	C238.674835,310.145844 237.476151,307.096283 237.760147,304.191711 
	C238.146820,300.237000 239.665222,296.392975 240.750931,292.303467 
	C238.111526,289.862976 238.296524,286.669708 241.653030,283.105377 
	C242.752518,281.937836 243.896225,280.811981 245.006775,279.325836 
	C244.993866,278.984619 244.967438,279.023224 245.330353,279.005371 
	C248.135803,276.982666 250.578339,274.977814 253.006836,272.982483 
	C252.992798,272.991943 252.972092,273.018768 253.337036,273.095886 
	C255.193619,272.448059 256.685242,271.723083 258.498169,270.917358 
	C260.239838,270.232574 261.660156,269.628510 263.080475,269.024414 
	C262.966064,269.818115 262.617462,271.256775 262.770966,271.312500 
	C268.734589,273.477661 265.475464,277.901703 264.917450,281.778107 
	C261.058075,283.182068 257.625305,284.343811 253.407104,285.771423 
	C258.313904,289.928070 260.871246,285.546906 264.014496,284.990723 
M258.344086,274.390320 
	C257.686859,275.187408 257.029633,275.984497 256.372406,276.781586 
	C256.860443,277.060333 257.348480,277.339081 257.836487,277.617828 
	C258.186462,276.578583 258.536407,275.539307 258.344086,274.390320 
M241.872375,308.913605 
	C241.839615,309.075562 241.753525,309.250824 241.789764,309.395508 
	C241.822906,309.527924 242.042007,309.744629 242.087448,309.723877 
	C243.013794,309.299744 243.926987,308.846802 244.842789,308.399628 
	C244.643661,308.067749 244.444534,307.735870 244.245407,307.404022 
	C243.562225,307.747986 242.879028,308.091980 241.872375,308.913605 
z"/>
<path fill="#C3B3A5" opacity="1.000000" stroke="none" 
	d="
M180.011871,247.018005 
	C178.505646,247.611816 176.999420,248.205612 175.509796,248.792877 
	C173.607864,244.720764 177.398529,231.429947 181.381149,227.777298 
	C180.745148,227.318176 180.123535,226.869446 179.470047,226.397705 
	C185.539230,218.545975 193.839813,213.857895 201.986954,208.956802 
	C202.372757,209.368576 202.758575,209.780334 203.144379,210.192108 
	C201.514053,212.323273 199.883743,214.454453 197.881149,217.072250 
	C199.300018,216.840012 200.344482,216.669067 202.328735,216.344315 
	C201.125397,223.005280 199.066910,229.341492 199.038361,235.686829 
	C198.989716,246.496918 189.116211,246.025574 183.635452,250.532486 
	C181.377487,252.389252 178.305313,253.381775 176.398834,255.487473 
	C175.431213,256.556244 176.229568,259.223846 176.229568,261.135681 
	C173.531998,260.629242 172.630386,256.082855 175.016418,253.041199 
	C176.526382,251.116318 178.365509,249.449661 180.130951,247.339401 
	C180.204895,247.011597 180.320587,246.694824 180.320587,246.694824 
	C180.320587,246.694824 180.011871,247.018021 180.011871,247.018005 
M190.492157,240.277176 
	C188.737167,240.747284 186.982178,241.217392 184.870987,241.782898 
	C188.954010,245.518494 190.729858,244.728333 195.467377,236.829788 
	C193.236160,238.288666 192.126938,239.013931 190.492157,240.277176 
z"/>
<path fill="#C3B3A5" opacity="1.000000" stroke="none" 
	d="
M263.410461,269.000305 
	C261.660156,269.628510 260.239838,270.232574 258.232697,270.762634 
	C256.087982,271.465332 254.530029,272.242065 252.972092,273.018768 
	C252.972092,273.018768 252.992798,272.991943 252.686096,273.109741 
	C249.908752,275.159424 247.438095,277.091309 244.967438,279.023224 
	C244.967438,279.023224 244.993866,278.984619 245.008759,278.966553 
	C243.642380,278.797821 241.093399,278.760284 241.066071,278.478302 
	C240.862701,276.380554 240.525345,273.877380 241.469849,272.199188 
	C242.506882,270.356537 244.869553,269.259979 247.443222,267.210266 
	C245.215698,265.774933 243.424606,264.620819 241.095840,263.120270 
	C241.836700,261.966309 242.924988,260.271210 244.037399,258.538544 
	C240.723343,254.021713 240.936203,252.152634 245.298447,248.411011 
	C248.426773,245.727768 251.555832,243.045395 255.253082,240.122894 
	C258.037292,238.957047 260.252960,238.030930 262.468628,237.104797 
	C265.623444,242.372559 265.886475,248.278839 265.980408,254.143738 
	C266.049957,258.487640 265.665894,262.844849 265.317200,267.182739 
	C265.266113,267.818695 264.289062,268.380219 263.410461,269.000305 
M251.418961,247.052399 
	C251.154800,247.248367 250.947693,247.492706 250.122467,247.872574 
	C249.290665,248.801804 248.458862,249.731049 247.450226,250.923035 
	C247.687927,251.009415 247.925613,251.095795 248.685226,250.862671 
	C249.569534,250.019150 250.453827,249.175613 251.718430,248.032486 
	C251.972168,247.817200 252.153122,247.552200 252.624084,246.903244 
	C252.863556,246.654541 252.992477,246.357819 253.680099,246.048538 
	C254.605774,245.523895 255.531464,244.999252 257.084106,244.290649 
	C258.204437,243.484772 259.324768,242.678909 260.445129,241.873032 
	C260.108826,241.477921 259.772552,241.082809 259.436249,240.687683 
	C258.203552,241.698105 256.970856,242.708527 255.166397,243.938568 
	C254.441666,244.623734 253.716949,245.308884 252.538925,246.164841 
	C252.248901,246.325714 252.019684,246.549011 251.418961,247.052399 
z"/>
<path fill="#C9BAAD" opacity="1.000000" stroke="none" 
	d="
M246.181885,219.305817 
	C247.124863,218.407684 247.790237,217.711258 249.150101,216.287903 
	C246.115631,215.753723 243.834320,215.352127 239.965912,214.671143 
	C243.677902,211.807404 246.652283,209.512695 249.626663,207.218002 
	C250.004074,207.543304 250.381485,207.868622 250.758896,208.193924 
	C250.338348,209.209152 249.917816,210.224396 249.271622,211.784348 
	C251.280548,211.139267 252.735733,210.672012 254.385086,210.142395 
	C254.047089,212.074570 253.771790,213.648361 253.303375,216.326218 
	C250.555313,218.376816 246.853836,221.138870 243.152359,223.900909 
	C242.811066,223.476929 242.469772,223.052948 242.128479,222.628967 
	C243.387085,221.588486 244.645676,220.548004 246.181885,219.305817 
z"/>
<path fill="#C9BAAD" opacity="1.000000" stroke="none" 
	d="
M241.932648,201.911667 
	C241.319366,201.844666 240.706100,201.777664 240.092819,201.710663 
	C240.014603,201.244720 239.936386,200.778778 239.858170,200.312836 
	C242.140396,199.915924 244.921829,198.540710 246.571899,199.382706 
	C248.417221,200.324295 249.236786,203.276093 250.311539,205.039398 
	C247.257217,205.821884 244.535416,206.519180 241.167923,207.381897 
	C241.073212,206.546478 236.515060,204.913925 242.090698,202.379578 
	C242.639191,201.923218 242.774246,201.733154 242.909302,201.543106 
	C242.583755,201.665955 242.258194,201.788818 241.932648,201.911667 
z"/>
<path fill="#F1EDE9" opacity="1.000000" stroke="none" 
	d="
M185.250427,286.186462 
	C188.746017,285.479340 191.977463,284.870209 196.258987,284.063141 
	C191.868454,289.614563 186.663666,291.627594 180.024048,293.457550 
	C180.567200,291.231537 180.886093,289.924683 181.292419,288.230438 
	C182.582001,287.323547 183.784149,286.804016 185.250427,286.186462 
z"/>
<path fill="#C9BAAD" opacity="1.000000" stroke="none" 
	d="
M262.620789,236.735779 
	C260.252960,238.030930 258.037292,238.957047 255.586670,239.914474 
	C253.828491,239.327545 252.305267,238.709290 250.395416,238.046310 
	C250.008774,238.001587 250.037552,238.024750 250.037552,238.024750 
	C254.436844,235.535538 258.836151,233.046326 264.197845,230.012589 
	C263.581970,232.758957 263.177460,234.562866 262.620789,236.735779 
z"/>
<path fill="#C9BAAD" opacity="1.000000" stroke="none" 
	d="
M196.677032,208.649414 
	C194.865265,209.769623 193.387436,210.755005 191.909607,211.740387 
	C191.578751,211.350739 191.247910,210.961090 190.917053,210.571442 
	C194.777100,207.152344 198.637161,203.733246 202.497208,200.314148 
	C203.078033,200.940903 203.658844,201.567657 204.239655,202.194427 
	C201.830093,204.301147 199.420517,206.407883 196.677032,208.649414 
z"/>
<path fill="#F1EDE9" opacity="1.000000" stroke="none" 
	d="
M263.992432,284.998230 
	C260.871246,285.546906 258.313904,289.928070 253.407104,285.771423 
	C257.625305,284.343811 261.058075,283.182068 264.803375,282.189362 
	C265.115906,282.358429 265.096069,282.609985 264.825256,282.939209 
	C264.368561,283.860809 264.182709,284.453217 263.996857,285.045593 
	C263.996857,285.045593 263.970367,285.005707 263.992432,284.998230 
z"/>
<path fill="#C4B4A6" opacity="1.000000" stroke="none" 
	d="
M251.997925,229.025665 
	C254.945496,227.375992 257.893066,225.726334 260.840637,224.076675 
	C261.167542,224.488052 261.494446,224.899414 261.821350,225.310791 
	C258.700897,227.962173 255.580414,230.613556 252.459946,233.264938 
	C252.111023,233.016998 251.762100,232.769058 251.413193,232.521103 
	C251.671143,231.573349 251.929108,230.625580 252.091339,229.335083 
	C251.995621,228.992340 251.997925,229.025650 251.997925,229.025665 
z"/>
<path fill="#C9BAAD" opacity="1.000000" stroke="none" 
	d="
M248.378693,229.554413 
	C247.332779,231.745346 246.048996,233.717133 244.765228,235.688934 
	C244.224106,235.619400 243.682983,235.549850 243.141876,235.480301 
	C242.856888,233.602615 242.571915,231.724915 242.275238,229.770172 
	C244.762878,229.585724 246.451843,229.460495 248.378693,229.554413 
z"/>
<path fill="#C9BAAD" opacity="1.000000" stroke="none" 
	d="
M249.997910,237.986954 
	C248.035736,240.724503 246.084427,243.476685 244.133118,246.228867 
	C243.646805,245.861298 243.160492,245.493744 242.674164,245.126175 
	C242.643616,241.115326 246.327759,239.892319 249.695221,238.099731 
	C250.037552,238.024750 250.008774,238.001587 249.997910,237.986954 
z"/>
<path fill="#C9BAAD" opacity="1.000000" stroke="none" 
	d="
M235.247681,194.286316 
	C234.688965,192.623245 234.302612,191.266907 233.916275,189.910583 
	C234.320831,189.526169 234.725388,189.141754 235.129929,188.757324 
	C236.373520,189.757080 237.617096,190.756821 238.860687,191.756561 
	C237.713806,192.702057 236.566940,193.647568 235.247681,194.286316 
z"/>
<path fill="#C9BAAD" opacity="1.000000" stroke="none" 
	d="
M205.550735,193.087891 
	C205.553421,197.825256 201.213654,197.705368 198.868591,199.994827 
	C198.470291,199.497299 198.071976,198.999756 197.673676,198.502228 
	C200.188202,196.692490 202.702728,194.882751 205.550735,193.087891 
z"/>
<path fill="#C3B3A5" opacity="1.000000" stroke="none" 
	d="
M179.560852,263.609222 
	C180.383774,263.831512 180.930481,264.251373 181.477203,264.671265 
	C179.300827,266.641205 177.124435,268.611145 174.948044,270.581085 
	C174.465729,270.065430 173.983398,269.549744 173.501083,269.034088 
	C175.428925,267.291656 177.356781,265.549255 179.560852,263.609222 
z"/>
<path fill="#F1EDE9" opacity="1.000000" stroke="none" 
	d="
M250.004578,309.006226 
	C249.077133,307.536926 248.127731,306.062744 247.178314,304.588593 
	C248.541718,304.118927 249.905106,303.649261 251.677979,303.194916 
	C252.055725,303.629303 252.023972,304.048340 251.604431,304.821594 
	C250.810989,306.465393 250.405304,307.754974 249.999634,309.044586 
	C249.999649,309.044586 249.982620,309.001404 250.004578,309.006226 
z"/>
<path fill="#C9BAAD" opacity="1.000000" stroke="none" 
	d="
M252.011078,228.999329 
	C249.311111,228.578018 249.694412,227.115021 251.151642,225.755539 
	C252.319382,224.666107 253.848663,223.964203 255.663422,223.096603 
	C256.109344,223.102890 256.347473,223.345169 256.347473,223.345184 
	C254.919708,225.018570 253.491943,226.691971 252.031052,228.695511 
	C251.997925,229.025650 251.995621,228.992340 252.011078,228.999329 
z"/>
<path fill="#C9BAAD" opacity="1.000000" stroke="none" 
	d="
M192.926422,202.728912 
	C193.903442,202.103012 194.680786,201.719513 196.034149,201.051819 
	C193.944138,204.505188 193.944138,204.505188 192.926422,202.728912 
z"/>
<path fill="#C2B2A3" opacity="1.000000" stroke="none" 
	d="
M250.372818,309.048279 
	C250.405304,307.754974 250.810989,306.465393 251.582535,305.136536 
	C251.547607,306.415527 251.146805,307.733734 250.372818,309.048279 
z"/>
<path fill="#C9BAAD" opacity="1.000000" stroke="none" 
	d="
M256.785675,221.802795 
	C257.318848,220.571014 257.851990,219.339249 258.385162,218.107483 
	C258.709167,218.237396 259.033142,218.367310 259.357117,218.497223 
	C258.893646,219.684647 258.430176,220.872070 257.534912,222.088852 
	C257.103180,222.118225 256.785675,221.802795 256.785675,221.802795 
z"/>
<path fill="#C3B3A5" opacity="1.000000" stroke="none" 
	d="
M180.183044,282.156860 
	C179.816727,282.730804 179.337509,283.202972 178.858292,283.675171 
	C179.006531,283.118774 179.154755,282.562347 179.575851,281.926453 
	C179.848724,281.846985 180.070160,282.055145 180.183044,282.156860 
z"/>
<path fill="#C3B3A5" opacity="1.000000" stroke="none" 
	d="
M208.161041,327.817810 
	C208.480606,327.984802 208.681122,328.291473 208.881638,328.598145 
	C208.608398,328.578247 208.335159,328.558350 207.932465,328.387390 
	C207.803024,328.236298 208.041977,327.957550 208.161041,327.817810 
z"/>
<path fill="#C2B2A3" opacity="1.000000" stroke="none" 
	d="
M264.252014,284.859680 
	C264.182709,284.453217 264.368561,283.860809 264.800110,283.062836 
	C264.866272,283.462738 264.686737,284.068268 264.252014,284.859680 
z"/>
<path fill="#C3B3A5" opacity="1.000000" stroke="none" 
	d="
M186.632080,255.434372 
	C186.707825,255.527649 186.432999,255.569016 186.432999,255.569016 
	C186.432999,255.569016 186.556320,255.341095 186.632080,255.434372 
z"/>
<path fill="#C9BAAD" opacity="1.000000" stroke="none" 
	d="
M257.257202,222.280579 
	C257.218048,222.691086 256.992767,222.905518 256.541443,223.215698 
	C256.347473,223.345169 256.109344,223.102890 255.990234,222.980896 
	C255.983887,222.555801 256.158875,222.294373 256.590881,221.938690 
	C256.785675,221.802795 257.103180,222.118225 257.257202,222.280579 
z"/>
<path fill="#C9BAAD" opacity="1.000000" stroke="none" 
	d="
M189.234848,213.218338 
	C189.029327,213.162186 188.823807,213.106018 188.838715,213.047729 
	C189.059143,213.045609 189.234848,213.218338 189.234848,213.218338 
z"/>
<path fill="#C9BAAD" opacity="1.000000" stroke="none" 
	d="
M188.972717,212.957809 
	C189.082443,212.919388 189.278580,212.968781 189.354797,213.118256 
	C189.234848,213.218338 189.059143,213.045609 188.972717,212.957809 
z"/>
<path fill="#C2B2A3" opacity="1.000000" stroke="none" 
	d="
M140.096924,251.965073 
	C136.744415,252.991150 133.391907,254.017212 130.102570,255.023941 
	C131.467758,261.191223 130.733047,262.712128 125.331200,263.895996 
	C119.743088,265.120697 114.050438,265.868347 107.216057,267.025757 
	C112.020943,263.829681 116.196518,261.600098 119.678345,258.572662 
	C122.781143,255.874756 126.410774,252.671646 127.478104,249.012009 
	C128.967987,243.903503 133.240265,239.337891 131.316040,233.135315 
	C130.927017,231.881363 133.756500,229.628937 134.779678,228.266312 
	C134.554398,225.644043 134.341446,223.165298 134.128494,220.686539 
	C135.555817,220.762863 136.983154,220.839188 138.801346,220.936417 
	C139.453506,218.841309 139.857193,216.834641 135.835907,217.489594 
	C134.998703,217.625961 134.002548,216.786606 133.079636,216.396912 
	C133.718521,215.599258 134.220673,214.598984 135.029480,214.053146 
	C136.143997,213.300980 137.490204,212.892151 138.513199,211.427902 
	C136.633057,211.169113 134.752914,210.910339 133.322296,210.713440 
	C132.494751,207.087036 131.141617,203.835297 131.221710,200.619232 
	C131.280518,198.256973 133.216812,195.941437 134.316406,193.605087 
	C136.220032,194.550919 138.942169,195.002777 139.868820,196.538223 
	C142.327103,200.611557 143.695251,205.334488 146.077988,209.463791 
	C149.311935,215.068207 150.582535,221.207809 151.137070,227.379105 
	C151.996307,236.941208 148.995712,245.285110 140.742615,251.662079 
	C140.405060,251.958008 140.096924,251.965073 140.096924,251.965073 
z"/>
<path fill="#C4B4A6" opacity="1.000000" stroke="none" 
	d="
M91.375870,238.177307 
	C88.407898,240.724167 85.621162,242.946426 82.553802,245.392456 
	C81.581993,243.994354 81.219086,242.843536 80.497917,242.537842 
	C76.166107,240.701645 77.078880,239.054504 80.623047,237.614883 
	C83.753677,236.343246 84.923721,234.689697 81.739731,231.510590 
	C84.104729,230.636963 85.983864,229.942810 87.657623,229.324524 
	C89.128487,232.541321 90.342796,235.197021 91.375870,238.177307 
z"/>
<path fill="#C9BAAD" opacity="1.000000" stroke="none" 
	d="
M136.403168,317.310303 
	C139.242432,314.273468 141.950485,311.565277 144.658524,308.857117 
	C145.028763,309.199829 145.399002,309.542542 145.769226,309.885254 
	C141.397858,316.168213 141.130142,325.611572 130.936371,328.250122 
	C131.500671,323.596344 138.341171,322.858795 136.403168,317.310303 
z"/>
<path fill="#C9BAAD" opacity="1.000000" stroke="none" 
	d="
M127.081848,315.225220 
	C125.073288,316.743408 123.211342,317.928619 120.905685,319.396240 
	C122.064125,314.286407 127.642632,309.016907 131.396530,309.344482 
	C129.921143,311.308228 128.574799,313.100220 127.081848,315.225220 
z"/>
<path fill="#C9BAAD" opacity="1.000000" stroke="none" 
	d="
M113.454384,319.472687 
	C114.615868,312.488525 118.236992,308.734314 122.154839,309.952820 
	C119.721321,313.227722 117.216736,316.598267 114.274277,319.898438 
	C113.709053,319.709595 113.581718,319.591125 113.454384,319.472687 
z"/>
<path fill="#C9BAAD" opacity="1.000000" stroke="none" 
	d="
M119.845215,328.666992 
	C120.330780,323.560669 124.969917,322.675507 127.353447,319.396759 
	C127.953346,320.046051 128.553238,320.695343 129.153137,321.344635 
	C126.146980,323.825653 123.140816,326.306641 119.845215,328.666992 
z"/>
<path fill="#C9BAAD" opacity="1.000000" stroke="none" 
	d="
M139.990631,252.307144 
	C140.096924,251.965073 140.405060,251.958008 140.558594,251.963058 
	C141.254501,252.300461 141.796890,252.632812 142.669632,252.982574 
	C143.000000,253.000000 142.996750,252.997559 142.996765,252.997559 
	C141.177322,255.050934 139.357880,257.104279 137.538437,259.157654 
	C137.068634,258.776917 136.598846,258.396179 136.129059,258.015472 
	C137.380814,256.226715 138.632568,254.437958 139.990631,252.307144 
z"/>
<path fill="#C9BAAD" opacity="1.000000" stroke="none" 
	d="
M114.012726,320.020294 
	C113.594582,320.573303 113.000114,320.934082 112.405655,321.294861 
	C112.604698,320.772217 112.803741,320.249542 113.228584,319.599792 
	C113.581718,319.591125 113.709053,319.709595 114.012726,320.020294 
z"/>
<path fill="#C9BAAD" opacity="1.000000" stroke="none" 
	d="
M143.000809,253.000793 
	C143.151093,252.563995 143.300568,252.126389 143.450027,251.688782 
	C143.462036,252.083069 143.474045,252.477371 143.241394,252.934601 
	C142.996750,252.997559 143.000000,253.000000 143.000809,253.000793 
z"/>
<path fill="#C9BAAD" opacity="1.000000" stroke="none" 
	d="
M130.401031,317.639252 
	C130.321976,317.533447 130.603439,317.469879 130.603439,317.469879 
	C130.603439,317.469879 130.480087,317.745056 130.401031,317.639252 
z"/>
<path fill="#C4B4A6" opacity="1.000000" stroke="none" 
	d="
M401.551331,211.600433 
	C399.518311,211.990540 397.485291,212.380661 394.031708,213.043396 
	C395.810303,210.633560 396.805908,209.284576 398.038025,207.615173 
	C396.955505,207.517822 395.868408,207.420059 394.747406,207.319244 
	C397.447510,201.196030 408.849182,192.470917 417.837891,189.715988 
	C417.312561,193.809372 417.587250,198.243942 410.980896,197.016449 
	C411.108063,197.482361 411.235260,197.948273 411.362427,198.414185 
	C413.557617,198.414185 415.752838,198.414185 418.531067,198.414185 
	C420.348541,210.415466 421.245270,222.534271 416.041412,234.756851 
	C419.929688,241.280304 419.929688,241.280304 413.131348,245.921936 
	C414.130829,246.721237 415.032623,247.442398 416.380585,248.520355 
	C414.919891,250.051682 413.693939,251.563843 412.242645,252.814514 
	C408.381653,256.141724 404.486237,259.437469 400.453766,262.550415 
	C399.597351,263.211517 398.100311,263.042694 396.898468,263.256287 
	C396.787659,262.186218 396.558960,261.112000 396.596069,260.047089 
	C396.641876,258.733948 396.949219,257.432281 397.071808,256.118958 
	C397.328979,253.364792 397.539215,250.606232 397.862000,246.729111 
	C394.344666,243.383148 395.287445,239.352127 401.604889,236.659393 
	C402.461487,236.294266 403.086243,235.385147 404.072144,234.315033 
	C404.118866,233.831131 403.911835,233.760117 403.704773,233.689102 
	C401.410706,234.385437 399.116608,235.081757 395.828888,236.079712 
	C401.000275,230.515961 404.848083,225.299042 411.651917,223.500916 
	C413.624451,222.979599 415.154663,220.784744 416.459442,218.428589 
	C412.056061,219.862961 407.652679,221.297333 403.249268,222.731705 
	C403.115509,222.312164 402.981750,221.892624 402.847992,221.473083 
	C401.137604,224.122437 399.427246,226.771774 397.331909,230.017395 
	C393.142242,221.676758 396.404510,216.881927 402.325012,212.423798 
	C402.942688,211.469208 403.088440,210.892120 403.234192,210.315033 
	C402.673279,210.743500 402.112305,211.171967 401.551331,211.600433 
M407.769653,206.867935 
	C406.766571,207.405319 405.763489,207.942719 404.760437,208.480118 
	C405.286560,209.002213 405.812683,209.524292 406.338837,210.046387 
	C406.978210,209.070908 407.617554,208.095444 407.769653,206.867935 
z"/>
<path fill="#C2B2A3" opacity="1.000000" stroke="none" 
	d="
M407.853577,310.324036 
	C410.121124,308.938629 412.388672,307.553192 414.656189,306.167755 
	C414.482635,305.773743 414.309113,305.379730 414.135559,304.985718 
	C410.499115,307.192963 405.632812,305.013184 402.432343,309.657196 
	C401.354858,311.220673 398.192322,311.347198 395.982758,312.130493 
	C395.561676,311.726227 395.140594,311.321991 394.719513,310.917755 
	C396.033417,308.401855 397.347321,305.885925 398.813843,303.077789 
	C398.218201,302.079956 396.229431,300.230988 396.336670,298.512817 
	C396.445007,296.776520 398.630249,295.169891 400.167847,293.164581 
	C398.928192,292.512512 397.856171,291.948608 396.115387,291.032928 
	C396.441620,285.242065 396.767853,279.098724 397.152008,272.959015 
	C397.220673,271.861938 397.136047,270.318726 397.788208,269.762756 
	C403.802338,264.635742 409.963013,259.680634 416.253784,254.534241 
	C420.241669,259.214600 419.078522,263.939606 418.847076,268.441010 
	C418.634186,272.581421 417.176147,276.904175 417.981476,280.791290 
	C419.114777,286.261200 417.779419,290.437317 414.339142,294.328064 
	C420.361694,298.819946 419.831238,306.458649 413.203430,311.418030 
	C413.049652,311.822968 413.053925,312.077850 413.053925,312.077850 
	C413.053925,312.077850 413.335266,311.781281 413.335266,311.781281 
	C414.513550,311.631622 415.691833,311.481964 417.365112,311.577484 
	C417.860107,311.822662 418.171265,312.152466 418.171265,312.152466 
	C418.384247,313.560974 418.597229,314.969482 418.890472,316.908630 
	C413.820129,315.646759 410.852112,318.186676 407.706726,321.309143 
	C405.531708,323.468292 402.178223,324.440338 399.351349,325.942841 
	C399.013092,325.449890 398.674835,324.956909 398.336609,324.463928 
	C398.938446,323.217560 399.540314,321.971222 400.396515,320.367004 
	C400.650848,320.009186 400.996307,320.001251 400.996307,320.001251 
	C402.736084,319.079254 404.475891,318.157257 406.196564,317.245422 
	C404.673401,314.224518 400.877930,311.538513 406.947357,310.355530 
	C407.327820,310.997101 407.412872,311.266541 407.497925,311.536011 
	C407.616455,311.132019 407.735016,310.728027 407.853577,310.324036 
z"/>
<path fill="#C9BAAD" opacity="1.000000" stroke="none" 
	d="
M419.323914,319.697784 
	C420.358307,320.823578 421.049194,321.804138 421.740082,322.784698 
	C420.830994,323.408142 419.992126,324.392303 418.999329,324.585541 
	C416.323151,325.106323 413.581421,325.289917 409.582367,325.757385 
	C412.369263,321.586090 414.582245,318.989624 419.323914,319.697784 
z"/>
<path fill="#C4B4A6" opacity="1.000000" stroke="none" 
	d="
M407.731201,310.271881 
	C407.735016,310.728027 407.616455,311.132019 407.497925,311.536011 
	C407.412872,311.266541 407.327820,310.997101 407.293152,310.483948 
	C407.343536,310.240234 407.608826,310.219727 407.731201,310.271881 
z"/>
<path fill="#C4B4A6" opacity="1.000000" stroke="none" 
	d="
M400.964783,319.762329 
	C400.996307,320.001251 400.650848,320.009186 400.478424,320.010986 
	C400.372711,319.581757 400.439423,319.150726 400.506134,318.719696 
	C400.648529,318.987610 400.790894,319.255524 400.964783,319.762329 
z"/>
<path fill="#C2B2A3" opacity="1.000000" stroke="none" 
	d="
M417.721191,311.643494 
	C417.880157,311.603577 418.178009,311.742798 418.323578,312.017242 
	C418.171265,312.152466 417.860107,311.822662 417.721191,311.643494 
z"/>
<path fill="#C4B4A6" opacity="1.000000" stroke="none" 
	d="
M312.099609,245.964966 
	C309.806976,243.015961 311.104309,238.482193 314.562653,237.052795 
	C316.061371,236.433350 317.451202,235.550461 318.534698,233.975952 
	C316.175018,234.531418 313.815369,235.086899 311.534851,235.623734 
	C313.308960,232.835297 314.365723,229.942657 316.417053,228.269058 
	C318.857574,226.277954 322.223999,225.463501 325.055115,223.896820 
	C327.525513,222.529755 329.809692,220.826187 332.176178,219.271301 
	C331.983337,218.903793 331.790527,218.536270 331.597687,218.168747 
	C326.860931,219.678406 322.124176,221.188065 316.434265,223.001526 
	C315.481354,224.438644 313.668335,227.172943 311.196259,230.901276 
	C308.818726,222.833206 309.926117,217.501404 316.179504,213.229858 
	C319.110443,211.177200 321.541626,209.543930 324.503235,207.554321 
	C322.701965,206.893219 321.649139,206.506805 320.596313,206.120407 
	C321.077332,206.695374 321.558350,207.270340 322.039368,207.845306 
	C320.028259,208.961578 318.017120,210.077850 316.005981,211.194107 
	C314.018616,211.786743 312.031250,212.379410 308.641327,213.390350 
	C310.307617,210.880524 311.234680,209.484085 312.386810,207.748672 
	C311.479584,207.599258 310.543457,207.445084 309.054840,207.199905 
	C314.370850,197.867020 323.877502,194.473495 332.243561,189.528030 
	C331.207458,192.864319 333.170013,198.383469 325.906982,196.981934 
	C326.054626,197.436157 326.202301,197.890366 326.349976,198.344589 
	C328.443512,198.344589 330.537048,198.344589 333.536621,198.344589 
	C333.870850,204.728088 334.406494,211.379166 334.492126,218.036057 
	C334.538177,221.615417 334.070648,225.259155 333.332306,228.768112 
	C332.922485,230.715805 331.478790,232.445969 330.388641,234.484451 
	C335.010773,241.188156 335.010773,241.188156 327.375854,246.123215 
	C328.582947,246.782654 329.580109,247.327393 331.094513,248.154678 
	C329.973267,249.472656 329.082764,250.822357 327.907898,251.845551 
	C323.823517,255.402512 319.689911,258.908112 315.456299,262.284393 
	C314.535919,263.018433 313.122955,263.134796 311.936890,263.535645 
	C311.734375,262.343109 311.486237,261.156158 311.339630,259.956757 
	C311.094513,257.951111 310.417908,255.826767 310.835541,253.956116 
	C311.328949,251.745895 312.791412,249.752014 314.231354,247.257507 
	C316.661621,245.260406 318.694305,243.670135 320.726990,242.079865 
	C316.905212,241.870300 313.262390,241.653931 312.099609,245.964966 
M321.919312,238.702545 
	C321.949921,238.877747 321.980530,239.052963 322.011139,239.228165 
	C322.053680,239.055496 322.096222,238.882812 321.919312,238.702545 
z"/>
<path fill="#C2B2A3" opacity="1.000000" stroke="none" 
	d="
M317.892395,309.893280 
	C315.573761,310.599243 313.255096,311.305206 309.984344,312.301056 
	C310.333618,310.033691 310.586304,308.557587 310.783630,307.074127 
	C311.081146,304.837524 311.171875,302.558258 311.660339,300.366180 
	C312.203125,297.930267 313.093506,295.571838 314.009735,292.606232 
	C313.629974,292.393585 312.470886,291.744598 311.626526,291.271820 
	C311.626526,285.182220 311.471008,279.290436 311.723114,273.416138 
	C311.796875,271.696594 312.580383,269.524597 313.811096,268.423279 
	C318.509491,264.218994 323.490204,260.325500 328.433685,256.401917 
	C330.670990,254.626190 332.509827,255.093140 333.228394,257.962158 
	C333.664398,259.702972 334.074280,261.596741 333.840454,263.333527 
	C332.849426,270.694794 331.669159,277.934937 332.878021,285.496399 
	C333.318634,288.252441 330.987732,291.451599 329.828491,294.709229 
	C333.328461,296.868835 333.526459,301.098572 332.758179,305.108490 
	C332.233734,307.845795 331.774902,310.245026 332.926025,312.879303 
	C333.404816,313.975037 333.283203,315.333130 333.458893,316.770416 
	C328.574310,315.563629 325.572601,317.886841 322.856201,320.968475 
	C320.233398,323.943939 317.168610,325.796326 311.894745,324.559265 
	C315.207031,321.678558 317.861572,319.369873 320.255859,317.287537 
	C319.519348,314.967072 318.900391,313.016907 318.681793,310.612488 
	C323.157349,310.134155 326.555145,308.706970 329.161804,305.561310 
	C325.803619,305.760742 322.584503,306.265747 319.482666,307.172058 
	C318.750092,307.386108 318.411987,308.950226 317.892395,309.893280 
z"/>
<path fill="#C9BAAD" opacity="1.000000" stroke="none" 
	d="
M325.810852,325.440491 
	C326.717499,320.672089 331.610962,317.901764 334.836700,320.072784 
	C335.642212,320.614868 336.352112,321.816895 336.407776,322.756927 
	C336.440033,323.302063 335.154388,324.287231 334.335266,324.454407 
	C331.622528,325.007965 328.852325,325.279999 325.810852,325.440491 
z"/>
<path fill="#F1EDE9" opacity="1.000000" stroke="none" 
	d="
M312.227417,246.133911 
	C313.262390,241.653931 316.905212,241.870300 320.726990,242.079865 
	C318.694305,243.670135 316.661621,245.260406 314.275269,246.917480 
	C313.399475,246.757156 312.877380,246.530014 312.227417,246.133911 
z"/>
<path fill="#C9BAAD" opacity="1.000000" stroke="none" 
	d="
M313.512512,320.051117 
	C312.183258,319.537506 311.205872,318.987854 310.228485,318.438202 
	C311.880920,317.043884 313.533356,315.649536 315.185760,314.255219 
	C315.561340,314.620544 315.936920,314.985870 316.312500,315.351196 
	C315.496460,316.905823 314.680389,318.460449 313.512512,320.051117 
z"/>
<path fill="#F1EDE9" opacity="1.000000" stroke="none" 
	d="
M316.005219,211.510559 
	C318.017120,210.077850 320.028259,208.961578 322.039368,207.845306 
	C321.558350,207.270340 321.077332,206.695374 320.596313,206.120407 
	C321.649139,206.506805 322.701965,206.893219 324.503235,207.554321 
	C321.541626,209.543930 319.110443,211.177200 316.367615,212.952637 
	C316.038757,212.672226 316.021606,212.249619 316.005219,211.510559 
z"/>
<path fill="#BFAE9F" opacity="1.000000" stroke="none" 
	d="
M305.981903,292.968018 
	C306.088287,292.925415 306.293671,292.982147 306.390167,293.151245 
	C306.281281,293.263672 306.080902,293.067352 305.981903,292.968018 
z"/>
<path fill="#F1EDE9" opacity="1.000000" stroke="none" 
	d="
M245.330353,279.005371 
	C247.438095,277.091309 249.908752,275.159424 252.700134,273.100281 
	C250.578339,274.977814 248.135803,276.982666 245.330353,279.005371 
z"/>
<path fill="#C3B3A5" opacity="1.000000" stroke="none" 
	d="
M258.615234,274.445190 
	C258.536407,275.539307 258.186462,276.578583 257.836487,277.617828 
	C257.348480,277.339081 256.860443,277.060333 256.372406,276.781586 
	C257.029633,275.984497 257.686859,275.187408 258.615234,274.445190 
z"/>
<path fill="#F1EDE9" opacity="1.000000" stroke="none" 
	d="
M253.337036,273.095886 
	C254.530029,272.242065 256.087982,271.465332 257.911377,270.843353 
	C256.685242,271.723083 255.193619,272.448059 253.337036,273.095886 
z"/>
<path fill="#F1EDE9" opacity="1.000000" stroke="none" 
	d="
M242.034103,308.674805 
	C242.879028,308.091980 243.562225,307.747986 244.245407,307.404022 
	C244.444534,307.735870 244.643661,308.067749 244.842789,308.399628 
	C243.926987,308.846802 243.013794,309.299744 242.087448,309.723877 
	C242.042007,309.744629 241.822906,309.527924 241.789764,309.395508 
	C241.753525,309.250824 241.839615,309.075562 242.034103,308.674805 
z"/>
<path fill="#F1EDE9" opacity="1.000000" stroke="none" 
	d="
M190.754944,240.008179 
	C192.126938,239.013931 193.236160,238.288666 195.467377,236.829788 
	C190.729858,244.728333 188.954010,245.518494 184.870987,241.782898 
	C186.982178,241.217392 188.737167,240.747284 190.754944,240.008179 
z"/>
<path fill="#FBFAF9" opacity="1.000000" stroke="none" 
	d="
M179.999146,247.002838 
	C180.011871,247.018021 180.320587,246.694824 180.320587,246.694824 
	C180.320587,246.694824 180.204895,247.011597 180.081726,246.984955 
	C179.958542,246.958298 179.986435,246.987640 179.999146,247.002838 
z"/>
<path fill="#F1EDE9" opacity="1.000000" stroke="none" 
	d="
M255.738129,243.718933 
	C256.970856,242.708527 258.203552,241.698105 259.436249,240.687683 
	C259.772552,241.082809 260.108826,241.477921 260.445129,241.873032 
	C259.324768,242.678909 258.204437,243.484772 256.594696,244.190063 
	C255.982895,243.965988 255.860519,243.842468 255.738129,243.718933 
z"/>
<path fill="#F1EDE9" opacity="1.000000" stroke="none" 
	d="
M247.627075,250.660294 
	C248.458862,249.731049 249.290665,248.801804 250.595398,247.966339 
	C251.068344,248.060120 251.338120,248.332077 251.338120,248.332077 
	C250.453827,249.175613 249.569534,250.019150 248.291351,250.890778 
	C247.897491,250.918869 247.627075,250.660294 247.627075,250.660294 
z"/>
<path fill="#F1EDE9" opacity="1.000000" stroke="none" 
	d="
M256.281219,244.282043 
	C255.531464,244.999252 254.605774,245.523895 253.340546,246.024841 
	C253.000992,246.001144 252.992203,245.994034 252.992218,245.994049 
	C253.716949,245.308884 254.441666,244.623734 255.452271,243.828751 
	C255.860519,243.842468 255.982895,243.965988 256.281219,244.282043 
z"/>
<path fill="#F1EDE9" opacity="1.000000" stroke="none" 
	d="
M248.030396,251.050507 
	C247.925613,251.095795 247.687927,251.009415 247.538651,250.791656 
	C247.627075,250.660294 247.897491,250.918869 248.030396,251.050507 
z"/>
<path fill="#F1EDE9" opacity="1.000000" stroke="none" 
	d="
M252.261276,247.237488 
	C252.153122,247.552200 251.972168,247.817200 251.528275,248.182281 
	C251.338120,248.332077 251.068344,248.060120 250.932983,247.922760 
	C250.947693,247.492706 251.154800,247.248367 251.737381,247.045471 
	C252.055801,247.038544 252.261276,247.237488 252.261276,247.237488 
z"/>
<path fill="#F1EDE9" opacity="1.000000" stroke="none" 
	d="
M253.005905,246.007095 
	C252.992477,246.357819 252.863556,246.654541 252.442688,247.070374 
	C252.261276,247.237488 252.055801,247.038544 251.953537,246.936646 
	C252.019684,246.549011 252.248901,246.325714 252.765564,246.079437 
	C252.992203,245.994034 253.000992,246.001144 253.005905,246.007095 
z"/>
<path fill="#FBFAF9" opacity="1.000000" stroke="none" 
	d="
M241.990219,201.980133 
	C242.258194,201.788818 242.583755,201.665955 242.909302,201.543106 
	C242.774246,201.733154 242.639191,201.923218 242.334137,202.148895 
	C242.164124,202.184525 242.047791,202.048599 241.990219,201.980133 
z"/>
<path fill="#FBFAF9" opacity="1.000000" stroke="none" 
	d="
M408.013306,206.993958 
	C407.617554,208.095444 406.978210,209.070908 406.338837,210.046387 
	C405.812683,209.524292 405.286560,209.002213 404.760437,208.480118 
	C405.763489,207.942719 406.766571,207.405319 408.013306,206.993958 
z"/>
<path fill="#FBFAF9" opacity="1.000000" stroke="none" 
	d="
M401.729065,211.768555 
	C402.112305,211.171967 402.673279,210.743500 403.234192,210.315033 
	C403.088440,210.892120 402.942688,211.469208 402.528625,212.160645 
	C402.260345,212.274963 401.906799,211.936661 401.729065,211.768555 
z"/>
<path fill="#FBFAF9" opacity="1.000000" stroke="none" 
	d="
M403.801758,233.787598 
	C403.911835,233.760117 404.118866,233.831131 404.210632,233.991379 
	C404.095306,234.080612 403.898773,233.886108 403.801758,233.787598 
z"/>
<path fill="#C4B4A6" opacity="1.000000" stroke="none" 
	d="
M413.292419,311.766052 
	C413.335266,311.781281 413.053925,312.077850 413.053925,312.077850 
	C413.053925,312.077850 413.049652,311.822968 413.133148,311.744568 
	C413.216644,311.666138 413.249573,311.750854 413.292419,311.766052 
z"/>
<path fill="#F1EDE9" opacity="1.000000" stroke="none" 
	d="
M322.029022,238.706345 
	C322.096222,238.882812 322.053680,239.055496 322.011139,239.228165 
	C321.980530,239.052963 321.949921,238.877747 322.029022,238.706345 
z"/>
<path fill="#FBFAF9" opacity="1.000000" stroke="none" 
	d="
M317.998169,310.012634 
	C318.411987,308.950226 318.750092,307.386108 319.482666,307.172058 
	C322.584503,306.265747 325.803619,305.760742 329.161804,305.561310 
	C326.555145,308.706970 323.157349,310.134155 318.695190,310.267578 
	C318.308197,310.376892 318.103912,310.131958 317.998169,310.012634 
z"/>
</svg>