<svg version="1.1" id="Layer_1" xmlns="http://www.w3.org/2000/svg" xmlns:xlink="http://www.w3.org/1999/xlink" x="0px" y="0px"
	 width="100%" viewBox="0 0 512 512" enable-background="new 0 0 512 512" xml:space="preserve">
<path fill="#BFAE9F" opacity="1.000000" stroke="none" 
	d="
M225.000000,0.999999 
	C246.020889,1.000000 267.041779,1.000000 288.197418,1.336209 
	C293.347565,2.772700 298.320831,4.147249 303.385620,4.926353 
	C326.821503,8.531432 348.915771,16.352650 370.092712,26.674601 
	C401.573578,42.018822 428.553955,63.246498 451.453278,89.830399 
	C467.106201,108.001900 479.954803,127.836380 489.945557,149.594528 
	C500.706970,173.031219 508.135437,197.407639 511.082733,223.092148 
	C511.163086,223.792221 512.336365,224.366867 513.000000,225.000000 
	C513.000000,246.020889 513.000000,267.041779 512.663818,288.197418 
	C511.888275,289.172180 511.182007,289.973389 511.053375,290.858551 
	C510.277832,296.193787 510.046967,301.640259 508.877380,306.880676 
	C503.167175,332.466095 494.763702,357.030609 482.077057,380.148926 
	C466.864777,407.869446 447.137329,431.720123 423.241760,452.287811 
	C404.941620,468.039276 384.807953,480.828766 362.767975,490.696991 
	C339.792145,500.984283 315.982544,508.204651 290.912811,511.082642 
	C290.211060,511.163239 289.634796,512.336365 289.000000,513.000000 
	C267.979095,513.000000 246.958206,513.000000 225.802582,512.663818 
	C224.827774,511.888275 224.026505,511.182159 223.141296,511.053497 
	C217.805862,510.277954 212.358963,510.047668 207.118607,508.877228 
	C181.537750,503.163818 156.975403,494.766754 133.859314,482.079956 
	C106.138130,466.865723 82.287643,447.139008 61.715530,423.246307 
	C45.959740,404.947266 33.173252,384.811432 23.304434,362.770416 
	C13.016622,339.793701 5.795746,315.983551 2.917305,290.913025 
	C2.836729,290.211212 1.663651,289.634857 1.000001,289.000000 
	C1.000000,267.979095 1.000000,246.958206 1.336223,225.802551 
	C2.101963,224.995148 2.788526,224.369492 2.921419,223.642609 
	C4.323818,215.971664 5.473531,208.251617 7.006241,200.607925 
	C12.285306,174.280945 22.404621,149.805344 35.915066,126.706764 
	C50.473015,101.817291 69.077515,80.325523 90.915489,61.521351 
	C105.825920,48.682308 122.047073,37.846897 139.513336,28.907330 
	C165.849548,15.427952 193.586411,6.309324 223.092072,2.917501 
	C223.792267,2.837009 224.366837,1.663627 225.000000,0.999999 
M295.939392,293.930878 
	C295.939392,293.930878 296.049042,294.039825 295.970947,294.816254 
	C295.690704,296.102417 295.150452,297.393768 295.175934,298.673828 
	C295.278381,303.822845 295.651337,308.967529 295.699158,314.115875 
	C295.710602,315.351715 295.170959,316.880768 294.348083,317.788422 
	C289.801880,322.802917 285.228790,327.770782 277.848145,328.660461 
	C275.446167,328.950012 273.154144,330.151855 270.811829,330.936432 
	C270.928680,331.711334 271.045532,332.486206 271.162354,333.261108 
	C273.217316,333.261108 275.293243,333.446991 277.322327,333.217896 
	C280.435547,332.866425 283.499573,332.056122 286.614929,331.751953 
	C292.066010,331.219788 297.534393,330.755890 303.006012,330.567810 
	C311.597961,330.272522 320.205017,329.962585 328.793549,330.167725 
	C335.308380,330.323303 341.797699,331.407227 348.315582,331.722382 
	C349.310547,331.770477 350.398621,329.893341 351.443634,328.906677 
	C350.311829,328.194244 349.129211,326.800537 348.056519,326.880554 
	C341.399078,327.377106 335.005219,328.453613 329.899536,321.971680 
	C327.387909,318.783020 326.199799,315.986755 326.921600,312.182159 
	C327.127472,311.096893 327.438354,309.970703 327.336548,308.897888 
	C326.747437,302.689911 325.537109,296.493500 325.522858,290.290894 
	C325.506531,283.191925 327.471130,275.999939 326.805695,269.016998 
	C326.198944,262.649811 325.836761,256.865662 329.619751,251.495544 
	C324.779938,247.360275 326.848328,241.726929 326.502197,236.872787 
	C326.150452,231.939682 327.921417,226.888214 327.902344,221.891861 
	C327.854645,209.398636 327.366669,196.905548 326.906006,184.417877 
	C326.860443,183.182617 326.017639,181.711868 325.071228,180.908112 
	C324.704620,180.596756 322.932190,181.707138 321.956696,182.392578 
	C319.563660,184.074066 317.483643,186.895737 314.884064,187.466751 
	C304.368774,189.776413 293.714233,191.465134 283.088226,193.246796 
	C280.822021,193.626770 278.325531,192.999054 276.188141,193.657227 
	C274.678070,194.122223 273.594910,195.973618 272.321167,197.206085 
	C273.890259,197.806091 275.431915,198.815659 277.034027,198.922943 
	C280.639709,199.164383 284.277008,198.879562 287.898254,198.957993 
	C291.293030,199.031479 293.210052,200.826035 293.088318,204.299835 
	C292.949768,208.253464 292.616455,212.200287 292.344574,216.519470 
	C292.445374,216.519470 293.615662,216.519470 295.729645,216.519470 
	C294.452148,218.338287 293.684509,219.522461 292.822021,220.632965 
	C291.993164,221.700211 291.066101,222.691147 290.182190,223.715622 
	C290.464478,224.013550 290.746765,224.311478 291.029053,224.609421 
	C292.588043,223.973434 294.147034,223.337463 296.445831,222.399704 
	C296.445831,227.135620 296.496277,231.250305 296.428375,235.363022 
	C296.381836,238.181610 296.104004,240.996124 296.047028,243.814835 
	C295.932526,249.481415 295.897064,255.149612 295.832153,260.817169 
	C295.820953,261.794861 295.600708,262.836395 295.857056,263.740692 
	C298.643829,273.571625 297.954651,283.101013 293.612488,292.367279 
	C293.448883,292.716370 293.653564,293.238037 293.684845,293.655365 
	C294.512421,293.718567 295.172424,293.768951 295.939392,293.930878 
M454.696503,282.253326 
	C453.779358,273.854614 453.402832,265.351562 451.807190,257.083801 
	C449.848907,246.936707 442.920563,239.653305 433.984314,235.631912 
	C425.670929,231.890823 416.389008,233.107101 407.665833,236.030716 
	C403.008575,237.591599 398.437225,239.408981 393.229980,241.331009 
	C393.023285,238.351944 392.648743,236.064880 392.750366,233.799194 
	C392.994904,228.346786 394.669983,222.652191 393.595642,217.509064 
	C391.156891,205.833908 404.751862,187.125366 415.908813,183.514099 
	C423.481171,181.063110 429.325439,182.069748 432.566650,187.001480 
	C434.463531,189.887726 434.734924,192.105408 430.747864,193.460114 
	C428.407471,194.255325 426.139160,195.435104 424.056885,196.780075 
	C420.252441,199.237381 417.085663,209.659149 419.126617,212.379257 
	C423.905762,218.748856 435.583069,220.250259 442.146179,215.338974 
	C447.679474,211.198380 449.661621,200.326859 445.350922,194.671600 
	C442.268463,190.627701 438.328369,187.227814 434.700287,183.611435 
	C425.951294,174.890640 408.994659,178.267166 401.231537,182.254974 
	C392.639923,186.668365 384.829620,192.410156 379.269226,200.373016 
	C375.115997,206.320786 370.134125,211.813522 368.635345,219.543610 
	C367.792297,223.891724 365.363495,228.358658 362.459686,231.755188 
	C359.814850,234.848801 360.450439,237.654663 361.485413,240.284348 
	C363.036926,244.226440 364.008026,247.906906 362.431946,252.013306 
	C361.986237,253.174591 361.601837,254.614334 361.881531,255.756927 
	C363.476318,262.271484 364.366974,268.647949 360.115448,274.598236 
	C359.973511,274.796875 360.165283,275.233948 360.229553,275.812408 
	C361.408081,276.178284 362.671387,276.570465 363.583038,276.853485 
	C363.583038,279.085022 363.196381,280.952667 363.667389,282.570679 
	C364.522278,285.507385 365.964020,288.267365 367.026459,291.150604 
	C371.414490,303.059021 374.533264,315.466125 383.443573,325.333496 
	C388.726318,331.183655 394.718933,333.919891 402.512054,334.502258 
	C412.339813,335.236664 421.015259,331.989990 429.075897,327.464905 
	C440.241974,321.196503 450.216522,313.394684 452.106110,299.268402 
	C452.829895,293.857513 453.668854,288.462067 454.696503,282.253326 
M223.141693,328.853668 
	C225.353485,327.811615 227.612961,326.859131 229.768661,325.711700 
	C238.275589,321.183716 243.474167,313.588287 248.626160,305.793243 
	C257.333252,292.619263 260.182861,278.150330 259.621338,262.639099 
	C259.371521,255.738800 259.873169,248.811325 260.031464,241.993835 
	C259.640808,241.390289 258.370209,240.087601 257.892029,238.540070 
	C257.095245,235.961334 256.608246,233.245682 256.337494,230.552795 
	C255.186066,219.101257 247.016907,210.725983 243.209763,200.435364 
	C242.412476,198.280289 240.841415,196.175919 239.100555,194.647873 
	C232.872330,189.180984 225.744400,185.135437 217.593918,183.413025 
	C212.272858,182.288544 206.985809,179.140549 201.315460,182.755188 
	C193.927292,187.464828 186.169113,191.436478 180.385696,198.505936 
	C174.376358,205.851532 168.482025,213.069290 165.627975,222.320877 
	C164.859634,224.811493 163.140930,227.043854 162.579025,229.555923 
	C161.401733,234.819031 162.156876,240.602371 158.093872,245.034576 
	C158.023300,245.111557 158.131256,245.349808 158.152115,245.513290 
	C159.051270,252.563431 160.150497,259.595367 160.794098,266.668793 
	C161.481415,274.222687 160.401215,281.666870 164.031845,289.183197 
	C172.019623,305.719940 180.116669,321.825348 196.391815,332.015472 
	C201.524506,335.229126 210.688309,335.030914 215.683868,331.551270 
	C217.582748,330.228577 220.102295,329.796906 223.141693,328.853668 
M129.308121,302.958344 
	C119.383087,308.199341 109.105217,304.619476 98.996758,304.006500 
	C88.766342,303.386169 78.990959,297.446747 67.814896,302.234894 
	C68.256248,294.719788 70.764046,288.498413 75.685501,284.846741 
	C86.695137,276.677704 99.217140,271.665802 112.921455,269.013062 
	C128.410797,266.014740 141.161514,258.660248 143.637131,241.056396 
	C144.707230,233.447098 146.408051,225.317261 144.799667,218.097244 
	C142.860138,209.390640 138.006912,201.246140 133.842255,193.153015 
	C131.098648,187.821426 127.057213,183.130798 120.617569,182.181580 
	C115.224396,181.386612 109.726402,181.197083 104.265465,181.003769 
	C100.450813,180.868729 96.262718,180.205627 92.857376,181.455948 
	C75.902649,187.681198 61.983673,197.326752 58.744686,216.770309 
	C57.978256,221.371155 58.687912,226.234467 58.863441,230.971680 
	C59.117855,237.837692 62.374790,243.436081 67.091621,248.065536 
	C71.239395,252.136505 76.271713,251.846451 80.486214,247.958344 
	C87.820129,241.192413 88.176689,234.129150 80.668503,227.544922 
	C77.728355,224.966583 73.510254,223.364868 69.609909,222.469193 
	C62.939674,220.937469 60.466839,217.816376 63.193718,211.516632 
	C64.772682,207.868790 67.570023,204.695023 70.080658,201.514420 
	C76.073959,193.921753 83.470268,187.657776 92.892082,185.579361 
	C98.381531,184.368423 105.682526,184.045670 109.635628,189.176422 
	C113.143303,193.729050 116.133537,199.766037 116.579002,205.368286 
	C117.532570,217.360825 117.728912,229.392639 114.594894,241.488708 
	C112.475807,249.667557 108.526634,255.573349 102.133240,260.196381 
	C98.381622,262.909180 94.071892,264.851349 90.007858,267.130615 
	C78.794472,273.419556 68.249016,280.839539 64.920242,293.929047 
	C62.496548,303.459564 62.220699,313.548279 61.236557,323.412994 
	C61.145596,324.324799 62.860569,325.416779 63.736984,326.425079 
	C64.454666,325.298553 65.596878,324.241852 65.796066,323.030090 
	C66.142868,320.920471 65.735260,318.697998 65.948944,316.553223 
	C66.621689,309.801178 72.201424,305.452148 78.888458,305.767822 
	C85.919487,306.099701 89.431221,310.565674 92.289474,316.096283 
	C94.330719,320.045990 93.951576,325.276337 98.594887,327.854462 
	C103.060440,330.333862 107.434120,334.877747 111.942780,334.999115 
	C122.473145,335.282532 130.896072,330.345764 136.024796,320.321228 
	C138.483032,315.516388 140.999023,310.967468 141.283951,305.446320 
	C141.683685,297.700806 142.317078,289.966949 142.668976,282.219879 
	C142.705093,281.424255 141.505173,280.572449 140.878799,279.746735 
	C140.158051,280.507111 138.922668,281.199005 138.810715,282.040405 
	C138.439209,284.832458 138.365204,287.678528 138.371841,290.503448 
	C138.385986,296.518707 135.861664,300.717102 129.308121,302.958344 
z"/>
<path fill="#FFFFFF" opacity="1.000000" stroke="none" 
	d="
M513.000000,224.531342 
	C512.336365,224.366867 511.163086,223.792221 511.082733,223.092148 
	C508.135437,197.407639 500.706970,173.031219 489.945557,149.594528 
	C479.954803,127.836380 467.106201,108.001900 451.453278,89.830399 
	C428.553955,63.246498 401.573578,42.018822 370.092712,26.674601 
	C348.915771,16.352650 326.821503,8.531432 303.385620,4.926353 
	C298.320831,4.147249 293.347565,2.772700 288.666077,1.336209 
	C363.593719,1.000000 438.187408,1.000000 513.000000,1.000000 
	C513.000000,75.354088 513.000000,149.708389 513.000000,224.531342 
z"/>
<path fill="#FFFFFF" opacity="1.000000" stroke="none" 
	d="
M224.531342,0.999999 
	C224.366837,1.663627 223.792267,2.837009 223.092072,2.917501 
	C193.586411,6.309324 165.849548,15.427952 139.513336,28.907330 
	C122.047073,37.846897 105.825920,48.682308 90.915489,61.521351 
	C69.077515,80.325523 50.473015,101.817291 35.915066,126.706764 
	C22.404621,149.805344 12.285306,174.280945 7.006241,200.607925 
	C5.473531,208.251617 4.323818,215.971664 2.921419,223.642609 
	C2.788526,224.369492 2.101963,224.995148 1.336223,225.333893 
	C1.000000,150.406296 1.000000,75.812576 1.000000,1.000000 
	C75.354088,1.000000 149.708389,1.000000 224.531342,0.999999 
z"/>
<path fill="#FFFFFF" opacity="1.000000" stroke="none" 
	d="
M289.468658,513.000000 
	C289.634796,512.336365 290.211060,511.163239 290.912811,511.082642 
	C315.982544,508.204651 339.792145,500.984283 362.767975,490.696991 
	C384.807953,480.828766 404.941620,468.039276 423.241760,452.287811 
	C447.137329,431.720123 466.864777,407.869446 482.077057,380.148926 
	C494.763702,357.030609 503.167175,332.466095 508.877380,306.880676 
	C510.046967,301.640259 510.277832,296.193787 511.053375,290.858551 
	C511.182007,289.973389 511.888275,289.172180 512.663818,288.666077 
	C513.000000,363.593719 513.000000,438.187408 513.000000,513.000000 
	C438.645905,513.000000 364.291626,513.000000 289.468658,513.000000 
z"/>
<path fill="#FFFFFF" opacity="1.000000" stroke="none" 
	d="
M1.000001,289.468658 
	C1.663651,289.634857 2.836729,290.211212 2.917305,290.913025 
	C5.795746,315.983551 13.016622,339.793701 23.304434,362.770416 
	C33.173252,384.811432 45.959740,404.947266 61.715530,423.246307 
	C82.287643,447.139008 106.138130,466.865723 133.859314,482.079956 
	C156.975403,494.766754 181.537750,503.163818 207.118607,508.877228 
	C212.358963,510.047668 217.805862,510.277954 223.141296,511.053497 
	C224.026505,511.182159 224.827774,511.888275 225.333923,512.663818 
	C150.406296,513.000000 75.812599,513.000000 1.000000,513.000000 
	C1.000000,438.645905 1.000000,364.291626 1.000001,289.468658 
z"/>
<path fill="#FBFAF9" opacity="1.000000" stroke="none" 
	d="
M454.575928,282.656433 
	C453.668854,288.462067 452.829895,293.857513 452.106110,299.268402 
	C450.216522,313.394684 440.241974,321.196503 429.075897,327.464905 
	C421.015259,331.989990 412.339813,335.236664 402.512054,334.502258 
	C394.718933,333.919891 388.726318,331.183655 383.443573,325.333496 
	C374.533264,315.466125 371.414490,303.059021 367.026459,291.150604 
	C365.964020,288.267365 364.522278,285.507385 363.667389,282.570679 
	C363.196381,280.952667 363.583038,279.085022 363.583038,276.853485 
	C362.671387,276.570465 361.408081,276.178284 360.229553,275.812408 
	C360.165283,275.233948 359.973511,274.796875 360.115448,274.598236 
	C364.366974,268.647949 363.476318,262.271484 361.881531,255.756927 
	C361.601837,254.614334 361.986237,253.174591 362.431946,252.013306 
	C364.008026,247.906906 363.036926,244.226440 361.485413,240.284348 
	C360.450439,237.654663 359.814850,234.848801 362.459686,231.755188 
	C365.363495,228.358658 367.792297,223.891724 368.635345,219.543610 
	C370.134125,211.813522 375.115997,206.320786 379.269226,200.373016 
	C384.829620,192.410156 392.639923,186.668365 401.231537,182.254974 
	C408.994659,178.267166 425.951294,174.890640 434.700287,183.611435 
	C438.328369,187.227814 442.268463,190.627701 445.350922,194.671600 
	C449.661621,200.326859 447.679474,211.198380 442.146179,215.338974 
	C435.583069,220.250259 423.905762,218.748856 419.126617,212.379257 
	C417.085663,209.659149 420.252441,199.237381 424.056885,196.780075 
	C426.139160,195.435104 428.407471,194.255325 430.747864,193.460114 
	C434.734924,192.105408 434.463531,189.887726 432.566650,187.001480 
	C429.325439,182.069748 423.481171,181.063110 415.908813,183.514099 
	C404.751862,187.125366 391.156891,205.833908 393.595642,217.509064 
	C394.669983,222.652191 392.994904,228.346786 392.750366,233.799194 
	C392.648743,236.064880 393.023285,238.351944 393.229980,241.331009 
	C398.437225,239.408981 403.008575,237.591599 407.665833,236.030716 
	C416.389008,233.107101 425.670929,231.890823 433.984314,235.631912 
	C442.920563,239.653305 449.848907,246.936707 451.807190,257.083801 
	C453.402832,265.351562 453.779358,273.854614 454.575928,282.656433 
M379.675079,227.228195 
	C379.675079,227.228195 380.004761,227.028748 380.516785,227.261841 
	C383.595215,227.626053 389.039673,222.447281 389.710724,217.645248 
	C386.064301,220.567688 382.973633,223.044754 379.419373,225.849869 
	C379.174133,226.133636 378.928894,226.417404 378.392365,227.001389 
	C378.694794,227.105972 378.997223,227.210541 379.675079,227.228195 
M430.214203,246.580399 
	C430.854309,247.263092 431.494446,247.945786 432.186127,248.683487 
	C431.541595,249.694702 430.818817,250.828674 429.784241,252.451813 
	C433.917267,253.743317 435.260498,251.324860 436.598877,248.871552 
	C437.526184,247.171799 438.480316,245.486710 439.846497,243.033661 
	C438.563995,243.033661 436.777283,243.033661 434.826111,242.301498 
	C433.441956,241.624313 431.813660,240.141205 430.733704,240.468323 
	C429.293854,240.904419 428.280304,242.747879 427.083649,243.986847 
	C428.064514,244.652496 429.045380,245.318146 430.214203,246.580399 
M440.400726,276.721466 
	C448.096649,275.438568 450.775238,272.173950 450.113373,265.227509 
	C449.841461,262.374023 448.694122,261.347717 446.166626,261.623657 
	C446.772095,259.134705 447.377533,256.645752 448.327545,252.740402 
	C445.053589,254.666077 442.967590,255.893036 440.491180,257.349609 
	C442.261292,258.052490 443.321533,258.473480 444.805695,259.062805 
	C439.192963,261.639771 433.737152,267.091675 433.531128,270.183014 
	C435.796753,268.998749 438.016510,267.941833 440.130280,266.703827 
	C442.162628,265.513519 444.085236,264.135864 445.928528,263.496216 
	C445.406769,264.395782 444.885040,265.295319 444.071167,266.698608 
	C445.223480,266.468781 445.810638,266.295715 446.407898,266.246887 
	C447.134735,266.187531 447.870148,266.232788 448.601837,266.232788 
	C448.778351,266.606354 448.954865,266.979950 449.131378,267.353516 
	C446.727417,269.077881 444.323425,270.802246 441.567993,271.884766 
	C437.036407,271.293457 433.734406,274.055206 433.544525,278.693909 
	C435.659607,277.907959 437.739014,277.135284 440.400726,276.721466 
M384.064911,257.079529 
	C384.064911,257.079529 383.844727,256.862823 383.645477,256.318665 
	C378.839905,255.516647 368.664734,262.220062 367.837555,267.012573 
	C372.359863,264.212982 376.709778,261.520111 381.059723,258.827240 
	C381.502350,259.379028 381.944977,259.930847 382.387604,260.482635 
	C380.244537,262.294342 378.234497,264.299255 375.934418,265.882935 
	C367.747833,271.519806 367.710449,271.465515 369.566864,276.041534 
	C372.754303,276.875610 374.995850,277.462158 376.422821,278.071014 
	C370.851288,278.830109 369.035919,280.547638 369.793030,283.593872 
	C372.008362,282.664581 374.327118,281.878784 376.434845,280.711853 
	C377.230988,280.271027 377.539429,278.949310 378.729095,278.269531 
	C384.704407,279.848236 386.456970,274.749542 390.218506,272.044250 
	C386.581451,271.865875 383.787689,271.728851 380.993927,271.591827 
	C382.385345,270.113007 384.026794,269.765961 385.370056,268.936188 
	C387.032654,267.909149 388.447906,266.481689 389.969971,265.227203 
	C388.494293,264.297791 387.018646,263.368347 385.803131,262.602783 
	C386.350464,261.095551 386.922180,259.521210 387.493896,257.946838 
	C386.423523,257.730774 385.353119,257.514679 384.064911,257.079529 
M384.034851,290.044037 
	C384.034851,290.044037 383.949493,289.957672 383.804108,289.354065 
	C379.087830,288.678589 378.735718,288.893494 372.983948,296.138611 
	C376.021423,297.319977 377.574097,299.121094 375.388641,302.387665 
	C374.968384,303.015808 375.757477,304.453033 375.988647,305.516998 
	C377.112122,305.241791 378.245087,305.000031 379.357056,304.684296 
	C381.535309,304.065918 383.701843,303.406158 386.710236,302.515839 
	C385.162048,305.575897 384.232086,307.414062 383.422699,309.013855 
	C381.671356,309.515991 380.011078,309.992035 378.350830,310.468048 
	C378.470551,310.813965 378.590271,311.159912 378.709961,311.505829 
	C380.709290,311.798828 382.708588,312.091858 385.002686,312.428070 
	C380.295105,319.036072 380.545135,319.543427 388.539276,320.963623 
	C386.181793,325.845245 386.608124,326.491516 392.145294,326.541138 
	C392.738342,326.546448 393.531006,326.571381 393.890625,326.929260 
	C397.984009,331.002869 402.939514,329.956970 408.402466,330.000000 
	C404.641785,326.649323 401.112823,324.182831 398.489960,320.975403 
	C395.927582,317.841827 393.445465,314.152954 392.534912,310.325562 
	C391.897369,307.645874 394.153320,304.305573 390.728821,302.011658 
	C390.446503,301.822571 390.267517,300.936218 390.457031,300.666656 
	C393.609283,296.182373 389.269928,295.128113 387.546326,293.624359 
	C388.592346,291.753906 389.533936,290.070190 390.475494,288.386475 
	C388.682709,288.915009 386.891479,289.448883 385.095734,289.967224 
	C384.780914,290.058075 384.447235,290.083801 384.034851,290.044037 
M428.873627,259.889648 
	C427.322693,255.723358 425.771729,251.557068 423.928314,246.605118 
	C423.482941,246.339142 422.007599,245.814575 421.021027,244.809998 
	C415.325348,239.010345 408.755219,239.689362 402.269043,242.610382 
	C396.485809,245.214844 392.440186,249.673615 392.856415,256.548248 
	C393.711365,270.670013 394.406769,284.823059 395.993958,298.869873 
	C396.790497,305.919281 399.224854,312.815338 401.251709,319.682343 
	C402.493378,323.889130 409.766785,326.394714 413.766846,325.132446 
	C422.895538,322.251740 425.116486,314.705658 427.012115,306.792816 
	C430.658417,291.572113 429.405823,276.142181 428.873627,259.889648 
M367.285370,243.571686 
	C367.285370,247.432587 367.285370,251.293488 367.285370,255.733566 
	C375.493164,252.228119 382.176788,247.641983 387.150208,240.976761 
	C388.378540,239.330582 388.166016,236.562759 388.465118,234.290710 
	C388.600677,233.260803 388.292633,232.180130 388.325012,231.126770 
	C388.354462,230.169739 388.572601,229.218521 388.923248,226.740982 
	C383.655670,230.474030 379.608032,233.342545 375.429108,236.304077 
	C376.113861,233.507919 376.694244,231.137909 377.274628,228.767914 
	C372.274353,231.628403 367.047516,233.958023 369.439758,240.695938 
	C369.606537,241.165771 368.305878,242.156631 367.285370,243.571686 
M448.031219,299.641937 
	C447.842896,297.122437 447.654602,294.602936 447.484497,292.326965 
	C444.417938,293.616211 442.411530,294.459747 440.405090,295.303284 
	C440.616821,293.309509 440.828522,291.315765 441.037872,289.321777 
	C433.078644,294.054657 429.253662,302.307709 431.548096,307.356079 
	C436.915741,304.968719 442.236908,302.602020 448.031219,299.641937 
M377.791992,220.293747 
	C379.145782,219.370193 380.794159,217.416626 381.801453,217.704697 
	C385.768585,218.839264 387.594574,216.069092 389.033417,213.766205 
	C390.274353,211.780106 390.150696,208.941391 390.630341,206.479630 
	C390.226624,206.156250 389.822906,205.832886 389.419159,205.509506 
	C385.523621,208.686829 381.091248,211.408295 377.891418,215.176422 
	C374.997833,218.584000 370.142975,221.655930 372.143433,227.621643 
	C374.448273,225.720490 376.744354,223.868896 378.949493,221.914703 
	C379.100372,221.781006 378.570526,220.879150 377.791992,220.293747 
M439.166626,314.595459 
	C441.735474,311.953491 444.838135,309.438080 441.323792,304.262085 
	C436.313232,311.137878 427.819458,314.008850 426.067719,322.556549 
	C426.500824,323.057037 426.933960,323.557526 427.367065,324.057983 
	C431.121918,321.065948 434.876770,318.073883 439.166626,314.595459 
M444.365540,201.374466 
	C443.661407,200.954697 442.600464,199.998871 442.306091,200.194778 
	C437.040283,203.699661 431.867310,207.344070 426.461731,211.106552 
	C428.239807,212.565735 429.453766,213.055389 429.627350,213.790634 
	C430.452454,217.285767 432.543152,216.145660 433.836823,214.698944 
	C437.469727,210.636276 440.774323,206.280014 444.365540,201.374466 
M425.627899,200.208328 
	C425.049316,201.552948 424.470703,202.897552 423.743073,204.588470 
	C426.819458,201.640106 429.417114,199.150543 432.014771,196.660995 
	C431.865112,196.455383 431.715485,196.249756 431.565857,196.044144 
	C429.738831,197.244614 427.911804,198.445084 425.627899,200.208328 
z"/>
<path fill="#FBFAF9" opacity="1.000000" stroke="none" 
	d="
M222.740326,328.906372 
	C220.102295,329.796906 217.582748,330.228577 215.683868,331.551270 
	C210.688309,335.030914 201.524506,335.229126 196.391815,332.015472 
	C180.116669,321.825348 172.019623,305.719940 164.031845,289.183197 
	C160.401215,281.666870 161.481415,274.222687 160.794098,266.668793 
	C160.150497,259.595367 159.051270,252.563431 158.152115,245.513290 
	C158.131256,245.349808 158.023300,245.111557 158.093872,245.034576 
	C162.156876,240.602371 161.401733,234.819031 162.579025,229.555923 
	C163.140930,227.043854 164.859634,224.811493 165.627975,222.320877 
	C168.482025,213.069290 174.376358,205.851532 180.385696,198.505936 
	C186.169113,191.436478 193.927292,187.464828 201.315460,182.755188 
	C206.985809,179.140549 212.272858,182.288544 217.593918,183.413025 
	C225.744400,185.135437 232.872330,189.180984 239.100555,194.647873 
	C240.841415,196.175919 242.412476,198.280289 243.209763,200.435364 
	C247.016907,210.725983 255.186066,219.101257 256.337494,230.552795 
	C256.608246,233.245682 257.095245,235.961334 257.892029,238.540070 
	C258.370209,240.087601 259.640808,241.390289 260.031464,241.993835 
	C259.873169,248.811325 259.371521,255.738800 259.621338,262.639099 
	C260.182861,278.150330 257.333252,292.619263 248.626160,305.793243 
	C243.474167,313.588287 238.275589,321.183716 229.768661,325.711700 
	C227.612961,326.859131 225.353485,327.811615 222.740326,328.906372 
M181.926926,212.247971 
	C182.243896,211.741180 182.560867,211.234390 182.877838,210.727600 
	C182.524597,210.422913 182.171341,210.118210 181.818085,209.813522 
	C181.487061,210.490036 181.156036,211.166550 180.533279,212.075653 
	C180.810608,212.179825 181.087952,212.283997 181.926926,212.247971 
M247.760651,222.813385 
	C248.096725,221.590790 248.432785,220.368195 248.768860,219.145615 
	C248.406754,219.063416 248.044662,218.981232 247.682556,218.899033 
	C247.325989,220.145615 246.969437,221.392181 246.363464,222.950500 
	C246.647842,223.044907 246.932236,223.139313 247.760651,222.813385 
M185.974426,205.678497 
	C185.365662,206.863052 184.756882,208.047607 183.973724,209.571487 
	C189.287506,208.408569 192.874985,205.153091 193.313232,201.178894 
	C190.749954,202.523712 188.369843,203.772446 185.857635,204.311234 
	C189.495850,200.917023 193.134079,197.522827 196.772308,194.128616 
	C196.377716,193.684753 195.983124,193.240875 195.588531,192.796997 
	C191.103088,196.499786 186.617645,200.202576 181.291031,204.599747 
	C183.800217,204.806641 184.910690,204.898193 185.974426,205.678497 
M239.253113,216.859070 
	C241.458755,220.231934 242.308334,217.106125 244.688019,215.847931 
	C242.767395,215.407349 241.882339,215.204330 241.306885,214.440628 
	C242.344864,213.593414 243.382843,212.746216 244.420837,211.899017 
	C244.297501,211.648544 244.174179,211.398071 244.050842,211.147614 
	C242.500717,211.515289 240.950577,211.882980 238.819061,212.388565 
	C239.777191,210.792313 240.367950,209.808121 240.958694,208.823944 
	C240.615585,208.467743 240.272461,208.111557 239.929352,207.755371 
	C236.905304,210.025208 233.881271,212.295044 230.857239,214.564865 
	C231.121063,215.069839 231.384888,215.574829 231.648712,216.079803 
	C234.258224,216.079803 236.867752,216.079803 239.253113,216.859070 
M198.074677,329.224823 
	C198.074677,329.224823 198.396393,329.173737 198.396393,329.173737 
	C198.396393,329.173737 198.024292,328.979187 197.977493,328.250000 
	C195.716675,323.588562 193.455856,318.927155 191.187683,314.250519 
	C189.796417,314.250519 188.426514,314.250519 187.056595,314.250519 
	C195.474457,312.254944 187.973541,306.405304 189.774094,302.912415 
	C189.949875,302.571381 187.770264,301.016174 187.185303,299.452057 
	C190.945190,293.833618 191.332733,278.091125 187.786453,275.033051 
	C192.146347,269.169281 191.008209,254.767792 186.039017,251.367004 
	C187.434067,249.599014 188.855774,247.797256 190.277481,245.995483 
	C189.913467,245.663834 189.549454,245.332199 189.185425,245.000549 
	C187.784958,245.342987 186.384491,245.685440 184.906799,245.312607 
	C186.258682,243.939499 187.735443,242.666229 188.932373,241.169235 
	C190.612747,239.067551 189.353485,238.293732 187.725983,237.483658 
	C188.672348,234.467667 190.077972,231.509613 190.467285,228.423355 
	C191.224075,222.423950 191.410538,216.352600 191.888275,209.524872 
	C187.676376,212.153259 183.385330,214.418594 179.581467,217.322205 
	C175.863434,220.160278 172.642426,223.649460 169.157074,226.895844 
	C170.033875,227.638000 170.667343,228.174179 171.564865,228.933868 
	C167.040176,231.032547 166.207016,234.577881 166.006638,238.759949 
	C165.837784,242.284241 164.870850,245.770309 164.161331,249.820358 
	C166.943619,248.912628 168.457397,248.418747 169.971176,247.924866 
	C169.310654,249.692703 168.235382,250.404495 167.264526,251.237900 
	C162.186142,255.597351 161.702240,261.819458 167.000336,261.760986 
	C163.429871,257.951294 165.414810,255.880951 168.905945,254.010193 
	C172.334381,252.173050 175.571289,249.978485 179.610382,247.793671 
	C181.414291,247.194229 183.218201,246.594772 184.831512,246.649750 
	C181.982468,249.617783 179.133408,252.585815 176.121429,255.723572 
	C177.585953,256.626740 178.463821,257.168091 179.101929,257.561615 
	C176.562943,259.715332 174.161591,261.752350 171.087585,263.758636 
	C168.386642,265.644745 165.685699,267.530853 162.984756,269.416992 
	C163.362122,269.888214 163.739487,270.359406 164.116852,270.830627 
	C167.947678,270.119263 170.126816,267.265717 172.704468,264.062592 
	C173.796173,265.037506 174.887894,266.012451 175.933182,266.945892 
	C173.199768,269.153381 171.042694,270.902649 168.877869,272.642242 
	C163.765274,276.750580 163.792831,276.978058 169.053452,280.708008 
	C169.576431,281.078796 169.617218,282.129669 169.301422,282.891418 
	C169.000885,283.334412 168.700363,283.777374 168.399841,284.220367 
	C168.662766,284.332733 169.123016,284.584961 169.157974,284.535675 
	C169.491577,284.065033 169.753204,283.543365 170.757339,283.003601 
	C175.277573,285.951782 176.692703,278.795471 181.963120,279.966766 
	C178.517273,283.361694 175.707764,286.129700 172.898254,288.897705 
	C173.136063,289.241272 173.373886,289.584869 173.611694,289.928436 
	C175.073624,289.290192 176.535553,288.651947 177.980835,288.613800 
	C177.971313,289.013275 177.961792,289.412781 177.534485,290.387085 
	C174.973221,291.937073 172.411942,293.487030 169.609344,295.183044 
	C170.093613,296.098389 170.771683,297.380005 171.714310,299.161682 
	C173.614609,297.863708 175.241806,296.752228 176.869019,295.640778 
	C177.243271,295.931396 177.617523,296.222046 177.991791,296.512665 
	C177.000153,297.719604 175.925171,298.869812 175.049255,300.155579 
	C174.553406,300.883514 173.899185,302.330994 174.162338,302.587982 
	C174.856705,303.266022 176.173767,304.004669 176.956558,303.768829 
	C179.800903,302.911774 182.527908,301.665314 185.194260,301.386993 
	C183.969757,302.569458 182.944687,304.268860 181.481750,304.833191 
	C177.739975,306.276550 177.237976,308.393066 179.123413,311.636566 
	C183.625183,319.380951 190.237106,324.810883 198.074677,329.224823 
M229.965225,298.807007 
	C229.971985,299.195679 229.978745,299.584351 229.602371,300.540436 
	C225.609818,304.945435 228.294617,309.400970 229.086685,313.006317 
	C226.766922,316.539062 224.705246,319.678772 222.643585,322.818481 
	C223.131714,323.162903 223.619827,323.507324 224.107956,323.851746 
	C225.161728,322.899994 226.250565,321.983826 227.260971,320.988098 
	C228.762543,319.508392 230.696762,316.433319 231.596466,316.718689 
	C236.244324,318.192719 236.498810,315.550140 236.702042,312.343994 
	C236.725250,311.977722 237.140762,311.374054 237.443924,311.326782 
	C242.715851,310.505341 238.860657,308.481842 238.016708,306.795410 
	C241.117188,303.918915 243.998672,300.704712 247.408661,298.214081 
	C252.039703,294.831604 253.437744,290.170166 253.958801,284.959076 
	C253.958801,284.959076 253.955200,285.005341 254.510452,284.476471 
	C254.932465,280.100922 259.186676,275.128174 252.543335,271.853668 
	C256.282410,266.641571 257.452576,256.528015 255.057907,249.054382 
	C253.819290,249.561172 252.653580,250.038132 251.487885,250.515076 
	C255.205978,246.089706 256.848358,242.068207 252.089996,237.739105 
	C252.154709,237.133713 252.219421,236.528320 252.664246,235.338089 
	C252.996750,234.162445 253.329254,232.986786 253.661758,231.811142 
	C253.199829,231.520020 252.737900,231.228882 252.275955,230.937759 
	C249.528381,233.323227 246.780823,235.708694 243.407486,237.890015 
	C242.141357,237.016922 240.875229,236.143845 238.982773,234.838852 
	C238.298920,236.160477 237.598679,238.804550 235.927063,240.478729 
	C232.321915,244.089432 232.117722,243.885559 233.698334,246.832245 
	C236.007141,244.190353 238.307129,241.558548 241.338882,238.089432 
	C241.195847,240.035019 241.150970,240.645508 241.071625,241.724716 
	C242.516235,240.862717 243.736984,240.134308 244.807465,240.127029 
	C241.681046,243.061401 238.753754,246.253403 235.376846,248.863708 
	C231.330688,251.991318 230.436691,255.242050 233.621414,259.220612 
	C232.619919,260.942719 231.697845,262.528259 229.789688,265.809418 
	C236.311493,262.167114 234.956131,266.941681 235.447815,267.427094 
	C233.255768,271.346039 231.224121,274.491425 229.879776,277.907288 
	C229.678543,278.418610 232.699829,280.198181 234.436829,281.551971 
	C227.083939,285.210968 228.952805,291.834595 229.965225,298.807007 
M195.888916,317.458313 
	C197.968613,322.774109 200.073792,328.502228 206.698349,329.081665 
	C212.667175,329.603729 219.354446,323.698486 221.317902,317.316467 
	C221.657974,316.211121 221.902115,315.057556 222.028595,313.908417 
	C222.621429,308.522186 222.734665,303.040009 223.852539,297.768829 
	C224.694214,293.799957 226.791290,290.100464 221.142792,288.599976 
	C223.019882,285.214722 224.715179,282.157318 226.389648,279.137451 
	C224.444000,277.942566 223.279297,277.227295 222.601776,276.811218 
	C224.221893,273.063965 226.096542,269.884918 226.938293,266.452576 
	C227.764145,263.085022 227.625137,259.463196 227.760361,255.947205 
	C228.189621,244.786057 230.446777,233.622757 227.994110,222.456787 
	C225.957230,213.183685 223.851944,203.923676 221.614319,194.697296 
	C220.103119,188.466324 214.864853,187.109238 209.656754,187.147949 
	C204.280045,187.187912 201.438858,191.361786 200.277756,196.121170 
	C199.306931,200.100677 197.752701,204.078934 197.146301,207.906158 
	C195.155045,220.473633 193.983002,233.220413 193.355026,245.940689 
	C192.701599,259.176727 192.672806,272.473328 193.074112,285.722137 
	C193.387329,296.062286 194.777069,306.369781 195.888916,317.458313 
M231.743057,202.781464 
	C228.257034,203.729706 228.193253,205.134384 230.639969,208.397964 
	C234.027328,207.486420 236.895264,206.714661 239.783905,205.937317 
	C239.548920,205.177292 239.447418,203.575928 238.630447,202.537384 
	C237.666214,201.311646 236.178818,200.277237 234.710403,199.801971 
	C234.267654,199.658676 233.132599,201.654312 231.743057,202.781464 
M244.053146,229.482040 
	C243.165649,230.443207 242.278137,231.404388 241.390625,232.365555 
	C241.821259,232.794952 242.251892,233.224350 242.682526,233.653748 
	C245.536179,231.212997 248.389847,228.772263 251.243500,226.331512 
	C250.796677,225.778366 250.349838,225.225204 249.903015,224.672058 
	C248.140747,226.130371 246.378464,227.588669 244.053146,229.482040 
M232.184280,234.101379 
	C234.862152,236.404190 235.729462,235.921127 238.100723,230.327209 
	C235.919403,231.740219 231.982086,227.731644 232.184280,234.101379 
M236.617264,222.149963 
	C235.128906,219.884003 234.332047,220.204529 231.844620,224.763992 
	C233.771942,223.858185 235.007675,223.277405 236.617264,222.149963 
M241.920959,228.465179 
	C242.410431,227.789352 242.899902,227.113525 243.389359,226.437714 
	C242.888702,225.979614 242.388031,225.521515 241.887360,225.063416 
	C240.891724,226.288269 239.896088,227.513123 238.900467,228.737991 
	C239.214493,229.083145 239.528519,229.428314 239.842545,229.773483 
	C240.381851,229.485397 240.921158,229.197311 241.920959,228.465179 
M244.596359,224.440826 
	C244.596359,224.440826 244.480865,224.658035 244.480865,224.658035 
	C244.480865,224.658035 244.719009,224.621033 244.596359,224.440826 
z"/>
<path fill="#FBFBFA" opacity="1.000000" stroke="none" 
	d="
M129.668701,302.824951 
	C135.861664,300.717102 138.385986,296.518707 138.371841,290.503448 
	C138.365204,287.678528 138.439209,284.832458 138.810715,282.040405 
	C138.922668,281.199005 140.158051,280.507111 140.878799,279.746735 
	C141.505173,280.572449 142.705093,281.424255 142.668976,282.219879 
	C142.317078,289.966949 141.683685,297.700806 141.283951,305.446320 
	C140.999023,310.967468 138.483032,315.516388 136.024796,320.321228 
	C130.896072,330.345764 122.473145,335.282532 111.942780,334.999115 
	C107.434120,334.877747 103.060440,330.333862 98.594887,327.854462 
	C93.951576,325.276337 94.330719,320.045990 92.289474,316.096283 
	C89.431221,310.565674 85.919487,306.099701 78.888458,305.767822 
	C72.201424,305.452148 66.621689,309.801178 65.948944,316.553223 
	C65.735260,318.697998 66.142868,320.920471 65.796066,323.030090 
	C65.596878,324.241852 64.454666,325.298553 63.736984,326.425079 
	C62.860569,325.416779 61.145596,324.324799 61.236557,323.412994 
	C62.220699,313.548279 62.496548,303.459564 64.920242,293.929047 
	C68.249016,280.839539 78.794472,273.419556 90.007858,267.130615 
	C94.071892,264.851349 98.381622,262.909180 102.133240,260.196381 
	C108.526634,255.573349 112.475807,249.667557 114.594894,241.488708 
	C117.728912,229.392639 117.532570,217.360825 116.579002,205.368286 
	C116.133537,199.766037 113.143303,193.729050 109.635628,189.176422 
	C105.682526,184.045670 98.381531,184.368423 92.892082,185.579361 
	C83.470268,187.657776 76.073959,193.921753 70.080658,201.514420 
	C67.570023,204.695023 64.772682,207.868790 63.193718,211.516632 
	C60.466839,217.816376 62.939674,220.937469 69.609909,222.469193 
	C73.510254,223.364868 77.728355,224.966583 80.668503,227.544922 
	C88.176689,234.129150 87.820129,241.192413 80.486214,247.958344 
	C76.271713,251.846451 71.239395,252.136505 67.091621,248.065536 
	C62.374790,243.436081 59.117855,237.837692 58.863441,230.971680 
	C58.687912,226.234467 57.978256,221.371155 58.744686,216.770309 
	C61.983673,197.326752 75.902649,187.681198 92.857376,181.455948 
	C96.262718,180.205627 100.450813,180.868729 104.265465,181.003769 
	C109.726402,181.197083 115.224396,181.386612 120.617569,182.181580 
	C127.057213,183.130798 131.098648,187.821426 133.842255,193.153015 
	C138.006912,201.246140 142.860138,209.390640 144.799667,218.097244 
	C146.408051,225.317261 144.707230,233.447098 143.637131,241.056396 
	C141.161514,258.660248 128.410797,266.014740 112.921455,269.013062 
	C99.217140,271.665802 86.695137,276.677704 75.685501,284.846741 
	C70.764046,288.498413 68.256248,294.719788 67.814896,302.234894 
	C78.990959,297.446747 88.766342,303.386169 98.996758,304.006500 
	C109.105217,304.619476 119.383087,308.199341 129.668701,302.824951 
M100.953911,267.132782 
	C105.423347,266.393494 109.909714,265.741943 114.356262,264.884064 
	C117.307510,264.314606 120.587639,263.574432 120.446236,259.674713 
	C120.337051,256.663483 122.291458,255.548737 124.562935,254.561172 
	C124.986687,256.215851 125.410446,257.870514 125.839050,259.544098 
	C133.081467,256.637878 133.959946,255.549271 134.339676,249.274673 
	C142.910309,239.715714 141.401779,228.454208 139.737747,217.175873 
	C139.669388,216.712631 139.313034,216.294571 139.105148,215.848801 
	C137.598038,212.616989 136.016815,209.416916 134.607971,206.142731 
	C132.415878,201.048309 130.879440,195.460999 124.785652,193.844467 
	C117.818840,198.992203 123.935982,205.456726 122.268715,211.309998 
	C124.599037,211.733551 126.556587,212.089340 129.245056,212.578003 
	C127.658264,213.598480 126.813309,214.088928 126.027252,214.660400 
	C124.969780,215.429153 123.957748,216.260437 122.926224,217.064911 
	C124.132576,217.424286 125.536087,217.513687 126.494011,218.213242 
	C127.622055,219.037048 128.363968,220.389587 129.594208,221.909225 
	C126.849113,221.563904 125.507362,221.395111 124.165611,221.226318 
	C124.165611,223.653366 124.165611,226.080414 124.165611,229.605499 
	C121.774391,231.624878 121.782524,231.624771 121.858650,237.544083 
	C121.864861,238.027863 121.694771,238.526459 121.543442,238.997894 
	C118.220360,249.350525 114.196877,259.165558 103.159912,263.847351 
	C101.822159,264.414825 100.723053,265.544891 98.991203,266.567993 
	C98.257408,266.912781 97.523605,267.257538 96.789810,267.602325 
	C96.903252,267.898651 97.016693,268.194946 97.130142,268.491272 
	C98.143608,268.061890 99.157074,267.632477 100.953911,267.132782 
M67.413361,240.733322 
	C68.959572,242.332962 70.505791,243.932602 72.583649,246.082245 
	C75.993080,243.264297 79.229675,240.589203 82.466263,237.914124 
	C81.862679,237.692307 81.259102,237.470505 80.655518,237.248703 
	C79.547630,235.007080 78.439743,232.765457 77.099487,230.053680 
	C75.783913,230.560211 74.017303,231.240372 71.779694,232.101898 
	C74.604958,235.501343 73.413185,237.294540 70.022186,238.374252 
	C69.153358,238.650894 68.466156,239.497971 67.413361,240.733322 
M123.989914,324.454529 
	C122.880318,325.641937 121.770729,326.829346 120.203804,328.506134 
	C128.180313,328.352264 132.405838,318.199707 134.011902,310.147705 
	C131.108200,313.005890 128.485367,316.113312 126.164085,319.431671 
	C125.268555,320.711823 125.057877,322.471039 123.989914,324.454529 
M107.230324,315.846375 
	C109.049858,314.259949 110.869400,312.673523 112.959190,310.851440 
	C107.721786,309.827820 105.780838,311.985229 102.718155,322.859192 
	C104.025078,320.659180 105.331993,318.459167 107.230324,315.846375 
M112.874390,328.273743 
	C114.863083,325.838318 116.851768,323.402893 118.840462,320.967438 
	C118.420692,320.582947 118.000916,320.198425 117.581146,319.813904 
	C114.516747,322.640808 111.452347,325.467712 108.387947,328.294617 
	C108.593079,328.701233 108.798203,329.107880 109.003326,329.514496 
	C110.133247,329.259003 111.263168,329.003510 112.874390,328.273743 
M99.709625,308.801239 
	C98.250038,309.841858 96.210960,310.599396 95.519478,312.015198 
	C94.993378,313.092346 96.179214,315.005646 96.779442,317.186707 
	C98.011650,313.931396 98.846863,311.724884 99.709625,308.801239 
z"/>
<path fill="#FBFAF9" opacity="1.000000" stroke="none" 
	d="
M295.832397,293.819336 
	C295.172424,293.768951 294.512421,293.718567 293.684845,293.655365 
	C293.653564,293.238037 293.448883,292.716370 293.612488,292.367279 
	C297.954651,283.101013 298.643829,273.571625 295.857056,263.740692 
	C295.600708,262.836395 295.820953,261.794861 295.832153,260.817169 
	C295.897064,255.149612 295.932526,249.481415 296.047028,243.814835 
	C296.104004,240.996124 296.381836,238.181610 296.428375,235.363022 
	C296.496277,231.250305 296.445831,227.135620 296.445831,222.399704 
	C294.147034,223.337463 292.588043,223.973434 291.029053,224.609421 
	C290.746765,224.311478 290.464478,224.013550 290.182190,223.715622 
	C291.066101,222.691147 291.993164,221.700211 292.822021,220.632965 
	C293.684509,219.522461 294.452148,218.338287 295.729645,216.519470 
	C293.615662,216.519470 292.445374,216.519470 292.344574,216.519470 
	C292.616455,212.200287 292.949768,208.253464 293.088318,204.299835 
	C293.210052,200.826035 291.293030,199.031479 287.898254,198.957993 
	C284.277008,198.879562 280.639709,199.164383 277.034027,198.922943 
	C275.431915,198.815659 273.890259,197.806091 272.321167,197.206085 
	C273.594910,195.973618 274.678070,194.122223 276.188141,193.657227 
	C278.325531,192.999054 280.822021,193.626770 283.088226,193.246796 
	C293.714233,191.465134 304.368774,189.776413 314.884064,187.466751 
	C317.483643,186.895737 319.563660,184.074066 321.956696,182.392578 
	C322.932190,181.707138 324.704620,180.596756 325.071228,180.908112 
	C326.017639,181.711868 326.860443,183.182617 326.906006,184.417877 
	C327.366669,196.905548 327.854645,209.398636 327.902344,221.891861 
	C327.921417,226.888214 326.150452,231.939682 326.502197,236.872787 
	C326.848328,241.726929 324.779938,247.360275 329.619751,251.495544 
	C325.836761,256.865662 326.198944,262.649811 326.805695,269.016998 
	C327.471130,275.999939 325.506531,283.191925 325.522858,290.290894 
	C325.537109,296.493500 326.747437,302.689911 327.336548,308.897888 
	C327.438354,309.970703 327.127472,311.096893 326.921600,312.182159 
	C326.199799,315.986755 327.387909,318.783020 329.899536,321.971680 
	C335.005219,328.453613 341.399078,327.377106 348.056519,326.880554 
	C349.129211,326.800537 350.311829,328.194244 351.443634,328.906677 
	C350.398621,329.893341 349.310547,331.770477 348.315582,331.722382 
	C341.797699,331.407227 335.308380,330.323303 328.793549,330.167725 
	C320.205017,329.962585 311.597961,330.272522 303.006012,330.567810 
	C297.534393,330.755890 292.066010,331.219788 286.614929,331.751953 
	C283.499573,332.056122 280.435547,332.866425 277.322327,333.217896 
	C275.293243,333.446991 273.217316,333.261108 271.162354,333.261108 
	C271.045532,332.486206 270.928680,331.711334 270.811829,330.936432 
	C273.154144,330.151855 275.446167,328.950012 277.848145,328.660461 
	C285.228790,327.770782 289.801880,322.802917 294.348083,317.788422 
	C295.170959,316.880768 295.710602,315.351715 295.699158,314.115875 
	C295.651337,308.967529 295.278381,303.822845 295.175934,298.673828 
	C295.150452,297.393768 295.690704,296.102417 296.111206,294.365387 
	C296.251434,293.914520 296.177856,293.528564 296.177856,293.528564 
	C296.177856,293.528564 295.832397,293.819305 295.832397,293.819336 
M307.890045,310.917633 
	C307.890045,310.917633 308.169556,311.173676 308.104248,311.891693 
	C308.739685,313.784729 309.375092,315.677765 310.228912,318.221466 
	C308.895721,319.023163 307.176392,320.057098 305.697601,320.305206 
	C305.697601,318.766113 305.697601,317.226990 305.697601,314.385315 
	C302.932648,316.493439 301.076141,317.908905 299.219666,319.324371 
	C299.423065,319.804077 299.626495,320.283813 299.829895,320.763519 
	C301.732941,320.851562 303.635986,320.939636 305.136414,321.606232 
	C304.183502,322.770020 303.230621,323.933777 301.969757,325.473633 
	C307.225006,326.778687 309.809937,324.087860 312.794617,321.574402 
	C315.434479,319.351379 318.791595,317.980133 321.832031,316.232819 
	C322.189545,316.636505 322.547058,317.040161 322.904602,317.443848 
	C322.790314,315.433533 322.676025,313.423248 322.565918,311.486542 
	C321.084259,311.568695 319.968109,311.630615 318.171600,311.730225 
	C324.226349,306.704163 324.411285,299.462372 319.856995,295.387299 
	C320.955078,292.027252 323.179688,288.789398 322.690063,286.033783 
	C321.343964,278.457764 322.908661,271.217072 323.561432,263.839325 
	C323.715912,262.093262 323.192993,260.234100 322.720367,258.498108 
	C321.990631,255.817795 320.317200,255.551727 318.253754,257.183960 
	C313.430359,260.999359 308.494324,264.692169 303.910889,268.778931 
	C302.559601,269.983826 301.648560,272.309357 301.549774,274.175018 
	C301.248108,279.871063 301.440247,285.593262 301.440247,291.490936 
	C302.416290,291.824585 303.591827,292.226440 305.477600,292.871063 
	C303.471191,295.244659 301.832489,297.183228 299.850830,299.527527 
	C301.542328,301.120331 303.080353,302.568634 303.991821,303.426910 
	C302.474152,306.073486 300.863281,308.882568 299.252380,311.691650 
	C299.718903,312.066101 300.185394,312.440552 300.651886,312.815002 
	C302.967865,312.097534 305.283813,311.380066 307.890045,310.917633 
M302.543640,247.299042 
	C302.729828,247.919357 302.915985,248.539658 302.731598,249.731659 
	C298.034088,254.301407 303.444427,259.516357 300.732361,264.212830 
	C301.304565,264.491241 301.876740,264.769684 302.448944,265.048096 
	C308.675629,259.862854 314.902313,254.677597 321.946381,248.811691 
	C319.236237,248.166885 318.041870,247.882721 316.635986,247.548248 
	C323.674469,241.706802 323.674469,241.706802 320.577454,235.576263 
	C325.115967,223.162369 324.974884,211.050385 322.730621,199.059875 
	C320.003143,199.059875 317.794525,199.059875 315.585876,199.059875 
	C322.138702,199.185013 321.152985,194.128036 322.604523,189.473679 
	C313.557922,195.013275 304.604828,198.725021 299.039215,207.436020 
	C300.279236,207.890747 301.227753,208.238571 302.206085,208.597321 
	C301.033264,210.268845 300.044525,211.677994 298.588989,213.752472 
	C301.430298,213.481476 303.308655,213.302322 306.818207,212.967575 
	C301.679352,217.381226 298.215790,221.077240 299.868256,227.258530 
	C300.558563,229.840744 301.392212,230.142838 304.338562,229.852554 
	C304.633575,229.909866 304.928558,229.967163 305.150452,230.713577 
	C304.020264,232.335907 302.890076,233.958237 301.328644,236.199585 
	C303.948669,235.640976 306.166016,235.168228 308.383331,234.695480 
	C307.208069,236.351334 305.660278,237.246292 304.044891,237.995392 
	C300.489807,239.644012 299.588135,244.161560 302.543640,247.299042 
M320.260986,325.425140 
	C321.076477,325.333374 321.988220,325.441315 322.685791,325.104980 
	C323.853760,324.541779 324.885071,323.695221 325.973907,322.967926 
	C324.645050,321.992737 323.117004,320.016388 322.025391,320.233582 
	C318.977081,320.840057 315.860046,322.076721 314.905243,326.716827 
	C316.838867,326.272369 318.175873,325.965027 320.260986,325.425140 
z"/>
<path fill="#C0AFA0" opacity="1.000000" stroke="none" 
	d="
M428.906616,260.318329 
	C429.405823,276.142181 430.658417,291.572113 427.012115,306.792816 
	C425.116486,314.705658 422.895538,322.251740 413.766846,325.132446 
	C409.766785,326.394714 402.493378,323.889130 401.251709,319.682343 
	C399.224854,312.815338 396.790497,305.919281 395.993958,298.869873 
	C394.406769,284.823059 393.711365,270.670013 392.856415,256.548248 
	C392.440186,249.673615 396.485809,245.214844 402.269043,242.610382 
	C408.755219,239.689362 415.325348,239.010345 421.021027,244.809998 
	C422.007599,245.814575 423.482941,246.339142 423.928314,246.605118 
	C425.771729,251.557068 427.322693,255.723358 428.906616,260.318329 
z"/>
<path fill="#C4B4A7" opacity="1.000000" stroke="none" 
	d="
M384.122284,290.139618 
	C384.447235,290.083801 384.780914,290.058075 385.095734,289.967224 
	C386.891479,289.448883 388.682709,288.915009 390.475525,288.386475 
	C389.533936,290.070190 388.592346,291.753906 387.546326,293.624359 
	C389.269928,295.128113 393.609283,296.182373 390.457031,300.666656 
	C390.267517,300.936218 390.446503,301.822571 390.728821,302.011658 
	C394.153320,304.305573 391.897369,307.645874 392.534912,310.325562 
	C393.445465,314.152954 395.927582,317.841827 398.489960,320.975403 
	C401.112823,324.182831 404.641785,326.649323 408.402466,330.000000 
	C402.939514,329.956970 397.984009,331.002869 393.890625,326.929260 
	C393.531006,326.571381 392.738342,326.546448 392.145294,326.541138 
	C386.608124,326.491516 386.181793,325.845245 388.539276,320.963623 
	C380.545135,319.543427 380.295105,319.036072 385.002686,312.428070 
	C382.708588,312.091858 380.709290,311.798828 378.709961,311.505829 
	C378.590271,311.159912 378.470551,310.813965 378.350830,310.468048 
	C380.011078,309.992035 381.671356,309.515991 383.422699,309.013855 
	C384.232086,307.414062 385.162048,305.575897 386.710236,302.515839 
	C383.701843,303.406158 381.535309,304.065918 379.357056,304.684296 
	C378.245087,305.000031 377.112122,305.241791 375.988647,305.517029 
	C375.757477,304.453033 374.968384,303.015808 375.388641,302.387665 
	C377.574097,299.121094 376.021423,297.319977 372.983948,296.138611 
	C378.735718,288.893494 379.087830,288.678589 383.646179,289.762695 
	C383.335083,290.460052 383.181915,290.748810 382.916199,291.043152 
	C382.803680,291.048737 382.758850,291.334900 382.758850,291.334900 
	C382.758850,291.334900 382.969574,290.977783 383.214050,290.916809 
	C383.679810,290.617096 383.901062,290.378357 384.122284,290.139618 
z"/>
<path fill="#C2B2A3" opacity="1.000000" stroke="none" 
	d="
M367.486511,243.238434 
	C368.305878,242.156631 369.606537,241.165771 369.439758,240.695938 
	C367.047516,233.958023 372.274353,231.628403 377.274628,228.767914 
	C376.694244,231.137909 376.113861,233.507919 375.429108,236.304077 
	C379.608032,233.342545 383.655670,230.474030 388.923248,226.740982 
	C388.572601,229.218521 388.354462,230.169739 388.325012,231.126770 
	C388.292633,232.180130 388.600677,233.260803 388.465118,234.290710 
	C388.166016,236.562759 388.378540,239.330582 387.150208,240.976761 
	C382.176788,247.641983 375.493164,252.228119 367.285370,255.733566 
	C367.285370,251.293488 367.285370,247.432587 367.486511,243.238434 
M372.467072,233.498093 
	C372.467072,233.498093 372.513611,233.479446 372.467072,233.498093 
z"/>
<path fill="#C4B4A7" opacity="1.000000" stroke="none" 
	d="
M377.237396,278.048706 
	C374.995850,277.462158 372.754303,276.875610 369.566864,276.041534 
	C367.710449,271.465515 367.747833,271.519806 375.934418,265.882935 
	C378.234497,264.299255 380.244537,262.294342 382.387604,260.482635 
	C381.944977,259.930847 381.502350,259.379028 381.059723,258.827240 
	C376.709778,261.520111 372.359863,264.212982 367.837555,267.012573 
	C368.664734,262.220062 378.839905,255.516647 383.617310,256.692047 
	C383.820312,257.143158 384.051544,257.220886 384.282745,257.298615 
	C385.353119,257.514679 386.423523,257.730774 387.493896,257.946838 
	C386.922180,259.521210 386.350464,261.095551 385.803131,262.602783 
	C387.018646,263.368347 388.494293,264.297791 389.969971,265.227203 
	C388.447906,266.481689 387.032654,267.909149 385.370056,268.936188 
	C384.026794,269.765961 382.385345,270.113007 380.993927,271.591827 
	C383.787689,271.728851 386.581451,271.865875 390.218506,272.044250 
	C386.456970,274.749542 384.704407,279.848236 378.191162,278.147156 
	C377.653198,278.024780 377.237396,278.048706 377.237396,278.048706 
z"/>
<path fill="#C3B3A5" opacity="1.000000" stroke="none" 
	d="
M447.794647,299.938629 
	C442.236908,302.602020 436.915741,304.968719 431.548096,307.356079 
	C429.253662,302.307709 433.078644,294.054657 441.039062,289.321899 
	C440.828522,291.315765 440.616821,293.309509 440.405090,295.303284 
	C442.411530,294.459747 444.417938,293.616211 447.484497,292.326965 
	C447.654602,294.602936 447.842896,297.122437 447.794647,299.938629 
z"/>
<path fill="#C8BAAD" opacity="1.000000" stroke="none" 
	d="
M378.074646,220.314133 
	C378.570526,220.879150 379.100372,221.781006 378.949493,221.914703 
	C376.744354,223.868896 374.448273,225.720490 372.143433,227.621643 
	C370.142975,221.655930 374.997833,218.584000 377.891418,215.176422 
	C381.091248,211.408295 385.523621,208.686829 389.419159,205.509506 
	C389.822906,205.832886 390.226624,206.156250 390.630341,206.479630 
	C390.150696,208.941391 390.274353,211.780106 389.033417,213.766205 
	C387.594574,216.069092 385.768585,218.839264 381.801453,217.704697 
	C380.794159,217.416626 379.145782,219.370193 378.074646,220.314133 
z"/>
<path fill="#C3B3A5" opacity="1.000000" stroke="none" 
	d="
M438.899109,314.838654 
	C434.876770,318.073883 431.121918,321.065948 427.367065,324.057983 
	C426.933960,323.557526 426.500824,323.057037 426.067719,322.556549 
	C427.819458,314.008850 436.313232,311.137878 441.323792,304.262085 
	C444.838135,309.438080 441.735474,311.953491 438.899109,314.838654 
z"/>
<path fill="#C4B4A7" opacity="1.000000" stroke="none" 
	d="
M444.286926,201.706985 
	C440.774323,206.280014 437.469727,210.636276 433.836823,214.698944 
	C432.543152,216.145660 430.452454,217.285767 429.627350,213.790634 
	C429.453766,213.055389 428.239807,212.565735 426.461731,211.106552 
	C431.867310,207.344070 437.040283,203.699661 442.306091,200.194778 
	C442.600464,199.998871 443.661407,200.954697 444.286926,201.706985 
z"/>
<path fill="#C8BAAD" opacity="1.000000" stroke="none" 
	d="
M446.056061,262.840515 
	C444.085236,264.135864 442.162628,265.513519 440.130280,266.703827 
	C438.016510,267.941833 435.796753,268.998749 433.531128,270.183014 
	C433.737152,267.091675 439.192963,261.639771 444.805695,259.062805 
	C443.321533,258.473480 442.261292,258.052490 440.491180,257.349609 
	C442.967590,255.893036 445.053589,254.666077 448.327545,252.740402 
	C447.377533,256.645752 446.772095,259.134705 446.095398,262.114166 
	C446.024200,262.604675 446.056061,262.840515 446.056061,262.840515 
z"/>
<path fill="#C3B3A5" opacity="1.000000" stroke="none" 
	d="
M445.992310,263.168365 
	C446.056061,262.840515 446.024200,262.604675 445.986572,262.496521 
	C448.694122,261.347717 449.841461,262.374023 450.113373,265.227509 
	C450.775238,272.173950 448.096649,275.438568 440.213928,276.223969 
	C440.657867,274.659851 441.288666,273.593231 441.919434,272.526611 
	C444.323425,270.802246 446.727417,269.077881 449.131378,267.353516 
	C448.954865,266.979950 448.778351,266.606354 448.601837,266.232788 
	C447.870148,266.232788 447.134735,266.187531 446.407898,266.246887 
	C445.810638,266.295715 445.223480,266.468781 444.071167,266.698608 
	C444.885040,265.295319 445.406769,264.395782 445.992310,263.168365 
z"/>
<path fill="#C8BAAD" opacity="1.000000" stroke="none" 
	d="
M434.990570,243.033661 
	C436.777283,243.033661 438.563995,243.033661 439.846497,243.033661 
	C438.480316,245.486710 437.526184,247.171799 436.598877,248.871552 
	C435.260498,251.324860 433.917267,253.743317 429.784241,252.451813 
	C430.818817,250.828674 431.541595,249.694702 432.186127,248.683487 
	C431.494446,247.945786 430.854309,247.263092 430.107422,246.292023 
	C430.000610,246.003662 429.977783,246.026764 430.309296,245.978180 
	C432.108276,244.947418 433.575775,243.965256 435.028564,242.994171 
	C435.013855,243.005234 434.990570,243.033661 434.990570,243.033661 
z"/>
<path fill="#C8BAAD" opacity="1.000000" stroke="none" 
	d="
M379.882965,225.521820 
	C382.973633,223.044754 386.064301,220.567688 389.710724,217.645248 
	C389.039673,222.447281 383.595215,227.626053 380.229736,226.768585 
	C379.922791,226.024155 379.902893,225.772995 379.882965,225.521820 
z"/>
<path fill="#C8BAAD" opacity="1.000000" stroke="none" 
	d="
M441.743713,272.205688 
	C441.288666,273.593231 440.657867,274.659851 439.922760,276.044556 
	C437.739014,277.135284 435.659607,277.907959 433.544525,278.693909 
	C433.734406,274.055206 437.036407,271.293457 441.743713,272.205688 
z"/>
<path fill="#C8BAAD" opacity="1.000000" stroke="none" 
	d="
M425.856323,199.926941 
	C427.911804,198.445084 429.738831,197.244614 431.565857,196.044144 
	C431.715485,196.249756 431.865112,196.455383 432.014771,196.660995 
	C429.417114,199.150543 426.819458,201.640106 423.743073,204.588470 
	C424.470703,202.897552 425.049316,201.552948 425.856323,199.926941 
z"/>
<path fill="#C8BAAD" opacity="1.000000" stroke="none" 
	d="
M430.013428,245.993744 
	C429.045380,245.318146 428.064514,244.652496 427.083649,243.986847 
	C428.280304,242.747879 429.293854,240.904419 430.733704,240.468323 
	C431.813660,240.141205 433.441956,241.624313 434.908325,242.667572 
	C434.990570,243.033661 435.013855,243.005234 434.643127,242.943329 
	C432.840881,243.929886 431.409332,244.978317 429.977783,246.026764 
	C429.977783,246.026764 430.000610,246.003662 430.013428,245.993744 
z"/>
<path fill="#C8BAAD" opacity="1.000000" stroke="none" 
	d="
M376.830109,278.059875 
	C377.237396,278.048706 377.653198,278.024780 377.861694,278.026978 
	C377.539429,278.949310 377.230988,280.271027 376.434845,280.711853 
	C374.327118,281.878784 372.008362,282.664581 369.793030,283.593872 
	C369.035919,280.547638 370.851288,278.830109 376.830109,278.059875 
z"/>
<path fill="#C4B4A7" opacity="1.000000" stroke="none" 
	d="
M379.651184,225.685852 
	C379.902893,225.772995 379.922791,226.024155 379.973724,226.652039 
	C380.004761,227.028748 379.675079,227.228195 379.333740,227.117798 
	C378.992401,227.007401 378.683624,226.701157 378.683655,226.701172 
	C378.928894,226.417404 379.174133,226.133636 379.651184,225.685852 
z"/>
<path fill="#C4B4A7" opacity="1.000000" stroke="none" 
	d="
M379.146027,227.161255 
	C378.997223,227.210541 378.694794,227.105972 378.537994,226.851273 
	C378.683624,226.701157 378.992401,227.007401 379.146027,227.161255 
z"/>
<path fill="#C0AFA0" opacity="1.000000" stroke="none" 
	d="
M195.788666,317.075073 
	C194.777069,306.369781 193.387329,296.062286 193.074112,285.722137 
	C192.672806,272.473328 192.701599,259.176727 193.355026,245.940689 
	C193.983002,233.220413 195.155045,220.473633 197.146301,207.906158 
	C197.752701,204.078934 199.306931,200.100677 200.277756,196.121170 
	C201.438858,191.361786 204.280045,187.187912 209.656754,187.147949 
	C214.864853,187.109238 220.103119,188.466324 221.614319,194.697296 
	C223.851944,203.923676 225.957230,213.183685 227.994110,222.456787 
	C230.446777,233.622757 228.189621,244.786057 227.760361,255.947205 
	C227.625137,259.463196 227.764145,263.085022 226.938293,266.452576 
	C226.096542,269.884918 224.221893,273.063965 222.601776,276.811218 
	C223.279297,277.227295 224.444000,277.942566 226.389648,279.137451 
	C224.715179,282.157318 223.019882,285.214722 221.142792,288.599976 
	C226.791290,290.100464 224.694214,293.799957 223.852539,297.768829 
	C222.734665,303.040009 222.621429,308.522186 222.028595,313.908417 
	C221.902115,315.057556 221.657974,316.211121 221.317902,317.316467 
	C219.354446,323.698486 212.667175,329.603729 206.698349,329.081665 
	C200.073792,328.502228 197.968613,322.774109 195.788666,317.075073 
z"/>
<path fill="#C2B2A4" opacity="1.000000" stroke="none" 
	d="
M244.033264,238.094177 
	C246.780823,235.708694 249.528381,233.323227 252.275955,230.937759 
	C252.737900,231.228882 253.199829,231.520020 253.661758,231.811142 
	C253.329254,232.986786 252.996750,234.162445 252.214478,235.682190 
	C251.136154,236.640594 250.507599,237.254898 249.558441,237.917145 
	C248.447403,238.285065 247.657013,238.605026 246.790680,238.986877 
	C246.714737,239.048752 246.776230,239.351898 246.776230,239.351898 
	C246.776230,239.351898 247.078537,239.133179 247.399231,239.100769 
	C248.495316,238.738632 249.270691,238.408920 250.283142,238.075623 
	C250.829483,238.067581 251.136093,238.036819 251.440063,237.979736 
	C256.848358,242.068207 255.205978,246.089706 251.487885,250.515076 
	C252.653580,250.038132 253.819290,249.561172 255.057907,249.054382 
	C257.452576,256.528015 256.282410,266.641571 252.543640,271.853638 
	C259.186676,275.128174 254.932465,280.100922 254.238205,284.381226 
	C253.302963,283.652893 252.318146,282.351196 252.027267,282.491211 
	C249.416611,283.747803 246.928009,285.257965 244.403519,286.693573 
	C244.440659,287.229004 244.477798,287.764435 244.514923,288.299835 
	C245.912781,288.394531 247.514526,288.966888 248.662750,288.476746 
	C250.593674,287.652557 252.236374,286.153107 254.000305,284.937744 
	C253.437744,290.170166 252.039703,294.831604 247.408661,298.214081 
	C243.998672,300.704712 241.117188,303.918915 238.016708,306.795410 
	C238.860657,308.481842 242.715851,310.505341 237.443924,311.326782 
	C237.140762,311.374054 236.725250,311.977722 236.702042,312.343994 
	C236.498810,315.550140 236.244324,318.192719 231.596466,316.718689 
	C230.696762,316.433319 228.762543,319.508392 227.260971,320.988098 
	C226.250565,321.983826 225.161728,322.899994 224.107956,323.851746 
	C223.619827,323.507324 223.131714,323.162903 222.643585,322.818481 
	C224.705246,319.678772 226.766922,316.539062 229.086685,313.006317 
	C228.294617,309.400970 225.609818,304.945435 230.025452,300.107117 
	C230.709381,299.198792 230.970230,298.723816 231.535858,298.116150 
	C234.281403,296.127441 236.722153,294.271332 239.162903,292.415222 
	C238.684692,291.877869 238.206497,291.340485 237.728287,290.803101 
	C235.451675,293.167694 233.175079,295.532288 230.654205,297.957336 
	C230.257263,298.087189 230.104553,298.156586 229.951843,298.226013 
	C228.952805,291.834595 227.083939,285.210968 234.436829,281.551971 
	C232.699829,280.198181 229.678543,278.418610 229.879776,277.907288 
	C231.224121,274.491425 233.255768,271.346039 235.447815,267.427094 
	C234.956131,266.941681 236.311493,262.167114 229.789688,265.809418 
	C231.697845,262.528259 232.619919,260.942719 233.621414,259.220612 
	C230.436691,255.242050 231.330688,251.991318 235.376846,248.863708 
	C238.753754,246.253403 241.681046,243.061401 244.745789,239.624985 
	C244.467163,238.780029 244.250214,238.437103 244.033264,238.094177 
M239.151016,277.341614 
	C240.237030,276.687622 241.323044,276.033630 242.733902,275.039825 
	C242.926926,274.790497 243.092560,274.524170 243.893280,274.117737 
	C244.897018,273.562531 245.900757,273.007324 246.904480,272.452087 
	C246.661987,272.051544 246.419495,271.650970 246.176987,271.250427 
	C244.993301,272.048859 243.809601,272.847321 242.284866,273.966675 
	C242.076401,274.201416 241.894653,274.455322 241.090759,274.852997 
	C239.966415,275.485413 238.842072,276.117859 237.309479,277.083252 
	C237.161026,277.594086 237.012573,278.104919 236.864136,278.615784 
	C237.413239,278.243408 237.962341,277.871033 239.151016,277.341614 
M243.555786,246.163574 
	C245.645279,245.243439 247.734756,244.323318 249.824249,243.403183 
	C249.504456,242.845840 249.184662,242.288498 248.864883,241.731155 
	C247.134995,243.010040 245.405121,244.288910 243.555786,246.163574 
M240.104218,248.174408 
	C239.420914,248.609070 238.607727,248.930328 238.096817,249.515503 
	C237.711334,249.957001 237.712692,250.736267 237.541870,251.365189 
	C237.925339,251.521393 238.308807,251.677582 238.692276,251.833786 
	C239.336624,250.542770 239.980972,249.251740 240.104218,248.174408 
M231.505524,291.500488 
	C231.505524,291.500488 231.512726,291.552002 231.505524,291.500488 
M251.547241,241.479767 
	C251.547241,241.479767 251.432800,241.539536 251.547241,241.479767 
z"/>
<path fill="#C2B2A4" opacity="1.000000" stroke="none" 
	d="
M177.997482,288.013702 
	C176.535553,288.651947 175.073624,289.290192 173.611694,289.928436 
	C173.373886,289.584869 173.136063,289.241272 172.898254,288.897705 
	C175.707764,286.129700 178.517273,283.361694 181.963120,279.966766 
	C176.692703,278.795471 175.277573,285.951782 170.357513,282.977539 
	C169.957703,282.951477 169.881790,282.864929 169.881790,282.864929 
	C169.617218,282.129669 169.576431,281.078796 169.053452,280.708008 
	C163.792831,276.978058 163.765274,276.750580 168.877869,272.642242 
	C171.042694,270.902649 173.199768,269.153381 175.933182,266.945892 
	C174.887894,266.012451 173.796173,265.037506 172.305542,263.985931 
	C171.906631,263.909271 171.760239,263.789337 171.760239,263.789337 
	C174.161591,261.752350 176.562943,259.715332 179.101929,257.561615 
	C178.463821,257.168091 177.585953,256.626740 176.121429,255.723572 
	C179.133408,252.585815 181.982468,249.617783 184.907501,246.318817 
	C184.983490,245.987900 184.984009,246.027878 184.984009,246.027893 
	C186.384491,245.685440 187.784958,245.342987 189.185425,245.000549 
	C189.549454,245.332199 189.913467,245.663834 190.277481,245.995483 
	C188.855774,247.797256 187.434067,249.599014 186.039017,251.367004 
	C191.008209,254.767792 192.146347,269.169281 187.786453,275.033051 
	C191.332733,278.091125 190.945190,293.833618 186.745361,299.773468 
	C185.970016,300.251831 185.634583,300.408783 185.299164,300.565735 
	C182.527908,301.665314 179.800903,302.911774 176.956558,303.768829 
	C176.173767,304.004669 174.856705,303.266022 174.162338,302.587982 
	C173.899185,302.330994 174.553406,300.883514 175.049255,300.155579 
	C175.925171,298.869812 177.000153,297.719604 177.991791,296.512665 
	C177.617523,296.222046 177.243271,295.931396 176.869019,295.640778 
	C175.241806,296.752228 173.614609,297.863708 171.714310,299.161682 
	C170.771683,297.380005 170.093613,296.098389 169.609344,295.183044 
	C172.411942,293.487030 174.973221,291.937073 178.121033,290.166504 
	C181.120224,288.595856 183.532867,287.245789 185.945526,285.895752 
	C185.532700,285.206909 185.119858,284.518036 184.707031,283.829193 
	C182.470520,285.224030 180.233994,286.618866 177.997482,288.013702 
z"/>
<path fill="#C2B2A4" opacity="1.000000" stroke="none" 
	d="
M178.892242,247.940781 
	C175.571289,249.978485 172.334381,252.173050 168.905945,254.010193 
	C165.414810,255.880951 163.429871,257.951294 167.000336,261.760986 
	C161.702240,261.819458 162.186142,255.597351 167.264526,251.237900 
	C168.235382,250.404495 169.310654,249.692703 169.971176,247.924866 
	C168.457397,248.418747 166.943619,248.912628 164.161331,249.820358 
	C164.870850,245.770309 165.837784,242.284241 166.006638,238.759949 
	C166.207016,234.577881 167.040176,231.032547 171.564865,228.933868 
	C170.667343,228.174179 170.033875,227.638000 169.157074,226.895844 
	C172.642426,223.649460 175.863434,220.160278 179.581467,217.322205 
	C183.385330,214.418594 187.676376,212.153259 191.888275,209.524872 
	C191.410538,216.352600 191.224075,222.423950 190.467285,228.423355 
	C190.077972,231.509613 188.672348,234.467667 187.218597,237.796021 
	C186.333847,238.161514 185.956497,238.214661 185.242325,238.241379 
	C182.548447,239.231857 180.168793,240.200516 177.845276,241.289032 
	C176.893326,241.735016 176.062698,242.439941 175.176880,243.027069 
	C176.110413,243.775558 177.043945,244.524063 177.993225,245.565491 
	C178.303406,246.552551 178.597824,247.246658 178.892242,247.940781 
z"/>
<path fill="#C2B2A3" opacity="1.000000" stroke="none" 
	d="
M185.246704,300.976379 
	C185.634583,300.408783 185.970016,300.251831 186.494705,300.059723 
	C187.770264,301.016174 189.949875,302.571381 189.774094,302.912415 
	C187.973541,306.405304 195.474457,312.254944 187.056595,314.250519 
	C188.426514,314.250519 189.796417,314.250519 191.187683,314.250519 
	C193.455856,318.927155 195.716675,323.588562 197.990845,328.623230 
	C198.004196,328.996429 197.988831,329.014862 197.988831,329.014862 
	C190.237106,324.810883 183.625183,319.380951 179.123413,311.636566 
	C177.237976,308.393066 177.739975,306.276550 181.481750,304.833191 
	C182.944687,304.268860 183.969757,302.569458 185.246704,300.976379 
z"/>
<path fill="#C8BAAD" opacity="1.000000" stroke="none" 
	d="
M232.028870,202.725800 
	C233.132599,201.654312 234.267654,199.658676 234.710403,199.801971 
	C236.178818,200.277237 237.666214,201.311646 238.630447,202.537384 
	C239.447418,203.575928 239.548920,205.177292 239.783905,205.937317 
	C236.895264,206.714661 234.027328,207.486420 230.639969,208.397964 
	C228.193253,205.134384 228.257034,203.729706 232.028870,202.725800 
z"/>
<path fill="#C4B4A7" opacity="1.000000" stroke="none" 
	d="
M239.477264,216.079803 
	C236.867752,216.079803 234.258224,216.079803 231.648712,216.079803 
	C231.384888,215.574829 231.121063,215.069839 230.857239,214.564865 
	C233.881271,212.295044 236.905304,210.025208 239.929352,207.755371 
	C240.272461,208.111557 240.615585,208.467743 240.958694,208.823944 
	C240.367950,209.808121 239.777191,210.792313 238.819061,212.388565 
	C240.950577,211.882980 242.500717,211.515289 244.050842,211.147614 
	C244.174179,211.398071 244.297501,211.648544 244.420837,211.899017 
	C243.382843,212.746216 242.344864,213.593414 240.974792,214.809830 
	C240.254242,215.479294 239.865753,215.779556 239.477264,216.079803 
z"/>
<path fill="#C8BAAD" opacity="1.000000" stroke="none" 
	d="
M185.579147,238.267807 
	C185.956497,238.214661 186.333847,238.161514 186.988800,238.100418 
	C189.353485,238.293732 190.612747,239.067551 188.932373,241.169235 
	C187.735443,242.666229 186.258682,243.939499 184.945404,245.670242 
	C184.984009,246.027878 184.983490,245.987900 185.002792,245.991608 
	C183.218201,246.594772 181.414291,247.194229 179.251312,247.867218 
	C178.597824,247.246658 178.303406,246.552551 178.294922,245.363220 
	C180.913620,242.667953 183.246384,240.467880 185.579147,238.267807 
z"/>
<path fill="#C8BAAD" opacity="1.000000" stroke="none" 
	d="
M243.720367,237.992096 
	C244.250214,238.437103 244.467163,238.780029 244.820923,239.264420 
	C243.736984,240.134308 242.516235,240.862717 241.071625,241.724716 
	C241.150970,240.645508 241.195847,240.035019 241.338882,238.089432 
	C238.307129,241.558548 236.007141,244.190353 233.698334,246.832245 
	C232.117722,243.885559 232.321915,244.089432 235.927063,240.478729 
	C237.598679,238.804550 238.298920,236.160477 238.982773,234.838852 
	C240.875229,236.143845 242.141357,237.016922 243.720367,237.992096 
z"/>
<path fill="#C8BAAD" opacity="1.000000" stroke="none" 
	d="
M186.021149,204.989746 
	C184.910690,204.898193 183.800217,204.806641 181.291031,204.599747 
	C186.617645,200.202576 191.103088,196.499786 195.588531,192.796997 
	C195.983124,193.240875 196.377716,193.684753 196.772308,194.128616 
	C193.134079,197.522827 189.495850,200.917023 185.922913,204.649719 
	C185.988174,204.988205 186.021149,204.989746 186.021149,204.989746 
z"/>
<path fill="#C4B4A7" opacity="1.000000" stroke="none" 
	d="
M185.988953,205.004684 
	C188.369843,203.772446 190.749954,202.523712 193.313232,201.178894 
	C192.874985,205.153091 189.287506,208.408569 183.973724,209.571487 
	C184.756882,208.047607 185.365662,206.863052 185.997787,205.334122 
	C186.021149,204.989746 185.988174,204.988205 185.988953,205.004684 
z"/>
<path fill="#C8BAAD" opacity="1.000000" stroke="none" 
	d="
M244.334671,229.264511 
	C246.378464,227.588669 248.140747,226.130371 249.903015,224.672058 
	C250.349838,225.225204 250.796677,225.778366 251.243500,226.331512 
	C248.389847,228.772263 245.536179,231.212997 242.682526,233.653748 
	C242.251892,233.224350 241.821259,232.794952 241.390625,232.365555 
	C242.278137,231.404388 243.165649,230.443207 244.334671,229.264511 
z"/>
<path fill="#C8BAAD" opacity="1.000000" stroke="none" 
	d="
M232.147888,233.734436 
	C231.982086,227.731644 235.919403,231.740219 238.100723,230.327209 
	C235.729462,235.921127 234.862152,236.404190 232.147888,233.734436 
z"/>
<path fill="#C8BAAD" opacity="1.000000" stroke="none" 
	d="
M171.967957,263.981323 
	C170.126816,267.265717 167.947678,270.119263 164.116852,270.830627 
	C163.739487,270.359406 163.362122,269.888214 162.984756,269.416992 
	C165.685699,267.530853 168.386642,265.644745 171.423920,263.773987 
	C171.760239,263.789337 171.906631,263.909271 171.967957,263.981323 
z"/>
<path fill="#F0ECE9" opacity="1.000000" stroke="none" 
	d="
M177.989166,288.313751 
	C180.233994,286.618866 182.470520,285.224030 184.707031,283.829193 
	C185.119858,284.518036 185.532700,285.206909 185.945526,285.895752 
	C183.532867,287.245789 181.120224,288.595856 178.329926,289.879089 
	C177.961792,289.412781 177.971313,289.013275 177.989166,288.313751 
z"/>
<path fill="#C8BAAD" opacity="1.000000" stroke="none" 
	d="
M236.430328,222.423309 
	C235.007675,223.277405 233.771942,223.858185 231.844620,224.763992 
	C234.332047,220.204529 235.128906,219.884003 236.430328,222.423309 
z"/>
<path fill="#C8BAAD" opacity="1.000000" stroke="none" 
	d="
M239.365189,216.469437 
	C239.865753,215.779556 240.254242,215.479294 240.820007,215.090164 
	C241.882339,215.204330 242.767395,215.407349 244.688019,215.847931 
	C242.308334,217.106125 241.458755,220.231934 239.365189,216.469437 
z"/>
<path fill="#C8BAAD" opacity="1.000000" stroke="none" 
	d="
M241.690704,228.687195 
	C240.921158,229.197311 240.381851,229.485397 239.842545,229.773483 
	C239.528519,229.428314 239.214493,229.083145 238.900467,228.737991 
	C239.896088,227.513123 240.891724,226.288269 241.887360,225.063416 
	C242.388031,225.521515 242.888702,225.979614 243.389359,226.437714 
	C242.899902,227.113525 242.410431,227.789352 241.690704,228.687195 
z"/>
<path fill="#C8BAAD" opacity="1.000000" stroke="none" 
	d="
M246.612869,222.638763 
	C246.969437,221.392181 247.325989,220.145615 247.682556,218.899033 
	C248.044662,218.981232 248.406754,219.063416 248.768860,219.145615 
	C248.432785,220.368195 248.096725,221.590790 247.338730,222.873749 
	C246.916809,222.934128 246.612869,222.638763 246.612869,222.638763 
z"/>
<path fill="#C8BAAD" opacity="1.000000" stroke="none" 
	d="
M251.765030,237.859421 
	C251.136093,238.036819 250.829483,238.067581 250.242462,238.022003 
	C249.964706,237.971939 249.879059,237.869202 249.879059,237.869202 
	C250.507599,237.254898 251.136154,236.640594 252.024414,235.974609 
	C252.219421,236.528320 252.154709,237.133713 251.765030,237.859421 
z"/>
<path fill="#C2B2A4" opacity="1.000000" stroke="none" 
	d="
M169.996597,282.993896 
	C169.753204,283.543365 169.491577,284.065033 169.157974,284.535675 
	C169.123016,284.584961 168.662766,284.332733 168.399841,284.220367 
	C168.700363,283.777374 169.000885,283.334412 169.591614,282.878174 
	C169.881790,282.864929 169.957703,282.951477 169.996597,282.993896 
z"/>
<path fill="#C4B4A7" opacity="1.000000" stroke="none" 
	d="
M180.824982,211.843048 
	C181.156036,211.166550 181.487061,210.490036 181.818085,209.813522 
	C182.171341,210.118210 182.524597,210.422913 182.877838,210.727600 
	C182.560867,211.234390 182.243896,211.741180 181.512192,212.180634 
	C181.097458,212.113297 180.824966,211.843018 180.824982,211.843048 
z"/>
<path fill="#F0ECE9" opacity="1.000000" stroke="none" 
	d="
M231.231094,298.248810 
	C230.970230,298.723816 230.709381,299.198792 230.217010,299.823425 
	C229.978745,299.584351 229.971985,299.195679 229.958527,298.516510 
	C230.104553,298.156586 230.257263,298.087189 230.737854,298.044861 
	C231.065750,298.071930 231.231094,298.248810 231.231094,298.248810 
z"/>
<path fill="#C8BAAD" opacity="1.000000" stroke="none" 
	d="
M247.066711,223.083923 
	C246.932236,223.139313 246.647842,223.044907 246.488159,222.794632 
	C246.612869,222.638763 246.916809,222.934128 247.066711,223.083923 
z"/>
<path fill="#C8BAAD" opacity="1.000000" stroke="none" 
	d="
M244.657684,224.530930 
	C244.719009,224.621033 244.480865,224.658035 244.480865,224.658035 
	C244.480865,224.658035 244.596359,224.440826 244.657684,224.530930 
z"/>
<path fill="#C2B2A3" opacity="1.000000" stroke="none" 
	d="
M198.014252,328.987793 
	C198.024292,328.979187 198.396393,329.173737 198.396393,329.173737 
	C198.396393,329.173737 198.074677,329.224823 198.031754,329.119843 
	C197.988831,329.014862 198.004196,328.996429 198.014252,328.987793 
z"/>
<path fill="#C4B4A7" opacity="1.000000" stroke="none" 
	d="
M181.231369,212.250732 
	C181.087952,212.283997 180.810608,212.179825 180.679123,211.959335 
	C180.824966,211.843018 181.097458,212.113297 181.231369,212.250732 
z"/>
<path fill="#C2B2A4" opacity="1.000000" stroke="none" 
	d="
M124.157448,254.133240 
	C122.291458,255.548737 120.337051,256.663483 120.446236,259.674713 
	C120.587639,263.574432 117.307510,264.314606 114.356262,264.884064 
	C109.909714,265.741943 105.423347,266.393494 100.400429,266.968628 
	C99.735748,266.674377 99.624542,266.544312 99.513344,266.414215 
	C100.723053,265.544891 101.822159,264.414825 103.159912,263.847351 
	C114.196877,259.165558 118.220360,249.350525 121.543442,238.997894 
	C121.694771,238.526459 121.864861,238.027863 121.858650,237.544083 
	C121.782524,231.624771 121.774391,231.624878 124.165611,229.605499 
	C124.165611,226.080414 124.165611,223.653366 124.165611,221.226318 
	C125.507362,221.395111 126.849113,221.563904 129.594208,221.909225 
	C128.363968,220.389587 127.622055,219.037048 126.494011,218.213242 
	C125.536087,217.513687 124.132576,217.424286 122.926224,217.064911 
	C123.957748,216.260437 124.969780,215.429153 126.027252,214.660400 
	C126.813309,214.088928 127.658264,213.598480 129.245056,212.578003 
	C126.556587,212.089340 124.599037,211.733551 122.268715,211.309998 
	C123.935982,205.456726 117.818840,198.992203 124.785652,193.844467 
	C130.879440,195.460999 132.415878,201.048309 134.607971,206.142731 
	C136.016815,209.416916 137.598038,212.616989 139.105148,215.848801 
	C139.313034,216.294571 139.669388,216.712631 139.737747,217.175873 
	C141.401779,228.454208 142.910309,239.715714 133.823761,249.568161 
	C132.856323,250.166199 132.404770,250.470749 131.731873,250.980560 
	C131.314529,251.748474 131.118546,252.311142 130.589935,252.858154 
	C128.224045,253.272751 126.190742,253.702988 124.157448,254.133240 
M132.958786,215.144943 
	C132.551620,216.126785 132.144470,217.108627 131.616882,218.380875 
	C135.050430,216.842590 135.050430,216.842590 132.958786,215.144943 
M125.130417,209.512817 
	C125.130417,209.512817 124.902054,209.434952 124.902054,209.434952 
	C124.902054,209.434952 125.046051,209.608337 125.130417,209.512817 
M129.500381,216.470657 
	C129.500381,216.470657 129.516891,216.513428 129.500381,216.470657 
M131.527588,211.501038 
	C131.527588,211.501038 131.486053,211.516678 131.527588,211.501038 
M127.528374,208.501480 
	C127.528374,208.501480 127.485413,208.517822 127.528374,208.501480 
z"/>
<path fill="#C4B4A7" opacity="1.000000" stroke="none" 
	d="
M67.554436,240.408142 
	C68.466156,239.497971 69.153358,238.650894 70.022186,238.374252 
	C73.413185,237.294540 74.604958,235.501343 71.779694,232.101898 
	C74.017303,231.240372 75.783913,230.560211 77.099487,230.053680 
	C78.439743,232.765457 79.547630,235.007080 80.655518,237.248703 
	C81.259102,237.470505 81.862679,237.692307 82.466263,237.914124 
	C79.229675,240.589203 75.993080,243.264297 72.583649,246.082245 
	C70.505791,243.932602 68.959572,242.332962 67.554436,240.408142 
z"/>
<path fill="#C4B4A7" opacity="1.000000" stroke="none" 
	d="
M124.262543,324.233276 
	C125.057877,322.471039 125.268555,320.711823 126.164085,319.431671 
	C128.485367,316.113312 131.108200,313.005890 134.011902,310.147705 
	C132.405838,318.199707 128.180313,328.352264 120.203804,328.506134 
	C121.770729,326.829346 122.880318,325.641937 124.262543,324.233276 
z"/>
<path fill="#F0ECE9" opacity="1.000000" stroke="none" 
	d="
M124.360191,254.347198 
	C126.190742,253.702988 128.224045,253.272751 130.669098,253.059692 
	C131.371643,252.443008 131.662430,251.609161 131.953217,250.775299 
	C132.404770,250.470749 132.856323,250.166199 133.580215,249.801971 
	C133.959946,255.549271 133.081467,256.637878 125.839050,259.544098 
	C125.410446,257.870514 124.986687,256.215851 124.360191,254.347198 
z"/>
<path fill="#C8BAAD" opacity="1.000000" stroke="none" 
	d="
M106.934616,316.052765 
	C105.331993,318.459167 104.025078,320.659180 102.718155,322.859192 
	C105.780838,311.985229 107.721786,309.827820 112.959190,310.851440 
	C110.869400,312.673523 109.049858,314.259949 106.934616,316.052765 
z"/>
<path fill="#C8BAAD" opacity="1.000000" stroke="none" 
	d="
M112.633743,328.510864 
	C111.263168,329.003510 110.133247,329.259003 109.003326,329.514496 
	C108.798203,329.107880 108.593079,328.701233 108.387947,328.294617 
	C111.452347,325.467712 114.516747,322.640808 117.581146,319.813904 
	C118.000916,320.198425 118.420692,320.582947 118.840462,320.967438 
	C116.851768,323.402893 114.863083,325.838318 112.633743,328.510864 
z"/>
<path fill="#C8BAAD" opacity="1.000000" stroke="none" 
	d="
M99.695854,309.159790 
	C98.846863,311.724884 98.011650,313.931396 96.779442,317.186707 
	C96.179214,315.005646 94.993378,313.092346 95.519478,312.015198 
	C96.210960,310.599396 98.250038,309.841858 99.695854,309.159790 
z"/>
<path fill="#C2B2A4" opacity="1.000000" stroke="none" 
	d="
M100.008743,267.003784 
	C99.157074,267.632477 98.143608,268.061890 97.130142,268.491272 
	C97.016693,268.194946 96.903252,267.898651 96.789810,267.602325 
	C97.523605,267.257538 98.257408,266.912781 99.252274,266.491089 
	C99.624542,266.544312 99.735748,266.674377 100.008743,267.003784 
z"/>
<path fill="#C3B3A5" opacity="1.000000" stroke="none" 
	d="
M303.462952,229.637909 
	C301.392212,230.142838 300.558563,229.840744 299.868256,227.258530 
	C298.215790,221.077240 301.679352,217.381226 306.818207,212.967575 
	C303.308655,213.302322 301.430298,213.481476 298.588989,213.752472 
	C300.044525,211.677994 301.033264,210.268845 302.206085,208.597321 
	C301.227753,208.238571 300.279236,207.890747 299.039215,207.436020 
	C304.604828,198.725021 313.557922,195.013275 322.604523,189.473679 
	C321.152985,194.128036 322.138702,199.185013 315.585876,199.059875 
	C317.794525,199.059875 320.003143,199.059875 322.730621,199.059875 
	C324.974884,211.050385 325.115967,223.162369 320.577454,235.576263 
	C323.674469,241.706802 323.674469,241.706802 316.635986,247.548248 
	C318.041870,247.882721 319.236237,248.166885 321.946381,248.811691 
	C314.902313,254.677597 308.675629,259.862854 302.448944,265.048096 
	C301.876740,264.769684 301.304565,264.491241 300.732361,264.212830 
	C303.444427,259.516357 298.034088,254.301407 303.206055,249.269928 
	C305.863373,246.779495 308.046295,244.750778 310.229187,242.722076 
	C306.807617,242.976410 302.665161,241.809586 302.317535,246.889923 
	C299.588135,244.161560 300.489807,239.644012 304.044891,237.995392 
	C305.660278,237.246292 307.208069,236.351334 308.383331,234.695480 
	C306.166016,235.168228 303.948669,235.640976 301.328644,236.199585 
	C302.890076,233.958237 304.020264,232.335907 305.475464,230.153992 
	C308.991180,227.988205 312.283112,226.551102 315.340088,224.721451 
	C317.716522,223.299149 319.800049,221.387436 322.013763,219.693237 
	C321.777405,219.350464 321.541046,219.007690 321.304688,218.664917 
	C316.534210,220.239960 311.763733,221.814987 306.993256,223.390030 
	C306.809509,223.050552 306.625763,222.711075 306.442017,222.371597 
	C305.448975,224.793701 304.455963,227.215805 303.462952,229.637909 
z"/>
<path fill="#C2B2A3" opacity="1.000000" stroke="none" 
	d="
M305.457031,321.091003 
	C307.176392,320.057098 308.895721,319.023163 310.228912,318.221466 
	C309.375092,315.677765 308.739685,313.784729 308.468079,311.440125 
	C312.910400,310.730377 316.661987,309.741058 319.433777,306.174683 
	C319.332916,305.994507 319.115997,305.940216 318.488403,305.895203 
	C315.701385,306.341827 313.204193,306.469238 310.993347,307.331116 
	C309.635590,307.860474 308.716064,309.513916 307.599792,310.662598 
	C305.283813,311.380066 302.967865,312.097534 300.651886,312.815002 
	C300.185394,312.440552 299.718903,312.066101 299.252380,311.691650 
	C300.863281,308.882568 302.474152,306.073486 303.991821,303.426910 
	C303.080353,302.568634 301.542328,301.120331 299.850830,299.527527 
	C301.832489,297.183228 303.471191,295.244659 305.477600,292.871063 
	C303.591827,292.226440 302.416290,291.824585 301.440247,291.490936 
	C301.440247,285.593262 301.248108,279.871063 301.549774,274.175018 
	C301.648560,272.309357 302.559601,269.983826 303.910889,268.778931 
	C308.494324,264.692169 313.430359,260.999359 318.253754,257.183960 
	C320.317200,255.551727 321.990631,255.817795 322.720367,258.498108 
	C323.192993,260.234100 323.715912,262.093262 323.561432,263.839325 
	C322.908661,271.217072 321.343964,278.457764 322.690063,286.033783 
	C323.179688,288.789398 320.955078,292.027252 319.856995,295.387299 
	C324.411285,299.462372 324.226349,306.704163 318.171600,311.730225 
	C319.968109,311.630615 321.084259,311.568695 322.565918,311.486542 
	C322.676025,313.423248 322.790314,315.433533 322.904602,317.443848 
	C322.547058,317.040161 322.189545,316.636505 321.832031,316.232819 
	C318.791595,317.980133 315.434479,319.351379 312.794617,321.574402 
	C309.809937,324.087860 307.225006,326.778687 301.969757,325.473633 
	C303.230621,323.933777 304.183502,322.770020 305.310669,321.324890 
	C305.484955,321.043518 305.457031,321.091003 305.457031,321.091003 
M307.252380,289.032990 
	C306.830719,289.747620 306.409058,290.462250 305.987427,291.176880 
	C306.430725,291.442261 306.873993,291.707611 307.317291,291.972992 
	C307.967834,290.827362 308.618347,289.681732 309.268890,288.536102 
	C308.803253,288.617706 308.337585,288.699310 307.252380,289.032990 
z"/>
<path fill="#F0ECE9" opacity="1.000000" stroke="none" 
	d="
M303.900757,229.745239 
	C304.455963,227.215805 305.448975,224.793701 306.442017,222.371597 
	C306.625763,222.711075 306.809509,223.050552 306.993256,223.390030 
	C311.763733,221.814987 316.534210,220.239960 321.304688,218.664917 
	C321.541046,219.007690 321.777405,219.350464 322.013763,219.693237 
	C319.800049,221.387436 317.716522,223.299149 315.340088,224.721451 
	C312.283112,226.551102 308.991180,227.988205 305.512024,229.809418 
	C304.928558,229.967163 304.633575,229.909866 303.900757,229.745239 
z"/>
<path fill="#C4B4A7" opacity="1.000000" stroke="none" 
	d="
M319.886963,325.541412 
	C318.175873,325.965027 316.838867,326.272369 314.905243,326.716827 
	C315.860046,322.076721 318.977081,320.840057 322.025391,320.233582 
	C323.117004,320.016388 324.645050,321.992737 325.973907,322.967926 
	C324.885071,323.695221 323.853760,324.541779 322.685791,325.104980 
	C321.988220,325.441315 321.076477,325.333374 319.886963,325.541412 
z"/>
<path fill="#F0ECE9" opacity="1.000000" stroke="none" 
	d="
M302.430603,247.094482 
	C302.665161,241.809586 306.807617,242.976410 310.229187,242.722076 
	C308.046295,244.750778 305.863373,246.779495 303.391327,248.984085 
	C302.915985,248.539658 302.729828,247.919357 302.430603,247.094482 
z"/>
<path fill="#C8BAAD" opacity="1.000000" stroke="none" 
	d="
M305.577332,320.698120 
	C305.457031,321.091003 305.484955,321.043518 305.511993,321.035583 
	C303.635986,320.939636 301.732941,320.851562 299.829895,320.763519 
	C299.626495,320.283813 299.423065,319.804077 299.219666,319.324371 
	C301.076141,317.908905 302.932648,316.493439 305.697601,314.385315 
	C305.697601,317.226990 305.697601,318.766113 305.577332,320.698120 
z"/>
<path fill="#BFAE9F" opacity="1.000000" stroke="none" 
	d="
M295.885895,293.875092 
	C295.832397,293.819305 296.177856,293.528564 296.177856,293.528564 
	C296.177856,293.528564 296.251434,293.914520 296.150238,293.977173 
	C296.049042,294.039825 295.939392,293.930878 295.885895,293.875092 
z"/>
<path fill="#FBFAF9" opacity="1.000000" stroke="none" 
	d="
M382.969574,290.977783 
	C382.969574,290.977783 382.758850,291.334900 382.758850,291.334900 
	C382.758850,291.334900 382.803680,291.048737 382.902466,291.027161 
	C383.001221,291.005615 382.969574,290.977783 382.969574,290.977783 
z"/>
<path fill="#FBFAF9" opacity="1.000000" stroke="none" 
	d="
M383.014984,291.021606 
	C383.181915,290.748810 383.335083,290.460052 383.718872,290.064484 
	C383.949493,289.957672 384.034851,290.044037 384.078552,290.091827 
	C383.901062,290.378357 383.679810,290.617096 383.214050,290.916809 
	C382.969574,290.977783 383.001221,291.005615 383.014984,291.021606 
z"/>
<path fill="#C4B4A7" opacity="1.000000" stroke="none" 
	d="
M372.490356,233.488770 
	C372.513611,233.479446 372.467072,233.498093 372.490356,233.488770 
z"/>
<path fill="#FBFAF9" opacity="1.000000" stroke="none" 
	d="
M384.173828,257.189087 
	C384.051544,257.220886 383.820312,257.143158 383.716919,256.964111 
	C383.844727,256.862823 384.064911,257.079529 384.173828,257.189087 
z"/>
<path fill="#FBFAF9" opacity="1.000000" stroke="none" 
	d="
M430.309296,245.978180 
	C431.409332,244.978317 432.840881,243.929886 434.657837,242.932266 
	C433.575775,243.965256 432.108276,244.947418 430.309296,245.978180 
z"/>
<path fill="#F0ECE9" opacity="1.000000" stroke="none" 
	d="
M253.979553,284.948395 
	C252.236374,286.153107 250.593674,287.652557 248.662750,288.476746 
	C247.514526,288.966888 245.912781,288.394531 244.514923,288.299835 
	C244.477798,287.764435 244.440659,287.229004 244.403519,286.693573 
	C246.928009,285.257965 249.416611,283.747803 252.027267,282.491211 
	C252.318146,282.351196 253.302963,283.652893 253.960571,284.645630 
	C253.955200,285.005341 253.958801,284.959076 253.979553,284.948395 
z"/>
<path fill="#F0ECE9" opacity="1.000000" stroke="none" 
	d="
M230.982117,297.984406 
	C233.175079,295.532288 235.451675,293.167694 237.728287,290.803101 
	C238.206497,291.340485 238.684692,291.877869 239.162903,292.415222 
	C236.722153,294.271332 234.281403,296.127441 231.535858,298.116150 
	C231.231094,298.248810 231.065750,298.071930 230.982117,297.984406 
z"/>
<path fill="#F0ECE9" opacity="1.000000" stroke="none" 
	d="
M243.615509,245.865677 
	C245.405121,244.288910 247.134995,243.010040 248.864883,241.731155 
	C249.184662,242.288498 249.504456,242.845840 249.824249,243.403183 
	C247.734756,244.323318 245.645279,245.243439 243.615509,245.865677 
z"/>
<path fill="#F0ECE9" opacity="1.000000" stroke="none" 
	d="
M240.364777,248.067566 
	C239.980972,249.251740 239.336624,250.542770 238.692276,251.833786 
	C238.308807,251.677582 237.925339,251.521393 237.541870,251.365189 
	C237.712692,250.736267 237.711334,249.957001 238.096817,249.515503 
	C238.607727,248.930328 239.420914,248.609070 240.364777,248.067566 
z"/>
<path fill="#F0ECE9" opacity="1.000000" stroke="none" 
	d="
M242.625916,273.645782 
	C243.809601,272.847321 244.993301,272.048859 246.176987,271.250427 
	C246.419495,271.650970 246.661987,272.051544 246.904480,272.452087 
	C245.900757,273.007324 244.897018,273.562531 243.410965,274.029419 
	C242.928650,273.941132 242.625916,273.645782 242.625916,273.645782 
z"/>
<path fill="#F0ECE9" opacity="1.000000" stroke="none" 
	d="
M242.409058,275.379639 
	C241.323044,276.033630 240.237030,276.687622 238.637299,277.228271 
	C237.988297,276.993347 237.853012,276.871826 237.717728,276.750275 
	C238.842072,276.117859 239.966415,275.485413 241.581299,274.954773 
	C242.071838,275.056580 242.409058,275.379639 242.409058,275.379639 
z"/>
<path fill="#F0ECE9" opacity="1.000000" stroke="none" 
	d="
M238.317520,277.306763 
	C237.962341,277.871033 237.413239,278.243408 236.864136,278.615784 
	C237.012573,278.104919 237.161026,277.594086 237.513611,276.916748 
	C237.853012,276.871826 237.988297,276.993347 238.317520,277.306763 
z"/>
<path fill="#C8BAAD" opacity="1.000000" stroke="none" 
	d="
M246.866623,238.924988 
	C247.657013,238.605026 248.447403,238.285065 249.558441,237.917145 
	C249.879059,237.869202 249.964706,237.971939 250.005386,238.025574 
	C249.270691,238.408920 248.495316,238.738632 247.349701,239.045212 
	C246.979462,239.022079 246.866623,238.925003 246.866623,238.924988 
z"/>
<path fill="#FBFAF9" opacity="1.000000" stroke="none" 
	d="
M231.509125,291.526245 
	C231.512726,291.552002 231.505524,291.500488 231.509125,291.526245 
z"/>
<path fill="#F0ECE9" opacity="1.000000" stroke="none" 
	d="
M241.905731,274.892456 
	C241.894653,274.455322 242.076401,274.201416 242.455383,273.806213 
	C242.625916,273.645782 242.928650,273.941132 243.079742,274.090973 
	C243.092560,274.524170 242.926926,274.790497 242.571472,275.209717 
	C242.409058,275.379639 242.071838,275.056580 241.905731,274.892456 
z"/>
<path fill="#C8BAAD" opacity="1.000000" stroke="none" 
	d="
M247.028992,239.077637 
	C247.078537,239.133179 246.776230,239.351898 246.776230,239.351898 
	C246.776230,239.351898 246.714737,239.048752 246.790680,238.986877 
	C246.866623,238.925003 246.979462,239.022079 247.028992,239.077637 
z"/>
<path fill="#F0ECE9" opacity="1.000000" stroke="none" 
	d="
M251.490021,241.509644 
	C251.432800,241.539536 251.547241,241.479767 251.490021,241.509644 
z"/>
<path fill="#F0ECE9" opacity="1.000000" stroke="none" 
	d="
M185.242325,238.241379 
	C183.246384,240.467880 180.913620,242.667953 178.279175,245.070282 
	C177.043945,244.524063 176.110413,243.775558 175.176880,243.027069 
	C176.062698,242.439941 176.893326,241.735016 177.845276,241.289032 
	C180.168793,240.200516 182.548447,239.231857 185.242325,238.241379 
z"/>
<path fill="#C4B4A7" opacity="1.000000" stroke="none" 
	d="
M133.058060,214.908905 
	C135.050430,216.842590 135.050430,216.842590 131.616882,218.380875 
	C132.144470,217.108627 132.551620,216.126785 133.058060,214.908905 
z"/>
<path fill="#FBFBFA" opacity="1.000000" stroke="none" 
	d="
M131.731873,250.980560 
	C131.662430,251.609161 131.371643,252.443008 131.001694,253.075333 
	C131.118546,252.311142 131.314529,251.748474 131.731873,250.980560 
z"/>
<path fill="#C4B4A7" opacity="1.000000" stroke="none" 
	d="
M125.088234,209.560577 
	C125.046051,209.608337 124.902054,209.434952 124.902054,209.434952 
	C124.902054,209.434952 125.130417,209.512817 125.088234,209.560577 
z"/>
<path fill="#C4B4A7" opacity="1.000000" stroke="none" 
	d="
M129.508636,216.492035 
	C129.516891,216.513428 129.500381,216.470657 129.508636,216.492035 
z"/>
<path fill="#C4B4A7" opacity="1.000000" stroke="none" 
	d="
M131.506821,211.508850 
	C131.486053,211.516678 131.527588,211.501038 131.506821,211.508850 
z"/>
<path fill="#C4B4A7" opacity="1.000000" stroke="none" 
	d="
M127.506897,208.509644 
	C127.485413,208.517822 127.528374,208.501480 127.506897,208.509644 
z"/>
<path fill="#FBFAF9" opacity="1.000000" stroke="none" 
	d="
M319.317688,306.300598 
	C316.661987,309.741058 312.910400,310.730377 308.500732,311.081116 
	C308.169556,311.173676 307.890045,310.917633 307.744904,310.790100 
	C308.716064,309.513916 309.635590,307.860474 310.993347,307.331116 
	C313.204193,306.469238 315.701385,306.341827 318.592560,305.999390 
	C319.107391,306.094299 319.317688,306.300598 319.317688,306.300598 
z"/>
<path fill="#FBFAF9" opacity="1.000000" stroke="none" 
	d="
M307.562164,288.906952 
	C308.337585,288.699310 308.803253,288.617706 309.268890,288.536102 
	C308.618347,289.681732 307.967834,290.827362 307.317291,291.972992 
	C306.873993,291.707611 306.430725,291.442261 305.987427,291.176880 
	C306.409058,290.462250 306.830719,289.747620 307.562164,288.906952 
z"/>
<path fill="#FBFAF9" opacity="1.000000" stroke="none" 
	d="
M319.003235,305.990112 
	C319.115997,305.940216 319.332916,305.994507 319.433777,306.174683 
	C319.317688,306.300598 319.107391,306.094299 319.003235,305.990112 
z"/>
</svg>