<svg version="1.1" id="Layer_1" xmlns="http://www.w3.org/2000/svg" xmlns:xlink="http://www.w3.org/1999/xlink" x="0px" y="0px"
	 width="100%" viewBox="0 0 512 512" enable-background="new 0 0 512 512" xml:space="preserve">
<path fill="#A64141" opacity="1.000000" stroke="none" 
	d="
M289.000000,513.000000 
	C267.979095,513.000000 246.958206,513.000000 225.565521,512.588379 
	C219.138077,511.092957 213.029190,510.243958 207.036026,508.884674 
	C181.448074,503.081268 156.814453,494.776337 133.709488,482.010284 
	C103.931938,465.557465 78.562126,444.078491 57.126419,417.723297 
	C38.738152,395.114929 24.821924,370.036652 15.115858,342.654999 
	C9.182399,325.916199 4.755784,308.741089 2.900875,290.989990 
	C2.825464,290.268341 1.658436,289.660736 1.000002,289.000000 
	C1.000000,267.979095 1.000000,246.958206 1.411650,225.565521 
	C2.907054,219.138016 3.756037,213.029083 5.115311,207.035889 
	C10.918715,181.447922 19.223730,156.814301 31.989767,133.709351 
	C48.442574,103.931801 69.921593,78.561958 96.276840,57.126293 
	C118.885216,38.738083 143.963547,24.822041 171.345139,15.115707 
	C188.083893,9.182088 205.259064,4.756135 223.010025,2.900868 
	C223.731705,2.825442 224.339264,1.658432 225.000000,1.000000 
	C246.020889,1.000000 267.041779,1.000000 288.434509,1.411648 
	C294.852936,2.906372 300.949890,3.765719 306.937500,5.111356 
	C332.505951,10.857514 357.052246,19.279551 380.155884,31.945837 
	C410.110382,48.368050 435.489960,70.020294 457.003326,96.440239 
	C475.480621,119.131676 489.309662,144.380219 499.018738,171.905319 
	C504.868896,188.490509 509.207275,205.468216 511.098969,223.014862 
	C511.176788,223.736511 512.341614,224.340958 513.000000,225.000000 
	C513.000000,246.020889 513.000000,267.041779 512.588318,288.434509 
	C511.092926,294.862030 510.243988,300.971039 508.884735,306.964294 
	C503.081482,332.552155 494.776184,357.185516 482.010315,380.290375 
	C465.557648,410.068054 444.078491,435.437744 417.723328,456.873535 
	C395.115021,475.261902 370.036682,489.178009 342.655029,498.884155 
	C325.916229,504.817657 308.741089,509.244232 290.989960,511.099182 
	C290.268341,511.174591 289.660736,512.341553 289.000000,513.000000 
M445.438538,243.058044 
	C430.775757,242.307205 419.246094,249.545868 407.910095,258.765594 
	C407.783691,247.627441 409.077362,237.786652 412.976074,228.432846 
	C422.111481,206.515335 444.803314,198.570984 465.266144,210.084595 
	C467.537292,211.362473 469.639648,212.940308 472.090790,214.557510 
	C475.149994,211.160599 478.005615,207.989746 480.847443,204.834229 
	C460.154755,184.489120 417.736694,184.653656 401.324646,218.176086 
	C389.621185,242.080933 388.594177,267.398499 397.287781,292.425018 
	C406.259216,318.251312 432.717712,329.880371 457.533234,320.131531 
	C476.753174,312.580933 486.578674,294.209808 482.802612,272.884552 
	C479.608398,254.845047 465.991364,243.699005 445.438538,243.058044 
M211.911057,320.564972 
	C222.953537,316.261810 230.280197,308.107727 234.920776,297.540771 
	C244.100861,276.637085 243.813354,254.791443 240.329926,232.834534 
	C238.331161,220.235870 233.438797,208.726715 223.387314,200.339096 
	C201.283157,181.893890 167.946304,190.902939 157.352097,218.775848 
	C148.053528,243.239944 148.132919,268.492096 156.905243,293.072205 
	C165.921722,318.336426 185.909348,328.011139 211.911057,320.564972 
M85.011215,279.511078 
	C95.551369,268.571198 105.893700,257.451447 111.378784,242.911392 
	C118.564964,223.861954 111.603539,204.294479 94.800438,195.763000 
	C74.516022,185.463913 45.175003,192.237701 31.458292,210.015457 
	C34.301338,213.256363 37.092144,216.437714 40.003571,219.756561 
	C42.223106,217.777115 43.925972,216.198273 45.692085,214.693665 
	C53.845325,207.747665 62.892769,203.816849 74.001381,204.623978 
	C91.615509,205.903778 101.488457,219.114990 97.317909,236.401260 
	C95.184883,245.242340 90.759537,252.980835 84.590652,259.269409 
	C68.748398,275.418884 52.578300,291.266815 36.042156,306.702728 
	C31.436169,311.002258 30.451038,315.114441 31.684458,320.763550 
	C61.472218,320.763550 91.039642,320.763550 120.823631,320.763550 
	C120.823631,316.119202 120.823631,311.717224 120.823631,307.285095 
	C99.411613,307.285095 78.245560,307.285095 60.344856,307.285095 
	C67.362289,299.365997 75.937386,289.689087 85.011215,279.511078 
M302.472748,199.108871 
	C296.511169,200.507675 290.549561,201.906479 284.659027,203.288605 
	C284.659027,206.666245 284.659027,209.890167 284.659027,213.828415 
	C294.263763,213.828415 303.469025,213.828415 312.615417,213.828415 
	C312.615417,245.318451 312.615417,276.077118 312.615417,307.443359 
	C300.432800,307.443359 288.516571,307.443359 276.478638,307.443359 
	C276.478638,312.272034 276.478638,316.487396 276.478638,320.625427 
	C305.385773,320.625427 333.943390,320.625427 362.550690,320.625427 
	C362.550690,316.161804 362.550690,312.084045 362.550690,307.260681 
	C351.389008,307.260681 340.516083,307.260681 329.122192,307.260681 
	C329.122192,268.948853 329.122192,231.384674 329.122192,193.643387 
	C327.791351,193.507217 326.976593,193.481171 326.184326,193.333984 
	C317.695251,191.756866 310.878937,196.980164 302.472748,199.108871 
z"/>
<path fill="#ffffff" opacity="0" stroke="none" 
	d="
M513.000000,224.531342 
	C512.341614,224.340958 511.176788,223.736511 511.098969,223.014862 
	C509.207275,205.468216 504.868896,188.490509 499.018738,171.905319 
	C489.309662,144.380219 475.480621,119.131676 457.003326,96.440239 
	C435.489960,70.020294 410.110382,48.368050 380.155884,31.945837 
	C357.052246,19.279551 332.505951,10.857514 306.937500,5.111356 
	C300.949890,3.765719 294.852936,2.906372 288.903137,1.411648 
	C363.593719,1.000000 438.187408,1.000000 513.000000,1.000000 
	C513.000000,75.354088 513.000000,149.708389 513.000000,224.531342 
z"/>
<path fill="#ffffff" opacity="0" stroke="none" 
	d="
M224.531342,1.000000 
	C224.339264,1.658432 223.731705,2.825442 223.010025,2.900868 
	C205.259064,4.756135 188.083893,9.182088 171.345139,15.115707 
	C143.963547,24.822041 118.885216,38.738083 96.276840,57.126293 
	C69.921593,78.561958 48.442574,103.931801 31.989767,133.709351 
	C19.223730,156.814301 10.918715,181.447922 5.115311,207.035889 
	C3.756037,213.029083 2.907054,219.138016 1.411650,225.096863 
	C1.000000,150.406296 1.000000,75.812576 1.000000,1.000000 
	C75.354088,1.000000 149.708389,1.000000 224.531342,1.000000 
z"/>
<path fill="#ffffff" opacity="0" stroke="none" 
	d="
M1.000002,289.468658 
	C1.658436,289.660736 2.825464,290.268341 2.900875,290.989990 
	C4.755784,308.741089 9.182399,325.916199 15.115858,342.654999 
	C24.821924,370.036652 38.738152,395.114929 57.126419,417.723297 
	C78.562126,444.078491 103.931938,465.557465 133.709488,482.010284 
	C156.814453,494.776337 181.448074,503.081268 207.036026,508.884674 
	C213.029190,510.243958 219.138077,511.092957 225.096863,512.588379 
	C150.406296,513.000000 75.812599,513.000000 1.000000,513.000000 
	C1.000000,438.645905 1.000000,364.291626 1.000002,289.468658 
z"/>
<path fill="#ffffff" opacity="0" stroke="none" 
	d="
M289.468658,513.000000 
	C289.660736,512.341553 290.268341,511.174591 290.989960,511.099182 
	C308.741089,509.244232 325.916229,504.817657 342.655029,498.884155 
	C370.036682,489.178009 395.115021,475.261902 417.723328,456.873535 
	C444.078491,435.437744 465.557648,410.068054 482.010315,380.290375 
	C494.776184,357.185516 503.081482,332.552155 508.884735,306.964294 
	C510.243988,300.971039 511.092926,294.862030 512.588318,288.903137 
	C513.000000,363.593719 513.000000,438.187408 513.000000,513.000000 
	C438.645905,513.000000 364.291626,513.000000 289.468658,513.000000 
z"/>
<path fill="#FDFBFB" opacity="1.000000" stroke="none" 
	d="
M445.908325,243.063904 
	C465.991364,243.699005 479.608398,254.845047 482.802612,272.884552 
	C486.578674,294.209808 476.753174,312.580933 457.533234,320.131531 
	C432.717712,329.880371 406.259216,318.251312 397.287781,292.425018 
	C388.594177,267.398499 389.621185,242.080933 401.324646,218.176086 
	C417.736694,184.653656 460.154755,184.489120 480.847443,204.834229 
	C478.005615,207.989746 475.149994,211.160599 472.090790,214.557510 
	C469.639648,212.940308 467.537292,211.362473 465.266144,210.084595 
	C444.803314,198.570984 422.111481,206.515335 412.976074,228.432846 
	C409.077362,237.786652 407.783691,247.627441 407.910095,258.765594 
	C419.246094,249.545868 430.775757,242.307205 445.908325,243.063904 
M414.531067,266.003845 
	C408.034973,270.230499 407.238678,276.038971 409.800964,282.830994 
	C411.086639,286.239105 411.945618,289.843048 413.535583,293.095337 
	C419.773712,305.855133 431.405701,311.910187 445.496582,310.010681 
	C460.827484,307.944000 470.144440,293.429077 467.340881,275.979370 
	C465.414490,263.989227 457.619568,256.913422 445.528320,255.745377 
	C433.905670,254.622574 423.973633,258.390198 414.531067,266.003845 
z"/>
<path fill="#FEFCFC" opacity="1.000000" stroke="none" 
	d="
M211.548615,320.719330 
	C185.909348,328.011139 165.921722,318.336426 156.905243,293.072205 
	C148.132919,268.492096 148.053528,243.239944 157.352097,218.775848 
	C167.946304,190.902939 201.283157,181.893890 223.387314,200.339096 
	C233.438797,208.726715 238.331161,220.235870 240.329926,232.834534 
	C243.813354,254.791443 244.100861,276.637085 234.920776,297.540771 
	C230.280197,308.107727 222.953537,316.261810 211.548615,320.719330 
M222.179413,289.567902 
	C223.605804,283.262756 225.713013,277.022797 226.324600,270.639587 
	C227.856155,254.654831 227.847214,238.664291 221.875366,223.357147 
	C219.092773,216.224777 214.983856,210.030716 207.676819,206.685989 
	C193.304626,200.107224 178.690643,206.397888 172.061890,222.303955 
	C166.427216,235.824738 165.722656,250.098465 166.558990,264.504486 
	C167.189682,275.368011 168.737991,286.045288 174.133942,295.755829 
	C179.120117,304.728943 186.518860,310.132965 197.035858,310.048218 
	C207.352844,309.965088 214.556366,304.564026 219.364914,295.699341 
	C220.314377,293.949005 221.090836,292.104797 222.179413,289.567902 
z"/>
<path fill="#FEFCFC" opacity="1.000000" stroke="none" 
	d="
M84.761848,279.761658 
	C75.937386,289.689087 67.362289,299.365997 60.344856,307.285095 
	C78.245560,307.285095 99.411613,307.285095 120.823631,307.285095 
	C120.823631,311.717224 120.823631,316.119202 120.823631,320.763550 
	C91.039642,320.763550 61.472218,320.763550 31.684458,320.763550 
	C30.451038,315.114441 31.436169,311.002258 36.042156,306.702728 
	C52.578300,291.266815 68.748398,275.418884 84.590652,259.269409 
	C90.759537,252.980835 95.184883,245.242340 97.317909,236.401260 
	C101.488457,219.114990 91.615509,205.903778 74.001381,204.623978 
	C62.892769,203.816849 53.845325,207.747665 45.692085,214.693665 
	C43.925972,216.198273 42.223106,217.777115 40.003571,219.756561 
	C37.092144,216.437714 34.301338,213.256363 31.458292,210.015457 
	C45.175003,192.237701 74.516022,185.463913 94.800438,195.763000 
	C111.603539,204.294479 118.564964,223.861954 111.378784,242.911392 
	C105.893700,257.451447 95.551369,268.571198 84.761848,279.761658 
z"/>
<path fill="#FDFBFB" opacity="1.000000" stroke="none" 
	d="
M302.868652,199.030579 
	C310.878937,196.980164 317.695251,191.756866 326.184326,193.333984 
	C326.976593,193.481171 327.791351,193.507217 329.122192,193.643387 
	C329.122192,231.384674 329.122192,268.948853 329.122192,307.260681 
	C340.516083,307.260681 351.389008,307.260681 362.550690,307.260681 
	C362.550690,312.084045 362.550690,316.161804 362.550690,320.625427 
	C333.943390,320.625427 305.385773,320.625427 276.478638,320.625427 
	C276.478638,316.487396 276.478638,312.272034 276.478638,307.443359 
	C288.516571,307.443359 300.432800,307.443359 312.615417,307.443359 
	C312.615417,276.077118 312.615417,245.318451 312.615417,213.828415 
	C303.469025,213.828415 294.263763,213.828415 284.659027,213.828415 
	C284.659027,209.890167 284.659027,206.666245 284.659027,203.288605 
	C290.549561,201.906479 296.511169,200.507675 302.868652,199.030579 
z"/>
<path fill="#A74343" opacity="1.000000" stroke="none" 
	d="
M414.796021,265.762573 
	C423.973633,258.390198 433.905670,254.622574 445.528320,255.745377 
	C457.619568,256.913422 465.414490,263.989227 467.340881,275.979370 
	C470.144440,293.429077 460.827484,307.944000 445.496582,310.010681 
	C431.405701,311.910187 419.773712,305.855133 413.535583,293.095337 
	C411.945618,289.843048 411.086639,286.239105 409.800964,282.830994 
	C407.238678,276.038971 408.034973,270.230499 414.796021,265.762573 
z"/>
<path fill="#A74343" opacity="1.000000" stroke="none" 
	d="
M222.063248,289.935913 
	C221.090836,292.104797 220.314377,293.949005 219.364914,295.699341 
	C214.556366,304.564026 207.352844,309.965088 197.035858,310.048218 
	C186.518860,310.132965 179.120117,304.728943 174.133942,295.755829 
	C168.737991,286.045288 167.189682,275.368011 166.558990,264.504486 
	C165.722656,250.098465 166.427216,235.824738 172.061890,222.303955 
	C178.690643,206.397888 193.304626,200.107224 207.676819,206.685989 
	C214.983856,210.030716 219.092773,216.224777 221.875366,223.357147 
	C227.847214,238.664291 227.856155,254.654831 226.324600,270.639587 
	C225.713013,277.022797 223.605804,283.262756 222.063248,289.935913 
M202.623734,243.616638 
	C195.796188,241.045837 190.146927,242.375748 186.643173,247.378632 
	C183.177902,252.326645 183.578903,259.968079 187.544998,264.562683 
	C191.254074,268.859528 196.890152,270.058441 202.024475,267.642792 
	C207.475250,265.078278 210.514313,258.804291 208.639252,251.987473 
	C207.833069,249.056549 205.127655,246.648010 202.623734,243.616638 
z"/>
<path fill="#FDFBFB" opacity="1.000000" stroke="none" 
	d="
M202.954407,243.809387 
	C205.127655,246.648010 207.833069,249.056549 208.639252,251.987473 
	C210.514313,258.804291 207.475250,265.078278 202.024475,267.642792 
	C196.890152,270.058441 191.254074,268.859528 187.544998,264.562683 
	C183.578903,259.968079 183.177902,252.326645 186.643173,247.378632 
	C190.146927,242.375748 195.796188,241.045837 202.954407,243.809387 
z"/>
</svg>