<svg version="1.1" id="Layer_1" xmlns="http://www.w3.org/2000/svg" xmlns:xlink="http://www.w3.org/1999/xlink" x="0px" y="0px"
	 width="100%" viewBox="0 0 512 512" enable-background="new 0 0 512 512" xml:space="preserve">
<path fill="#BFAE9F" opacity="1.000000" stroke="none" 
	d="
M225.000000,1.000002 
	C246.020889,1.000000 267.041779,1.000000 288.197418,1.336211 
	C293.347595,2.772704 298.320831,4.147249 303.385651,4.926357 
	C326.821564,8.531435 348.915802,16.352661 370.092743,26.674601 
	C401.573639,42.018829 428.553955,63.246532 451.453278,89.830444 
	C467.106201,108.001938 479.954926,127.836372 489.945618,149.594528 
	C500.707062,173.031189 508.135437,197.407639 511.082733,223.092148 
	C511.163086,223.792221 512.336365,224.366867 513.000000,225.000000 
	C513.000000,246.020889 513.000000,267.041779 512.663818,288.197388 
	C511.888275,289.172119 511.182037,289.973358 511.053375,290.858490 
	C510.277863,296.193726 510.046997,301.640198 508.877441,306.880615 
	C503.167297,332.466064 494.763672,357.030487 482.076996,380.148804 
	C466.864746,407.869354 447.137360,431.720123 423.241760,452.287811 
	C404.941650,468.039307 384.807922,480.828766 362.767944,490.697021 
	C339.792114,500.984314 315.982513,508.204681 290.912811,511.082672 
	C290.211060,511.163239 289.634796,512.336365 289.000000,513.000000 
	C267.979095,513.000000 246.958206,513.000000 225.802582,512.663818 
	C224.827820,511.888275 224.026596,511.182037 223.141418,511.053375 
	C217.806000,510.277832 212.359100,510.047638 207.118713,508.877228 
	C181.537842,503.163879 156.975494,494.766815 133.859421,482.079987 
	C106.138237,466.865753 82.287674,447.139099 61.715576,423.246368 
	C45.959751,404.947327 33.173271,384.811462 23.304447,362.770447 
	C13.016662,339.793701 5.795752,315.983582 2.917307,290.913055 
	C2.836730,290.211243 1.663653,289.634857 1.000002,289.000000 
	C1.000000,267.979095 1.000000,246.958206 1.336221,225.802551 
	C2.101962,224.995102 2.788540,224.369400 2.921434,223.642471 
	C4.323836,215.971542 5.473566,208.251495 7.006244,200.607819 
	C12.285223,174.280807 22.404709,149.805267 35.915127,126.706703 
	C50.473049,101.817238 69.077568,80.325478 90.915527,61.521309 
	C105.825958,48.682274 122.047119,37.846878 139.513367,28.907299 
	C165.849564,15.427903 193.586441,6.309370 223.092072,2.917503 
	C223.792267,2.837011 224.366837,1.663632 225.000000,1.000002 
M297.867859,293.301514 
	C298.405273,293.816772 299.338409,294.283447 299.408661,294.856018 
	C299.656586,296.877014 299.907196,298.978241 299.614136,300.969147 
	C298.901642,305.810150 297.776672,310.580414 298.683838,315.547058 
	C298.813843,316.258911 297.796082,317.213715 297.244843,318.011383 
	C292.845520,324.377197 286.597015,327.637268 279.116150,328.955719 
	C277.456787,329.248199 275.898987,330.116852 274.294403,330.720184 
	C274.364319,331.381805 274.434235,332.043427 274.504120,332.705048 
	C277.039490,332.705048 279.594452,332.903137 282.105255,332.654663 
	C285.206757,332.347748 288.256073,331.533234 291.355591,331.181915 
	C296.950165,330.547791 302.559418,329.742096 308.173187,329.648621 
	C316.625031,329.507935 325.092316,329.774109 333.541077,330.142395 
	C339.740326,330.412567 345.915375,331.262573 352.114441,331.483063 
	C353.006226,331.514801 353.972198,329.460754 354.903839,328.371948 
	C353.848267,327.749786 352.811493,326.643188 351.733398,326.601379 
	C349.095703,326.499054 346.438995,327.047485 343.789825,327.048676 
	C337.419189,327.051575 331.136414,321.871796 330.293915,315.615540 
	C329.648743,310.824341 329.238678,305.947815 329.334991,301.121460 
	C329.539795,290.859222 330.441650,280.605896 330.473572,270.347076 
	C330.493835,263.836121 328.067413,257.158722 333.007172,251.491913 
	C328.093048,247.048813 330.147949,241.364243 329.947357,236.348999 
	C329.742126,231.218262 331.234436,226.036942 331.239685,220.877014 
	C331.252228,208.586182 330.862152,196.293854 330.516144,184.005478 
	C330.484436,182.879700 329.868408,181.240799 329.033081,180.824417 
	C328.281494,180.449768 326.682953,181.190262 325.760895,181.857468 
	C323.516144,183.481735 321.709503,186.052231 319.251740,186.968826 
	C314.444977,188.761398 309.378967,190.142258 304.302399,190.862122 
	C296.606293,191.953430 288.784760,192.145615 281.073151,193.153152 
	C279.171478,193.401611 277.488281,195.322388 275.704681,196.474396 
	C277.608185,197.198547 279.466034,198.342636 281.425110,198.555573 
	C285.017731,198.946106 288.690918,198.572891 292.291138,198.922989 
	C295.381683,199.223541 296.596680,201.273743 296.818634,204.454376 
	C297.106689,208.581802 298.154449,212.688568 292.642670,216.308838 
	C295.864349,216.308838 297.183441,216.308838 299.362335,216.308838 
	C297.226105,219.041458 295.585571,221.139969 293.945038,223.238480 
	C294.220795,223.494904 294.496521,223.751328 294.772247,224.007751 
	C296.239410,223.482330 297.706604,222.956924 299.562073,222.292450 
	C299.746460,223.868515 300.014221,225.125946 300.020935,226.384750 
	C300.060547,233.809830 300.136780,241.237000 300.001099,248.659821 
	C299.924011,252.875885 299.457764,257.084442 299.189392,261.297821 
	C299.147552,261.955048 299.085632,262.662872 299.271454,263.274933 
	C302.367798,273.473694 301.014526,283.307343 296.701202,293.073853 
	C296.871979,293.126495 297.042725,293.179108 297.867859,293.301514 
M443.125427,211.114182 
	C443.125427,211.114182 443.338348,211.323181 443.239655,212.029633 
	C439.944489,217.204559 437.347870,223.033478 433.226807,227.435150 
	C419.331787,242.276276 408.806641,259.378052 398.645264,276.770477 
	C397.407104,278.889679 396.789581,281.370300 395.873535,283.679108 
	C393.059937,290.770569 390.152588,297.827148 387.503540,304.979492 
	C387.010193,306.311462 387.479584,308.030792 387.620117,309.560791 
	C387.988495,313.572021 388.420593,317.577454 388.827301,321.585175 
	C390.150299,321.927826 390.643555,324.279358 392.071045,325.676086 
	C395.925232,329.447235 400.277740,332.867126 406.219940,331.100769 
	C412.868958,329.124329 419.080109,317.177521 418.019135,310.319214 
	C417.320099,305.800262 417.886902,301.085480 417.886902,295.890533 
	C417.476227,294.777802 416.276093,292.922058 416.161285,291.001373 
	C414.852234,269.104523 420.108826,249.400269 434.404816,232.092773 
	C443.132629,221.526459 451.181458,210.172073 452.579651,195.726074 
	C453.040283,190.966629 453.565430,186.213425 454.061066,181.457367 
	C452.355133,181.617126 451.739594,181.952744 451.499603,182.464478 
	C448.912659,187.980927 446.542816,193.606384 443.757751,199.018936 
	C442.743774,200.989517 441.018982,202.803009 439.203888,204.114120 
	C433.471344,208.254868 428.314209,207.502533 422.568176,203.079834 
	C417.175140,198.928802 411.475189,195.630310 411.706482,189.093018 
	C409.474731,187.391129 407.750397,186.470917 406.551514,185.093384 
	C401.453583,179.235703 394.175629,177.443481 386.875549,180.531586 
	C384.888153,181.372299 382.907990,182.273483 381.044342,183.353668 
	C377.837036,185.212677 374.723785,187.234009 370.916870,189.592453 
	C370.297821,186.597870 370.242401,184.179001 369.252747,182.236023 
	C368.487000,180.732697 366.551697,179.825104 365.136353,178.652679 
	C364.689819,179.064499 364.243286,179.476334 363.796753,179.888153 
	C364.051147,182.163269 364.307495,184.438156 364.559479,186.713531 
	C364.997681,190.670212 365.808777,194.628845 365.791107,198.583664 
	C365.755035,206.664688 365.077637,214.742798 365.039337,222.823883 
	C365.011536,228.682251 367.557159,234.324188 370.502350,236.264389 
	C370.502350,235.363632 370.635895,234.529160 370.481995,233.751572 
	C368.637878,224.432495 371.204681,216.885010 379.696442,212.117081 
	C382.109375,210.762314 385.293427,210.851044 387.874451,209.712418 
	C395.318970,206.428223 402.677582,208.138336 409.758362,210.314590 
	C420.855530,213.725281 431.737549,217.122040 443.125427,211.114182 
M165.014740,281.061371 
	C165.961502,283.555786 166.866852,286.066895 167.861771,288.541962 
	C174.487030,305.023621 182.855240,320.231689 198.127579,330.504120 
	C205.590332,335.523712 212.736633,335.514740 220.160385,330.258423 
	C220.946503,329.701813 221.893250,329.087738 222.799744,329.028961 
	C233.385925,328.342590 240.233398,321.517761 246.226166,314.029449 
	C258.302002,298.940002 264.370270,281.755005 263.096924,262.129852 
	C262.657257,255.353745 263.385803,248.501846 263.598938,241.048523 
	C263.222229,240.484421 261.710388,239.102005 261.311584,237.450775 
	C260.295441,233.243240 260.573578,228.569153 258.895111,224.707031 
	C255.221375,216.253815 250.676010,208.177765 246.439224,199.972168 
	C245.487762,198.129425 244.737915,195.885696 243.217484,194.684296 
	C236.094650,189.056107 228.426498,184.357712 219.250381,182.788177 
	C215.851425,182.206787 211.743820,180.094101 209.191803,181.296173 
	C201.434067,184.950287 193.655182,189.127716 187.085312,194.554932 
	C181.869583,198.863556 177.810135,204.955795 174.351013,210.903793 
	C170.556900,217.427826 167.654800,224.557251 165.112366,231.689636 
	C163.619720,235.876999 163.584518,240.583878 162.893753,245.057083 
	C162.168610,246.145340 163.362183,247.381439 163.467438,248.704147 
	C163.871933,253.786819 163.884949,258.899261 164.125183,263.996765 
	C164.380722,269.418884 164.728287,274.836639 165.014740,281.061371 
M64.836586,316.291351 
	C64.799210,318.784821 64.571510,321.298462 64.832603,323.760284 
	C64.918472,324.570007 66.269775,325.245544 67.042419,325.982422 
	C67.730194,325.212891 68.880463,324.514648 69.012222,323.659485 
	C69.313187,321.706146 69.017189,319.670074 69.138016,317.678192 
	C69.609001,309.913666 75.432449,304.913361 82.981842,305.597290 
	C90.322571,306.262299 93.765785,311.310028 96.531136,317.269806 
	C98.027954,320.495728 96.957832,324.717804 101.678864,326.739563 
	C106.433945,328.776001 110.361534,334.096100 115.047356,334.653931 
	C124.049416,335.725555 132.235947,331.531311 137.271179,323.828339 
	C140.850494,318.352600 144.628082,312.624817 144.774109,305.445831 
	C144.931412,297.713989 145.703857,289.995941 145.999252,282.263916 
	C146.033981,281.354950 144.748444,280.395569 144.074951,279.459564 
	C143.411575,280.477020 142.288757,281.445587 142.174240,282.521454 
	C141.875778,285.325470 142.673920,288.392242 141.828781,290.956818 
	C140.644699,294.549957 139.160141,299.581726 136.395752,300.798584 
	C130.513611,303.387756 123.763878,304.818848 117.297775,305.106476 
	C101.864883,305.792969 87.104416,297.648560 71.334167,301.388123 
	C71.601677,293.790100 76.084854,287.430847 83.037766,282.325378 
	C93.258842,274.820099 104.729301,271.146637 116.991562,268.765472 
	C124.953072,267.219452 132.635666,264.166718 138.633041,258.268951 
	C146.373352,250.657166 147.756836,240.576370 148.871307,230.490982 
	C150.451752,216.188934 144.078018,204.245255 137.170502,192.563324 
	C134.284546,187.682587 130.651764,183.031158 124.646149,182.118256 
	C118.604309,181.199860 112.426750,181.080017 106.299667,180.853271 
	C102.820114,180.724487 99.128128,180.404343 95.866478,181.338654 
	C81.198479,185.540436 62.534649,200.826004 61.938408,217.483704 
	C61.780010,221.908936 61.791275,226.373871 62.193142,230.777802 
	C62.820694,237.655045 65.839783,243.563339 70.989166,248.144577 
	C75.119354,251.819016 79.378754,251.592651 83.565033,248.027527 
	C91.014084,241.683807 91.691391,234.204803 84.505905,227.619354 
	C81.527023,224.889221 77.116585,223.187164 73.073433,222.274277 
	C66.621986,220.817627 64.077682,217.957855 66.497246,211.699310 
	C67.860786,208.172302 70.814583,205.251129 73.098595,202.090729 
	C78.598267,194.480835 85.739609,189.053879 94.571175,185.789383 
	C99.770103,183.867645 111.381706,185.358795 113.672165,189.306168 
	C116.466614,194.122116 119.330040,199.459869 119.988152,204.838150 
	C121.416290,216.509338 121.065994,228.143112 118.427109,239.952896 
	C116.276581,249.577148 111.624428,256.197479 103.782722,261.159668 
	C99.994392,263.556885 95.920097,265.503510 91.966766,267.638397 
	C83.155594,272.396637 75.396065,278.778351 70.672874,287.410034 
	C66.061455,295.837494 64.552681,305.582855 64.836586,316.291351 
z"/>
<path fill="#FFFFFF" opacity="1.000000" stroke="none" 
	d="
M513.000000,224.531342 
	C512.336365,224.366867 511.163086,223.792221 511.082733,223.092148 
	C508.135437,197.407639 500.707062,173.031189 489.945618,149.594528 
	C479.954926,127.836372 467.106201,108.001938 451.453278,89.830444 
	C428.553955,63.246532 401.573639,42.018829 370.092743,26.674601 
	C348.915802,16.352661 326.821564,8.531435 303.385651,4.926357 
	C298.320831,4.147249 293.347595,2.772704 288.666077,1.336211 
	C363.593719,1.000000 438.187408,1.000000 513.000000,1.000000 
	C513.000000,75.354088 513.000000,149.708389 513.000000,224.531342 
z"/>
<path fill="#FFFFFF" opacity="1.000000" stroke="none" 
	d="
M224.531342,1.000002 
	C224.366837,1.663632 223.792267,2.837011 223.092072,2.917503 
	C193.586441,6.309370 165.849564,15.427903 139.513367,28.907299 
	C122.047119,37.846878 105.825958,48.682274 90.915527,61.521309 
	C69.077568,80.325478 50.473049,101.817238 35.915127,126.706703 
	C22.404709,149.805267 12.285223,174.280807 7.006244,200.607819 
	C5.473566,208.251495 4.323836,215.971542 2.921434,223.642471 
	C2.788540,224.369400 2.101962,224.995102 1.336221,225.333893 
	C1.000000,150.406296 1.000000,75.812576 1.000000,1.000000 
	C75.354088,1.000000 149.708389,1.000000 224.531342,1.000002 
z"/>
<path fill="#FFFFFF" opacity="1.000000" stroke="none" 
	d="
M289.468658,513.000000 
	C289.634796,512.336365 290.211060,511.163239 290.912811,511.082672 
	C315.982513,508.204681 339.792114,500.984314 362.767944,490.697021 
	C384.807922,480.828766 404.941650,468.039307 423.241760,452.287811 
	C447.137360,431.720123 466.864746,407.869354 482.076996,380.148804 
	C494.763672,357.030487 503.167297,332.466064 508.877441,306.880615 
	C510.046997,301.640198 510.277863,296.193726 511.053375,290.858490 
	C511.182037,289.973358 511.888275,289.172119 512.663818,288.666077 
	C513.000000,363.593719 513.000000,438.187408 513.000000,513.000000 
	C438.645905,513.000000 364.291626,513.000000 289.468658,513.000000 
z"/>
<path fill="#FFFFFF" opacity="1.000000" stroke="none" 
	d="
M1.000002,289.468658 
	C1.663653,289.634857 2.836730,290.211243 2.917307,290.913055 
	C5.795752,315.983582 13.016662,339.793701 23.304447,362.770447 
	C33.173271,384.811462 45.959751,404.947327 61.715576,423.246368 
	C82.287674,447.139099 106.138237,466.865753 133.859421,482.079987 
	C156.975494,494.766815 181.537842,503.163879 207.118713,508.877228 
	C212.359100,510.047638 217.806000,510.277832 223.141418,511.053375 
	C224.026596,511.182037 224.827820,511.888275 225.333923,512.663818 
	C150.406296,513.000000 75.812599,513.000000 1.000000,513.000000 
	C1.000000,438.645905 1.000000,364.291626 1.000002,289.468658 
z"/>
<path fill="#FBFAF9" opacity="1.000000" stroke="none" 
	d="
M165.025208,280.658844 
	C164.728287,274.836639 164.380722,269.418884 164.125183,263.996765 
	C163.884949,258.899261 163.871933,253.786819 163.467438,248.704147 
	C163.362183,247.381439 162.168610,246.145340 162.893753,245.057083 
	C163.584518,240.583878 163.619720,235.876999 165.112366,231.689636 
	C167.654800,224.557251 170.556900,217.427826 174.351013,210.903793 
	C177.810135,204.955795 181.869583,198.863556 187.085312,194.554932 
	C193.655182,189.127716 201.434067,184.950287 209.191803,181.296173 
	C211.743820,180.094101 215.851425,182.206787 219.250381,182.788177 
	C228.426498,184.357712 236.094650,189.056107 243.217484,194.684296 
	C244.737915,195.885696 245.487762,198.129425 246.439224,199.972168 
	C250.676010,208.177765 255.221375,216.253815 258.895111,224.707031 
	C260.573578,228.569153 260.295441,233.243240 261.311584,237.450775 
	C261.710388,239.102005 263.222229,240.484421 263.598938,241.048523 
	C263.385803,248.501846 262.657257,255.353745 263.096924,262.129852 
	C264.370270,281.755005 258.302002,298.940002 246.226166,314.029449 
	C240.233398,321.517761 233.385925,328.342590 222.799744,329.028961 
	C221.893250,329.087738 220.946503,329.701813 220.160385,330.258423 
	C212.736633,335.514740 205.590332,335.523712 198.127579,330.504120 
	C182.855240,320.231689 174.487030,305.023621 167.861771,288.541962 
	C166.866852,286.066895 165.961502,283.555786 165.025208,280.658844 
M248.375229,224.915909 
	C248.177917,224.871872 247.980621,224.827820 247.340195,224.960190 
	C247.052567,225.111847 246.801193,225.309616 245.922424,225.640793 
	C244.873962,226.690369 243.825500,227.739944 242.344238,228.987961 
	C242.056900,229.134277 241.808701,229.330185 240.996124,229.789169 
	C239.413559,229.964401 237.830994,230.139648 235.852783,230.358688 
	C236.037994,232.134506 236.223343,233.911835 236.408707,235.689178 
	C236.864395,235.841980 237.320099,235.994766 237.775787,236.147568 
	C239.250473,234.160950 240.725159,232.174316 242.639725,229.998795 
	C242.932709,229.859100 243.185913,229.666992 244.004883,229.224762 
	C245.079468,228.219757 246.154068,227.214752 247.609177,225.913010 
	C247.838028,225.674393 247.989365,225.393951 248.375229,224.915909 
M182.522736,213.001205 
	C182.293793,213.157593 182.064850,213.313995 181.835907,213.470383 
	C182.253204,213.339554 182.670486,213.208725 183.375641,212.977859 
	C183.238174,212.970245 183.100723,212.962646 182.522736,213.001205 
M239.933273,219.721573 
	C238.791229,220.688156 237.649200,221.654739 236.248322,222.937607 
	C236.585403,223.050186 236.922485,223.162781 237.931000,223.211472 
	C239.043137,222.225021 240.155273,221.238571 241.653778,219.984604 
	C241.898972,219.782913 242.100250,219.544189 242.897797,219.038971 
	C244.513626,218.096207 246.129456,217.153427 247.918198,216.109756 
	C246.243149,214.763840 245.125916,213.866119 243.449051,212.745529 
	C243.032196,211.516144 242.615341,210.286743 241.888458,208.143036 
	C239.009979,210.531525 236.546173,212.575912 234.082367,214.620300 
	C234.303940,215.079025 234.525528,215.537766 234.747101,215.996490 
	C237.498703,215.996490 240.250290,215.996490 242.787262,216.551041 
	C242.382736,217.231934 241.978226,217.912827 241.211395,218.871353 
	C240.970505,219.061584 240.757828,219.279373 239.933273,219.721573 
M240.870560,239.815033 
	C237.967865,241.044327 235.789948,242.709991 237.284393,246.681961 
	C238.929916,244.530304 240.575424,242.378647 242.775421,239.967758 
	C243.512283,239.636353 244.249146,239.304947 245.175507,239.460510 
	C246.402359,239.528732 247.629211,239.596954 249.345078,239.692368 
	C245.700775,242.808380 242.317322,245.686188 238.950699,248.583557 
	C234.037125,252.812271 233.910751,253.636795 237.154099,259.191467 
	C236.067551,260.815338 235.014297,262.389435 234.568893,263.055115 
	C236.842300,264.813263 238.579575,266.156799 240.316864,267.500366 
	C239.617966,267.620361 238.919052,267.740356 238.220154,267.860352 
	C236.583694,271.292664 234.751266,274.657196 233.515320,278.228119 
	C233.322845,278.784241 235.851685,280.282257 237.346848,281.532623 
	C233.607910,284.311798 230.771439,287.947052 232.875183,293.732178 
	C233.593475,295.707428 233.820724,298.722504 232.795746,300.307678 
	C229.820755,304.908539 231.667892,309.163513 232.295868,312.791382 
	C230.140457,316.320038 228.244583,319.423767 226.348724,322.527527 
	C230.788788,320.925171 234.321838,319.187408 237.704208,317.194000 
	C238.782761,316.558319 239.638626,315.346497 240.290131,314.220978 
	C242.427536,310.528503 246.395264,307.731720 245.885559,302.674469 
	C245.823090,302.054718 247.064453,301.131775 247.873718,300.623260 
	C254.081757,296.722137 256.965820,290.800476 258.572021,283.436859 
	C258.686066,282.906647 258.800079,282.376465 258.960815,281.032959 
	C259.149750,279.381470 259.226257,277.707458 259.552277,276.083466 
	C260.137054,273.170288 258.760803,272.112671 256.016113,272.025116 
	C256.016113,272.025116 255.936630,271.947601 255.998505,271.294098 
	C259.610657,267.099182 261.465881,250.783447 258.324677,248.977203 
	C257.368774,249.346313 256.283478,249.765381 254.754684,250.355713 
	C256.098480,247.782791 258.034698,245.768646 258.000793,243.788208 
	C257.930145,239.660049 256.817780,235.549698 256.044464,230.896805 
	C252.602554,233.332626 249.306137,235.665466 245.555237,237.482071 
	C244.216232,238.191696 242.877228,238.901337 240.870560,239.815033 
M173.917206,263.667786 
	C171.626892,265.404510 169.336563,267.141235 167.046249,268.877960 
	C167.592377,269.514160 168.138504,270.150391 168.684631,270.786591 
	C170.876587,268.604828 173.068527,266.423096 175.619995,263.912720 
	C175.835953,263.659363 175.974487,263.369049 176.585938,263.349518 
	C177.557007,264.551819 178.528091,265.754120 179.360840,266.785156 
	C176.019058,269.468414 172.970596,271.752716 170.144455,274.285126 
	C169.299042,275.042664 168.460953,276.629211 168.676010,277.602448 
	C169.463593,281.166412 177.352707,283.339386 180.119232,281.055695 
	C181.213287,280.152527 182.678787,279.699402 183.975159,279.041351 
	C184.239059,279.438812 184.502960,279.836304 184.766846,280.233765 
	C182.918289,282.219177 181.069733,284.204620 179.221191,286.190033 
	C179.409317,286.509430 179.597458,286.828827 179.785599,287.148224 
	C182.671326,286.209869 185.557068,285.271515 188.442795,284.333160 
	C188.720428,284.908173 188.998047,285.483154 189.275681,286.058167 
	C183.923126,289.058716 178.570572,292.059265 173.006012,295.178650 
	C173.521973,295.999115 174.364334,297.338593 175.389908,298.969421 
	C177.386505,297.565582 178.985809,296.441101 180.585098,295.316620 
	C180.944565,295.641479 181.304031,295.966339 181.663498,296.291199 
	C180.584305,297.485840 179.380615,298.594360 178.472519,299.907318 
	C177.925491,300.698181 177.838394,301.807129 177.544601,302.773163 
	C178.559845,303.079681 179.708206,303.849915 180.564850,303.604004 
	C182.935562,302.923462 185.147400,301.710999 187.489609,300.905182 
	C192.017090,299.347412 194.023621,296.251617 193.974625,291.489899 
	C193.866455,280.981293 193.858337,270.470886 193.915756,259.961792 
	C193.936523,256.160736 194.629303,252.188217 189.555878,251.289215 
	C191.133041,249.257690 192.478683,247.524384 193.824326,245.791077 
	C193.398727,245.404846 192.973129,245.018631 192.547531,244.632416 
	C186.967041,246.521881 183.803635,251.535828 179.738220,255.376556 
	C179.613419,255.494446 179.954498,256.017059 179.861740,256.272217 
	C179.399994,257.542236 178.997650,258.863708 178.318207,260.016022 
	C177.687393,261.085846 176.733536,261.965240 175.435257,263.027496 
	C175.159103,263.211121 174.882965,263.394714 173.917206,263.667786 
M245.933807,233.133255 
	C249.598145,231.206451 252.676605,228.710052 254.919235,225.401093 
	C254.426407,224.881012 253.933563,224.360931 253.440735,223.840851 
	C250.463852,226.721680 247.486969,229.602524 244.117538,232.733170 
	C243.943939,232.988525 243.770340,233.243866 243.596756,233.499237 
	C244.148956,233.430099 244.701157,233.360977 245.933807,233.133255 
M187.931015,210.001312 
	C192.232895,208.459946 195.591492,205.945206 197.483078,201.916626 
	C197.028275,201.413895 196.573456,200.911163 196.118652,200.408447 
	C192.894211,203.440048 189.669785,206.471664 185.989594,209.795074 
	C185.814102,210.332413 185.638611,210.869736 185.463120,211.407074 
	C186.069733,211.028793 186.676331,210.650513 187.931015,210.001312 
M185.701324,205.060516 
	C190.690750,201.512238 195.680191,197.963959 200.669617,194.415680 
	C200.067200,193.693054 199.464783,192.970444 198.862350,192.247818 
	C194.252792,196.502182 189.643234,200.756561 184.928909,205.079361 
	C184.928909,205.079361 184.976959,204.958359 185.701324,205.060516 
M200.940750,328.662994 
	C201.031769,328.375610 201.122772,328.088257 201.021133,327.117218 
	C197.151123,323.066162 198.673859,315.104126 190.734970,313.324432 
	C199.679428,310.668152 190.546219,305.062805 193.666000,301.297516 
	C193.316299,300.972015 192.966599,300.646515 192.616898,300.321014 
	C188.725571,302.557922 184.834229,304.794861 180.866516,307.075714 
	C184.408829,317.487061 192.419067,323.041321 200.940750,328.662994 
M174.925278,227.912079 
	C174.925278,227.912079 175.163330,228.144913 174.762848,228.708466 
	C171.542465,230.586456 169.770157,233.080139 169.760986,237.116974 
	C169.754684,239.881653 168.556870,242.663696 167.763092,245.400681 
	C167.010849,247.994461 167.257721,249.486404 170.501160,248.515106 
	C171.372452,248.254196 172.301071,248.184753 174.383972,247.821564 
	C172.167892,249.777908 170.781982,250.858704 169.563324,252.103302 
	C165.490616,256.262787 165.866272,261.606567 170.159134,261.289185 
	C168.360504,257.317780 171.286682,252.097107 176.297226,250.867126 
	C182.349396,249.381409 186.579163,244.958664 191.539032,241.738327 
	C192.907822,240.849609 194.493317,238.762802 190.993896,238.039627 
	C190.993896,238.039627 191.043579,238.046860 191.292206,237.356445 
	C192.215042,234.128342 193.560959,230.952393 193.966675,227.660553 
	C194.665649,221.989594 194.779388,216.246490 195.197464,209.599838 
	C186.602905,214.342514 178.670807,219.457016 172.327377,227.497986 
	C173.420456,227.580887 174.054886,227.628998 174.925278,227.912079 
M230.922577,257.044250 
	C231.263779,246.498734 232.667282,235.849594 231.651642,225.436417 
	C230.606400,214.719574 227.549957,204.137222 224.677643,193.687302 
	C223.322891,188.758530 215.988968,185.782806 211.274902,187.114197 
	C206.783279,188.382751 202.635757,195.113007 203.207230,200.147797 
	C203.310181,201.054733 203.654587,202.414963 203.206085,202.830627 
	C197.720840,207.914169 198.838943,215.120605 198.503220,221.110275 
	C197.180405,244.710800 197.001572,268.376831 196.500519,292.020691 
	C196.414246,296.091675 196.636673,300.192322 197.046616,304.245850 
	C197.850800,312.198059 198.750671,320.112213 204.771179,326.342072 
	C207.503403,329.169312 210.224838,329.553284 213.743927,328.174072 
	C220.153976,325.661865 224.399002,321.390228 225.361526,314.438324 
	C226.149353,308.748199 225.977676,302.841797 227.445450,297.356140 
	C228.580887,293.112610 229.649887,289.942108 224.326630,288.479370 
	C226.328232,285.094086 228.123886,282.057129 230.043427,278.810638 
	C228.162918,277.833313 226.918427,277.186554 225.342850,276.367706 
	C229.221619,271.445099 231.939697,266.482880 229.996597,260.241791 
	C229.793488,259.589386 230.421356,258.678314 230.922577,257.044250 
M241.489914,206.606506 
	C246.009048,205.727921 240.475906,203.556702 242.043869,202.298630 
	C240.641968,201.290436 238.768906,199.148987 237.931030,199.497345 
	C235.843521,200.365265 233.652054,202.071747 232.649704,204.029144 
	C232.099274,205.104019 233.871384,207.368240 234.151642,208.036301 
	C237.152588,207.262512 238.983047,206.790543 241.489914,206.606506 
M230.837814,195.065094 
	C233.153107,191.223587 231.608536,190.034164 226.785873,191.119629 
	C227.965805,192.599625 229.145752,194.079605 230.837814,195.065094 
M244.459808,208.353226 
	C244.459808,208.353226 244.315613,208.587585 244.315613,208.587585 
	C244.315613,208.587585 244.607971,208.560120 244.459808,208.353226 
z"/>
<path fill="#FCFBFA" opacity="1.000000" stroke="none" 
	d="
M64.831215,315.833862 
	C64.552681,305.582855 66.061455,295.837494 70.672874,287.410034 
	C75.396065,278.778351 83.155594,272.396637 91.966766,267.638397 
	C95.920097,265.503510 99.994392,263.556885 103.782722,261.159668 
	C111.624428,256.197479 116.276581,249.577148 118.427109,239.952896 
	C121.065994,228.143112 121.416290,216.509338 119.988152,204.838150 
	C119.330040,199.459869 116.466614,194.122116 113.672165,189.306168 
	C111.381706,185.358795 99.770103,183.867645 94.571175,185.789383 
	C85.739609,189.053879 78.598267,194.480835 73.098595,202.090729 
	C70.814583,205.251129 67.860786,208.172302 66.497246,211.699310 
	C64.077682,217.957855 66.621986,220.817627 73.073433,222.274277 
	C77.116585,223.187164 81.527023,224.889221 84.505905,227.619354 
	C91.691391,234.204803 91.014084,241.683807 83.565033,248.027527 
	C79.378754,251.592651 75.119354,251.819016 70.989166,248.144577 
	C65.839783,243.563339 62.820694,237.655045 62.193142,230.777802 
	C61.791275,226.373871 61.780010,221.908936 61.938408,217.483704 
	C62.534649,200.826004 81.198479,185.540436 95.866478,181.338654 
	C99.128128,180.404343 102.820114,180.724487 106.299667,180.853271 
	C112.426750,181.080017 118.604309,181.199860 124.646149,182.118256 
	C130.651764,183.031158 134.284546,187.682587 137.170502,192.563324 
	C144.078018,204.245255 150.451752,216.188934 148.871307,230.490982 
	C147.756836,240.576370 146.373352,250.657166 138.633041,258.268951 
	C132.635666,264.166718 124.953072,267.219452 116.991562,268.765472 
	C104.729301,271.146637 93.258842,274.820099 83.037766,282.325378 
	C76.084854,287.430847 71.601677,293.790100 71.334167,301.388123 
	C87.104416,297.648560 101.864883,305.792969 117.297775,305.106476 
	C123.763878,304.818848 130.513611,303.387756 136.395752,300.798584 
	C139.160141,299.581726 140.644699,294.549957 141.828781,290.956818 
	C142.673920,288.392242 141.875778,285.325470 142.174240,282.521454 
	C142.288757,281.445587 143.411575,280.477020 144.074951,279.459564 
	C144.748444,280.395569 146.033981,281.354950 145.999252,282.263916 
	C145.703857,289.995941 144.931412,297.713989 144.774109,305.445831 
	C144.628082,312.624817 140.850494,318.352600 137.271179,323.828339 
	C132.235947,331.531311 124.049416,335.725555 115.047356,334.653931 
	C110.361534,334.096100 106.433945,328.776001 101.678864,326.739563 
	C96.957832,324.717804 98.027954,320.495728 96.531136,317.269806 
	C93.765785,311.310028 90.322571,306.262299 82.981842,305.597290 
	C75.432449,304.913361 69.609001,309.913666 69.138016,317.678192 
	C69.017189,319.670074 69.313187,321.706146 69.012222,323.659485 
	C68.880463,324.514648 67.730194,325.212891 67.042419,325.982422 
	C66.269775,325.245544 64.918472,324.570007 64.832603,323.760284 
	C64.571510,321.298462 64.799210,318.784821 64.831215,315.833862 
M124.249466,317.924286 
	C124.249466,317.924286 124.190262,317.558838 124.190262,317.558838 
	C124.190262,317.558838 123.907051,317.915833 123.566444,318.026489 
	C123.532921,318.158234 123.499405,318.289978 123.465881,318.421722 
	C123.656555,318.295898 123.847221,318.170105 124.249466,317.924286 
M98.580254,269.035339 
	C99.077530,268.721252 99.574806,268.407166 100.877647,268.112549 
	C106.270523,267.022247 111.637154,265.769318 117.064644,264.893585 
	C121.338623,264.204010 124.188690,262.364746 124.616432,257.780884 
	C124.875244,255.007248 126.926575,253.628632 129.689926,254.353836 
	C129.598618,255.828552 129.507309,257.303253 129.318924,260.345581 
	C132.406998,257.940033 134.176819,256.561371 136.668259,254.620590 
	C133.705002,254.306793 131.985214,254.124680 130.574814,253.371521 
	C132.387177,252.571533 134.199539,251.771561 136.136414,251.497101 
	C136.335144,251.853775 136.533890,252.210449 136.732605,252.567108 
	C136.912277,252.410202 137.091934,252.253296 137.271606,252.096390 
	C136.839264,251.732330 136.406921,251.368271 136.153549,250.333618 
	C141.031509,245.908157 144.101501,240.450897 144.070389,233.840744 
	C144.042297,227.875763 143.725037,221.816818 142.583405,215.985703 
	C141.814743,212.059631 139.407135,208.450027 137.702164,204.712799 
	C135.486755,199.856720 133.571136,194.722198 127.758461,193.008667 
	C122.039566,198.697845 126.372185,204.804825 126.150276,210.556030 
	C128.010117,211.274429 129.609863,211.892365 131.383896,212.577621 
	C129.429947,213.986603 127.819603,215.147812 126.209259,216.309021 
	C128.050873,217.119781 129.892471,217.930542 131.399658,218.594086 
	C129.949219,220.029541 126.862320,222.136078 127.170799,222.940521 
	C128.644730,226.783890 127.652428,229.568787 125.052826,232.266785 
	C124.626144,232.709610 124.091354,233.576462 124.256760,233.982330 
	C126.733345,240.059784 121.973656,244.643127 120.628036,249.819046 
	C119.718826,253.316269 116.101891,256.440186 113.063538,258.971924 
	C109.012085,262.347748 104.346619,264.986694 99.369301,267.998718 
	C98.925682,268.339233 98.482071,268.679779 97.822487,269.099365 
	C97.822487,269.099365 97.858566,269.373993 97.858566,269.373993 
	C97.858566,269.373993 97.961334,268.949677 98.580254,269.035339 
M76.332626,244.804764 
	C78.804962,243.173981 81.448006,241.739075 83.660942,239.810608 
	C84.481918,239.095154 84.894890,236.950607 84.436417,235.935333 
	C83.580154,234.039154 81.950661,232.492142 80.140793,230.150070 
	C79.114822,230.518097 77.208473,231.201920 74.770882,232.076324 
	C77.988213,235.412262 76.853127,237.019730 73.537766,238.197815 
	C72.506409,238.564301 71.837387,239.950485 71.002487,240.869858 
	C71.774139,241.558990 72.535698,242.259872 73.320396,242.933807 
	C74.061745,243.570541 74.827438,244.178940 76.332626,244.804764 
M129.163834,318.589783 
	C132.220200,323.382080 125.074951,323.793518 125.219307,327.414642 
	C130.845428,327.033203 137.234482,318.310333 138.405807,308.624207 
	C134.984344,312.229584 132.206070,315.157166 129.163834,318.589783 
M116.438560,318.417969 
	C119.272812,315.806061 122.107071,313.194122 125.353050,310.202759 
	C121.015320,309.142029 115.191780,314.562256 114.052162,319.689087 
	C114.756073,319.340057 115.316612,319.062103 116.438560,318.417969 
M117.019875,323.489014 
	C115.386559,324.948792 113.753242,326.408569 112.119934,327.868378 
	C118.077370,328.667816 119.362885,324.080627 122.019531,321.083954 
	C121.682945,320.678528 121.346359,320.273132 121.009773,319.867737 
	C119.821373,320.880066 118.632973,321.892395 117.019875,323.489014 
M109.974930,312.613831 
	C108.929062,314.528900 107.883194,316.443939 106.837326,318.359009 
	C107.144173,318.472198 107.451019,318.585419 107.757866,318.698608 
	C110.603157,315.987793 113.448441,313.277008 116.293732,310.566193 
	C116.025726,310.126923 115.757729,309.687653 115.489723,309.248413 
	C113.817093,310.200897 112.144463,311.153351 109.974930,312.613831 
M101.164810,312.545807 
	C102.036736,311.012360 102.908653,309.478943 104.405136,306.847107 
	C98.050812,310.487030 97.567207,312.545135 101.520317,316.853424 
	C101.374344,315.278687 101.279114,314.251312 101.164810,312.545807 
M105.594505,320.950623 
	C105.594505,320.950623 105.591835,321.030060 105.594505,320.950623 
z"/>
<path fill="#FBFBFA" opacity="1.000000" stroke="none" 
	d="
M442.914978,210.902695 
	C431.737549,217.122040 420.855530,213.725281 409.758362,210.314590 
	C402.677582,208.138336 395.318970,206.428223 387.874451,209.712418 
	C385.293427,210.851044 382.109375,210.762314 379.696442,212.117081 
	C371.204681,216.885010 368.637878,224.432495 370.481995,233.751572 
	C370.635895,234.529160 370.502350,235.363632 370.502350,236.264389 
	C367.557159,234.324188 365.011536,228.682251 365.039337,222.823883 
	C365.077637,214.742798 365.755035,206.664688 365.791107,198.583664 
	C365.808777,194.628845 364.997681,190.670212 364.559479,186.713531 
	C364.307495,184.438156 364.051147,182.163269 363.796753,179.888153 
	C364.243286,179.476334 364.689819,179.064499 365.136353,178.652679 
	C366.551697,179.825104 368.487000,180.732697 369.252747,182.236023 
	C370.242401,184.179001 370.297821,186.597870 370.916870,189.592453 
	C374.723785,187.234009 377.837036,185.212677 381.044342,183.353668 
	C382.907990,182.273483 384.888153,181.372299 386.875549,180.531586 
	C394.175629,177.443481 401.453583,179.235703 406.551514,185.093384 
	C407.750397,186.470917 409.474731,187.391129 411.706482,189.093018 
	C411.475189,195.630310 417.175140,198.928802 422.568176,203.079834 
	C428.314209,207.502533 433.471344,208.254868 439.203888,204.114120 
	C441.018982,202.803009 442.743774,200.989517 443.757751,199.018936 
	C446.542816,193.606384 448.912659,187.980927 451.499603,182.464478 
	C451.739594,181.952744 452.355133,181.617126 454.061066,181.457367 
	C453.565430,186.213425 453.040283,190.966629 452.579651,195.726074 
	C451.181458,210.172073 443.132629,221.526459 434.404816,232.092773 
	C420.108826,249.400269 414.852234,269.104523 416.161285,291.001373 
	C416.276093,292.922058 417.476227,294.777802 417.886902,295.890533 
	C417.886902,301.085480 417.320099,305.800262 418.019135,310.319214 
	C419.080109,317.177521 412.868958,329.124329 406.219940,331.100769 
	C400.277740,332.867126 395.925232,329.447235 392.071045,325.676086 
	C390.643555,324.279358 390.150299,321.927826 388.827301,321.585175 
	C388.420593,317.577454 387.988495,313.572021 387.620117,309.560791 
	C387.479584,308.030792 387.010193,306.311462 387.503540,304.979492 
	C390.152588,297.827148 393.059937,290.770569 395.873535,283.679108 
	C396.789581,281.370300 397.407104,278.889679 398.645264,276.770477 
	C408.806641,259.378052 419.331787,242.276276 433.226807,227.435150 
	C437.347870,223.033478 439.944489,217.204559 443.394897,211.553192 
	C443.338440,211.018738 443.126709,210.960709 442.914978,210.902695 
M398.776672,291.840454 
	C400.227417,289.527435 401.678192,287.214386 403.128937,284.901367 
	C402.655304,284.454498 402.181671,284.007629 401.708038,283.560760 
	C400.647308,284.467499 399.152985,285.177551 398.630859,286.328583 
	C397.906860,287.924652 397.913208,289.852020 397.401001,291.949890 
	C397.672150,292.043091 397.943329,292.136292 398.776672,291.840454 
M395.924500,310.921570 
	C395.924500,310.921570 396.024536,311.019379 395.991486,311.735657 
	C395.031677,313.497314 394.071899,315.258972 393.112091,317.020660 
	C393.329285,317.251007 393.546509,317.481354 393.763702,317.711700 
	C395.355591,316.609863 396.947510,315.507996 399.420593,313.796204 
	C397.741730,317.241272 396.546539,319.693817 395.363770,322.120941 
	C401.308167,327.404877 404.122955,328.366028 409.419678,325.470306 
	C411.325439,324.428345 412.201508,321.502808 413.547485,319.436890 
	C413.235260,319.208099 412.923065,318.979340 412.610840,318.750580 
	C411.267548,319.197388 409.924286,319.644226 408.580994,320.091064 
	C408.810974,318.685852 409.308197,317.769653 410.077332,317.337433 
	C415.421600,314.334442 411.592743,308.855286 413.504822,304.951660 
	C412.671783,304.655090 411.838776,304.358521 411.000763,303.370697 
	C410.998260,302.909973 410.995758,302.449219 411.399475,301.389038 
	C414.894562,298.037262 414.470337,294.211884 413.050354,289.922211 
	C412.089752,290.300659 411.361664,290.388000 410.922668,290.790558 
	C404.983704,296.236908 398.843597,301.495697 393.276855,307.302856 
	C390.442749,310.259369 393.614594,310.589996 395.924500,310.921570 
M407.764862,205.813293 
	C411.314209,207.437210 414.441833,207.766922 415.916016,203.481079 
	C414.585510,198.492798 410.771423,199.817947 407.706207,200.100479 
	C406.462433,200.215134 405.364380,201.910645 404.200012,202.886826 
	C405.143738,203.777939 406.087463,204.669067 407.764862,205.813293 
M409.432770,265.935364 
	C407.804321,268.750092 406.175873,271.564789 404.375885,274.676025 
	C410.729614,273.005096 416.090912,263.951050 416.430084,253.801529 
	C413.845642,258.275787 411.818634,261.785095 409.432770,265.935364 
M372.326874,212.561401 
	C374.628876,209.896027 376.930878,207.230667 379.309387,204.476730 
	C372.750946,204.488281 368.912323,208.705414 370.349060,214.296310 
	C370.882263,213.839005 371.367279,213.423019 372.326874,212.561401 
M385.502502,202.633270 
	C386.205261,202.916931 387.290466,203.642563 387.551941,203.416290 
	C390.367126,200.980042 393.052490,198.393784 395.773376,195.848557 
	C395.444458,195.453110 395.115509,195.057663 394.786591,194.662216 
	C391.816040,197.136703 388.845520,199.611206 385.502502,202.633270 
M403.156799,195.571457 
	C402.738159,196.458878 402.319519,197.346298 401.900879,198.233734 
	C404.154846,197.696869 406.408813,197.159988 408.662750,196.623123 
	C408.490723,195.813889 408.318695,195.004639 408.146667,194.195389 
	C406.663452,194.522079 405.180237,194.848785 403.156799,195.571457 
z"/>
<path fill="#FBFAF9" opacity="1.000000" stroke="none" 
	d="
M296.914795,292.927887 
	C301.014526,283.307343 302.367798,273.473694 299.271454,263.274933 
	C299.085632,262.662872 299.147552,261.955048 299.189392,261.297821 
	C299.457764,257.084442 299.924011,252.875885 300.001099,248.659821 
	C300.136780,241.237000 300.060547,233.809830 300.020935,226.384750 
	C300.014221,225.125946 299.746460,223.868515 299.562073,222.292450 
	C297.706604,222.956924 296.239410,223.482330 294.772247,224.007751 
	C294.496521,223.751328 294.220795,223.494904 293.945038,223.238480 
	C295.585571,221.139969 297.226105,219.041458 299.362335,216.308838 
	C297.183441,216.308838 295.864349,216.308838 292.642670,216.308838 
	C298.154449,212.688568 297.106689,208.581802 296.818634,204.454376 
	C296.596680,201.273743 295.381683,199.223541 292.291138,198.922989 
	C288.690918,198.572891 285.017731,198.946106 281.425110,198.555573 
	C279.466034,198.342636 277.608185,197.198547 275.704681,196.474396 
	C277.488281,195.322388 279.171478,193.401611 281.073151,193.153152 
	C288.784760,192.145615 296.606293,191.953430 304.302399,190.862122 
	C309.378967,190.142258 314.444977,188.761398 319.251740,186.968826 
	C321.709503,186.052231 323.516144,183.481735 325.760895,181.857468 
	C326.682953,181.190262 328.281494,180.449768 329.033081,180.824417 
	C329.868408,181.240799 330.484436,182.879700 330.516144,184.005478 
	C330.862152,196.293854 331.252228,208.586182 331.239685,220.877014 
	C331.234436,226.036942 329.742126,231.218262 329.947357,236.348999 
	C330.147949,241.364243 328.093048,247.048813 333.007172,251.491913 
	C328.067413,257.158722 330.493835,263.836121 330.473572,270.347076 
	C330.441650,280.605896 329.539795,290.859222 329.334991,301.121460 
	C329.238678,305.947815 329.648743,310.824341 330.293915,315.615540 
	C331.136414,321.871796 337.419189,327.051575 343.789825,327.048676 
	C346.438995,327.047485 349.095703,326.499054 351.733398,326.601379 
	C352.811493,326.643188 353.848267,327.749786 354.903839,328.371948 
	C353.972198,329.460754 353.006226,331.514801 352.114441,331.483063 
	C345.915375,331.262573 339.740326,330.412567 333.541077,330.142395 
	C325.092316,329.774109 316.625031,329.507935 308.173187,329.648621 
	C302.559418,329.742096 296.950165,330.547791 291.355591,331.181915 
	C288.256073,331.533234 285.206757,332.347748 282.105255,332.654663 
	C279.594452,332.903137 277.039490,332.705048 274.504120,332.705048 
	C274.434235,332.043427 274.364319,331.381805 274.294403,330.720184 
	C275.898987,330.116852 277.456787,329.248199 279.116150,328.955719 
	C286.597015,327.637268 292.845520,324.377197 297.244843,318.011383 
	C297.796082,317.213715 298.813843,316.258911 298.683838,315.547058 
	C297.776672,310.580414 298.901642,305.810150 299.614136,300.969147 
	C299.907196,298.978241 299.656586,296.877014 299.408661,294.856018 
	C299.338409,294.283447 298.405273,293.816772 297.466766,293.189911 
	C297.065674,293.078308 296.914795,292.927887 296.914795,292.927887 
M309.226807,315.102142 
	C307.060211,316.287323 304.893616,317.472473 302.727020,318.657654 
	C302.952942,319.257294 303.178894,319.856934 303.404846,320.456573 
	C305.142761,320.647461 306.880676,320.838379 308.271179,321.671295 
	C307.548248,322.768921 306.825317,323.866547 305.857635,325.335785 
	C310.875458,326.497467 313.524841,324.020691 316.119568,321.471680 
	C318.928345,318.712311 321.501160,315.424957 326.448547,317.967194 
	C326.448547,315.411682 326.448547,313.406708 326.448547,311.567535 
	C324.571228,311.347595 323.059723,311.170502 322.106720,310.467957 
	C327.618011,307.064240 327.721252,299.031464 322.124054,294.827148 
	C325.867920,291.070679 327.176208,286.906097 325.630066,281.469452 
	C324.705994,278.220245 325.506744,274.443573 325.726105,270.916016 
	C325.968079,267.024597 326.968933,263.100800 326.640442,259.276947 
	C326.342896,255.813477 324.030914,254.979446 321.026794,257.458527 
	C316.919861,260.847748 312.604309,263.985992 308.533936,267.416565 
	C307.067261,268.652649 305.152832,270.336334 304.995178,271.965973 
	C304.491547,277.171661 304.520538,282.456787 304.759216,287.692291 
	C304.850342,289.691467 306.065887,291.639374 307.137115,294.642731 
	C303.507538,301.091827 303.566071,301.974243 308.565979,303.568420 
	C305.507385,305.678772 302.087280,307.599640 303.671814,312.333252 
	C305.962463,312.127502 307.940002,311.949860 309.951996,312.609009 
	C309.953430,313.443604 309.954865,314.278168 309.226807,315.102142 
M309.140045,230.101059 
	C308.712189,231.329163 308.284302,232.557266 307.158478,233.921341 
	C306.240417,234.336136 305.322327,234.750931 304.404266,235.165726 
	C304.910309,235.783539 305.416382,236.401352 305.700867,237.704422 
	C305.848114,240.771805 300.449738,244.261093 306.428864,246.896484 
	C306.428864,246.896484 306.481018,246.887863 306.889008,247.497482 
	C305.197510,250.803604 302.638916,253.931961 305.002838,258.011414 
	C305.260315,258.455719 304.719330,259.300079 304.761047,259.945129 
	C304.845917,261.257812 305.075867,262.561066 305.246063,263.868225 
	C306.447601,263.489624 307.880096,263.407074 308.810699,262.681091 
	C312.814545,259.557678 316.713837,256.294891 320.557404,252.974289 
	C321.861084,251.848007 322.888611,250.402130 324.610229,248.462433 
	C321.931366,248.101227 320.230927,247.871948 318.532898,247.632782 
	C327.721710,242.070786 327.721710,242.070786 323.835876,234.839493 
	C324.853638,232.962158 326.401917,231.314133 326.615845,229.508041 
	C327.692474,220.418198 328.085083,211.284958 326.946503,202.150955 
	C326.823761,201.166351 327.169373,199.662567 326.643036,199.263916 
	C323.238586,196.685226 324.813324,193.555740 326.114960,189.348389 
	C316.834747,194.816025 307.887238,198.577377 302.339935,207.371536 
	C303.551483,207.826553 304.417450,208.151779 305.283905,208.477203 
	C304.413208,210.010651 303.612305,211.421204 302.582794,213.066528 
	C302.846130,213.178467 303.109467,213.290405 304.105469,213.338074 
	C306.413696,212.556046 308.721924,211.774002 312.321655,210.554413 
	C302.640259,221.177567 302.640259,221.177567 304.292206,231.123672 
	C306.908417,227.590286 308.888275,224.916290 309.917053,223.526871 
	C313.395752,222.494202 315.632355,221.935623 317.791138,221.160324 
	C320.030304,220.356171 322.194061,219.342087 324.390808,218.419815 
	C324.593475,218.803970 324.796173,219.188141 324.998871,219.572296 
	C320.978302,223.019135 317.008850,226.517944 311.321564,227.403778 
	C310.790558,227.486496 310.397369,228.453979 309.804199,229.393539 
	C309.804199,229.393539 309.703613,229.787216 309.140045,230.101059 
M328.589966,324.488800 
	C329.783447,321.322327 328.018372,318.933807 324.865417,320.041504 
	C322.354828,320.923584 320.267700,323.011017 317.992615,324.563354 
	C318.243164,325.053131 318.493744,325.542908 318.744293,326.032654 
	C321.784119,325.625214 324.823944,325.217773 328.589966,324.488800 
z"/>
<path fill="#FBFAF9" opacity="1.000000" stroke="none" 
	d="
M297.139587,293.155029 
	C297.042725,293.179108 296.871979,293.126495 296.807983,293.000854 
	C296.914795,292.927887 297.065674,293.078308 297.139587,293.155029 
z"/>
<path fill="#C0AFA0" opacity="1.000000" stroke="none" 
	d="
M230.793121,257.465759 
	C230.421356,258.678314 229.793488,259.589386 229.996597,260.241791 
	C231.939697,266.482880 229.221619,271.445099 225.342850,276.367706 
	C226.918427,277.186554 228.162918,277.833313 230.043427,278.810638 
	C228.123886,282.057129 226.328232,285.094086 224.326630,288.479370 
	C229.649887,289.942108 228.580887,293.112610 227.445450,297.356140 
	C225.977676,302.841797 226.149353,308.748199 225.361526,314.438324 
	C224.399002,321.390228 220.153976,325.661865 213.743927,328.174072 
	C210.224838,329.553284 207.503403,329.169312 204.771179,326.342072 
	C198.750671,320.112213 197.850800,312.198059 197.046616,304.245850 
	C196.636673,300.192322 196.414246,296.091675 196.500519,292.020691 
	C197.001572,268.376831 197.180405,244.710800 198.503220,221.110275 
	C198.838943,215.120605 197.720840,207.914169 203.206085,202.830627 
	C203.654587,202.414963 203.310181,201.054733 203.207230,200.147797 
	C202.635757,195.113007 206.783279,188.382751 211.274902,187.114197 
	C215.988968,185.782806 223.322891,188.758530 224.677643,193.687302 
	C227.549957,204.137222 230.606400,214.719574 231.651642,225.436417 
	C232.667282,235.849594 231.263779,246.498734 230.793121,257.465759 
z"/>
<path fill="#C3B3A5" opacity="1.000000" stroke="none" 
	d="
M256.092224,272.105927 
	C258.760803,272.112671 260.137054,273.170288 259.552277,276.083466 
	C259.226257,277.707458 259.149750,279.381470 258.555908,281.505981 
	C255.422577,283.077606 252.694168,284.176208 249.965775,285.274780 
	C250.375977,286.076141 250.786163,286.877472 251.196365,287.678833 
	C253.543137,286.407654 255.889893,285.136505 258.236664,283.865326 
	C256.965820,290.800476 254.081757,296.722137 247.873718,300.623260 
	C247.064453,301.131775 245.823090,302.054718 245.885559,302.674469 
	C246.395264,307.731720 242.427536,310.528503 240.290131,314.220978 
	C239.638626,315.346497 238.782761,316.558319 237.704208,317.194000 
	C234.321838,319.187408 230.788788,320.925171 226.348724,322.527527 
	C228.244583,319.423767 230.140457,316.320038 232.295868,312.791382 
	C231.667892,309.163513 229.820755,304.908539 232.795746,300.307678 
	C233.820724,298.722504 233.593475,295.707428 232.875183,293.732178 
	C230.771439,287.947052 233.607910,284.311798 237.346848,281.532623 
	C235.851685,280.282257 233.322845,278.784241 233.515320,278.228119 
	C234.751266,274.657196 236.583694,271.292664 238.220154,267.860352 
	C238.919052,267.740356 239.617966,267.620361 240.316864,267.500366 
	C238.579575,266.156799 236.842300,264.813263 234.568893,263.055115 
	C235.014297,262.389435 236.067551,260.815338 237.154099,259.191467 
	C233.910751,253.636795 234.037125,252.812271 238.950699,248.583557 
	C242.317322,245.686188 245.700775,242.808380 249.345078,239.692368 
	C247.629211,239.596954 246.402359,239.528732 245.060898,239.228577 
	C244.946289,238.996628 244.970261,239.037430 245.203125,238.916748 
	C245.641357,238.514816 245.846756,238.233566 246.030869,237.954437 
	C246.009598,237.956558 246.009720,237.998306 246.009720,237.998306 
	C249.306137,235.665466 252.602554,233.332626 256.044464,230.896805 
	C256.817780,235.549698 257.930145,239.660049 258.000793,243.788208 
	C258.034698,245.768646 256.098480,247.782791 254.754684,250.355713 
	C256.283478,249.765381 257.368774,249.346313 258.324677,248.977203 
	C261.465881,250.783447 259.610657,267.099182 255.862686,271.678070 
	C255.726868,272.062042 255.781540,272.432098 255.781540,272.432098 
	C255.781540,272.432098 256.092224,272.105927 256.092224,272.105927 
M245.198776,274.096497 
	C243.336929,275.354797 241.475067,276.613098 239.613220,277.871399 
	C239.943176,278.306763 240.273148,278.742096 240.603119,279.177429 
	C242.500275,277.568359 244.397446,275.959320 246.924911,274.136841 
	C248.162796,273.486938 249.400696,272.837006 250.638580,272.187103 
	C250.345810,271.741211 250.053024,271.295319 249.760239,270.849426 
	C248.439072,271.822815 247.117905,272.796204 245.198776,274.096497 
M242.906601,306.100311 
	C242.431992,305.462219 241.957382,304.824097 241.482758,304.186005 
	C241.231644,305.128784 240.980530,306.071594 240.729416,307.014374 
	C241.425491,306.927612 242.121567,306.840820 242.906601,306.100311 
M235.444702,316.675781 
	C235.444702,316.675781 235.581650,316.404785 235.581650,316.404785 
	C235.581650,316.404785 235.266602,316.461029 235.444702,316.675781 
M234.605057,292.545074 
	C234.605057,292.545074 234.424088,292.438202 234.424088,292.438202 
	C234.424088,292.438202 234.448532,292.657410 234.605057,292.545074 
z"/>
<path fill="#C3B3A5" opacity="1.000000" stroke="none" 
	d="
M175.921906,262.928497 
	C176.733536,261.965240 177.687393,261.085846 178.318207,260.016022 
	C178.997650,258.863708 179.399994,257.542236 179.861740,256.272217 
	C179.954498,256.017059 179.613419,255.494446 179.738220,255.376556 
	C183.803635,251.535828 186.967041,246.521881 192.547531,244.632416 
	C192.973129,245.018631 193.398727,245.404846 193.824326,245.791077 
	C192.478683,247.524384 191.133041,249.257690 189.555878,251.289215 
	C194.629303,252.188217 193.936523,256.160736 193.915756,259.961792 
	C193.858337,270.470886 193.866455,280.981293 193.974625,291.489899 
	C194.023621,296.251617 192.017090,299.347412 187.489609,300.905182 
	C185.147400,301.710999 182.935562,302.923462 180.564850,303.604004 
	C179.708206,303.849915 178.559845,303.079681 177.544617,302.773163 
	C177.838394,301.807129 177.925491,300.698181 178.472519,299.907318 
	C179.380615,298.594360 180.584305,297.485840 181.663498,296.291199 
	C181.304031,295.966339 180.944565,295.641479 180.585098,295.316620 
	C178.985809,296.441101 177.386505,297.565582 175.389908,298.969421 
	C174.364334,297.338593 173.521973,295.999115 173.006012,295.178650 
	C178.570572,292.059265 183.923126,289.058716 189.275681,286.058167 
	C188.998047,285.483154 188.720428,284.908173 188.442795,284.333160 
	C185.557068,285.271515 182.671326,286.209869 179.785599,287.148224 
	C179.597458,286.828827 179.409317,286.509430 179.221191,286.190033 
	C181.069733,284.204620 182.918289,282.219177 184.766846,280.233765 
	C184.502960,279.836304 184.239059,279.438812 183.975159,279.041351 
	C182.678787,279.699402 181.213287,280.152527 180.119232,281.055695 
	C177.352707,283.339386 169.463593,281.166412 168.676010,277.602448 
	C168.460953,276.629211 169.299042,275.042664 170.144455,274.285126 
	C172.970596,271.752716 176.019058,269.468414 179.360840,266.785156 
	C178.528091,265.754120 177.557007,264.551819 176.282593,263.166656 
	C175.979233,262.983795 175.921921,262.928497 175.921906,262.928497 
z"/>
<path fill="#C2B2A4" opacity="1.000000" stroke="none" 
	d="
M191.004807,237.992493 
	C194.493317,238.762802 192.907822,240.849609 191.539032,241.738327 
	C186.579163,244.958664 182.349396,249.381409 176.297226,250.867126 
	C171.286682,252.097107 168.360504,257.317780 170.159134,261.289185 
	C165.866272,261.606567 165.490616,256.262787 169.563324,252.103302 
	C170.781982,250.858704 172.167892,249.777908 174.383972,247.821564 
	C172.301071,248.184753 171.372452,248.254196 170.501160,248.515106 
	C167.257721,249.486404 167.010849,247.994461 167.763092,245.400681 
	C168.556870,242.663696 169.754684,239.881653 169.760986,237.116974 
	C169.770157,233.080139 171.542465,230.586456 175.106537,228.314941 
	C175.196594,227.839966 174.942963,227.758545 174.689316,227.677109 
	C174.054886,227.628998 173.420456,227.580887 172.327377,227.497986 
	C178.670807,219.457016 186.602905,214.342514 195.197464,209.599838 
	C194.779388,216.246490 194.665649,221.989594 193.966675,227.660553 
	C193.560959,230.952393 192.215042,234.128342 190.754517,237.721603 
	C186.607712,239.220428 182.984207,240.312332 179.408096,241.542099 
	C178.974426,241.691238 178.413223,242.871475 178.569489,243.079620 
	C179.107315,243.796036 180.079529,244.892685 180.629593,244.762253 
	C182.333649,244.358170 184.077209,243.683578 185.512848,242.690842 
	C187.483948,241.327850 189.186920,239.577087 191.004807,237.992493 
M191.407211,216.707047 
	C191.633835,217.015854 191.860443,217.324661 192.087067,217.633469 
	C192.293671,217.437439 192.500275,217.241425 192.706894,217.045410 
	C192.407944,216.811996 192.108978,216.578598 191.407211,216.707047 
z"/>
<path fill="#C1B1A3" opacity="1.000000" stroke="none" 
	d="
M200.607742,328.429962 
	C192.419067,323.041321 184.408829,317.487061 180.866516,307.075714 
	C184.834229,304.794861 188.725571,302.557922 192.616898,300.321014 
	C192.966599,300.646515 193.316299,300.972015 193.666000,301.297516 
	C190.546219,305.062805 199.679428,310.668152 190.734970,313.324432 
	C198.673859,315.104126 197.151123,323.066162 200.964035,327.614471 
	C200.906937,328.111725 200.607742,328.429962 200.607742,328.429962 
z"/>
<path fill="#CABCAF" opacity="1.000000" stroke="none" 
	d="
M241.151703,206.462540 
	C238.983047,206.790543 237.152588,207.262512 234.151642,208.036301 
	C233.871384,207.368240 232.099274,205.104019 232.649704,204.029144 
	C233.652054,202.071747 235.843521,200.365265 237.931030,199.497345 
	C238.768906,199.148987 240.641968,201.290436 242.043869,202.298630 
	C240.475906,203.556702 246.009048,205.727921 241.151703,206.462540 
z"/>
<path fill="#C3B3A5" opacity="1.000000" stroke="none" 
	d="
M243.001892,215.996490 
	C240.250290,215.996490 237.498703,215.996490 234.747101,215.996490 
	C234.525528,215.537766 234.303940,215.079025 234.082367,214.620300 
	C236.546173,212.575912 239.009979,210.531525 241.888458,208.143036 
	C242.615341,210.286743 243.032196,211.516144 243.673889,213.173126 
	C243.599762,214.399307 243.300827,215.197906 243.001892,215.996490 
z"/>
<path fill="#CABCAF" opacity="1.000000" stroke="none" 
	d="
M185.033676,205.010941 
	C189.643234,200.756561 194.252792,196.502182 198.862350,192.247818 
	C199.464783,192.970444 200.067200,193.693054 200.669617,194.415680 
	C195.680191,197.963959 190.690750,201.512238 185.351318,205.024872 
	C185.001312,204.989227 185.033676,205.010941 185.033676,205.010941 
z"/>
<path fill="#CABCAF" opacity="1.000000" stroke="none" 
	d="
M186.445343,209.503265 
	C189.669785,206.471664 192.894211,203.440048 196.118652,200.408447 
	C196.573456,200.911163 197.028275,201.413895 197.483078,201.916626 
	C195.591492,205.945206 192.232895,208.459946 187.404541,209.936951 
	C186.733810,209.749496 186.589584,209.626389 186.445343,209.503265 
z"/>
<path fill="#CABCAF" opacity="1.000000" stroke="none" 
	d="
M244.510086,232.483353 
	C247.486969,229.602524 250.463852,226.721680 253.440735,223.840851 
	C253.933563,224.360931 254.426407,224.881012 254.919235,225.401093 
	C252.676605,228.710052 249.598145,231.206451 245.412125,233.006409 
	C244.763641,232.747498 244.636856,232.615417 244.510086,232.483353 
z"/>
<path fill="#C3B3A5" opacity="1.000000" stroke="none" 
	d="
M242.199844,230.187683 
	C240.725159,232.174316 239.250473,234.160950 237.775787,236.147568 
	C237.320099,235.994766 236.864395,235.841980 236.408707,235.689178 
	C236.223343,233.911835 236.037994,232.134506 235.852783,230.358688 
	C237.830994,230.139648 239.413559,229.964401 241.446381,229.836960 
	C241.896637,229.884750 242.199844,230.187683 242.199844,230.187683 
z"/>
<path fill="#EFEBE8" opacity="1.000000" stroke="none" 
	d="
M258.404358,283.651093 
	C255.889893,285.136505 253.543137,286.407654 251.196365,287.678833 
	C250.786163,286.877472 250.375977,286.076141 249.965775,285.274780 
	C252.694168,284.176208 255.422577,283.077606 258.532532,281.912628 
	C258.800079,282.376465 258.686066,282.906647 258.404358,283.651093 
z"/>
<path fill="#CABCAF" opacity="1.000000" stroke="none" 
	d="
M230.581757,195.312347 
	C229.145752,194.079605 227.965805,192.599625 226.785873,191.119629 
	C231.608536,190.034164 233.153107,191.223587 230.581757,195.312347 
z"/>
<path fill="#C3B3A5" opacity="1.000000" stroke="none" 
	d="
M175.260468,264.241333 
	C173.068527,266.423096 170.876587,268.604828 168.684631,270.786591 
	C168.138504,270.150391 167.592377,269.514160 167.046249,268.877960 
	C169.336563,267.141235 171.626892,265.404510 174.423737,263.790466 
	C174.930267,263.913177 175.260468,264.241333 175.260468,264.241333 
z"/>
<path fill="#CABCAF" opacity="1.000000" stroke="none" 
	d="
M242.220947,240.226990 
	C240.575424,242.378647 238.929916,244.530304 237.284393,246.681961 
	C235.789948,242.709991 237.967865,241.044327 241.377274,239.867401 
	C241.883987,239.919785 242.220932,240.226974 242.220947,240.226990 
z"/>
<path fill="#CABCAF" opacity="1.000000" stroke="none" 
	d="
M242.894577,216.273773 
	C243.300827,215.197906 243.599762,214.399307 243.953690,213.284576 
	C245.125916,213.866119 246.243149,214.763840 247.918198,216.109756 
	C246.129456,217.153427 244.513626,218.096207 242.407471,218.983307 
	C241.917145,218.927643 241.573715,218.593719 241.573715,218.593719 
	C241.978226,217.912827 242.382736,217.231934 242.894577,216.273773 
z"/>
<path fill="#CABCAF" opacity="1.000000" stroke="none" 
	d="
M241.267426,220.252136 
	C240.155273,221.238571 239.043137,222.225021 237.413025,223.073181 
	C236.895065,222.934891 236.507172,222.621323 236.507172,222.621323 
	C237.649200,221.654739 238.791229,220.688156 240.423477,219.808197 
	C241.031601,220.013931 241.149521,220.133041 241.267426,220.252136 
z"/>
<path fill="#CABCAF" opacity="1.000000" stroke="none" 
	d="
M244.966156,238.985077 
	C244.249146,239.304947 243.512283,239.636353 242.498169,240.097366 
	C242.220932,240.226974 241.883987,239.919785 241.711105,239.765381 
	C242.877228,238.901337 244.216232,238.191696 245.782471,237.740189 
	C246.009720,237.998306 246.009598,237.956558 245.814026,238.098694 
	C245.402390,238.506348 245.186325,238.771881 244.970261,239.037430 
	C244.970261,239.037430 244.946289,238.996628 244.966156,238.985077 
z"/>
<path fill="#C3B3A5" opacity="1.000000" stroke="none" 
	d="
M242.777039,228.789520 
	C243.825500,227.739944 244.873962,226.690369 246.413727,225.765106 
	C246.905014,225.889420 247.228653,226.209747 247.228668,226.209747 
	C246.154068,227.214752 245.079468,228.219757 243.546814,229.162476 
	C243.088745,229.100204 242.777039,228.789505 242.777039,228.789520 
z"/>
<path fill="#CABCAF" opacity="1.000000" stroke="none" 
	d="
M187.080505,210.072418 
	C186.676331,210.650513 186.069733,211.028793 185.463120,211.407074 
	C185.638611,210.869736 185.814102,210.332413 186.217468,209.649170 
	C186.589584,209.626389 186.733810,209.749496 187.080505,210.072418 
z"/>
<path fill="#CABCAF" opacity="1.000000" stroke="none" 
	d="
M183.087784,213.077896 
	C182.670486,213.208725 182.253204,213.339554 181.835907,213.470398 
	C182.064850,213.313995 182.293793,213.157593 182.773468,213.009491 
	C183.024200,213.017792 183.087784,213.077896 183.087784,213.077896 
z"/>
<path fill="#CABCAF" opacity="1.000000" stroke="none" 
	d="
M245.071899,233.085724 
	C244.701157,233.360977 244.148956,233.430099 243.596741,233.499222 
	C243.770340,233.243866 243.943939,232.988525 244.313812,232.608261 
	C244.636856,232.615417 244.763641,232.747498 245.071899,233.085724 
z"/>
<path fill="#C1B1A3" opacity="1.000000" stroke="none" 
	d="
M201.060364,327.956299 
	C201.122772,328.088257 201.031769,328.375610 200.774246,328.546478 
	C200.607742,328.429962 200.906937,328.111725 201.060364,327.956299 
z"/>
<path fill="#C3B3A5" opacity="1.000000" stroke="none" 
	d="
M244.533890,208.456665 
	C244.607971,208.560120 244.315613,208.587585 244.315613,208.587585 
	C244.315613,208.587585 244.459808,208.353226 244.533890,208.456665 
z"/>
<path fill="#CABCAF" opacity="1.000000" stroke="none" 
	d="
M184.989136,204.973785 
	C184.976959,204.958359 184.928909,205.079361 184.981293,205.045151 
	C185.033676,205.010941 185.001312,204.989227 184.989136,204.973785 
z"/>
<path fill="#CABCAF" opacity="1.000000" stroke="none" 
	d="
M182.993729,212.986420 
	C183.100723,212.962646 183.238174,212.970245 183.231720,213.027878 
	C183.087784,213.077896 183.024200,213.017792 182.993729,212.986420 
z"/>
<path fill="#CABCAF" opacity="1.000000" stroke="none" 
	d="
M240.743515,219.709778 
	C240.757828,219.279373 240.970505,219.061584 241.392548,218.732544 
	C241.573715,218.593719 241.917145,218.927643 242.087372,219.098053 
	C242.100250,219.544189 241.898972,219.782913 241.460602,220.118378 
	C241.149521,220.133041 241.031601,220.013931 240.743515,219.709778 
z"/>
<path fill="#C3B3A5" opacity="1.000000" stroke="none" 
	d="
M174.768539,263.745758 
	C174.882965,263.394714 175.159103,263.211121 175.678589,262.977997 
	C175.921921,262.928497 175.979233,262.983795 176.007416,263.012817 
	C175.974487,263.369049 175.835953,263.659363 175.440231,264.077026 
	C175.260468,264.241333 174.930267,263.913177 174.768539,263.745758 
z"/>
<path fill="#CABCAF" opacity="1.000000" stroke="none" 
	d="
M237.077332,223.105133 
	C236.922485,223.162781 236.585403,223.050186 236.377747,222.779465 
	C236.507172,222.621323 236.895065,222.934891 237.077332,223.105133 
z"/>
<path fill="#C3B3A5" opacity="1.000000" stroke="none" 
	d="
M247.783310,224.783783 
	C247.980621,224.827820 248.177917,224.871872 248.149216,224.921844 
	C247.923203,224.927780 247.783310,224.783783 247.783310,224.783783 
z"/>
<path fill="#C3B3A5" opacity="1.000000" stroke="none" 
	d="
M247.993195,224.999725 
	C247.989365,225.393951 247.838028,225.674393 247.418915,226.061371 
	C247.228653,226.209747 246.905014,225.889420 246.745544,225.721451 
	C246.801193,225.309616 247.052567,225.111847 247.561752,224.871979 
	C247.783310,224.783783 247.923203,224.927780 247.993195,224.999725 
z"/>
<path fill="#C3B3A5" opacity="1.000000" stroke="none" 
	d="
M241.748138,229.730225 
	C241.808701,229.330185 242.056900,229.134277 242.560638,228.888733 
	C242.777039,228.789505 243.088745,229.100204 243.244019,229.261322 
	C243.185913,229.666992 242.932709,229.859100 242.419785,230.093231 
	C242.199844,230.187683 241.896637,229.884750 241.748138,229.730225 
z"/>
<path fill="#C2B2A4" opacity="1.000000" stroke="none" 
	d="
M136.011917,250.971588 
	C134.199539,251.771561 132.387177,252.571533 130.437759,253.669342 
	C130.300705,253.967148 130.342133,253.967361 130.342133,253.967361 
	C126.926575,253.628632 124.875244,255.007248 124.616432,257.780884 
	C124.188690,262.364746 121.338623,264.204010 117.064644,264.893585 
	C111.637154,265.769318 106.270523,267.022247 100.442902,268.063568 
	C100.008163,268.014587 99.944885,267.942139 99.944885,267.942139 
	C104.346619,264.986694 109.012085,262.347748 113.063538,258.971924 
	C116.101891,256.440186 119.718826,253.316269 120.628036,249.819046 
	C121.973656,244.643127 126.733345,240.059784 124.256760,233.982330 
	C124.091354,233.576462 124.626144,232.709610 125.052826,232.266785 
	C127.652428,229.568787 128.644730,226.783890 127.170799,222.940521 
	C126.862320,222.136078 129.949219,220.029541 131.399658,218.594086 
	C129.892471,217.930542 128.050873,217.119781 126.209259,216.309021 
	C127.819603,215.147812 129.429947,213.986603 131.383896,212.577621 
	C129.609863,211.892365 128.010117,211.274429 126.150276,210.556030 
	C126.372185,204.804825 122.039566,198.697845 127.758461,193.008667 
	C133.571136,194.722198 135.486755,199.856720 137.702164,204.712799 
	C139.407135,208.450027 141.814743,212.059631 142.583405,215.985703 
	C143.725037,221.816818 144.042297,227.875763 144.070389,233.840744 
	C144.101501,240.450897 141.031509,245.908157 136.084702,250.673920 
	C136.015854,251.014206 136.011917,250.971588 136.011917,250.971588 
z"/>
<path fill="#C3B3A5" opacity="1.000000" stroke="none" 
	d="
M75.957535,244.802277 
	C74.827438,244.178940 74.061745,243.570541 73.320396,242.933807 
	C72.535698,242.259872 71.774139,241.558990 71.002487,240.869858 
	C71.837387,239.950485 72.506409,238.564301 73.537766,238.197815 
	C76.853127,237.019730 77.988213,235.412262 74.770882,232.076324 
	C77.208473,231.201920 79.114822,230.518097 80.140793,230.150070 
	C81.950661,232.492142 83.580154,234.039154 84.436417,235.935333 
	C84.894890,236.950607 84.481918,239.095154 83.660942,239.810608 
	C81.448006,241.739075 78.804962,243.173981 75.957535,244.802277 
M78.440933,233.551361 
	C78.440933,233.551361 78.364738,233.432129 78.440933,233.551361 
z"/>
<path fill="#C3B3A5" opacity="1.000000" stroke="none" 
	d="
M129.295822,318.337280 
	C132.206070,315.157166 134.984344,312.229584 138.405807,308.624207 
	C137.234482,318.310333 130.845428,327.033203 125.219307,327.414642 
	C125.074951,323.793518 132.220200,323.382080 129.295822,318.337280 
z"/>
<path fill="#CABCAF" opacity="1.000000" stroke="none" 
	d="
M116.157860,318.601074 
	C115.316612,319.062103 114.756073,319.340057 114.052162,319.689087 
	C115.191780,314.562256 121.015320,309.142029 125.353050,310.202759 
	C122.107071,313.194122 119.272812,315.806061 116.157860,318.601074 
z"/>
<path fill="#CABCAF" opacity="1.000000" stroke="none" 
	d="
M117.232224,323.196869 
	C118.632973,321.892395 119.821373,320.880066 121.009773,319.867737 
	C121.346359,320.273132 121.682945,320.678528 122.019531,321.083954 
	C119.362885,324.080627 118.077370,328.667816 112.119934,327.868378 
	C113.753242,326.408569 115.386559,324.948792 117.232224,323.196869 
z"/>
<path fill="#CABCAF" opacity="1.000000" stroke="none" 
	d="
M110.223373,312.359833 
	C112.144463,311.153351 113.817093,310.200897 115.489723,309.248413 
	C115.757729,309.687653 116.025726,310.126923 116.293732,310.566193 
	C113.448441,313.277008 110.603157,315.987793 107.757866,318.698608 
	C107.451019,318.585419 107.144173,318.472198 106.837326,318.359009 
	C107.883194,316.443939 108.929062,314.528900 110.223373,312.359833 
z"/>
<path fill="#CABCAF" opacity="1.000000" stroke="none" 
	d="
M101.174347,312.884888 
	C101.279114,314.251312 101.374344,315.278687 101.520317,316.853424 
	C97.567207,312.545135 98.050812,310.487030 104.405136,306.847107 
	C102.908653,309.478943 102.036736,311.012360 101.174347,312.884888 
z"/>
<path fill="#CABCAF" opacity="1.000000" stroke="none" 
	d="
M130.016022,254.160599 
	C130.342133,253.967361 130.300705,253.967148 130.283051,253.954865 
	C131.985214,254.124680 133.705002,254.306793 136.668259,254.620590 
	C134.176819,256.561371 132.406998,257.940033 129.318924,260.345581 
	C129.507309,257.303253 129.598618,255.828552 130.016022,254.160599 
z"/>
<path fill="#CABCAF" opacity="1.000000" stroke="none" 
	d="
M135.995209,251.009216 
	C136.406921,251.368271 136.839264,251.732330 137.271606,252.096375 
	C137.091934,252.253296 136.912277,252.410202 136.732605,252.567108 
	C136.533890,252.210449 136.335144,251.853775 136.074158,251.234344 
	C136.011917,250.971588 136.015854,251.014206 135.995209,251.009216 
z"/>
<path fill="#C2B2A4" opacity="1.000000" stroke="none" 
	d="
M98.038460,269.020294 
	C98.482071,268.679779 98.925682,268.339233 99.657089,267.970428 
	C99.944885,267.942139 100.008163,268.014587 100.040123,268.053833 
	C99.574806,268.407166 99.077530,268.721252 98.289047,269.011292 
	C97.997833,268.987244 98.038460,269.020294 98.038460,269.020294 
z"/>
<path fill="#CABCAF" opacity="1.000000" stroke="none" 
	d="
M105.593170,320.990356 
	C105.591835,321.030060 105.594505,320.950623 105.593170,320.990356 
z"/>
<path fill="#CABCAF" opacity="1.000000" stroke="none" 
	d="
M123.907051,317.915833 
	C123.907051,317.915833 124.190262,317.558838 124.190262,317.558838 
	C124.190262,317.558838 124.249466,317.924286 124.111481,317.951660 
	C123.973495,317.979004 123.907051,317.915833 123.907051,317.915833 
z"/>
<path fill="#CABCAF" opacity="1.000000" stroke="none" 
	d="
M124.005692,318.011658 
	C123.847221,318.170105 123.656555,318.295898 123.465881,318.421722 
	C123.499405,318.289978 123.532921,318.158234 123.736748,317.971161 
	C123.907051,317.915833 123.973495,317.979004 124.005692,318.011658 
z"/>
<path fill="#C2B2A4" opacity="1.000000" stroke="none" 
	d="
M97.979584,268.968445 
	C97.961334,268.949677 97.858566,269.373993 97.858566,269.373993 
	C97.858566,269.373993 97.822487,269.099365 97.930473,269.059814 
	C98.038460,269.020294 97.997833,268.987244 97.979584,268.968445 
z"/>
<path fill="#C2B2A4" opacity="1.000000" stroke="none" 
	d="
M411.005737,304.061951 
	C411.838776,304.358521 412.671783,304.655090 413.504822,304.951660 
	C411.592743,308.855286 415.421600,314.334442 410.077332,317.337433 
	C409.308197,317.769653 408.810974,318.685852 408.580994,320.091064 
	C409.924286,319.644226 411.267548,319.197388 412.610840,318.750580 
	C412.923065,318.979340 413.235260,319.208099 413.547485,319.436890 
	C412.201508,321.502808 411.325439,324.428345 409.419678,325.470306 
	C404.122955,328.366028 401.308167,327.404877 395.363770,322.120941 
	C396.546539,319.693817 397.741730,317.241272 399.420593,313.796204 
	C396.947510,315.507996 395.355591,316.609863 393.763702,317.711700 
	C393.546509,317.481354 393.329285,317.251007 393.112091,317.020660 
	C394.071899,315.258972 395.031677,313.497314 396.130341,311.308411 
	C396.121246,310.861755 395.973328,310.842316 395.825378,310.822876 
	C393.614594,310.589996 390.442749,310.259369 393.276855,307.302856 
	C398.843597,301.495697 404.983704,296.236908 410.922668,290.790558 
	C411.361664,290.388000 412.089752,290.300659 413.050354,289.922211 
	C414.470337,294.211884 414.894562,298.037262 410.907776,301.854065 
	C407.903992,304.844910 405.391876,307.370789 402.688782,310.045959 
	C402.261902,310.429474 402.102264,310.707458 401.815918,311.157898 
	C401.366180,311.497681 401.165588,311.746033 400.961243,312.065857 
	C400.911346,312.099976 400.966339,311.984741 401.186218,311.873474 
	C401.687012,311.564697 401.871796,311.300049 402.216827,310.940674 
	C402.760193,310.729340 403.047119,310.545563 403.678467,310.323547 
	C406.350464,308.210846 408.678101,306.136383 411.005737,304.061951 
M405.978851,299.465637 
	C405.715149,300.384003 405.451477,301.302338 405.187805,302.220703 
	C405.504578,302.379791 405.821350,302.538879 406.138153,302.697968 
	C407.661835,300.921692 409.185547,299.145447 410.709229,297.369171 
	C410.306274,296.964417 409.903290,296.559692 409.500336,296.154938 
	C408.442596,297.067596 407.384827,297.980225 405.978851,299.465637 
M402.772858,304.849426 
	C401.706604,305.238281 400.640381,305.627167 399.574127,306.016052 
	C399.806366,306.395050 400.038605,306.774078 400.270844,307.153107 
	C401.094208,306.594788 401.917542,306.036438 402.772858,304.849426 
z"/>
<path fill="#C3B3A5" opacity="1.000000" stroke="none" 
	d="
M407.398010,205.686737 
	C406.087463,204.669067 405.143738,203.777939 404.200012,202.886841 
	C405.364380,201.910645 406.462433,200.215134 407.706207,200.100479 
	C410.771423,199.817947 414.585510,198.492798 415.916016,203.481079 
	C414.441833,207.766922 411.314209,207.437210 407.398010,205.686737 
z"/>
<path fill="#C3B3A5" opacity="1.000000" stroke="none" 
	d="
M409.612183,265.614868 
	C411.818634,261.785095 413.845642,258.275787 416.430084,253.801529 
	C416.090912,263.951050 410.729614,273.005096 404.375885,274.676025 
	C406.175873,271.564789 407.804321,268.750092 409.612183,265.614868 
z"/>
<path fill="#C3B3A5" opacity="1.000000" stroke="none" 
	d="
M372.089600,212.784210 
	C371.367279,213.423019 370.882263,213.839005 370.349060,214.296310 
	C368.912323,208.705414 372.750946,204.488281 379.309387,204.476730 
	C376.930878,207.230667 374.628876,209.896027 372.089600,212.784210 
z"/>
<path fill="#CABCAF" opacity="1.000000" stroke="none" 
	d="
M385.688721,202.359482 
	C388.845520,199.611206 391.816040,197.136703 394.786591,194.662216 
	C395.115509,195.057663 395.444458,195.453110 395.773376,195.848557 
	C393.052490,198.393784 390.367126,200.980042 387.551941,203.416290 
	C387.290466,203.642563 386.205261,202.916931 385.688721,202.359482 
z"/>
<path fill="#CABCAF" opacity="1.000000" stroke="none" 
	d="
M403.426910,195.373474 
	C405.180237,194.848785 406.663452,194.522079 408.146667,194.195389 
	C408.318695,195.004639 408.490723,195.813889 408.662750,196.623123 
	C406.408813,197.159988 404.154846,197.696869 401.900879,198.233734 
	C402.319519,197.346298 402.738159,196.458878 403.426910,195.373474 
z"/>
<path fill="#C3B3A5" opacity="1.000000" stroke="none" 
	d="
M397.606873,291.637543 
	C397.913208,289.852020 397.906860,287.924652 398.630859,286.328583 
	C399.152985,285.177551 400.647308,284.467499 401.708038,283.560760 
	C402.181671,284.007629 402.655304,284.454498 403.128937,284.901367 
	C401.678192,287.214386 400.227417,289.527435 398.344757,291.885864 
	C397.912842,291.931305 397.606873,291.637543 397.606873,291.637543 
z"/>
<path fill="#EFEBE8" opacity="1.000000" stroke="none" 
	d="
M411.003235,303.716309 
	C408.678101,306.136383 406.350464,308.210846 403.566040,310.206116 
	C403.109222,310.126953 402.879791,309.896637 402.879791,309.896637 
	C405.391876,307.370789 407.903992,304.844910 410.704651,302.153778 
	C410.995758,302.449219 410.998260,302.909973 411.003235,303.716309 
z"/>
<path fill="#BFAE9F" opacity="1.000000" stroke="none" 
	d="
M443.020203,211.008438 
	C443.126709,210.960709 443.338440,211.018738 443.444275,211.199966 
	C443.338348,211.323181 443.125427,211.114182 443.020203,211.008438 
z"/>
<path fill="#C3B3A5" opacity="1.000000" stroke="none" 
	d="
M398.063660,292.080383 
	C397.943329,292.136292 397.672150,292.043091 397.503937,291.793701 
	C397.606873,291.637543 397.912842,291.931305 398.063660,292.080383 
z"/>
<path fill="#C3B3A5" opacity="1.000000" stroke="none" 
	d="
M307.856445,233.785370 
	C308.284302,232.557266 308.712189,231.329163 309.693604,230.120895 
	C310.904266,231.447266 311.561310,232.753799 312.663086,234.944672 
	C313.492920,233.117859 314.078491,231.828796 314.664032,230.539749 
	C313.089417,230.030045 311.514771,229.520340 309.940186,229.010651 
	C310.397369,228.453979 310.790558,227.486496 311.321564,227.403778 
	C317.008850,226.517944 320.978302,223.019135 324.998871,219.572296 
	C324.796173,219.188141 324.593475,218.803970 324.390808,218.419815 
	C322.194061,219.342087 320.030304,220.356171 317.791138,221.160324 
	C315.632355,221.935623 313.395752,222.494202 309.917053,223.526871 
	C308.888275,224.916290 306.908417,227.590286 304.292206,231.123672 
	C302.640259,221.177567 302.640259,221.177567 312.321655,210.554413 
	C308.721924,211.774002 306.413696,212.556046 303.600342,213.226044 
	C303.095184,213.114014 302.811371,212.831757 302.811401,212.831757 
	C303.612305,211.421204 304.413208,210.010651 305.283905,208.477203 
	C304.417450,208.151779 303.551483,207.826553 302.339935,207.371536 
	C307.887238,198.577377 316.834747,194.816025 326.114960,189.348389 
	C324.813324,193.555740 323.238586,196.685226 326.643036,199.263916 
	C327.169373,199.662567 326.823761,201.166351 326.946503,202.150955 
	C328.085083,211.284958 327.692474,220.418198 326.615845,229.508041 
	C326.401917,231.314133 324.853638,232.962158 323.835876,234.839493 
	C327.721710,242.070786 327.721710,242.070786 318.531677,247.637726 
	C320.230927,247.871948 321.931366,248.101227 324.610229,248.462433 
	C322.888611,250.402130 321.861084,251.848007 320.557404,252.974289 
	C316.713837,256.294891 312.814545,259.557678 308.810699,262.681091 
	C307.880096,263.407074 306.447601,263.489624 305.246063,263.868225 
	C305.075867,262.561066 304.845917,261.257812 304.761047,259.945129 
	C304.719330,259.300079 305.260315,258.455719 305.002838,258.011414 
	C302.638916,253.931961 305.197510,250.803604 307.110168,247.202667 
	C310.094757,245.226105 312.858185,243.544373 315.621582,241.862640 
	C311.961304,242.604630 306.543823,240.420273 306.399445,246.887054 
	C300.449738,244.261093 305.848114,240.771805 306.135498,237.340530 
	C306.998932,235.912888 307.427673,234.849136 307.856445,233.785370 
M322.565094,199.057556 
	C321.521851,198.615707 320.478607,198.173843 319.435394,197.731995 
	C319.315948,198.066803 319.196503,198.401596 319.077057,198.736404 
	C320.114044,199.008286 321.151031,199.280151 322.565094,199.057556 
z"/>
<path fill="#C1B1A3" opacity="1.000000" stroke="none" 
	d="
M309.917572,311.772217 
	C307.940002,311.949860 305.962463,312.127502 303.671814,312.333252 
	C302.087280,307.599640 305.507385,305.678772 308.565979,303.568420 
	C303.566071,301.974243 303.507538,301.091827 307.137115,294.642731 
	C306.065887,291.639374 304.850342,289.691467 304.759216,287.692291 
	C304.520538,282.456787 304.491547,277.171661 304.995178,271.965973 
	C305.152832,270.336334 307.067261,268.652649 308.533936,267.416565 
	C312.604309,263.985992 316.919861,260.847748 321.026794,257.458527 
	C324.030914,254.979446 326.342896,255.813477 326.640442,259.276947 
	C326.968933,263.100800 325.968079,267.024597 325.726105,270.916016 
	C325.506744,274.443573 324.705994,278.220245 325.630066,281.469452 
	C327.176208,286.906097 325.867920,291.070679 322.124054,294.827148 
	C327.721252,299.031464 327.618011,307.064240 321.552704,310.731873 
	C320.446625,311.019379 319.894592,311.042969 319.216248,310.709290 
	C320.376343,308.555695 321.662720,306.759399 323.032257,304.963928 
	C323.115417,304.964752 323.187256,304.791260 323.187256,304.791260 
	C323.187256,304.791260 323.015747,305.037598 322.640411,305.125641 
	C320.394714,305.803711 318.498413,306.952545 316.659424,306.867157 
	C312.860748,306.690674 310.897827,308.396118 309.917572,311.772217 
z"/>
<path fill="#C3B3A5" opacity="1.000000" stroke="none" 
	d="
M319.342529,311.066528 
	C319.894592,311.042969 320.446625,311.019379 321.273438,310.994629 
	C323.059723,311.170502 324.571228,311.347595 326.448547,311.567535 
	C326.448547,313.406708 326.448547,315.411682 326.448547,317.967194 
	C321.501160,315.424957 318.928345,318.712311 316.119568,321.471680 
	C313.524841,324.020691 310.875458,326.497467 305.857635,325.335785 
	C306.825317,323.866547 307.548248,322.768921 308.420929,321.359253 
	C308.570679,321.047211 308.548584,321.091064 308.916443,321.029358 
	C310.823578,319.866241 312.362915,318.764832 313.275024,318.112183 
	C312.750946,315.401642 312.378021,313.472778 312.005066,311.543945 
	C313.961060,311.316833 315.914825,311.066101 317.874695,310.879486 
	C318.353668,310.833893 318.852722,310.998566 319.342529,311.066528 
z"/>
<path fill="#FBFAF9" opacity="1.000000" stroke="none" 
	d="
M319.216248,310.709259 
	C318.852722,310.998566 318.353668,310.833893 317.874695,310.879486 
	C315.914825,311.066101 313.961060,311.316833 312.005066,311.543945 
	C312.378021,313.472778 312.750946,315.401642 313.275024,318.112183 
	C312.362915,318.764832 310.823578,319.866241 309.051392,320.773682 
	C308.396698,319.708099 307.974854,318.836487 307.603088,318.068268 
	C308.302979,317.189240 309.129669,316.151001 309.956299,315.112762 
	C309.954865,314.278168 309.953430,313.443604 309.934784,312.190613 
	C310.897827,308.396118 312.860748,306.690674 316.659424,306.867157 
	C318.498413,306.952545 320.394714,305.803711 322.625122,305.105774 
	C322.985199,304.997894 322.949097,304.963104 322.949097,304.963104 
	C321.662720,306.759399 320.376343,308.555695 319.216248,310.709259 
z"/>
<path fill="#C3B3A5" opacity="1.000000" stroke="none" 
	d="
M328.226868,324.649567 
	C324.823944,325.217773 321.784119,325.625214 318.744293,326.032654 
	C318.493744,325.542908 318.243164,325.053131 317.992615,324.563354 
	C320.267700,323.011017 322.354828,320.923584 324.865417,320.041504 
	C328.018372,318.933807 329.783447,321.322327 328.226868,324.649567 
z"/>
<path fill="#EFEBE8" opacity="1.000000" stroke="none" 
	d="
M306.414154,246.891769 
	C306.543823,240.420273 311.961304,242.604630 315.621582,241.862640 
	C312.858185,243.544373 310.094757,245.226105 306.906189,246.897858 
	C306.481018,246.887863 306.428864,246.896484 306.414154,246.891769 
z"/>
<path fill="#CABCAF" opacity="1.000000" stroke="none" 
	d="
M309.591553,315.107452 
	C309.129669,316.151001 308.302979,317.189240 307.603088,318.068268 
	C307.974854,318.836487 308.396698,319.708099 308.683533,320.835388 
	C308.548584,321.091064 308.570679,321.047211 308.594635,321.038239 
	C306.880676,320.838379 305.142761,320.647461 303.404846,320.456573 
	C303.178894,319.856934 302.952942,319.257294 302.727020,318.657654 
	C304.893616,317.472473 307.060211,316.287323 309.591553,315.107452 
z"/>
<path fill="#CABCAF" opacity="1.000000" stroke="none" 
	d="
M309.872192,229.202087 
	C311.514771,229.520340 313.089417,230.030045 314.664032,230.539749 
	C314.078491,231.828796 313.492920,233.117859 312.663086,234.944672 
	C311.561310,232.753799 310.904266,231.447266 309.975403,229.963974 
	C309.703613,229.787216 309.804199,229.393539 309.872192,229.202087 
z"/>
<path fill="#CABCAF" opacity="1.000000" stroke="none" 
	d="
M307.507446,233.853363 
	C307.427673,234.849136 306.998932,235.912888 306.246277,236.997894 
	C305.416382,236.401352 304.910309,235.783539 304.404266,235.165741 
	C305.322327,234.750931 306.240417,234.336136 307.507446,233.853363 
z"/>
<path fill="#C3B3A5" opacity="1.000000" stroke="none" 
	d="
M303.234009,213.258179 
	C303.109467,213.290405 302.846130,213.178467 302.697083,212.949142 
	C302.811371,212.831757 303.095184,213.114014 303.234009,213.258179 
z"/>
<path fill="#EFEBE8" opacity="1.000000" stroke="none" 
	d="
M246.294617,274.350250 
	C244.397446,275.959320 242.500275,277.568359 240.603119,279.177429 
	C240.273148,278.742096 239.943176,278.306763 239.613220,277.871399 
	C241.475067,276.613098 243.336929,275.354797 245.623093,274.077454 
	C246.047409,274.058441 246.294617,274.350250 246.294617,274.350250 
z"/>
<path fill="#FBFAF9" opacity="1.000000" stroke="none" 
	d="
M242.862122,306.427185 
	C242.121567,306.840820 241.425491,306.927612 240.729401,307.014374 
	C240.980530,306.071594 241.231644,305.128784 241.482758,304.186005 
	C241.957382,304.824097 242.431992,305.462219 242.862122,306.427185 
z"/>
<path fill="#EFEBE8" opacity="1.000000" stroke="none" 
	d="
M245.922058,273.914001 
	C247.117905,272.796204 248.439072,271.822815 249.760239,270.849426 
	C250.053024,271.295319 250.345810,271.741211 250.638580,272.187103 
	C249.400696,272.837006 248.162796,273.486938 246.609772,274.243530 
	C246.294617,274.350250 246.047409,274.058441 245.922058,273.914001 
z"/>
<path fill="#FBFAF9" opacity="1.000000" stroke="none" 
	d="
M235.355652,316.568420 
	C235.266602,316.461029 235.581650,316.404785 235.581650,316.404785 
	C235.581650,316.404785 235.444702,316.675781 235.355652,316.568420 
z"/>
<path fill="#FBFAF9" opacity="1.000000" stroke="none" 
	d="
M256.054169,272.065521 
	C256.092224,272.105927 255.781540,272.432098 255.781540,272.432098 
	C255.781540,272.432098 255.726868,272.062042 255.831757,272.004822 
	C255.936630,271.947601 256.016113,272.025116 256.054169,272.065521 
z"/>
<path fill="#FBFAF9" opacity="1.000000" stroke="none" 
	d="
M245.203125,238.916748 
	C245.186325,238.771881 245.402390,238.506348 245.835297,238.096558 
	C245.846756,238.233566 245.641357,238.514816 245.203125,238.916748 
z"/>
<path fill="#FBFAF9" opacity="1.000000" stroke="none" 
	d="
M234.526794,292.601257 
	C234.448532,292.657410 234.424088,292.438202 234.424088,292.438202 
	C234.424088,292.438202 234.605057,292.545074 234.526794,292.601257 
z"/>
<path fill="#EFEBE8" opacity="1.000000" stroke="none" 
	d="
M190.999359,238.016052 
	C189.186920,239.577087 187.483948,241.327850 185.512848,242.690842 
	C184.077209,243.683578 182.333649,244.358170 180.629593,244.762253 
	C180.079529,244.892685 179.107315,243.796036 178.569489,243.079620 
	C178.413223,242.871475 178.974426,241.691238 179.408096,241.542099 
	C182.984207,240.312332 186.607712,239.220428 190.630219,238.066803 
	C191.043579,238.046860 190.993896,238.039627 190.999359,238.016052 
z"/>
<path fill="#FBFAF9" opacity="1.000000" stroke="none" 
	d="
M191.608612,216.526123 
	C192.108978,216.578598 192.407944,216.811996 192.706894,217.045410 
	C192.500275,217.241425 192.293671,217.437439 192.087067,217.633469 
	C191.860443,217.324661 191.633835,217.015854 191.608612,216.526123 
z"/>
<path fill="#FBFAF9" opacity="1.000000" stroke="none" 
	d="
M174.807297,227.794586 
	C174.942963,227.758545 175.196594,227.839966 175.306793,228.033157 
	C175.163330,228.144913 174.925278,227.912079 174.807297,227.794586 
z"/>
<path fill="#FCFBFA" opacity="1.000000" stroke="none" 
	d="
M78.402832,233.491745 
	C78.364738,233.432129 78.440933,233.551361 78.402832,233.491745 
z"/>
<path fill="#EFEBE8" opacity="1.000000" stroke="none" 
	d="
M406.152954,299.179260 
	C407.384827,297.980225 408.442596,297.067596 409.500336,296.154938 
	C409.903290,296.559692 410.306274,296.964417 410.709229,297.369171 
	C409.185547,299.145447 407.661835,300.921692 406.138153,302.697968 
	C405.821350,302.538879 405.504578,302.379791 405.187805,302.220703 
	C405.451477,301.302338 405.715149,300.384003 406.152954,299.179260 
z"/>
<path fill="#EFEBE8" opacity="1.000000" stroke="none" 
	d="
M402.756897,305.163757 
	C401.917542,306.036438 401.094208,306.594788 400.270844,307.153107 
	C400.038605,306.774078 399.806366,306.395050 399.574127,306.016052 
	C400.640381,305.627167 401.706604,305.238281 402.756897,305.163757 
z"/>
<path fill="#EFEBE8" opacity="1.000000" stroke="none" 
	d="
M400.966339,311.984741 
	C400.966339,311.984741 400.911346,312.099976 400.952576,312.051758 
	C400.993805,312.003540 400.966339,311.984741 400.966339,311.984741 
z"/>
<path fill="#EFEBE8" opacity="1.000000" stroke="none" 
	d="
M401.960419,310.968231 
	C401.871796,311.300049 401.687012,311.564697 401.186218,311.873474 
	C400.966339,311.984741 400.993805,312.003540 401.002502,312.017639 
	C401.165588,311.746033 401.366180,311.497681 401.802399,311.141602 
	C401.991821,310.996552 401.960419,310.968231 401.960419,310.968231 
z"/>
<path fill="#EFEBE8" opacity="1.000000" stroke="none" 
	d="
M403.221649,310.244385 
	C403.047119,310.545563 402.760193,310.729340 402.216827,310.940674 
	C401.960419,310.968231 401.991821,310.996552 402.005341,311.012878 
	C402.102264,310.707458 402.261902,310.429474 402.688782,310.045959 
	C402.879791,309.896637 403.109222,310.126953 403.221649,310.244385 
z"/>
<path fill="#FBFBFA" opacity="1.000000" stroke="none" 
	d="
M395.874939,310.872223 
	C395.973328,310.842316 396.121246,310.861755 396.146851,310.950287 
	C396.024536,311.019379 395.924500,310.921570 395.874939,310.872223 
z"/>
<path fill="#FBFAF9" opacity="1.000000" stroke="none" 
	d="
M322.376526,199.304794 
	C321.151031,199.280151 320.114044,199.008286 319.077057,198.736404 
	C319.196503,198.401596 319.315948,198.066803 319.435394,197.731995 
	C320.478607,198.173843 321.521851,198.615707 322.376526,199.304794 
z"/>
<path fill="#FBFAF9" opacity="1.000000" stroke="none" 
	d="
M323.000488,305.017761 
	C323.015747,305.037598 323.187256,304.791260 323.187256,304.791260 
	C323.187256,304.791260 323.115417,304.964752 323.032257,304.963928 
	C322.949097,304.963104 322.985199,304.997894 323.000488,305.017761 
z"/>
</svg>