<svg version="1.1" id="Layer_1" xmlns="http://www.w3.org/2000/svg" xmlns:xlink="http://www.w3.org/1999/xlink" x="0px" y="0px"
	 width="100%" viewBox="0 0 512 512" enable-background="new 0 0 512 512" xml:space="preserve">
<path fill="#A64141" opacity="1.000000" stroke="none" 
	d="
M289.000000,513.000000 
	C267.979095,513.000000 246.958206,513.000000 225.565430,512.588379 
	C219.137848,511.092957 213.028885,510.244019 207.035675,508.884766 
	C181.447739,503.081329 156.814117,494.776306 133.709183,482.010284 
	C103.931732,465.557495 78.561996,444.078461 57.126293,417.723328 
	C38.738010,395.114990 24.821873,370.036713 15.115789,342.655121 
	C9.182317,325.916351 4.755742,308.741241 2.900794,290.990173 
	C2.825375,290.268463 1.658406,289.660797 1.000000,289.000000 
	C1.000000,267.979095 1.000000,246.958206 1.411664,225.565430 
	C2.907054,219.137863 3.755994,213.028915 5.115258,207.035736 
	C10.918661,181.447769 19.223688,156.814178 31.989721,133.709229 
	C48.442509,103.931725 69.921555,78.561966 96.276711,57.126263 
	C118.885056,38.737995 143.963409,24.822042 171.344955,15.115661 
	C188.083694,9.182005 205.258865,4.756109 223.009811,2.900796 
	C223.731537,2.825360 224.339203,1.658406 225.000000,1.000000 
	C246.020889,1.000000 267.041779,1.000000 288.434570,1.411657 
	C294.853027,2.906361 300.949921,3.765674 306.937500,5.111287 
	C332.505981,10.857379 357.052277,19.279480 380.155914,31.945761 
	C410.110382,48.367920 435.489929,70.020195 457.003265,96.440071 
	C475.480621,119.131470 489.309692,144.379990 499.018768,171.905106 
	C504.868958,188.490265 509.207367,205.467972 511.099060,223.014633 
	C511.176849,223.736343 512.341614,224.340866 513.000000,225.000000 
	C513.000000,246.020889 513.000000,267.041779 512.588379,288.434570 
	C511.092957,294.862183 510.243958,300.971161 508.884735,306.964386 
	C503.081543,332.552277 494.776245,357.185608 482.010376,380.290466 
	C465.557648,410.068054 444.078613,435.437805 417.723480,456.873535 
	C395.115173,475.261902 370.036804,489.178040 342.655212,498.884216 
	C325.916412,504.817719 308.741272,509.244293 290.990204,511.099274 
	C290.268494,511.174713 289.660828,512.341614 289.000000,513.000000 
M184.980576,321.661530 
	C208.491516,326.865936 226.471664,317.935028 235.716431,295.686829 
	C244.167816,275.347992 243.757050,254.086899 240.329651,232.813324 
	C238.300461,220.218460 233.428055,208.708801 223.372452,200.326767 
	C201.258774,181.893509 167.931427,190.914246 157.345596,218.789597 
	C148.055099,243.253983 148.416489,268.398560 156.869217,293.099152 
	C161.458603,306.510376 169.877319,317.014984 184.980576,321.661530 
M45.959641,214.443649 
	C54.171436,207.537476 63.284180,203.777649 74.366295,204.641479 
	C91.409744,205.969986 101.407211,219.097000 97.522827,235.802322 
	C95.349144,245.150543 90.594246,253.282425 84.046135,259.938934 
	C68.414146,275.829742 52.462864,291.426422 36.147663,306.612366 
	C31.570139,310.873077 30.311398,314.936829 31.694340,320.641693 
	C61.497822,320.641693 91.184044,320.641693 120.703117,320.641693 
	C120.703117,315.860321 120.703117,311.449371 120.703117,307.288879 
	C99.257515,307.288879 78.180046,307.288879 57.102581,307.288879 
	C56.545200,306.801331 55.987816,306.313782 55.430431,305.826233 
	C57.055782,304.998535 58.997246,304.500031 60.256481,303.291016 
	C70.345970,293.603760 80.529526,283.997528 90.240692,273.938293 
	C99.049545,264.813751 106.957054,254.903229 111.452438,242.783585 
	C117.717361,225.893234 112.766991,207.841232 99.392708,198.491882 
	C79.557724,184.626160 45.234249,190.714615 31.247944,210.456116 
	C34.113258,213.435379 36.956676,216.391861 40.086174,219.645813 
	C41.982536,217.968155 43.701363,216.447571 45.959641,214.443649 
M329.226471,242.500885 
	C329.226471,226.223068 329.226471,209.945251 329.226471,192.679459 
	C323.807312,193.442154 319.016266,193.699249 314.450073,194.849213 
	C305.940582,196.992218 297.681671,200.314575 289.087646,201.874084 
	C283.142761,202.952850 284.407227,206.470200 284.215118,210.095581 
	C283.975159,214.623230 287.229584,213.598572 289.686829,213.623199 
	C297.286469,213.699432 304.887390,213.651047 312.557434,213.651047 
	C312.557434,245.218277 312.557434,276.104492 312.557434,307.572632 
	C300.299957,307.572632 288.373291,307.572632 276.370483,307.572632 
	C276.370483,312.261993 276.370483,316.365906 276.370483,320.736389 
	C305.163727,320.736389 333.717346,320.736389 362.485413,320.736389 
	C362.485413,316.299103 362.485413,312.107941 362.485413,307.178711 
	C351.258301,307.178711 340.388184,307.178711 329.226440,307.178711 
	C329.226440,285.458435 329.226440,264.479675 329.226471,242.500885 
M460.120361,207.650162 
	C461.136414,207.868713 462.152496,208.087265 464.005280,208.485809 
	C435.670990,241.007446 422.507751,278.403809 422.266510,320.754913 
	C428.037964,320.754913 433.460999,320.754913 438.994751,320.754913 
	C439.312988,316.189484 439.712128,311.878021 439.899200,307.557373 
	C441.509735,270.356720 453.513062,237.179596 478.527283,209.257828 
	C482.799500,204.489044 483.947968,199.741547 482.591614,193.613480 
	C452.225433,193.613480 421.824585,193.613480 391.143524,193.613480 
	C391.143524,198.263718 391.143524,202.668320 391.143524,207.648926 
	C413.966461,207.648926 436.581238,207.648926 460.120361,207.650162 
z"/>
<path fill="#ffffff" opacity="0" stroke="none" 
	d="
M513.000000,224.531342 
	C512.341614,224.340866 511.176849,223.736343 511.099060,223.014633 
	C509.207367,205.467972 504.868958,188.490265 499.018768,171.905106 
	C489.309692,144.379990 475.480621,119.131470 457.003265,96.440071 
	C435.489929,70.020195 410.110382,48.367920 380.155914,31.945761 
	C357.052277,19.279480 332.505981,10.857379 306.937500,5.111287 
	C300.949921,3.765674 294.853027,2.906361 288.903198,1.411657 
	C363.593719,1.000000 438.187408,1.000000 513.000000,1.000000 
	C513.000000,75.354088 513.000000,149.708389 513.000000,224.531342 
z"/>
<path fill="#ffffff" opacity="0" stroke="none" 
	d="
M224.531342,1.000000 
	C224.339203,1.658406 223.731537,2.825360 223.009811,2.900796 
	C205.258865,4.756109 188.083694,9.182005 171.344955,15.115661 
	C143.963409,24.822042 118.885056,38.737995 96.276711,57.126263 
	C69.921555,78.561966 48.442509,103.931725 31.989721,133.709229 
	C19.223688,156.814178 10.918661,181.447769 5.115258,207.035736 
	C3.755994,213.028915 2.907054,219.137863 1.411664,225.096771 
	C1.000000,150.406296 1.000000,75.812576 1.000000,1.000000 
	C75.354088,1.000000 149.708389,1.000000 224.531342,1.000000 
z"/>
<path fill="#ffffff" opacity="0" stroke="none" 
	d="
M1.000000,289.468658 
	C1.658406,289.660797 2.825375,290.268463 2.900794,290.990173 
	C4.755742,308.741241 9.182317,325.916351 15.115789,342.655121 
	C24.821873,370.036713 38.738010,395.114990 57.126293,417.723328 
	C78.561996,444.078461 103.931732,465.557495 133.709183,482.010284 
	C156.814117,494.776306 181.447739,503.081329 207.035675,508.884766 
	C213.028885,510.244019 219.137848,511.092957 225.096771,512.588379 
	C150.406296,513.000000 75.812599,513.000000 1.000000,513.000000 
	C1.000000,438.645905 1.000000,364.291626 1.000000,289.468658 
z"/>
<path fill="#ffffff" opacity="0" stroke="none" 
	d="
M289.468689,513.000000 
	C289.660828,512.341614 290.268494,511.174713 290.990204,511.099274 
	C308.741272,509.244293 325.916412,504.817719 342.655212,498.884216 
	C370.036804,489.178040 395.115173,475.261902 417.723480,456.873535 
	C444.078613,435.437805 465.557648,410.068054 482.010376,380.290466 
	C494.776245,357.185608 503.081543,332.552277 508.884735,306.964386 
	C510.243958,300.971161 511.092957,294.862183 512.588379,288.903229 
	C513.000000,363.593719 513.000000,438.187408 513.000000,513.000000 
	C438.645905,513.000000 364.291626,513.000000 289.468689,513.000000 
z"/>
<path fill="#FEFCFC" opacity="1.000000" stroke="none" 
	d="
M184.604553,321.517029 
	C169.877319,317.014984 161.458603,306.510376 156.869217,293.099152 
	C148.416489,268.398560 148.055099,243.253983 157.345596,218.789597 
	C167.931427,190.914246 201.258774,181.893509 223.372452,200.326767 
	C233.428055,208.708801 238.300461,220.218460 240.329651,232.813324 
	C243.757050,254.086899 244.167816,275.347992 235.716431,295.686829 
	C226.471664,317.935028 208.491516,326.865936 184.604553,321.517029 
M225.942398,238.736084 
	C223.295609,231.100281 221.786835,222.794861 217.768661,215.966003 
	C208.999878,201.063553 188.248322,199.930420 177.498154,213.382812 
	C174.164902,217.553940 171.715820,222.786728 170.119812,227.924225 
	C165.398834,243.120697 165.441879,258.739441 167.525909,274.386047 
	C168.770218,283.728027 171.291000,292.661560 177.122391,300.288116 
	C187.125763,313.370941 206.483566,313.550751 216.208588,300.266083 
	C219.569534,295.674957 222.118210,290.154724 223.718353,284.673645 
	C228.026672,269.916046 227.736618,254.764847 225.942398,238.736084 
z"/>
<path fill="#FEFCFC" opacity="1.000000" stroke="none" 
	d="
M45.689911,214.685318 
	C43.701363,216.447571 41.982536,217.968155 40.086174,219.645813 
	C36.956676,216.391861 34.113258,213.435379 31.247944,210.456116 
	C45.234249,190.714615 79.557724,184.626160 99.392708,198.491882 
	C112.766991,207.841232 117.717361,225.893234 111.452438,242.783585 
	C106.957054,254.903229 99.049545,264.813751 90.240692,273.938293 
	C80.529526,283.997528 70.345970,293.603760 60.256481,303.291016 
	C58.997246,304.500031 57.055782,304.998535 55.430431,305.826233 
	C55.987816,306.313782 56.545200,306.801331 57.102581,307.288879 
	C78.180046,307.288879 99.257515,307.288879 120.703117,307.288879 
	C120.703117,311.449371 120.703117,315.860321 120.703117,320.641693 
	C91.184044,320.641693 61.497822,320.641693 31.694340,320.641693 
	C30.311398,314.936829 31.570139,310.873077 36.147663,306.612366 
	C52.462864,291.426422 68.414146,275.829742 84.046135,259.938934 
	C90.594246,253.282425 95.349144,245.150543 97.522827,235.802322 
	C101.407211,219.097000 91.409744,205.969986 74.366295,204.641479 
	C63.284180,203.777649 54.171436,207.537476 45.689911,214.685318 
z"/>
<path fill="#FDFBFB" opacity="1.000000" stroke="none" 
	d="
M329.226440,243.000916 
	C329.226440,264.479675 329.226440,285.458435 329.226440,307.178711 
	C340.388184,307.178711 351.258301,307.178711 362.485413,307.178711 
	C362.485413,312.107941 362.485413,316.299103 362.485413,320.736389 
	C333.717346,320.736389 305.163727,320.736389 276.370483,320.736389 
	C276.370483,316.365906 276.370483,312.261993 276.370483,307.572632 
	C288.373291,307.572632 300.299957,307.572632 312.557434,307.572632 
	C312.557434,276.104492 312.557434,245.218277 312.557434,213.651047 
	C304.887390,213.651047 297.286469,213.699432 289.686829,213.623199 
	C287.229584,213.598572 283.975159,214.623230 284.215118,210.095581 
	C284.407227,206.470200 283.142761,202.952850 289.087646,201.874084 
	C297.681671,200.314575 305.940582,196.992218 314.450073,194.849213 
	C319.016266,193.699249 323.807312,193.442154 329.226471,192.679459 
	C329.226471,209.945251 329.226471,226.223068 329.226440,243.000916 
z"/>
<path fill="#FCF9F9" opacity="1.000000" stroke="none" 
	d="
M459.658203,207.649536 
	C436.581238,207.648926 413.966461,207.648926 391.143524,207.648926 
	C391.143524,202.668320 391.143524,198.263718 391.143524,193.613480 
	C421.824585,193.613480 452.225433,193.613480 482.591614,193.613480 
	C483.947968,199.741547 482.799500,204.489044 478.527283,209.257828 
	C453.513062,237.179596 441.509735,270.356720 439.899200,307.557373 
	C439.712128,311.878021 439.312988,316.189484 438.994751,320.754913 
	C433.460999,320.754913 428.037964,320.754913 422.266510,320.754913 
	C422.507751,278.403809 435.670990,241.007446 464.005280,208.485809 
	C462.152496,208.087265 461.136414,207.868713 459.658203,207.649536 
z"/>
<path fill="#A74343" opacity="1.000000" stroke="none" 
	d="
M225.982773,239.175262 
	C227.736618,254.764847 228.026672,269.916046 223.718353,284.673645 
	C222.118210,290.154724 219.569534,295.674957 216.208588,300.266083 
	C206.483566,313.550751 187.125763,313.370941 177.122391,300.288116 
	C171.291000,292.661560 168.770218,283.728027 167.525909,274.386047 
	C165.441879,258.739441 165.398834,243.120697 170.119812,227.924225 
	C171.715820,222.786728 174.164902,217.553940 177.498154,213.382812 
	C188.248322,199.930420 208.999878,201.063553 217.768661,215.966003 
	C221.786835,222.794861 223.295609,231.100281 225.982773,239.175262 
M200.428787,268.206909 
	C208.154648,264.792908 211.319412,256.859406 207.975525,249.288589 
	C205.356674,243.359299 198.089905,240.529663 192.000793,243.068069 
	C185.809158,245.649231 183.003937,252.349777 184.994659,259.802917 
	C186.690979,266.153809 192.150208,269.385376 200.428787,268.206909 
z"/>
<path fill="#FDFBFB" opacity="1.000000" stroke="none" 
	d="
M200.062653,268.356262 
	C192.150208,269.385376 186.690979,266.153809 184.994659,259.802917 
	C183.003937,252.349777 185.809158,245.649231 192.000793,243.068069 
	C198.089905,240.529663 205.356674,243.359299 207.975525,249.288589 
	C211.319412,256.859406 208.154648,264.792908 200.062653,268.356262 
z"/>
</svg>