<svg version="1.1" id="Layer_1" xmlns="http://www.w3.org/2000/svg" xmlns:xlink="http://www.w3.org/1999/xlink" x="0px" y="0px"
	 width="100%" viewBox="0 0 512 512" enable-background="new 0 0 512 512" xml:space="preserve">
<path fill="#BFAE9F" opacity="1.000000" stroke="none" 
	d="
M0.999998,289.000000 
	C1.000000,267.979095 1.000000,246.958206 1.336171,225.802612 
	C2.101926,224.995209 2.788615,224.369522 2.921511,223.642593 
	C4.323933,215.971649 5.473644,208.251602 7.006330,200.607910 
	C12.285335,174.280914 22.404770,149.805359 35.915180,126.706787 
	C50.473118,101.817284 69.077652,80.325485 90.915657,61.521305 
	C105.826111,48.682270 122.047287,37.846863 139.513550,28.907303 
	C165.849777,15.427939 193.586685,6.309426 223.092331,2.917589 
	C223.792465,2.837107 224.366928,1.663662 225.000000,1.000002 
	C246.020889,1.000000 267.041779,1.000000 288.197388,1.336173 
	C293.347473,2.772676 298.320618,4.147325 303.385406,4.926426 
	C326.821320,8.531488 348.915558,16.352676 370.092529,26.674595 
	C401.573486,42.018806 428.553955,63.246452 451.453247,89.830475 
	C467.106140,108.002014 479.954834,127.836472 489.945557,149.594666 
	C500.706970,173.031357 508.135406,197.407806 511.082672,223.092331 
	C511.162994,223.792343 512.336365,224.366928 513.000000,225.000000 
	C513.000000,246.020889 513.000000,267.041779 512.663818,288.197388 
	C511.888245,289.172089 511.181915,289.973297 511.053253,290.858490 
	C510.277740,296.193726 510.046814,301.640198 508.877258,306.880615 
	C503.167084,332.466003 494.763611,357.030518 482.076904,380.148804 
	C466.864624,407.869354 447.137299,431.720123 423.241608,452.287781 
	C404.941437,468.039215 384.807770,480.828827 362.767822,490.697083 
	C339.791992,500.984375 315.982422,508.204742 290.912659,511.082642 
	C290.210999,511.163208 289.634735,512.336304 289.000000,513.000000 
	C267.979095,513.000000 246.958206,513.000000 225.802612,512.663818 
	C224.827881,511.888275 224.026657,511.182007 223.141449,511.053314 
	C217.806030,510.277771 212.359146,510.047577 207.118774,508.877167 
	C181.537888,503.163818 156.975540,494.766693 133.859451,482.079895 
	C106.138245,466.865631 82.341705,447.091827 61.693783,423.265106 
	C48.786007,408.370148 37.957409,392.112518 28.985390,374.635406 
	C15.447899,348.264923 6.349590,320.464111 2.917773,290.912842 
	C2.836205,290.210480 1.663674,289.634766 0.999998,289.000000 
M217.789932,183.693253 
	C216.696732,183.316345 215.610489,182.917694 214.509216,182.566071 
	C207.643417,180.373917 200.453888,177.847687 194.065475,182.881302 
	C188.095673,187.585098 180.973389,190.609634 176.155334,197.142319 
	C170.757568,204.461060 164.604828,211.117783 161.755692,220.044876 
	C160.661377,223.473587 157.486465,226.700668 157.593597,229.942490 
	C157.755814,234.851593 157.365921,239.039810 154.128723,242.800232 
	C153.870819,243.099838 153.933044,243.755753 153.986420,244.230347 
	C154.726135,250.806503 155.292633,257.410370 156.299545,263.946106 
	C157.505768,271.775421 155.781052,279.610870 159.664917,287.572906 
	C167.491348,303.617310 175.072449,319.405945 190.577667,329.699036 
	C197.688995,334.419891 205.184952,334.447357 212.192368,329.359680 
	C212.977188,328.789886 213.899780,328.102356 214.797150,328.041718 
	C226.171768,327.273102 233.192322,319.835022 239.471024,311.625610 
	C251.104034,296.415466 256.864960,279.393097 255.234222,259.960510 
	C254.687973,253.451019 255.725220,246.808624 256.051788,239.950790 
	C255.548325,239.295700 253.849350,238.006500 253.460434,236.400101 
	C252.438507,232.179169 252.797409,227.474792 251.140900,223.587402 
	C247.597763,215.272629 243.170181,207.331055 239.011246,199.284988 
	C237.991028,197.311264 237.026367,194.893204 235.318848,193.767273 
	C229.913345,190.202972 224.168259,187.153717 217.789932,183.693253 
M446.876984,323.247681 
	C449.493347,317.038513 454.271790,311.811401 454.368011,304.442749 
	C454.466797,296.874512 455.430511,289.320435 455.763885,281.749084 
	C455.810089,280.699982 454.411774,279.587280 453.682159,278.504028 
	C453.065155,279.716034 452.073578,280.880157 451.911102,282.150330 
	C451.596008,284.613556 452.343384,287.342041 451.569031,289.587708 
	C450.324371,293.197327 449.070862,297.814911 446.272186,299.670563 
	C440.144531,303.733551 432.918427,304.490814 425.271698,304.304962 
	C410.462036,303.944946 396.365326,296.561493 380.401794,300.504974 
	C382.631104,292.656830 384.863983,286.334930 392.065979,281.511597 
	C402.883026,274.267151 414.417603,270.148071 426.980713,267.645386 
	C432.395508,266.566681 437.749969,264.151459 442.574524,261.374939 
	C450.724823,256.684570 454.950958,249.214569 456.981842,239.895218 
	C459.432709,228.648682 459.371643,217.684235 455.027374,207.177368 
	C452.355804,200.716034 448.045258,194.937744 444.532684,188.817169 
	C441.464874,183.471619 437.029144,180.701569 430.750305,180.987976 
	C428.261353,181.101501 425.667603,181.317520 423.277588,180.785721 
	C412.700836,178.432190 402.879303,179.701782 393.680115,185.719391 
	C382.635651,192.944046 373.383270,201.483627 371.807983,215.483856 
	C371.279541,220.180130 371.683899,225.006729 371.934937,229.759338 
	C372.304596,236.757019 375.512756,242.519135 380.610809,247.131073 
	C384.714661,250.843613 388.927246,250.648575 393.191925,247.057205 
	C400.855042,240.603928 401.477722,233.419205 394.076416,226.693237 
	C391.079010,223.969330 386.726746,222.172012 382.696808,221.275482 
	C375.971252,219.779282 373.525452,216.806000 376.245239,210.243607 
	C377.699951,206.733643 380.624756,203.827637 382.916138,200.670883 
	C388.654327,192.765671 396.180115,186.801819 405.520477,184.515274 
	C411.379364,183.080994 418.875275,182.641617 423.097717,188.217453 
	C426.477112,192.679977 428.884033,198.563324 429.703339,204.114105 
	C430.833618,211.772217 430.747223,219.784836 429.908661,227.507355 
	C429.134125,234.640137 427.677460,242.045502 424.726257,248.511566 
	C420.612030,257.525848 411.571411,261.588928 403.123169,265.996521 
	C391.533691,272.042969 381.176483,279.901489 377.807281,293.165436 
	C375.466095,302.382477 375.184967,312.137939 374.273285,321.680511 
	C374.178070,322.677521 376.049652,323.862457 377.008698,324.960205 
	C377.651520,323.797119 378.653259,322.692596 378.854706,321.457520 
	C379.172394,319.509583 378.801666,317.459839 378.987396,315.478027 
	C379.636383,308.553741 385.451202,303.959167 392.339355,304.541779 
	C399.225067,305.124207 403.037811,309.451569 405.534302,315.206299 
	C407.249329,319.159698 407.618591,323.585968 411.558746,326.562103 
	C416.383881,330.206573 421.174347,333.710754 427.482025,333.619141 
	C435.348389,333.504852 441.244843,329.248077 446.876984,323.247681 
M104.184639,332.463440 
	C105.020950,332.973633 105.838417,333.890564 106.696518,333.930298 
	C114.244545,334.279877 121.250023,331.832855 126.181572,326.510986 
	C130.412109,321.945648 133.605652,316.062317 135.971222,310.239166 
	C137.850830,305.612335 137.823883,300.201172 138.573914,295.127930 
	C139.418686,289.413727 139.552872,283.760620 136.512405,278.259155 
	C135.299866,279.647675 134.424026,281.115540 134.254242,282.660919 
	C133.964417,285.298798 134.682251,288.155182 133.944122,290.609161 
	C132.984329,293.800140 131.741455,298.302521 129.336212,299.383759 
	C123.576721,301.972839 117.107964,304.031128 110.850609,304.260468 
	C94.931931,304.843933 79.660202,296.862152 62.645775,300.485870 
	C65.472450,292.650513 67.577980,285.909454 75.152908,281.129211 
	C85.823441,274.395386 96.950867,270.140411 109.216980,267.745270 
	C117.325142,266.162079 125.121887,263.047485 131.112045,256.792847 
	C140.387802,247.107513 141.460724,234.754105 141.000610,222.518066 
	C140.546295,210.435547 134.788361,199.917038 128.208099,189.856674 
	C123.818901,183.146164 118.108734,180.297577 110.264442,180.845383 
	C107.831718,181.015259 105.342506,180.153915 102.879204,180.154175 
	C97.581833,180.154755 91.768250,179.036011 87.078056,180.800232 
	C68.513557,187.783203 54.750290,199.658264 53.481667,221.049667 
	C52.944889,230.100693 55.274883,238.921082 61.743504,245.919006 
	C66.048935,250.576721 70.789680,250.900330 75.472008,247.261978 
	C83.159218,241.288757 84.060112,233.419266 76.919083,226.878876 
	C73.822182,224.042435 69.286423,222.209351 65.100700,221.263245 
	C58.916199,219.865341 56.230240,216.976944 58.597904,211.067413 
	C60.075336,207.379837 63.048061,204.283875 65.392960,200.952850 
	C70.925293,193.093918 78.317375,187.348099 87.410408,184.719650 
	C93.369347,182.997147 100.773392,182.555206 105.067513,187.783310 
	C108.783829,192.307922 111.740234,198.566895 112.313217,204.329620 
	C113.469643,215.960083 113.381149,227.627029 110.515251,239.408264 
	C108.247055,248.732422 103.814507,255.255569 96.095108,260.124817 
	C88.377197,264.993103 80.305626,269.377472 73.008736,274.806793 
	C68.856300,277.896423 64.918007,282.155731 62.685585,286.761841 
	C57.924751,296.584778 56.280983,307.342651 57.066811,318.294220 
	C57.230022,320.568756 59.013214,324.751038 59.328796,324.683563 
	C63.314545,323.830933 61.335709,320.585602 61.310390,318.229279 
	C61.214069,309.264313 67.310234,303.608612 76.165848,304.642944 
	C82.254730,305.354095 88.588890,312.486145 89.894844,320.094238 
	C90.086800,321.212524 89.909470,322.881470 90.572723,323.352356 
	C94.806068,326.357880 99.226929,329.099304 104.184639,332.463440 
M269.659210,232.089828 
	C271.914062,236.516571 273.633026,241.341141 276.552734,245.274338 
	C280.655762,250.801636 286.612732,251.082626 291.310516,246.876114 
	C298.778473,240.189133 299.261658,233.082977 291.709656,226.480606 
	C288.559937,223.726944 283.947723,222.215942 279.744446,221.209564 
	C274.807678,220.027588 272.713501,218.739777 273.344086,213.771637 
	C273.744690,210.615356 274.828796,206.968231 276.889160,204.713425 
	C282.112457,198.997253 287.743530,193.545364 293.800262,188.728210 
	C300.449524,183.439819 308.488159,183.001526 316.464569,185.135513 
	C320.598724,186.241562 327.735382,199.906174 327.837708,204.940521 
	C328.083984,217.055847 328.335876,229.008240 325.436371,241.068939 
	C323.787445,247.927536 320.208893,252.858734 315.601929,257.041687 
	C311.498352,260.767578 306.098785,263.120575 301.138824,265.837921 
	C290.143341,271.861816 280.780121,279.275269 276.054291,291.535095 
	C272.239624,301.431091 271.997345,311.660797 272.174622,321.975403 
	C272.192139,322.995392 273.827209,323.987579 274.711517,324.992676 
	C275.422913,323.880615 276.557556,322.837494 276.752441,321.641266 
	C277.096375,319.530029 276.699524,317.309082 276.909424,315.163055 
	C277.563507,308.475281 283.324738,303.988892 290.016479,304.527496 
	C297.606018,305.138428 301.822113,310.022064 303.770844,316.461029 
	C305.051208,320.691528 306.626648,324.613678 309.964844,327.024048 
	C313.969513,329.915588 318.710358,333.532745 323.209930,333.641968 
	C333.610474,333.894318 341.922119,329.061798 346.895935,319.181061 
	C349.301483,314.402344 351.973907,309.903381 352.230896,304.355988 
	C352.589966,296.605316 353.257843,288.868958 353.616089,281.118286 
	C353.655975,280.255493 352.540741,279.339325 351.961212,278.447937 
	C351.179626,279.328583 349.841187,280.138611 349.718933,281.102875 
	C349.322571,284.228699 349.953278,287.580200 349.095825,290.526825 
	C348.131012,293.842712 346.706085,298.528412 344.198517,299.591003 
	C338.252441,302.110718 331.600372,303.739136 325.139709,304.115662 
	C309.532104,305.025208 294.622223,296.479919 277.949524,300.676117 
	C280.581909,292.682129 282.865387,286.082855 290.315643,281.234192 
	C300.922577,274.331116 312.140839,270.402771 324.328491,267.755981 
	C339.580109,264.443848 352.154175,257.192139 354.549133,239.804062 
	C355.599152,232.180725 357.304016,224.059555 355.725830,216.814850 
	C353.859344,208.246674 349.055878,200.234177 344.992065,192.252396 
	C340.925873,184.265854 334.508881,179.644821 324.964905,180.886139 
	C323.819305,181.035156 322.575745,181.131195 321.479584,180.851715 
	C310.137573,177.959946 299.645905,180.022781 290.102356,186.539673 
	C280.144958,193.339218 271.523865,201.413834 269.891663,214.196777 
	C269.170990,219.840897 269.613464,225.633545 269.659210,232.089828 
z"/>
<path fill="#FFFFFF" opacity="1.000000" stroke="none" 
	d="
M513.000000,224.531342 
	C512.336365,224.366928 511.162994,223.792343 511.082672,223.092331 
	C508.135406,197.407806 500.706970,173.031357 489.945557,149.594666 
	C479.954834,127.836472 467.106140,108.002014 451.453247,89.830475 
	C428.553955,63.246452 401.573486,42.018806 370.092529,26.674595 
	C348.915558,16.352676 326.821320,8.531488 303.385406,4.926426 
	C298.320618,4.147325 293.347473,2.772676 288.666046,1.336173 
	C363.593719,1.000000 438.187408,1.000000 513.000000,1.000000 
	C513.000000,75.354088 513.000000,149.708389 513.000000,224.531342 
z"/>
<path fill="#FFFFFF" opacity="1.000000" stroke="none" 
	d="
M224.531342,1.000002 
	C224.366928,1.663662 223.792465,2.837107 223.092331,2.917589 
	C193.586685,6.309426 165.849777,15.427939 139.513550,28.907303 
	C122.047287,37.846863 105.826111,48.682270 90.915657,61.521305 
	C69.077652,80.325485 50.473118,101.817284 35.915180,126.706787 
	C22.404770,149.805359 12.285335,174.280914 7.006330,200.607910 
	C5.473644,208.251602 4.323933,215.971649 2.921511,223.642593 
	C2.788615,224.369522 2.101926,224.995209 1.336171,225.333954 
	C1.000000,150.406296 1.000000,75.812576 1.000000,1.000000 
	C75.354088,1.000000 149.708389,1.000000 224.531342,1.000002 
z"/>
<path fill="#FFFFFF" opacity="1.000000" stroke="none" 
	d="
M0.999998,289.468658 
	C1.663674,289.634766 2.836205,290.210480 2.917773,290.912842 
	C6.349590,320.464111 15.447899,348.264923 28.985390,374.635406 
	C37.957409,392.112518 48.786007,408.370148 61.693783,423.265106 
	C82.341705,447.091827 106.138245,466.865631 133.859451,482.079895 
	C156.975540,494.766693 181.537888,503.163818 207.118774,508.877167 
	C212.359146,510.047577 217.806030,510.277771 223.141449,511.053314 
	C224.026657,511.182007 224.827881,511.888275 225.333954,512.663818 
	C150.406296,513.000000 75.812599,513.000000 1.000000,513.000000 
	C1.000000,438.645905 1.000000,364.291626 0.999998,289.468658 
z"/>
<path fill="#FFFFFF" opacity="1.000000" stroke="none" 
	d="
M289.468658,513.000000 
	C289.634735,512.336304 290.210999,511.163208 290.912659,511.082642 
	C315.982422,508.204742 339.791992,500.984375 362.767822,490.697083 
	C384.807770,480.828827 404.941437,468.039215 423.241608,452.287781 
	C447.137299,431.720123 466.864624,407.869354 482.076904,380.148804 
	C494.763611,357.030518 503.167084,332.466003 508.877258,306.880615 
	C510.046814,301.640198 510.277740,296.193726 511.053253,290.858490 
	C511.181915,289.973297 511.888245,289.172089 512.663818,288.666016 
	C513.000000,363.593719 513.000000,438.187408 513.000000,513.000000 
	C438.645905,513.000000 364.291626,513.000000 289.468658,513.000000 
z"/>
<path fill="#FBFAF9" opacity="1.000000" stroke="none" 
	d="
M218.172211,183.799255 
	C224.168259,187.153717 229.913345,190.202972 235.318848,193.767273 
	C237.026367,194.893204 237.991028,197.311264 239.011246,199.284988 
	C243.170181,207.331055 247.597763,215.272629 251.140900,223.587402 
	C252.797409,227.474792 252.438507,232.179169 253.460434,236.400101 
	C253.849350,238.006500 255.548325,239.295700 256.051788,239.950790 
	C255.725220,246.808624 254.687973,253.451019 255.234222,259.960510 
	C256.864960,279.393097 251.104034,296.415466 239.471024,311.625610 
	C233.192322,319.835022 226.171768,327.273102 214.797150,328.041718 
	C213.899780,328.102356 212.977188,328.789886 212.192368,329.359680 
	C205.184952,334.447357 197.688995,334.419891 190.577667,329.699036 
	C175.072449,319.405945 167.491348,303.617310 159.664917,287.572906 
	C155.781052,279.610870 157.505768,271.775421 156.299545,263.946106 
	C155.292633,257.410370 154.726135,250.806503 153.986420,244.230347 
	C153.933044,243.755753 153.870819,243.099838 154.128723,242.800232 
	C157.365921,239.039810 157.755814,234.851593 157.593597,229.942490 
	C157.486465,226.700668 160.661377,223.473587 161.755692,220.044876 
	C164.604828,211.117783 170.757568,204.461060 176.155334,197.142319 
	C180.973389,190.609634 188.095673,187.585098 194.065475,182.881302 
	C200.453888,177.847687 207.643417,180.373917 214.509216,182.566071 
	C215.610489,182.917694 216.696732,183.316345 218.172211,183.799255 
M242.789948,222.138443 
	C243.028152,221.919724 243.231964,221.672638 243.862976,220.969604 
	C244.081863,219.797684 244.300735,218.625748 244.519623,217.453812 
	C244.117599,217.387985 243.715561,217.322159 243.313522,217.256332 
	C243.150269,218.450073 242.987015,219.643799 242.397583,221.063324 
	C242.121109,221.244781 241.909622,221.483749 241.371964,222.045105 
	C241.125168,222.251297 240.937836,222.501938 240.377014,223.014023 
	C240.106445,223.202194 239.894272,223.442047 239.094315,223.929718 
	C237.668716,225.225525 236.243134,226.521332 234.186646,228.002350 
	C232.355728,228.539886 230.524811,229.077408 228.008453,229.816162 
	C228.155838,231.010269 228.389389,232.902512 228.800674,236.234741 
	C231.704376,232.901749 233.602921,230.722519 236.080902,228.280853 
	C237.456573,226.919952 238.832245,225.559067 240.634537,223.974258 
	C240.915726,223.795975 241.123611,223.554565 241.674423,223.026382 
	C241.948090,222.861053 242.185913,222.654449 242.789948,222.138443 
M234.099365,235.613220 
	C234.099365,235.613220 234.206390,235.194839 234.860245,234.994797 
	C239.050964,231.643753 243.241684,228.292709 247.432419,224.941666 
	C246.795609,224.226608 246.158798,223.511566 245.521988,222.796509 
	C241.583511,226.754044 237.645035,230.711578 233.135452,234.883347 
	C232.243332,235.555115 231.351212,236.226868 230.459091,236.898636 
	C230.647934,237.123535 230.836792,237.348434 231.025635,237.573334 
	C232.027954,237.029526 233.030273,236.485703 233.975845,236.654236 
	C232.733887,237.899521 231.309296,239.014587 230.302032,240.427216 
	C229.320099,241.804276 228.764923,243.485641 228.022385,245.033417 
	C228.409424,245.146271 228.796448,245.259125 229.183487,245.371979 
	C232.132202,242.568497 235.080917,239.764999 238.177094,237.544800 
	C238.829376,238.246048 239.481659,238.947281 240.283463,239.809280 
	C237.104279,242.520538 234.101624,245.387970 230.786499,247.831421 
	C226.562317,250.944901 225.977554,254.259445 229.440613,258.005249 
	C228.229187,259.807312 227.154205,261.406403 225.568039,263.765900 
	C227.736023,263.493866 228.943756,263.342316 230.354507,263.165314 
	C230.879669,264.740326 231.372040,266.217010 231.589935,266.870544 
	C229.212860,269.705627 226.809464,271.680267 225.611694,274.222870 
	C224.060196,277.516327 226.141724,279.493988 230.123215,279.104858 
	C230.123215,279.104858 230.325409,279.294067 230.166412,279.965546 
	C223.652740,285.400513 222.685333,288.542542 225.625137,291.322937 
	C224.902542,297.303558 224.113632,302.664429 223.693863,308.054016 
	C223.575455,309.574371 224.538132,311.178864 225.045364,312.880371 
	C221.765625,314.962433 219.501923,317.922058 219.004944,321.958984 
	C222.926239,319.931549 226.679626,318.593018 229.672333,316.273163 
	C232.624268,313.984894 234.922531,310.792999 237.237732,307.789551 
	C237.762817,307.108368 237.174713,305.569061 237.098999,304.424713 
	C236.757553,304.379364 236.416107,304.333984 236.074661,304.288635 
	C235.441681,305.233154 234.808716,306.177673 234.175735,307.122192 
	C233.717270,306.840363 233.258789,306.558502 232.800308,306.276642 
	C233.455383,305.162872 233.929474,303.859100 234.829132,303.002106 
	C235.428162,302.431458 236.817657,302.755768 237.541046,302.240814 
	C246.652206,295.754852 250.963318,286.692047 251.848236,275.701385 
	C252.101288,272.558624 251.209412,270.949280 247.992752,270.989960 
	C247.992752,270.989960 248.022736,271.014771 248.104019,270.347687 
	C254.321915,263.714508 251.226303,255.617203 251.140976,248.180511 
	C251.097809,244.419037 248.478867,240.722305 247.297943,236.911591 
	C247.034302,236.060883 247.958374,234.866165 248.262100,233.808731 
	C248.564590,232.755600 248.774704,231.675964 249.352676,229.212860 
	C244.686005,232.423340 241.340286,234.725052 237.544250,236.455505 
	C236.349075,236.310699 235.153885,236.165894 234.099365,235.613220 
M186.006088,215.006927 
	C186.006088,215.006927 186.023483,215.026733 185.960922,214.328522 
	C186.835892,212.615875 187.710861,210.903229 188.585831,209.190582 
	C188.303528,208.888779 188.021240,208.586975 187.738937,208.285172 
	C179.239151,213.089462 171.147247,218.454041 164.458313,226.258362 
	C165.654480,226.479752 166.562729,226.647858 167.823425,226.881195 
	C162.289780,231.128464 162.204407,231.374741 161.797470,237.907227 
	C161.698792,239.491257 161.194000,241.046402 160.942490,242.625458 
	C160.681595,244.263428 160.501480,245.914276 160.286041,247.559494 
	C161.867722,247.005280 163.453766,246.463013 165.028229,245.889008 
	C165.455963,245.733063 165.848801,245.481369 166.257660,245.273636 
	C166.501297,245.487427 166.744934,245.701202 166.988556,245.914993 
	C164.258270,248.860260 161.527969,251.805542 158.797668,254.750809 
	C159.180450,255.098724 159.563232,255.446640 159.946014,255.794556 
	C167.392212,251.255341 174.929504,246.854111 182.202347,242.052368 
	C183.544464,241.166275 183.892075,238.687866 184.553757,236.891022 
	C184.921783,235.891617 185.056671,234.789795 185.183105,233.720718 
	C185.894302,227.707031 186.582657,221.690491 187.203598,215.667160 
	C187.222412,215.484680 186.414536,215.216965 186.006088,215.006927 
M181.245804,250.343369 
	C182.874619,248.366852 184.503433,246.390335 186.132248,244.413803 
	C185.546509,243.897446 184.960754,243.381088 184.375000,242.864731 
	C181.812851,245.115219 179.250702,247.365692 176.688538,249.616165 
	C176.880981,250.008087 177.073410,250.399994 177.265854,250.791916 
	C178.497559,250.875305 179.729279,250.958679 180.738708,251.773376 
	C179.963776,252.801727 179.376907,254.090179 178.379745,254.811188 
	C174.957596,257.285553 171.391693,259.561127 167.201294,262.019379 
	C164.377304,264.031982 161.553299,266.044617 158.729309,268.057251 
	C159.102661,268.542877 159.476028,269.028503 159.849380,269.514130 
	C163.809799,268.632416 166.358154,265.909760 168.631226,262.452759 
	C169.650528,263.617035 170.669830,264.781342 171.600815,265.844727 
	C168.900391,267.960236 166.565887,269.783478 164.237381,271.614349 
	C159.139160,275.622986 159.295135,277.025177 165.164062,279.994019 
	C164.773895,280.973785 164.383728,281.953522 163.627396,283.852783 
	C168.471924,281.783569 172.421814,280.096466 176.371704,278.409363 
	C176.807892,278.944092 177.244080,279.478851 177.680283,280.013580 
	C174.279312,282.395294 170.878342,284.777039 167.477371,287.158783 
	C167.933075,287.698975 168.388779,288.239166 168.844482,288.779358 
	C172.670135,286.878479 176.495789,284.977631 180.321442,283.076752 
	C180.532455,283.481964 180.743469,283.887146 180.954483,284.292358 
	C177.022552,289.658783 170.626831,291.147797 164.760986,293.682373 
	C165.629990,295.048950 166.412430,296.279419 167.280594,297.644684 
	C169.760681,296.463989 171.990936,295.402222 174.221191,294.340454 
	C174.445145,294.763428 174.669083,295.186401 174.893021,295.609375 
	C173.896149,296.425507 172.764160,297.125793 171.938583,298.088776 
	C171.023758,299.155853 170.388962,300.463013 169.632217,301.665619 
	C171.209183,301.707581 172.850906,302.048157 174.348373,301.723450 
	C176.760803,301.200378 179.078140,300.238586 181.092468,300.236115 
	C178.491989,302.313019 175.891525,304.389954 173.190613,306.547089 
	C176.523575,316.714722 184.874054,322.080566 193.545166,327.246338 
	C189.454514,322.805115 191.113968,314.488739 183.247925,312.311493 
	C186.188507,310.838409 188.767929,309.029816 185.523254,305.303436 
	C185.064835,304.776947 185.840561,303.300079 185.470367,302.544769 
	C184.845749,301.270325 183.761230,300.221283 183.457916,298.472260 
	C187.503632,293.793091 185.311432,288.415192 185.323090,283.217346 
	C185.342957,274.348022 185.751099,265.477997 186.085907,256.611664 
	C186.222961,252.982941 184.958725,250.831741 181.245804,250.343369 
M190.814362,313.508240 
	C191.180115,314.787842 191.400528,316.132294 191.937241,317.335632 
	C194.048935,322.070221 196.211380,327.136261 202.054977,327.942963 
	C206.988968,328.624115 214.300690,323.101807 216.387772,317.791718 
	C217.170822,315.799469 217.690308,313.644775 217.950623,311.517731 
	C218.567139,306.479950 218.298523,301.231781 219.635284,296.414917 
	C220.812622,292.172516 221.690750,288.980652 216.518784,287.424225 
	C218.552475,284.062683 220.382202,281.038269 222.376495,277.741821 
	C220.522812,276.688751 219.319229,276.004974 217.859268,275.175598 
	C221.657349,270.179596 222.226212,264.979034 222.519562,258.944397 
	C223.093903,247.128769 226.277161,235.385803 223.961899,223.481979 
	C221.952286,213.149734 219.481857,202.900574 216.966553,192.675827 
	C215.584106,187.056061 210.541458,186.334244 205.948425,185.934479 
	C201.410797,185.539520 198.400955,188.487488 196.936035,192.488861 
	C195.099792,197.504440 193.010254,202.621490 192.402161,207.854187 
	C190.893341,220.837494 189.823227,233.895752 189.223267,246.953598 
	C188.683197,258.708252 188.780365,270.506683 189.009460,282.277771 
	C189.207184,292.437927 189.986053,302.586792 190.814362,313.508240 
M238.314316,212.324005 
	C238.903305,211.642654 239.492279,210.961319 240.081268,210.279968 
	C239.858734,210.037582 239.636200,209.795212 239.413666,209.552826 
	C238.097610,210.067490 236.781555,210.582138 235.896149,210.928375 
	C234.922989,209.824539 233.635483,208.167297 233.510101,208.250992 
	C231.016876,209.915268 228.657990,211.780807 226.271896,213.605576 
	C226.563934,213.953857 226.855988,214.302139 227.148026,214.650406 
	C229.476288,214.919250 231.804550,215.188080 235.127686,215.571793 
	C232.149399,218.180481 230.085526,219.988251 228.021652,221.796005 
	C228.376801,222.215546 228.731964,222.635101 229.087112,223.054657 
	C232.619461,220.385132 236.151810,217.715607 239.665024,215.060532 
	C238.960327,214.136353 238.428055,213.438293 238.314316,212.324005 
M233.989120,203.047485 
	C233.236710,201.488373 232.252502,198.529587 231.771484,198.609268 
	C229.530182,198.980423 226.387024,199.647171 225.551086,201.245926 
	C224.600433,203.064026 225.755585,205.983185 225.898880,207.441620 
	C229.864731,206.312469 232.703659,205.504166 235.557739,204.691559 
	C235.218277,204.412643 234.736420,204.016724 233.989120,203.047485 
M189.559097,201.403931 
	C189.154282,200.990677 188.441086,200.180084 188.388611,200.220795 
	C184.478165,203.255875 180.619919,206.358215 176.757553,209.455231 
	C177.250809,210.031631 177.744064,210.608017 178.237335,211.184418 
	C181.934967,208.133041 185.632614,205.081665 189.559097,201.403931 
M188.801102,196.322815 
	C190.055466,195.194946 191.309830,194.067093 192.564194,192.939224 
	C192.145172,192.496918 191.726166,192.054596 191.307159,191.612289 
	C188.267349,194.060928 185.227524,196.509567 182.187714,198.958221 
	C182.525970,199.390671 182.864212,199.823135 183.202469,200.255600 
	C184.874466,199.078644 186.546463,197.901703 188.801102,196.322815 
M224.477814,190.563705 
	C223.038452,189.933380 221.599091,189.303055 220.159729,188.672745 
	C219.868225,189.033310 219.576721,189.393890 219.285233,189.754471 
	C219.979248,191.445114 220.673264,193.135742 221.763184,195.790817 
	C223.053162,193.655075 223.781372,192.449387 224.477814,190.563705 
M174.783844,254.146820 
	C175.153275,253.299927 175.522690,252.453033 175.892120,251.606155 
	C175.541336,251.400223 175.190552,251.194305 174.839767,250.988388 
	C173.877838,252.167084 172.915909,253.345779 171.311890,255.311249 
	C173.014038,254.863174 173.626068,254.702072 174.783844,254.146820 
M180.746811,202.376526 
	C180.017380,202.376526 179.287949,202.376526 178.558517,202.376526 
	C178.645111,202.828629 178.731705,203.280746 178.818298,203.732849 
	C179.349915,203.448959 179.881546,203.165054 180.746811,202.376526 
M173.740616,212.520523 
	C173.945160,212.578659 174.149704,212.636780 174.354248,212.694916 
	C174.225861,212.565735 174.097488,212.436554 173.740616,212.520523 
M236.277512,207.507721 
	C236.277512,207.507721 236.536392,207.629471 236.536392,207.629471 
	C236.536392,207.629471 236.481628,207.366913 236.277512,207.507721 
M176.546356,204.536972 
	C176.546356,204.536972 176.523209,204.497147 176.546356,204.536972 
z"/>
<path fill="#FCFBFA" opacity="1.000000" stroke="none" 
	d="
M446.680054,323.552368 
	C441.244843,329.248077 435.348389,333.504852 427.482025,333.619141 
	C421.174347,333.710754 416.383881,330.206573 411.558746,326.562103 
	C407.618591,323.585968 407.249329,319.159698 405.534302,315.206299 
	C403.037811,309.451569 399.225067,305.124207 392.339355,304.541779 
	C385.451202,303.959167 379.636383,308.553741 378.987396,315.478027 
	C378.801666,317.459839 379.172394,319.509583 378.854706,321.457520 
	C378.653259,322.692596 377.651520,323.797119 377.008698,324.960205 
	C376.049652,323.862457 374.178070,322.677521 374.273285,321.680511 
	C375.184967,312.137939 375.466095,302.382477 377.807281,293.165436 
	C381.176483,279.901489 391.533691,272.042969 403.123169,265.996521 
	C411.571411,261.588928 420.612030,257.525848 424.726257,248.511566 
	C427.677460,242.045502 429.134125,234.640137 429.908661,227.507355 
	C430.747223,219.784836 430.833618,211.772217 429.703339,204.114105 
	C428.884033,198.563324 426.477112,192.679977 423.097717,188.217453 
	C418.875275,182.641617 411.379364,183.080994 405.520477,184.515274 
	C396.180115,186.801819 388.654327,192.765671 382.916138,200.670883 
	C380.624756,203.827637 377.699951,206.733643 376.245239,210.243607 
	C373.525452,216.806000 375.971252,219.779282 382.696808,221.275482 
	C386.726746,222.172012 391.079010,223.969330 394.076416,226.693237 
	C401.477722,233.419205 400.855042,240.603928 393.191925,247.057205 
	C388.927246,250.648575 384.714661,250.843613 380.610809,247.131073 
	C375.512756,242.519135 372.304596,236.757019 371.934937,229.759338 
	C371.683899,225.006729 371.279541,220.180130 371.807983,215.483856 
	C373.383270,201.483627 382.635651,192.944046 393.680115,185.719391 
	C402.879303,179.701782 412.700836,178.432190 423.277588,180.785721 
	C425.667603,181.317520 428.261353,181.101501 430.750305,180.987976 
	C437.029144,180.701569 441.464874,183.471619 444.532684,188.817169 
	C448.045258,194.937744 452.355804,200.716034 455.027374,207.177368 
	C459.371643,217.684235 459.432709,228.648682 456.981842,239.895218 
	C454.950958,249.214569 450.724823,256.684570 442.574524,261.374939 
	C437.749969,264.151459 432.395508,266.566681 426.980713,267.645386 
	C414.417603,270.148071 402.883026,274.267151 392.065979,281.511597 
	C384.863983,286.334930 382.631104,292.656830 380.401794,300.504974 
	C396.365326,296.561493 410.462036,303.944946 425.271698,304.304962 
	C432.918427,304.490814 440.144531,303.733551 446.272186,299.670563 
	C449.070862,297.814911 450.324371,293.197327 451.569031,289.587708 
	C452.343384,287.342041 451.596008,284.613556 451.911102,282.150330 
	C452.073578,280.880157 453.065155,279.716034 453.682190,278.504028 
	C454.411774,279.587280 455.810089,280.699982 455.763885,281.749084 
	C455.430511,289.320435 454.466797,296.874512 454.368011,304.442749 
	C454.271790,311.811401 449.493347,317.038513 446.680054,323.552368 
M447.174500,309.001709 
	C439.604340,312.494232 439.799835,321.319611 435.102783,326.989563 
	C437.969971,325.680908 440.713135,324.056122 442.243835,321.657532 
	C444.697449,317.812744 446.347931,313.455414 448.528778,309.053955 
	C448.291962,308.969543 448.055145,308.885132 447.174500,309.001709 
M430.854218,262.571869 
	C431.761993,261.132965 433.270691,259.767853 433.458282,258.240479 
	C433.914764,254.524094 435.855072,253.910400 439.215576,252.767670 
	C443.163269,251.425293 446.751190,247.899994 449.554871,244.537399 
	C456.822754,235.820602 453.288422,225.550323 452.780975,215.766220 
	C452.757751,215.318298 452.345245,214.895660 452.134491,214.451523 
	C450.659363,211.342575 449.088837,208.274002 447.740936,205.110657 
	C445.533905,199.931122 444.120911,194.145660 438.117828,192.576172 
	C430.642761,197.813538 436.966522,204.115372 435.347198,209.525574 
	C437.323395,210.297592 438.928619,210.924683 440.605255,211.579666 
	C440.227844,212.195145 440.123566,212.556961 439.883636,212.724350 
	C438.627441,213.600769 437.336823,214.427887 436.058197,215.272171 
	C437.344147,215.810287 438.781433,216.143387 439.871063,216.947525 
	C440.847198,217.667908 441.440521,218.907013 442.125671,219.815094 
	C439.869476,219.968002 438.452759,220.064011 437.036041,220.160034 
	C437.232849,222.558289 437.429688,224.956558 437.676300,227.961884 
	C435.976837,229.659058 431.969727,231.353775 434.821106,236.017014 
	C435.130524,236.523056 434.618958,237.611038 434.346741,238.378967 
	C433.138489,241.787476 432.321198,245.437576 430.519592,248.505280 
	C428.509460,251.928040 425.980682,255.281845 422.965851,257.820282 
	C419.049835,261.117462 414.431824,263.580933 409.160187,267.028290 
	C416.947845,265.481720 423.522644,264.176025 430.854218,262.571869 
M394.188904,237.708328 
	C394.160614,236.685196 394.549957,235.228531 394.024078,234.721970 
	C392.572144,233.323364 390.737671,232.321854 389.335449,231.356735 
	C386.835968,233.480743 383.931763,235.829208 381.206848,238.370010 
	C380.691071,238.850906 380.887451,240.095581 380.755249,240.987854 
	C383.499786,241.374771 385.496460,245.758133 388.953278,242.453049 
	C390.491119,240.982681 392.196716,239.687775 394.188904,237.708328 
M433.475861,308.285858 
	C430.361847,308.350800 424.153259,314.930450 423.890778,318.407410 
	C429.580750,317.548767 431.563629,312.830200 433.475861,308.285858 
M416.482544,315.532745 
	C415.944885,317.442322 415.407196,319.351929 414.570923,322.322021 
	C418.569641,317.549347 421.935242,313.532318 425.285706,309.533356 
	C421.856018,308.925568 421.447266,309.184509 416.482544,315.532745 
M427.179138,321.669312 
	C425.064667,323.249664 422.950195,324.830017 420.835754,326.410339 
	C421.407776,326.990387 421.979797,327.570435 422.551849,328.150452 
	C427.396973,327.436188 428.955292,323.033478 431.765015,320.035126 
	C431.470306,319.635651 431.175568,319.236206 430.880829,318.836761 
	C429.775757,319.583435 428.670685,320.330109 427.179138,321.669312 
z"/>
<path fill="#FCFBFA" opacity="1.000000" stroke="none" 
	d="
M103.885353,332.195557 
	C99.226929,329.099304 94.806068,326.357880 90.572723,323.352356 
	C89.909470,322.881470 90.086800,321.212524 89.894844,320.094238 
	C88.588890,312.486145 82.254730,305.354095 76.165848,304.642944 
	C67.310234,303.608612 61.214069,309.264313 61.310390,318.229279 
	C61.335709,320.585602 63.314545,323.830933 59.328796,324.683563 
	C59.013214,324.751038 57.230022,320.568756 57.066811,318.294220 
	C56.280983,307.342651 57.924751,296.584778 62.685585,286.761841 
	C64.918007,282.155731 68.856300,277.896423 73.008736,274.806793 
	C80.305626,269.377472 88.377197,264.993103 96.095108,260.124817 
	C103.814507,255.255569 108.247055,248.732422 110.515251,239.408264 
	C113.381149,227.627029 113.469643,215.960083 112.313217,204.329620 
	C111.740234,198.566895 108.783829,192.307922 105.067513,187.783310 
	C100.773392,182.555206 93.369347,182.997147 87.410408,184.719650 
	C78.317375,187.348099 70.925293,193.093918 65.392960,200.952850 
	C63.048061,204.283875 60.075336,207.379837 58.597904,211.067413 
	C56.230240,216.976944 58.916199,219.865341 65.100700,221.263245 
	C69.286423,222.209351 73.822182,224.042435 76.919083,226.878876 
	C84.060112,233.419266 83.159218,241.288757 75.472008,247.261978 
	C70.789680,250.900330 66.048935,250.576721 61.743504,245.919006 
	C55.274883,238.921082 52.944889,230.100693 53.481667,221.049667 
	C54.750290,199.658264 68.513557,187.783203 87.078056,180.800232 
	C91.768250,179.036011 97.581833,180.154755 102.879204,180.154175 
	C105.342506,180.153915 107.831718,181.015259 110.264442,180.845383 
	C118.108734,180.297577 123.818901,183.146164 128.208099,189.856674 
	C134.788361,199.917038 140.546295,210.435547 141.000610,222.518066 
	C141.460724,234.754105 140.387802,247.107513 131.112045,256.792847 
	C125.121887,263.047485 117.325142,266.162079 109.216980,267.745270 
	C96.950867,270.140411 85.823441,274.395386 75.152908,281.129211 
	C67.577980,285.909454 65.472450,292.650513 62.645775,300.485870 
	C79.660202,296.862152 94.931931,304.843933 110.850609,304.260468 
	C117.107964,304.031128 123.576721,301.972839 129.336212,299.383759 
	C131.741455,298.302521 132.984329,293.800140 133.944122,290.609161 
	C134.682251,288.155182 133.964417,285.298798 134.254242,282.660919 
	C134.424026,281.115540 135.299866,279.647675 136.512405,278.259155 
	C139.552872,283.760620 139.418686,289.413727 138.573914,295.127930 
	C137.823883,300.201172 137.850830,305.612335 135.971222,310.239166 
	C133.605652,316.062317 130.412109,321.945648 126.181572,326.510986 
	C121.250023,331.832855 114.244545,334.279877 106.696518,333.930298 
	C105.838417,333.890564 105.020950,332.973633 103.885353,332.195557 
M100.138397,319.208954 
	C102.755142,315.883545 105.371887,312.558167 107.932411,309.304230 
	C103.815109,308.256073 100.127144,311.968994 98.310349,319.125641 
	C97.935036,319.728973 97.559731,320.332275 97.184418,320.935577 
	C97.584923,321.296814 97.985420,321.658020 98.385918,322.019226 
	C98.773712,321.209015 99.161507,320.398804 100.138397,319.208954 
M123.784225,218.507370 
	C118.481606,220.116058 117.711037,222.832352 121.251900,227.388458 
	C118.412689,229.518005 114.775070,231.244980 117.518013,235.906433 
	C117.819023,236.417984 117.265388,237.491730 116.999290,238.267365 
	C115.881325,241.526138 115.211510,245.069717 113.454987,247.945480 
	C111.213654,251.615005 108.443031,255.147446 105.237633,257.991943 
	C101.712135,261.120453 97.433731,263.400482 92.471634,266.728821 
	C99.633766,265.429321 105.487198,264.252808 111.381470,263.339935 
	C115.031189,262.774689 116.394447,260.247131 116.649002,257.227631 
	C117.012299,252.918243 119.110542,252.721588 122.595467,253.592087 
	C125.134430,254.226288 128.234711,254.690796 127.764061,250.184799 
	C127.717171,249.735916 128.208054,249.089066 128.625961,248.755127 
	C133.281845,245.034958 135.413437,240.003067 136.235703,234.283081 
	C136.921173,229.514572 135.535645,224.781387 135.365936,220.332581 
	C135.153503,214.764023 131.964706,211.984756 130.018356,207.195053 
	C129.819458,200.241470 126.770401,195.139404 120.871475,192.257172 
	C113.324112,197.281540 118.863922,203.710129 118.116486,209.366623 
	C120.308464,210.317139 122.235199,211.152634 123.505356,212.330566 
	C122.759445,212.626053 121.925499,212.796463 121.287613,213.245422 
	C120.249756,213.975922 119.340096,214.888565 118.376328,215.724335 
	C119.602119,216.036163 120.814507,216.444168 122.059578,216.617798 
	C122.650406,216.700180 123.303612,216.335266 124.001099,216.768509 
	C124.089600,217.158417 124.178101,217.548309 123.784225,218.507370 
M73.787735,229.858398 
	C71.874611,229.978546 69.961479,230.098694 68.048355,230.218826 
	C68.412331,230.745926 68.776306,231.273026 69.140282,231.800125 
	C68.186150,233.517181 67.325317,235.295639 66.248634,236.932068 
	C65.371590,238.265106 64.236244,239.428177 63.215427,240.666611 
	C65.322716,241.602798 67.812614,243.748840 69.459160,243.228104 
	C73.101868,242.076126 76.782440,240.023590 77.492210,235.521500 
	C77.050636,235.528778 76.609070,235.536072 76.167496,235.543365 
	C75.434013,233.891678 74.700539,232.239990 73.787735,229.858398 
M123.901077,323.328247 
	C126.253242,318.765320 128.605408,314.202393 130.957581,309.639465 
	C130.509262,309.319611 130.060959,308.999756 129.612656,308.679901 
	C126.869041,311.574005 121.399559,315.129425 121.910141,317.234070 
	C123.259842,322.797577 116.206352,322.974121 116.889000,328.270721 
	C119.456635,326.535004 121.434753,325.197784 123.901077,323.328247 
M111.165863,316.664948 
	C112.961914,314.072449 114.757965,311.479919 116.647331,308.752716 
	C113.219772,308.320007 107.905792,313.346619 106.335968,318.278351 
	C107.817497,317.780518 109.149590,317.332886 111.165863,316.664948 
M104.676704,327.454346 
	C111.054001,328.470215 111.227142,322.346497 114.577011,319.878448 
	C114.160187,319.386871 113.743355,318.895264 113.326530,318.403656 
	C110.414810,321.197510 107.503098,323.991333 104.676704,327.454346 
M91.519547,267.312744 
	C91.519547,267.312744 91.374496,267.582031 91.374496,267.582031 
	C91.374496,267.582031 91.695984,267.533173 91.519547,267.312744 
M115.495613,317.760498 
	C115.495613,317.760498 115.626564,317.459259 115.626564,317.459259 
	C115.626564,317.459259 115.326172,317.531128 115.495613,317.760498 
M89.456902,268.476349 
	C89.456902,268.476349 89.581520,268.414856 89.456902,268.476349 
z"/>
<path fill="#FCFBFA" opacity="1.000000" stroke="none" 
	d="
M269.593567,231.724304 
	C269.613464,225.633545 269.170990,219.840897 269.891663,214.196777 
	C271.523865,201.413834 280.144958,193.339218 290.102356,186.539673 
	C299.645905,180.022781 310.137573,177.959946 321.479584,180.851715 
	C322.575745,181.131195 323.819305,181.035156 324.964905,180.886139 
	C334.508881,179.644821 340.925873,184.265854 344.992065,192.252396 
	C349.055878,200.234177 353.859344,208.246674 355.725830,216.814850 
	C357.304016,224.059555 355.599152,232.180725 354.549133,239.804062 
	C352.154175,257.192139 339.580109,264.443848 324.328491,267.755981 
	C312.140839,270.402771 300.922577,274.331116 290.315643,281.234192 
	C282.865387,286.082855 280.581909,292.682129 277.949524,300.676117 
	C294.622223,296.479919 309.532104,305.025208 325.139709,304.115662 
	C331.600372,303.739136 338.252441,302.110718 344.198517,299.591003 
	C346.706085,298.528412 348.131012,293.842712 349.095825,290.526825 
	C349.953278,287.580200 349.322571,284.228699 349.718933,281.102875 
	C349.841187,280.138611 351.179626,279.328583 351.961182,278.447937 
	C352.540741,279.339325 353.655975,280.255493 353.616089,281.118286 
	C353.257843,288.868958 352.589966,296.605316 352.230896,304.355988 
	C351.973907,309.903381 349.301483,314.402344 346.895935,319.181061 
	C341.922119,329.061798 333.610474,333.894318 323.209930,333.641968 
	C318.710358,333.532745 313.969513,329.915588 309.964844,327.024048 
	C306.626648,324.613678 305.051208,320.691528 303.770844,316.461029 
	C301.822113,310.022064 297.606018,305.138428 290.016479,304.527496 
	C283.324738,303.988892 277.563507,308.475281 276.909424,315.163055 
	C276.699524,317.309082 277.096375,319.530029 276.752441,321.641266 
	C276.557556,322.837494 275.422913,323.880615 274.711517,324.992676 
	C273.827209,323.987579 272.192139,322.995392 272.174622,321.975403 
	C271.997345,311.660797 272.239624,301.431091 276.054291,291.535095 
	C280.780121,279.275269 290.143341,271.861816 301.138824,265.837921 
	C306.098785,263.120575 311.498352,260.767578 315.601929,257.041687 
	C320.208893,252.858734 323.787445,247.927536 325.436371,241.068939 
	C328.335876,229.008240 328.083984,217.055847 327.837708,204.940521 
	C327.735382,199.906174 320.598724,186.241562 316.464569,185.135513 
	C308.488159,183.001526 300.449524,183.439819 293.800262,188.728210 
	C287.743530,193.545364 282.112457,198.997253 276.889160,204.713425 
	C274.828796,206.968231 273.744690,210.615356 273.344086,213.771637 
	C272.713501,218.739777 274.807678,220.027588 279.744446,221.209564 
	C283.947723,222.215942 288.559937,223.726944 291.709656,226.480606 
	C299.261658,233.082977 298.778473,240.189133 291.310516,246.876114 
	C286.612732,251.082626 280.655762,250.801636 276.552734,245.274338 
	C273.633026,241.341141 271.914062,236.516571 269.593567,231.724304 
M330.476288,317.237122 
	C330.191254,317.718750 329.906250,318.200378 328.934052,318.825409 
	C325.728210,321.522247 322.522369,324.219086 319.316498,326.915924 
	C319.692413,327.328949 320.068329,327.742004 320.444214,328.155060 
	C325.517181,327.343414 327.276276,322.554504 330.627625,318.749054 
	C330.777008,318.188416 330.926392,317.627808 331.323822,316.993408 
	C331.206879,316.984406 331.089905,316.975403 330.476288,317.237122 
M315.770447,318.762695 
	C318.242584,315.616577 320.714752,312.470428 323.216431,309.286713 
	C318.378784,309.119324 314.638916,313.074707 313.969666,318.772919 
	C313.460358,319.543823 312.951019,320.314758 312.441711,321.085663 
	C312.690796,321.262756 312.939880,321.439880 313.188965,321.616974 
	C313.883423,320.831757 314.577911,320.046509 315.770447,318.762695 
M343.120728,250.691818 
	C341.969971,251.657303 340.810791,252.613007 339.670715,253.590973 
	C338.487427,254.606079 337.322601,255.642746 336.149689,256.669983 
	C336.711060,257.296448 337.272461,257.922943 337.833862,258.549408 
	C340.022339,256.637207 342.283661,254.795792 344.302246,252.718506 
	C344.540558,252.473267 343.447479,250.934296 343.241608,249.360123 
	C344.636963,247.803894 346.147858,246.335464 347.408417,244.676804 
	C354.186859,235.757462 351.636749,225.732941 350.686005,215.912460 
	C350.641418,215.452042 350.256958,215.028107 350.047241,214.579498 
	C348.528198,211.330368 346.889832,208.130127 345.525726,204.817032 
	C343.392365,199.635605 341.612244,194.246002 335.955688,192.340942 
	C328.908752,197.285217 333.915955,203.741257 333.241455,209.549622 
	C335.110352,210.246353 336.748260,210.856964 338.344452,211.452026 
	C336.635193,213.030869 335.110840,214.438950 333.586456,215.847031 
	C335.366791,216.410522 337.147095,216.973999 338.986908,217.556305 
	C333.874359,221.286377 333.371490,223.228638 336.409363,227.229752 
	C334.154602,229.615814 329.800415,231.033875 332.682343,235.774628 
	C333.050964,236.380997 332.432983,237.671600 332.119019,238.593063 
	C331.061707,241.696152 329.741455,244.722839 328.881165,247.876755 
	C327.618378,252.506226 324.699463,255.607727 320.748474,258.062347 
	C316.416229,260.753845 312.204193,263.638733 307.371613,266.812469 
	C314.008362,265.627960 319.908020,264.491608 325.838135,263.546295 
	C329.712860,262.928619 331.375122,260.617523 331.951111,256.945862 
	C332.124023,255.843826 333.014740,254.453537 333.973053,253.950500 
	C336.880554,252.424255 339.982117,251.267639 343.120728,250.691818 
M281.541290,236.983765 
	C280.310883,237.987549 279.080444,238.991318 277.850037,239.995102 
	C277.980286,240.527756 278.110504,241.060410 278.240723,241.593063 
	C280.863495,242.010742 283.857117,243.412918 286.016113,242.599594 
	C288.782227,241.557587 290.876495,238.732193 293.281372,236.656998 
	C290.553284,234.331757 288.699341,232.751587 286.778168,231.114090 
	C285.203308,233.053802 283.710236,234.892761 281.541290,236.983765 
M333.385376,327.254761 
	C339.410278,324.383209 344.993713,316.023163 345.962708,307.439423 
	C342.522247,311.059601 337.739471,313.802612 337.414246,316.999115 
	C336.982788,321.239807 334.527985,322.845673 332.461151,325.361542 
	C332.177399,325.707001 332.673340,326.693054 333.385376,327.254761 
M330.364502,311.089264 
	C331.283966,310.711426 332.203430,310.333557 333.122894,309.955719 
	C328.522064,308.075775 322.790558,313.262726 321.638519,318.253357 
	C321.978058,318.574677 322.317596,318.895996 322.657135,319.217285 
	C325.068481,316.674652 327.479797,314.131989 330.364502,311.089264 
M308.972290,313.889923 
	C309.532959,311.533508 310.093658,309.177124 310.654327,306.820709 
	C308.527893,307.932404 306.964600,309.498230 306.299744,311.381317 
	C306.059875,312.060699 307.976471,313.501465 308.972290,313.889923 
z"/>
<path fill="#C0AFA0" opacity="1.000000" stroke="none" 
	d="
M190.661179,313.124451 
	C189.986053,302.586792 189.207184,292.437927 189.009460,282.277771 
	C188.780365,270.506683 188.683197,258.708252 189.223267,246.953598 
	C189.823227,233.895752 190.893341,220.837494 192.402161,207.854187 
	C193.010254,202.621490 195.099792,197.504440 196.936035,192.488861 
	C198.400955,188.487488 201.410797,185.539520 205.948425,185.934479 
	C210.541458,186.334244 215.584106,187.056061 216.966553,192.675827 
	C219.481857,202.900574 221.952286,213.149734 223.961899,223.481979 
	C226.277161,235.385803 223.093903,247.128769 222.519562,258.944397 
	C222.226212,264.979034 221.657349,270.179596 217.859268,275.175598 
	C219.319229,276.004974 220.522812,276.688751 222.376495,277.741821 
	C220.382202,281.038269 218.552475,284.062683 216.518784,287.424225 
	C221.690750,288.980652 220.812622,292.172516 219.635284,296.414917 
	C218.298523,301.231781 218.567139,306.479950 217.950623,311.517731 
	C217.690308,313.644775 217.170822,315.799469 216.387772,317.791718 
	C214.300690,323.101807 206.988968,328.624115 202.054977,327.942963 
	C196.211380,327.136261 194.048935,322.070221 191.937241,317.335632 
	C191.400528,316.132294 191.180115,314.787842 190.661179,313.124451 
z"/>
<path fill="#C3B3A4" opacity="1.000000" stroke="none" 
	d="
M247.965454,270.961304 
	C251.209412,270.949280 252.101288,272.558624 251.848236,275.701385 
	C250.963318,286.692047 246.652206,295.754852 237.541046,302.240814 
	C236.817657,302.755768 235.428162,302.431458 234.829132,303.002106 
	C233.929474,303.859100 233.455383,305.162872 232.800308,306.276642 
	C233.258789,306.558502 233.717270,306.840363 234.175735,307.122192 
	C234.808716,306.177673 235.441681,305.233154 236.074661,304.288635 
	C236.416107,304.333984 236.757553,304.379364 237.098999,304.424713 
	C237.174713,305.569061 237.762817,307.108368 237.237732,307.789551 
	C234.922531,310.792999 232.624268,313.984894 229.672333,316.273163 
	C226.679626,318.593018 222.926239,319.931549 219.004944,321.958984 
	C219.501923,317.922058 221.765625,314.962433 225.045364,312.880371 
	C224.538132,311.178864 223.575455,309.574371 223.693863,308.054016 
	C224.113632,302.664429 224.902542,297.303558 225.625137,291.322937 
	C222.685333,288.542542 223.652740,285.400513 230.403076,279.432983 
	C230.752853,278.585938 230.865967,278.271454 231.339569,277.956116 
	C233.623047,276.928375 235.545990,275.901489 237.468948,274.874573 
	C237.151306,274.414185 236.833679,273.953766 236.516037,273.493378 
	C234.690521,275.000854 232.865021,276.508331 230.812744,278.109924 
	C230.293289,278.372833 230.072632,278.609009 229.924042,278.912476 
	C226.141724,279.493988 224.060196,277.516327 225.611694,274.222870 
	C226.809464,271.680267 229.212860,269.705627 231.589935,266.870544 
	C231.372040,266.217010 230.879669,264.740326 230.354507,263.165314 
	C228.943756,263.342316 227.736023,263.493866 225.568039,263.765900 
	C227.154205,261.406403 228.229187,259.807312 229.440613,258.005249 
	C225.977554,254.259445 226.562317,250.944901 230.786499,247.831421 
	C234.101624,245.387970 237.104279,242.520538 240.283463,239.809280 
	C239.481659,238.947281 238.829376,238.246048 238.082626,237.263214 
	C237.988159,236.981613 237.994553,237.026749 237.994568,237.026764 
	C241.340286,234.725052 244.686005,232.423340 249.352676,229.212860 
	C248.774704,231.675964 248.564590,232.755600 248.262100,233.808731 
	C247.958374,234.866165 247.034302,236.060883 247.297943,236.911591 
	C248.478867,240.722305 251.097809,244.419037 251.140976,248.180511 
	C251.226303,255.617203 254.321915,263.714508 247.975342,270.717896 
	C247.846664,271.088074 247.901291,271.314697 247.901291,271.314697 
	C247.901291,271.314697 247.965454,270.961304 247.965454,270.961304 
M242.487244,270.719696 
	C241.217453,271.049713 239.947647,271.379730 238.677856,271.709747 
	C238.844513,272.122375 239.011169,272.535034 239.177826,272.947662 
	C240.252121,272.401642 241.326431,271.855621 242.487244,270.719696 
M248.475403,248.790955 
	C248.331879,248.291138 248.188339,247.791321 248.044815,247.291504 
	C247.725021,247.580368 247.405228,247.869232 247.085419,248.158081 
	C247.408051,248.507401 247.730682,248.856735 248.475403,248.790955 
z"/>
<path fill="#C3B3A4" opacity="1.000000" stroke="none" 
	d="
M181.014328,250.988693 
	C184.958725,250.831741 186.222961,252.982941 186.085907,256.611664 
	C185.751099,265.477997 185.342957,274.348022 185.323090,283.217346 
	C185.311432,288.415192 187.503632,293.793091 183.020111,298.769226 
	C182.200089,299.198181 181.817856,299.330139 181.435638,299.462097 
	C179.078140,300.238586 176.760803,301.200378 174.348373,301.723450 
	C172.850906,302.048157 171.209183,301.707581 169.632233,301.665619 
	C170.388962,300.463013 171.023758,299.155853 171.938583,298.088776 
	C172.764160,297.125793 173.896149,296.425507 174.893021,295.609375 
	C174.669083,295.186401 174.445145,294.763428 174.221191,294.340454 
	C171.990936,295.402222 169.760681,296.463989 167.280594,297.644684 
	C166.412430,296.279419 165.629990,295.048950 164.760986,293.682373 
	C170.626831,291.147797 177.022552,289.658783 180.954483,284.292358 
	C180.743469,283.887146 180.532455,283.481964 180.321442,283.076752 
	C176.495789,284.977631 172.670135,286.878479 168.844482,288.779358 
	C168.388779,288.239166 167.933075,287.698975 167.477371,287.158783 
	C170.878342,284.777039 174.279312,282.395294 177.680283,280.013580 
	C177.244080,279.478851 176.807892,278.944092 176.371704,278.409363 
	C172.421814,280.096466 168.471924,281.783569 163.627396,283.852783 
	C164.383728,281.953522 164.773895,280.973785 165.163147,279.991760 
	C159.295135,277.025177 159.139160,275.622986 164.237381,271.614349 
	C166.565887,269.783478 168.900391,267.960236 171.600815,265.844727 
	C170.669830,264.781342 169.650528,263.617035 168.313690,262.228180 
	C167.996170,262.003601 167.880585,261.912476 167.880585,261.912476 
	C171.391693,259.561127 174.957596,257.285553 178.379745,254.811188 
	C179.376907,254.090179 179.963776,252.801727 180.863770,251.394165 
	C180.988815,251.014969 181.014328,250.988693 181.014328,250.988693 
z"/>
<path fill="#C3B3A4" opacity="1.000000" stroke="none" 
	d="
M185.992096,214.988983 
	C186.414536,215.216965 187.222412,215.484680 187.203598,215.667160 
	C186.582657,221.690491 185.894302,227.707031 185.183105,233.720718 
	C185.056671,234.789795 184.921783,235.891617 184.553757,236.891022 
	C183.892075,238.687866 183.544464,241.166275 182.202347,242.052368 
	C174.929504,246.854111 167.392212,251.255341 159.946014,255.794556 
	C159.563232,255.446640 159.180450,255.098724 158.797668,254.750809 
	C161.527969,251.805542 164.258270,248.860260 166.988556,245.914993 
	C166.744934,245.701202 166.501297,245.487427 166.257660,245.273636 
	C165.848801,245.481369 165.455963,245.733063 165.028229,245.889008 
	C163.453766,246.463013 161.867722,247.005280 160.286041,247.559494 
	C160.501480,245.914276 160.681595,244.263428 160.942490,242.625458 
	C161.194000,241.046402 161.698792,239.491257 161.797470,237.907227 
	C162.204407,231.374741 162.289780,231.128464 167.823425,226.881195 
	C166.562729,226.647858 165.654480,226.479752 164.458313,226.258362 
	C171.147247,218.454041 179.239151,213.089462 187.738937,208.285172 
	C188.021240,208.586975 188.303528,208.888779 188.585831,209.190582 
	C187.710861,210.903229 186.835892,212.615875 185.674820,214.610138 
	C184.733292,215.259872 184.077866,215.628021 183.422440,215.996170 
	C184.049072,216.686722 184.675705,217.377289 185.302353,218.067841 
	C185.532272,217.041565 185.762192,216.015274 185.992096,214.988983 
M172.770187,243.804886 
	C175.767929,241.895355 178.765656,239.985825 181.763397,238.076309 
	C181.568832,237.716751 181.374268,237.357178 181.179703,236.997620 
	C177.851746,238.292740 174.515152,239.568039 171.244492,240.994492 
	C171.160629,241.031082 171.799744,242.725403 172.770187,243.804886 
z"/>
<path fill="#C4B4A6" opacity="1.000000" stroke="none" 
	d="
M181.264053,299.849121 
	C181.817856,299.330139 182.200089,299.198181 182.726196,299.071838 
	C183.761230,300.221283 184.845749,301.270325 185.470367,302.544769 
	C185.840561,303.300079 185.064835,304.776947 185.523254,305.303436 
	C188.767929,309.029816 186.188507,310.838409 183.247925,312.311493 
	C191.113968,314.488739 189.454514,322.805115 193.545166,327.246338 
	C184.874054,322.080566 176.523575,316.714722 173.190613,306.547089 
	C175.891525,304.389954 178.491989,302.313019 181.264053,299.849121 
z"/>
<path fill="#C8B9AC" opacity="1.000000" stroke="none" 
	d="
M238.105042,212.532104 
	C238.428055,213.438293 238.960327,214.136353 239.665024,215.060532 
	C236.151810,217.715607 232.619461,220.385132 229.087112,223.054657 
	C228.731964,222.635101 228.376801,222.215546 228.021652,221.796005 
	C230.085526,219.988251 232.149399,218.180481 235.127686,215.571793 
	C231.804550,215.188080 229.476288,214.919250 227.148026,214.650406 
	C226.855988,214.302139 226.563934,213.953857 226.271896,213.605576 
	C228.657990,211.780807 231.016876,209.915268 233.510101,208.250992 
	C233.635483,208.167297 234.922989,209.824539 235.896149,210.928375 
	C236.781555,210.582138 238.097610,210.067490 239.413666,209.552826 
	C239.636200,209.795212 239.858734,210.037582 240.081268,210.279968 
	C239.492279,210.961319 238.903305,211.642654 238.105042,212.532104 
z"/>
<path fill="#CCBEB2" opacity="1.000000" stroke="none" 
	d="
M234.121857,203.334137 
	C234.736420,204.016724 235.218277,204.412643 235.557739,204.691559 
	C232.703659,205.504166 229.864731,206.312469 225.898880,207.441620 
	C225.755585,205.983185 224.600433,203.064026 225.551086,201.245926 
	C226.387024,199.647171 229.530182,198.980423 231.771484,198.609268 
	C232.252502,198.529587 233.236710,201.488373 234.121857,203.334137 
z"/>
<path fill="#C8B9AC" opacity="1.000000" stroke="none" 
	d="
M189.444672,201.717102 
	C185.632614,205.081665 181.934967,208.133041 178.237335,211.184418 
	C177.744064,210.608017 177.250809,210.031631 176.757553,209.455231 
	C180.619919,206.358215 184.478165,203.255875 188.388611,200.220795 
	C188.441086,200.180084 189.154282,200.990677 189.444672,201.717102 
z"/>
<path fill="#CCBEB2" opacity="1.000000" stroke="none" 
	d="
M233.706573,234.669128 
	C237.645035,230.711578 241.583511,226.754044 245.521988,222.796509 
	C246.158798,223.511566 246.795609,224.226608 247.432419,224.941666 
	C243.241684,228.292709 239.050964,231.643753 234.406311,234.964294 
	C233.952393,234.933807 233.706573,234.669128 233.706573,234.669128 
z"/>
<path fill="#C4B4A6" opacity="1.000000" stroke="none" 
	d="
M180.974899,251.028503 
	C179.729279,250.958679 178.497559,250.875305 177.265854,250.791916 
	C177.073410,250.399994 176.880981,250.008087 176.688538,249.616165 
	C179.250702,247.365692 181.812851,245.115219 184.375000,242.864731 
	C184.960754,243.381088 185.546509,243.897446 186.132248,244.413803 
	C184.503433,246.390335 182.874619,248.366852 181.130066,250.666031 
	C181.014328,250.988693 180.988815,251.014969 180.974899,251.028503 
z"/>
<path fill="#CCBEB2" opacity="1.000000" stroke="none" 
	d="
M238.008911,236.971558 
	C235.080917,239.764999 232.132202,242.568497 229.183487,245.371979 
	C228.796448,245.259125 228.409424,245.146271 228.022385,245.033417 
	C228.764923,243.485641 229.320099,241.804276 230.302032,240.427216 
	C231.309296,239.014587 232.733887,237.899521 233.987488,236.319489 
	C233.999146,235.984741 233.958710,236.021088 233.958710,236.021088 
	C235.153885,236.165894 236.349075,236.310699 237.769409,236.741119 
	C237.994553,237.026749 237.988159,236.981613 238.008911,236.971558 
z"/>
<path fill="#C8B9AC" opacity="1.000000" stroke="none" 
	d="
M235.501465,228.543274 
	C233.602921,230.722519 231.704376,232.901749 228.800674,236.234741 
	C228.389389,232.902512 228.155838,231.010269 228.008453,229.816162 
	C230.524811,229.077408 232.355728,228.539886 234.669510,228.094940 
	C235.152374,228.187515 235.501465,228.543274 235.501465,228.543274 
z"/>
<path fill="#C8B9AC" opacity="1.000000" stroke="none" 
	d="
M168.041748,262.061371 
	C166.358154,265.909760 163.809799,268.632416 159.849380,269.514130 
	C159.476028,269.028503 159.102661,268.542877 158.729309,268.057251 
	C161.553299,266.044617 164.377304,264.031982 167.540939,261.965942 
	C167.880585,261.912476 167.996170,262.003601 168.041748,262.061371 
z"/>
<path fill="#C8B9AC" opacity="1.000000" stroke="none" 
	d="
M188.509781,196.523773 
	C186.546463,197.901703 184.874466,199.078644 183.202469,200.255600 
	C182.864212,199.823135 182.525970,199.390671 182.187714,198.958221 
	C185.227524,196.509567 188.267349,194.060928 191.307159,191.612289 
	C191.726166,192.054596 192.145172,192.496918 192.564194,192.939224 
	C191.309830,194.067093 190.055466,195.194946 188.509781,196.523773 
z"/>
<path fill="#C8B9AC" opacity="1.000000" stroke="none" 
	d="
M224.493713,190.903717 
	C223.781372,192.449387 223.053162,193.655075 221.763184,195.790817 
	C220.673264,193.135742 219.979248,191.445114 219.285233,189.754471 
	C219.576721,189.393890 219.868225,189.033310 220.159729,188.672745 
	C221.599091,189.303055 223.038452,189.933380 224.493713,190.903717 
z"/>
<path fill="#C8B9AC" opacity="1.000000" stroke="none" 
	d="
M240.207916,224.198166 
	C238.832245,225.559067 237.456573,226.919952 235.791183,228.412064 
	C235.501465,228.543274 235.152374,228.187515 234.984955,228.002319 
	C236.243134,226.521332 237.668716,225.225525 239.534210,223.947845 
	C239.974121,223.965958 240.207916,224.198166 240.207916,224.198166 
z"/>
<path fill="#C4B4A6" opacity="1.000000" stroke="none" 
	d="
M174.510956,254.343887 
	C173.626068,254.702072 173.014038,254.863174 171.311890,255.311249 
	C172.915909,253.345779 173.877838,252.167084 174.839767,250.988388 
	C175.190552,251.194305 175.541336,251.400223 175.892120,251.606155 
	C175.522690,252.453033 175.153275,253.299927 174.510956,254.343887 
z"/>
<path fill="#C8B9AC" opacity="1.000000" stroke="none" 
	d="
M242.823761,220.837540 
	C242.987015,219.643799 243.150269,218.450073 243.313522,217.256332 
	C243.715561,217.322159 244.117599,217.387985 244.519623,217.453812 
	C244.300735,218.625748 244.081863,219.797684 243.488464,221.042755 
	C243.113968,221.115921 242.823761,220.837540 242.823761,220.837540 
z"/>
<path fill="#CCBEB2" opacity="1.000000" stroke="none" 
	d="
M234.015869,235.963318 
	C233.030273,236.485703 232.027954,237.029526 231.025635,237.573334 
	C230.836792,237.348434 230.647934,237.123535 230.459091,236.898636 
	C231.351212,236.226868 232.243332,235.555115 233.421021,234.776245 
	C233.706573,234.669128 233.952393,234.933807 234.079391,235.064331 
	C234.206390,235.194839 234.099365,235.613220 234.029037,235.817154 
	C233.958710,236.021088 233.999146,235.984741 234.015869,235.963318 
z"/>
<path fill="#C8B9AC" opacity="1.000000" stroke="none" 
	d="
M180.579987,202.628845 
	C179.881546,203.165054 179.349915,203.448959 178.818298,203.732849 
	C178.731705,203.280746 178.645111,202.828629 178.558517,202.376526 
	C179.287949,202.376526 180.017380,202.376526 180.579987,202.628845 
z"/>
<path fill="#C8B9AC" opacity="1.000000" stroke="none" 
	d="
M173.854858,212.413940 
	C174.097488,212.436554 174.225861,212.565735 174.354248,212.694916 
	C174.149704,212.636780 173.945160,212.578659 173.854858,212.413940 
z"/>
<path fill="#C8B9AC" opacity="1.000000" stroke="none" 
	d="
M236.379578,207.437317 
	C236.481628,207.366913 236.536392,207.629471 236.536392,207.629471 
	C236.536392,207.629471 236.277512,207.507721 236.379578,207.437317 
z"/>
<path fill="#C8B9AC" opacity="1.000000" stroke="none" 
	d="
M176.534790,204.517059 
	C176.523209,204.497147 176.546356,204.536972 176.534790,204.517059 
z"/>
<path fill="#C8B9AC" opacity="1.000000" stroke="none" 
	d="
M239.857300,223.849762 
	C239.894272,223.442047 240.106445,223.202194 240.705475,223.018845 
	C241.033936,223.023666 241.258179,223.250000 241.258179,223.250000 
	C241.123611,223.554565 240.915726,223.795975 240.421234,224.086212 
	C240.207916,224.198166 239.974121,223.965958 239.857300,223.849762 
z"/>
<path fill="#C8B9AC" opacity="1.000000" stroke="none" 
	d="
M243.257660,221.256561 
	C243.231964,221.672638 243.028152,221.919724 242.432785,222.113312 
	C242.075623,222.088165 241.763123,221.780228 241.763123,221.780228 
	C241.909622,221.483749 242.121109,221.244781 242.610672,220.950439 
	C242.823761,220.837540 243.113968,221.115921 243.257660,221.256561 
z"/>
<path fill="#C8B9AC" opacity="1.000000" stroke="none" 
	d="
M240.921967,222.910339 
	C240.937836,222.501938 241.125168,222.251297 241.567535,221.912659 
	C241.763123,221.780228 242.075623,222.088165 242.231766,222.247375 
	C242.185913,222.654449 241.948090,222.861053 241.466309,223.138184 
	C241.258179,223.250000 241.033936,223.023666 240.921967,222.910339 
z"/>
<path fill="#C3B3A4" opacity="1.000000" stroke="none" 
	d="
M430.475830,262.721069 
	C423.522644,264.176025 416.947845,265.481720 409.160187,267.028290 
	C414.431824,263.580933 419.049835,261.117462 422.965851,257.820282 
	C425.980682,255.281845 428.509460,251.928040 430.519592,248.505280 
	C432.321198,245.437576 433.138489,241.787476 434.346741,238.378967 
	C434.618958,237.611038 435.130524,236.523056 434.821106,236.017014 
	C431.969727,231.353775 435.976837,229.659058 437.676300,227.961884 
	C437.429688,224.956558 437.232849,222.558289 437.036041,220.160034 
	C438.452759,220.064011 439.869476,219.968002 442.125671,219.815094 
	C441.440521,218.907013 440.847198,217.667908 439.871063,216.947525 
	C438.781433,216.143387 437.344147,215.810287 436.058197,215.272156 
	C437.336823,214.427887 438.627441,213.600769 439.883636,212.724350 
	C440.123566,212.556961 440.227844,212.195145 440.605255,211.579666 
	C438.928619,210.924683 437.323395,210.297592 435.347198,209.525574 
	C436.966522,204.115372 430.642761,197.813538 438.117828,192.576172 
	C444.120911,194.145660 445.533905,199.931122 447.740936,205.110657 
	C449.088837,208.274002 450.659363,211.342575 452.134491,214.451523 
	C452.345245,214.895660 452.757751,215.318298 452.780975,215.766220 
	C453.288422,225.550323 456.822754,235.820602 449.554871,244.537399 
	C446.751190,247.899994 443.163269,251.425293 439.215576,252.767670 
	C435.855072,253.910400 433.914764,254.524094 433.458282,258.240479 
	C433.270691,259.767853 431.761993,261.132965 430.475830,262.721069 
z"/>
<path fill="#C4B4A6" opacity="1.000000" stroke="none" 
	d="
M394.007538,238.010773 
	C392.196716,239.687775 390.491119,240.982681 388.953278,242.453049 
	C385.496460,245.758133 383.499786,241.374771 380.755249,240.987854 
	C380.887451,240.095581 380.691071,238.850906 381.206848,238.370010 
	C383.931763,235.829208 386.835968,233.480743 389.335449,231.356735 
	C390.737671,232.321854 392.572144,233.323364 394.024078,234.721970 
	C394.549957,235.228531 394.160614,236.685196 394.007538,238.010773 
z"/>
<path fill="#C4B4A6" opacity="1.000000" stroke="none" 
	d="
M448.337860,309.314728 
	C446.347931,313.455414 444.697449,317.812744 442.243835,321.657532 
	C440.713135,324.056122 437.969971,325.680908 435.102783,326.989563 
	C439.799835,321.319611 439.604340,312.494232 447.625610,309.030396 
	C448.076691,309.059113 448.337860,309.314728 448.337860,309.314728 
z"/>
<path fill="#CCBEB2" opacity="1.000000" stroke="none" 
	d="
M433.749969,308.444611 
	C431.563629,312.830200 429.580750,317.548767 423.890778,318.407410 
	C424.153259,314.930450 430.361847,308.350800 433.749969,308.444611 
z"/>
<path fill="#C8B9AC" opacity="1.000000" stroke="none" 
	d="
M416.650665,315.249969 
	C421.447266,309.184509 421.856018,308.925568 425.285706,309.533356 
	C421.935242,313.532318 418.569641,317.549347 414.570923,322.322021 
	C415.407196,319.351929 415.944885,317.442322 416.650665,315.249969 
z"/>
<path fill="#C8B9AC" opacity="1.000000" stroke="none" 
	d="
M427.372375,321.373047 
	C428.670685,320.330109 429.775757,319.583435 430.880829,318.836761 
	C431.175568,319.236206 431.470306,319.635651 431.765015,320.035126 
	C428.955292,323.033478 427.396973,327.436188 422.551849,328.150452 
	C421.979797,327.570435 421.407776,326.990387 420.835754,326.410339 
	C422.950195,324.830017 425.064667,323.249664 427.372375,321.373047 
z"/>
<path fill="#C4B4A6" opacity="1.000000" stroke="none" 
	d="
M447.947510,308.929901 
	C448.055145,308.885132 448.291962,308.969543 448.433319,309.184326 
	C448.337860,309.314728 448.076691,309.059113 447.947510,308.929901 
z"/>
<path fill="#C3B3A4" opacity="1.000000" stroke="none" 
	d="
M129.984924,208.030533 
	C131.964706,211.984756 135.153503,214.764023 135.365936,220.332581 
	C135.535645,224.781387 136.921173,229.514572 136.235703,234.283081 
	C135.413437,240.003067 133.281845,245.034958 128.625961,248.755127 
	C128.208054,249.089066 127.717171,249.735916 127.764061,250.184799 
	C128.234711,254.690796 125.134430,254.226288 122.595467,253.592087 
	C119.110542,252.721588 117.012299,252.918243 116.649002,257.227631 
	C116.394447,260.247131 115.031189,262.774689 111.381470,263.339935 
	C105.487198,264.252808 99.633766,265.429321 92.471634,266.728821 
	C97.433731,263.400482 101.712135,261.120453 105.237633,257.991943 
	C108.443031,255.147446 111.213654,251.615005 113.454987,247.945480 
	C115.211510,245.069717 115.881325,241.526138 116.999290,238.267365 
	C117.265388,237.491730 117.819023,236.417984 117.518013,235.906433 
	C114.775070,231.244980 118.412689,229.518005 121.251900,227.388458 
	C117.711037,222.832352 118.481606,220.116058 124.268440,218.133636 
	C126.250252,217.153778 127.747856,216.547653 129.245453,215.941513 
	C128.984665,215.346771 128.723892,214.752029 128.463104,214.157288 
	C126.951591,214.829193 125.440079,215.501099 123.928566,216.173004 
	C123.303612,216.335266 122.650406,216.700180 122.059578,216.617798 
	C120.814507,216.444168 119.602119,216.036163 118.376328,215.724335 
	C119.340096,214.888565 120.249756,213.975922 121.287613,213.245422 
	C121.925499,212.796463 122.759445,212.626053 124.130707,212.105591 
	C126.299805,211.880600 127.843559,211.880600 129.257004,211.880600 
	C129.504379,210.572159 129.744659,209.301346 129.984924,208.030533 
M124.589142,221.066177 
	C124.589142,221.066177 124.461342,220.879242 124.461342,220.879242 
	C124.461342,220.879242 124.473930,221.116943 124.589142,221.066177 
M131.472305,215.498962 
	C131.472305,215.498962 131.513535,215.483383 131.472305,215.498962 
z"/>
<path fill="#C4B4A6" opacity="1.000000" stroke="none" 
	d="
M130.001648,207.612793 
	C129.744659,209.301346 129.504379,210.572159 129.257004,211.880600 
	C127.843559,211.880600 126.299805,211.880600 124.459000,211.934357 
	C122.235199,211.152634 120.308464,210.317139 118.116486,209.366623 
	C118.863922,203.710129 113.324112,197.281540 120.871475,192.257172 
	C126.770401,195.139404 129.819458,200.241470 130.001648,207.612793 
z"/>
<path fill="#C4B4A6" opacity="1.000000" stroke="none" 
	d="
M73.877396,230.223358 
	C74.700539,232.239990 75.434013,233.891678 76.167496,235.543365 
	C76.609070,235.536072 77.050636,235.528778 77.492210,235.521500 
	C76.782440,240.023590 73.101868,242.076126 69.459160,243.228104 
	C67.812614,243.748840 65.322716,241.602798 63.215431,240.666611 
	C64.236244,239.428177 65.371590,238.265106 66.248634,236.932068 
	C67.325317,235.295639 68.186150,233.517181 69.140282,231.800125 
	C68.776306,231.273026 68.412331,230.745926 68.048355,230.218826 
	C69.961479,230.098694 71.874611,229.978546 73.877396,230.223358 
z"/>
<path fill="#C8B9AC" opacity="1.000000" stroke="none" 
	d="
M123.656975,323.594421 
	C121.434753,325.197784 119.456635,326.535004 116.889000,328.270721 
	C116.206352,322.974121 123.259842,322.797577 121.910141,317.234070 
	C121.399559,315.129425 126.869041,311.574005 129.612656,308.679901 
	C130.060959,308.999756 130.509262,309.319611 130.957581,309.639465 
	C128.605408,314.202393 126.253242,318.765320 123.656975,323.594421 
z"/>
<path fill="#C8B9AC" opacity="1.000000" stroke="none" 
	d="
M110.823776,316.775116 
	C109.149590,317.332886 107.817497,317.780518 106.335968,318.278351 
	C107.905792,313.346619 113.219772,308.320007 116.647331,308.752716 
	C114.757965,311.479919 112.961914,314.072449 110.823776,316.775116 
z"/>
<path fill="#C8B9AC" opacity="1.000000" stroke="none" 
	d="
M104.634041,327.119751 
	C107.503098,323.991333 110.414810,321.197510 113.326530,318.403656 
	C113.743355,318.895264 114.160187,319.386871 114.577011,319.878448 
	C111.227142,322.346497 111.054001,328.470215 104.634041,327.119751 
z"/>
<path fill="#C8B9AC" opacity="1.000000" stroke="none" 
	d="
M98.781609,318.810516 
	C100.127144,311.968994 103.815109,308.256073 107.932411,309.304230 
	C105.371887,312.558167 102.755142,315.883545 99.660599,319.195679 
	C99.049072,319.058441 98.915344,318.934479 98.781609,318.810516 
z"/>
<path fill="#C4B4A6" opacity="1.000000" stroke="none" 
	d="
M123.964828,216.470764 
	C125.440079,215.501099 126.951591,214.829193 128.463104,214.157288 
	C128.723892,214.752029 128.984665,215.346771 129.245453,215.941513 
	C127.747856,216.547653 126.250252,217.153778 124.509628,217.849060 
	C124.178101,217.548309 124.089600,217.158417 123.964828,216.470764 
z"/>
<path fill="#C8B9AC" opacity="1.000000" stroke="none" 
	d="
M99.366058,319.385498 
	C99.161507,320.398804 98.773712,321.209015 98.385918,322.019226 
	C97.985420,321.658020 97.584923,321.296814 97.184418,320.935577 
	C97.559731,320.332275 97.935036,319.728973 98.545975,318.968079 
	C98.915344,318.934479 99.049072,319.058441 99.366058,319.385498 
z"/>
<path fill="#C3B3A4" opacity="1.000000" stroke="none" 
	d="
M91.607765,267.422974 
	C91.695984,267.533173 91.374496,267.582031 91.374496,267.582031 
	C91.374496,267.582031 91.519547,267.312744 91.607765,267.422974 
z"/>
<path fill="#C8B9AC" opacity="1.000000" stroke="none" 
	d="
M115.410889,317.645813 
	C115.326172,317.531128 115.626564,317.459259 115.626564,317.459259 
	C115.626564,317.459259 115.495613,317.760498 115.410889,317.645813 
z"/>
<path fill="#C3B3A4" opacity="1.000000" stroke="none" 
	d="
M89.519211,268.445618 
	C89.581520,268.414856 89.456902,268.476349 89.519211,268.445618 
z"/>
<path fill="#C3B3A4" opacity="1.000000" stroke="none" 
	d="
M343.008087,249.967041 
	C339.982117,251.267639 336.880554,252.424255 333.973053,253.950500 
	C333.014740,254.453537 332.124023,255.843826 331.951111,256.945862 
	C331.375122,260.617523 329.712860,262.928619 325.838135,263.546295 
	C319.908020,264.491608 314.008362,265.627960 307.371613,266.812469 
	C312.204193,263.638733 316.416229,260.753845 320.748474,258.062347 
	C324.699463,255.607727 327.618378,252.506226 328.881165,247.876755 
	C329.741455,244.722839 331.061707,241.696152 332.119019,238.593063 
	C332.432983,237.671600 333.050964,236.380997 332.682343,235.774628 
	C329.800415,231.033875 334.154602,229.615814 336.410217,227.230103 
	C333.371490,223.228638 333.874359,221.286377 338.986908,217.556305 
	C337.147095,216.973999 335.366791,216.410522 333.586456,215.847015 
	C335.110840,214.438950 336.635193,213.030869 338.344452,211.452026 
	C336.748260,210.856964 335.110352,210.246353 333.241455,209.549622 
	C333.915955,203.741257 328.908752,197.285217 335.955688,192.340942 
	C341.612244,194.246002 343.392365,199.635605 345.525726,204.817032 
	C346.889832,208.130127 348.528198,211.330368 350.047241,214.579498 
	C350.256958,215.028107 350.641418,215.452042 350.686005,215.912460 
	C351.636749,225.732941 354.186859,235.757462 347.408417,244.676804 
	C346.147858,246.335464 344.636963,247.803894 343.126892,249.685425 
	C343.012146,250.010712 343.008087,249.967041 343.008087,249.967041 
M338.759521,220.795654 
	C339.010742,220.679047 339.261963,220.562439 339.513153,220.445816 
	C339.439972,220.312256 339.326111,220.055511 339.299866,220.064178 
	C339.036926,220.150940 338.788361,220.281342 338.759521,220.795654 
z"/>
<path fill="#C4B4A6" opacity="1.000000" stroke="none" 
	d="
M281.879211,236.857727 
	C283.710236,234.892761 285.203308,233.053802 286.778168,231.114090 
	C288.699341,232.751587 290.553284,234.331757 293.281372,236.656998 
	C290.876495,238.732193 288.782227,241.557587 286.016113,242.599594 
	C283.857117,243.412918 280.863495,242.010742 278.240723,241.593063 
	C278.110504,241.060410 277.980286,240.527756 277.850037,239.995102 
	C279.080444,238.991318 280.310883,237.987549 281.879211,236.857727 
z"/>
<path fill="#C8B9AC" opacity="1.000000" stroke="none" 
	d="
M333.096863,327.318634 
	C332.673340,326.693054 332.177399,325.707001 332.461151,325.361542 
	C334.527985,322.845673 336.982788,321.239807 337.414246,316.999115 
	C337.739471,313.802612 342.522247,311.059601 345.962708,307.439423 
	C344.993713,316.023163 339.410278,324.383209 333.096863,327.318634 
z"/>
<path fill="#CCBEB2" opacity="1.000000" stroke="none" 
	d="
M330.127808,311.339294 
	C327.479797,314.131989 325.068481,316.674652 322.657135,319.217285 
	C322.317596,318.895996 321.978058,318.574677 321.638519,318.253357 
	C322.790558,313.262726 328.522064,308.075775 333.122894,309.955719 
	C332.203430,310.333557 331.283966,310.711426 330.127808,311.339294 
z"/>
<path fill="#C8B9AC" opacity="1.000000" stroke="none" 
	d="
M330.199341,319.162598 
	C327.276276,322.554504 325.517181,327.343414 320.444214,328.155060 
	C320.068329,327.742004 319.692413,327.328949 319.316498,326.915924 
	C322.522369,324.219086 325.728210,321.522247 329.422424,318.873535 
	C329.910797,318.921692 330.199341,319.162598 330.199341,319.162598 
z"/>
<path fill="#C8B9AC" opacity="1.000000" stroke="none" 
	d="
M314.441132,318.475830 
	C314.638916,313.074707 318.378784,309.119324 323.216431,309.286713 
	C320.714752,312.470428 318.242584,315.616577 315.319580,318.809265 
	C314.726196,318.729156 314.583679,318.602509 314.441132,318.475830 
z"/>
<path fill="#CCBEB2" opacity="1.000000" stroke="none" 
	d="
M342.991852,250.002869 
	C343.447479,250.934296 344.540558,252.473267 344.302246,252.718506 
	C342.283661,254.795792 340.022339,256.637207 337.833862,258.549408 
	C337.272461,257.922943 336.711060,257.296448 336.149689,256.669983 
	C337.322601,255.642746 338.487427,254.606079 339.670715,253.590973 
	C340.810791,252.613007 341.969971,251.657303 343.064392,250.329437 
	C343.008087,249.967041 343.012146,250.010712 342.991852,250.002869 
z"/>
<path fill="#CCBEB2" opacity="1.000000" stroke="none" 
	d="
M308.940674,314.242340 
	C307.976471,313.501465 306.059875,312.060699 306.299744,311.381317 
	C306.964600,309.498230 308.527893,307.932404 310.654327,306.820709 
	C310.093658,309.177124 309.532959,311.533508 308.940674,314.242340 
z"/>
<path fill="#C8B9AC" opacity="1.000000" stroke="none" 
	d="
M315.070557,319.058533 
	C314.577911,320.046509 313.883423,320.831757 313.188965,321.616974 
	C312.939880,321.439880 312.690796,321.262756 312.441711,321.085663 
	C312.951019,320.314758 313.460358,319.543823 314.205383,318.624390 
	C314.583679,318.602509 314.726196,318.729156 315.070557,319.058533 
z"/>
<path fill="#C8B9AC" opacity="1.000000" stroke="none" 
	d="
M329.765991,318.801849 
	C329.906250,318.200378 330.191254,317.718750 330.749725,317.127563 
	C331.023163,317.018005 331.075775,317.067169 331.075775,317.067169 
	C330.926392,317.627808 330.777008,318.188416 330.413483,318.955811 
	C330.199341,319.162598 329.910797,318.921692 329.765991,318.801849 
z"/>
<path fill="#C8B9AC" opacity="1.000000" stroke="none" 
	d="
M330.998047,316.992188 
	C331.089905,316.975403 331.206879,316.984406 331.199799,317.030273 
	C331.075775,317.067169 331.023163,317.018005 330.998047,316.992188 
z"/>
<path fill="#FBFAF9" opacity="1.000000" stroke="none" 
	d="
M231.039505,278.015808 
	C232.865021,276.508331 234.690521,275.000854 236.516037,273.493378 
	C236.833679,273.953766 237.151306,274.414185 237.468948,274.874573 
	C235.545990,275.901489 233.623047,276.928375 231.352676,277.973083 
	C231.005264,277.990845 231.039505,278.015808 231.039505,278.015808 
z"/>
<path fill="#FBFAF9" opacity="1.000000" stroke="none" 
	d="
M242.444000,271.014648 
	C241.326431,271.855621 240.252121,272.401642 239.177826,272.947662 
	C239.011169,272.535034 238.844513,272.122375 238.677856,271.709747 
	C239.947647,271.379730 241.217453,271.049713 242.444000,271.014648 
z"/>
<path fill="#FBFAF9" opacity="1.000000" stroke="none" 
	d="
M248.264359,248.998505 
	C247.730682,248.856735 247.408051,248.507401 247.085419,248.158081 
	C247.405228,247.869232 247.725021,247.580368 248.044800,247.291504 
	C248.188339,247.791321 248.331879,248.291138 248.264359,248.998505 
z"/>
<path fill="#FBFAF9" opacity="1.000000" stroke="none" 
	d="
M230.023621,279.008667 
	C230.072632,278.609009 230.293289,278.372833 230.812744,278.109924 
	C231.039505,278.015808 231.005264,277.990845 230.992157,277.973877 
	C230.865967,278.271454 230.752853,278.585938 230.482574,279.097260 
	C230.325409,279.294067 230.123215,279.104858 230.023621,279.008667 
z"/>
<path fill="#FBFAF9" opacity="1.000000" stroke="none" 
	d="
M247.979095,270.975647 
	C247.965454,270.961304 247.901291,271.314697 247.901291,271.314697 
	C247.901291,271.314697 247.846664,271.088074 247.934692,271.051422 
	C248.022736,271.014771 247.992752,270.989960 247.979095,270.975647 
z"/>
<path fill="#FBFAF9" opacity="1.000000" stroke="none" 
	d="
M172.435944,243.725754 
	C171.799744,242.725403 171.160629,241.031082 171.244492,240.994492 
	C174.515152,239.568039 177.851746,238.292740 181.179703,236.997620 
	C181.374268,237.357178 181.568832,237.716751 181.763397,238.076309 
	C178.765656,239.985825 175.767929,241.895355 172.435944,243.725754 
z"/>
<path fill="#FBFAF9" opacity="1.000000" stroke="none" 
	d="
M185.999084,214.997955 
	C185.762192,216.015274 185.532272,217.041565 185.302353,218.067841 
	C184.675705,217.377289 184.049072,216.686722 183.422440,215.996170 
	C184.077866,215.628021 184.733292,215.259872 185.706100,214.959229 
	C186.023483,215.026733 186.006088,215.006927 185.999084,214.997955 
z"/>
<path fill="#C4B4A6" opacity="1.000000" stroke="none" 
	d="
M124.531540,221.091553 
	C124.473930,221.116943 124.461342,220.879242 124.461342,220.879242 
	C124.461342,220.879242 124.589142,221.066177 124.531540,221.091553 
z"/>
<path fill="#C4B4A6" opacity="1.000000" stroke="none" 
	d="
M131.492920,215.491180 
	C131.513535,215.483383 131.472305,215.498962 131.492920,215.491180 
z"/>
<path fill="#FCFBFA" opacity="1.000000" stroke="none" 
	d="
M338.647644,220.597549 
	C338.788361,220.281342 339.036926,220.150940 339.299866,220.064178 
	C339.326111,220.055511 339.439972,220.312256 339.513153,220.445831 
	C339.261963,220.562439 339.010742,220.679047 338.647644,220.597549 
z"/>
</svg>