<svg version="1.1" id="Layer_1" xmlns="http://www.w3.org/2000/svg" xmlns:xlink="http://www.w3.org/1999/xlink" x="0px" y="0px"
	 width="100%" viewBox="0 0 512 512" enable-background="new 0 0 512 512" xml:space="preserve">
<path fill="#A64141" opacity="1.000000" stroke="none" 
	d="
M289.000000,513.000000 
	C267.979095,513.000000 246.958206,513.000000 225.565567,512.588379 
	C219.138153,511.092926 213.029251,510.243896 207.036087,508.884644 
	C181.448135,503.081238 156.814514,494.776306 133.709564,482.010284 
	C103.932007,465.557465 78.562080,444.078522 57.126438,417.723236 
	C38.738205,395.114838 24.821903,370.036560 15.115891,342.654846 
	C9.182481,325.916046 4.755812,308.740936 2.900923,290.989807 
	C2.825520,290.268188 1.658448,289.660675 0.999998,289.000000 
	C1.000000,267.979095 1.000000,246.958206 1.411647,225.565582 
	C2.907070,219.138062 3.756062,213.029037 5.115376,207.035751 
	C10.918846,181.447815 19.223816,156.814178 31.989868,133.709259 
	C48.442696,103.931732 69.921692,78.561829 96.277008,57.126232 
	C118.885422,38.738110 143.963699,24.821993 171.345322,15.115730 
	C188.084106,9.182158 205.259232,4.756168 223.010193,2.900927 
	C223.731812,2.825509 224.339325,1.658451 225.000000,1.000000 
	C246.020889,1.000000 267.041779,1.000000 288.434448,1.411659 
	C294.852814,2.906400 300.949677,3.765783 306.937317,5.111389 
	C332.505829,10.857398 357.052063,19.279659 380.155731,31.945917 
	C410.110291,48.368073 435.489960,70.020309 457.003296,96.440300 
	C475.480591,119.131760 489.309631,144.380325 499.018616,171.905487 
	C504.868774,188.490662 509.207275,205.468338 511.098969,223.014999 
	C511.176727,223.736603 512.341614,224.341003 513.000000,225.000000 
	C513.000000,246.020889 513.000000,267.041779 512.588379,288.434448 
	C511.092926,294.861877 510.243866,300.970764 508.884644,306.963959 
	C503.081451,332.551849 494.776154,357.185211 482.010315,380.290131 
	C465.557617,410.067841 444.078583,435.437714 417.723358,456.873474 
	C395.114929,475.261780 370.036621,489.178040 342.654938,498.884125 
	C325.916107,504.817627 308.740936,509.244232 290.989807,511.099152 
	C290.268219,511.174561 289.660675,512.341553 289.000000,513.000000 
M157.498642,218.064911 
	C149.892685,237.572906 149.625107,257.681244 152.765411,278.018402 
	C154.705948,290.585480 159.196503,302.096405 168.023895,311.542419 
	C183.950821,328.585602 220.547440,329.956207 234.389252,298.389526 
	C245.969452,271.980530 245.498474,244.572647 235.704620,217.612061 
	C231.722534,206.650162 224.005005,198.327164 212.717834,193.989883 
	C190.381027,185.406570 168.739487,194.635880 157.498642,218.064911 
M108.074142,207.456192 
	C104.070244,203.780853 100.562386,199.256546 95.976578,196.577133 
	C76.136986,184.985168 44.965973,191.923737 31.077002,210.584686 
	C33.952671,213.504837 36.834389,216.431122 40.034428,219.680649 
	C41.931358,218.006287 43.638969,216.480698 45.366196,214.977600 
	C53.737869,207.692245 63.094280,203.719727 74.567360,204.652359 
	C91.539139,206.031967 101.410240,219.236847 97.460281,235.992447 
	C95.337311,244.998047 90.853355,252.908585 84.551079,259.320251 
	C68.576515,275.572021 52.275692,291.522064 35.619656,307.072540 
	C31.053291,311.335815 30.590473,315.417755 31.708998,320.743530 
	C61.514565,320.743530 91.082443,320.743530 120.803925,320.743530 
	C120.803925,316.076141 120.803925,311.673004 120.803925,307.284119 
	C99.382660,307.284119 78.226898,307.284119 56.262260,307.284119 
	C62.054123,301.775360 67.476845,296.709015 72.797897,291.538086 
	C84.621750,280.047791 96.673218,268.734741 105.525970,254.627121 
	C114.909401,239.673813 117.781746,224.224533 108.074142,207.456192 
M328.205200,193.148666 
	C305.288086,186.830368 284.032166,194.720154 271.179077,210.516571 
	C274.044830,213.466110 276.904297,216.409225 280.062347,219.659622 
	C281.959625,217.983704 283.663757,216.449951 285.398163,214.951218 
	C293.639557,207.829575 302.803650,203.786636 314.105011,204.628174 
	C331.460327,205.920532 341.455658,219.070923 337.450195,236.022064 
	C335.322449,245.026764 330.834198,252.931381 324.532867,259.341370 
	C308.559570,275.590240 292.257690,291.534790 275.606812,307.086670 
	C271.043854,311.348511 270.571991,315.429260 271.719482,320.741699 
	C301.523590,320.741699 331.088989,320.741699 360.802673,320.741699 
	C360.802673,316.072662 360.802673,311.669830 360.802673,307.284058 
	C339.381195,307.284058 318.226532,307.284058 297.071869,307.284058 
	C296.669861,306.887421 296.267883,306.490784 295.865906,306.094147 
	C297.392212,305.131561 299.127289,304.388947 300.410980,303.170746 
	C308.744873,295.262115 317.095612,287.365112 325.218292,279.241730 
	C334.658813,269.800354 343.430542,259.788177 349.395569,247.667496 
	C360.599030,224.902435 351.961700,201.963257 328.205200,193.148666 
M411.817627,210.210083 
	C418.528503,205.461182 426.035126,204.191910 434.108917,204.684311 
	C451.482391,205.743927 461.456390,219.078369 457.445648,236.035278 
	C455.315521,245.041153 450.823944,252.944229 444.521729,259.354492 
	C428.545654,275.604462 412.237366,291.545929 395.590118,307.105988 
	C391.032562,311.365936 390.550842,315.448212 391.733582,320.728821 
	C421.545227,320.728821 451.113770,320.728821 480.789398,320.728821 
	C480.789398,316.044861 480.789398,311.640778 480.789398,307.284851 
	C459.361267,307.284851 438.213043,307.284851 415.544067,307.284851 
	C417.744781,305.451080 419.194550,304.397095 420.465576,303.159546 
	C430.487183,293.401764 440.700775,283.826965 450.405884,273.762512 
	C459.210541,264.631866 467.103760,254.698746 471.548279,242.563446 
	C478.645050,223.186188 470.925690,202.951996 453.569153,195.141159 
	C432.828918,185.807571 405.528564,192.461395 391.501251,209.917099 
	C394.328491,213.139893 397.111603,216.312363 399.853699,219.438065 
	C403.888763,216.317184 407.557129,213.479904 411.817627,210.210083 
z"/>
<path fill="#000000" opacity="1.000000" stroke="none" 
	d="
M513.000000,224.531342 
	C512.341614,224.341003 511.176727,223.736603 511.098969,223.014999 
	C509.207275,205.468338 504.868774,188.490662 499.018616,171.905487 
	C489.309631,144.380325 475.480591,119.131760 457.003296,96.440300 
	C435.489960,70.020309 410.110291,48.368073 380.155731,31.945917 
	C357.052063,19.279659 332.505829,10.857398 306.937317,5.111389 
	C300.949677,3.765783 294.852814,2.906400 288.903076,1.411659 
	C363.593719,1.000000 438.187408,1.000000 513.000000,1.000000 
	C513.000000,75.354088 513.000000,149.708389 513.000000,224.531342 
z"/>
<path fill="#000000" opacity="1.000000" stroke="none" 
	d="
M224.531342,1.000000 
	C224.339325,1.658451 223.731812,2.825509 223.010193,2.900927 
	C205.259232,4.756168 188.084106,9.182158 171.345322,15.115730 
	C143.963699,24.821993 118.885422,38.738110 96.277008,57.126232 
	C69.921692,78.561829 48.442696,103.931732 31.989868,133.709259 
	C19.223816,156.814178 10.918846,181.447815 5.115376,207.035751 
	C3.756062,213.029037 2.907070,219.138062 1.411647,225.096924 
	C1.000000,150.406296 1.000000,75.812576 1.000000,1.000000 
	C75.354088,1.000000 149.708389,1.000000 224.531342,1.000000 
z"/>
<path fill="#000000" opacity="1.000000" stroke="none" 
	d="
M0.999998,289.468658 
	C1.658448,289.660675 2.825520,290.268188 2.900923,290.989807 
	C4.755812,308.740936 9.182481,325.916046 15.115891,342.654846 
	C24.821903,370.036560 38.738205,395.114838 57.126438,417.723236 
	C78.562080,444.078522 103.932007,465.557465 133.709564,482.010284 
	C156.814514,494.776306 181.448135,503.081238 207.036087,508.884644 
	C213.029251,510.243896 219.138153,511.092926 225.096909,512.588379 
	C150.406296,513.000000 75.812599,513.000000 1.000000,513.000000 
	C1.000000,438.645905 1.000000,364.291626 0.999998,289.468658 
z"/>
<path fill="#000000" opacity="1.000000" stroke="none" 
	d="
M289.468658,513.000000 
	C289.660675,512.341553 290.268219,511.174561 290.989807,511.099152 
	C308.740936,509.244232 325.916107,504.817627 342.654938,498.884125 
	C370.036621,489.178040 395.114929,475.261780 417.723358,456.873474 
	C444.078583,435.437714 465.557617,410.067841 482.010315,380.290131 
	C494.776154,357.185211 503.081451,332.551849 508.884644,306.963959 
	C510.243866,300.970764 511.092926,294.861877 512.588379,288.903076 
	C513.000000,363.593719 513.000000,438.187408 513.000000,513.000000 
	C438.645905,513.000000 364.291626,513.000000 289.468658,513.000000 
z"/>
<path fill="#FEFCFC" opacity="1.000000" stroke="none" 
	d="
M157.663986,217.722824 
	C168.739487,194.635880 190.381027,185.406570 212.717834,193.989883 
	C224.005005,198.327164 231.722534,206.650162 235.704620,217.612061 
	C245.498474,244.572647 245.969452,271.980530 234.389252,298.389526 
	C220.547440,329.956207 183.950821,328.585602 168.023895,311.542419 
	C159.196503,302.096405 154.705948,290.585480 152.765411,278.018402 
	C149.625107,257.681244 149.892685,237.572906 157.663986,217.722824 
M198.311752,310.037109 
	C210.723053,309.037292 217.630539,301.248444 221.828979,290.509521 
	C227.868866,275.060394 228.148483,258.869354 226.199265,242.768219 
	C225.217819,234.661133 222.778290,226.499802 219.607391,218.946838 
	C215.620483,209.450165 207.519394,204.311523 197.135361,204.209274 
	C186.571518,204.105225 178.872070,209.354202 173.832153,218.664246 
	C168.702835,228.139450 167.159286,238.458801 166.560333,248.965622 
	C165.740494,263.347382 166.420624,277.612793 171.959122,291.172852 
	C176.602966,302.542480 184.347534,309.975586 198.311752,310.037109 
z"/>
<path fill="#FEFCFC" opacity="1.000000" stroke="none" 
	d="
M108.291336,207.747299 
	C117.781746,224.224533 114.909401,239.673813 105.525970,254.627121 
	C96.673218,268.734741 84.621750,280.047791 72.797897,291.538086 
	C67.476845,296.709015 62.054123,301.775360 56.262260,307.284119 
	C78.226898,307.284119 99.382660,307.284119 120.803925,307.284119 
	C120.803925,311.673004 120.803925,316.076141 120.803925,320.743530 
	C91.082443,320.743530 61.514565,320.743530 31.708998,320.743530 
	C30.590473,315.417755 31.053291,311.335815 35.619656,307.072540 
	C52.275692,291.522064 68.576515,275.572021 84.551079,259.320251 
	C90.853355,252.908585 95.337311,244.998047 97.460281,235.992447 
	C101.410240,219.236847 91.539139,206.031967 74.567360,204.652359 
	C63.094280,203.719727 53.737869,207.692245 45.366196,214.977600 
	C43.638969,216.480698 41.931358,218.006287 40.034428,219.680649 
	C36.834389,216.431122 33.952671,213.504837 31.077002,210.584686 
	C44.965973,191.923737 76.136986,184.985168 95.976578,196.577133 
	C100.562386,199.256546 104.070244,203.780853 108.291336,207.747299 
z"/>
<path fill="#FEFCFC" opacity="1.000000" stroke="none" 
	d="
M328.590942,193.258560 
	C351.961700,201.963257 360.599030,224.902435 349.395569,247.667496 
	C343.430542,259.788177 334.658813,269.800354 325.218292,279.241730 
	C317.095612,287.365112 308.744873,295.262115 300.410980,303.170746 
	C299.127289,304.388947 297.392212,305.131561 295.865906,306.094147 
	C296.267883,306.490784 296.669861,306.887421 297.071869,307.284058 
	C318.226532,307.284058 339.381195,307.284058 360.802673,307.284058 
	C360.802673,311.669830 360.802673,316.072662 360.802673,320.741699 
	C331.088989,320.741699 301.523590,320.741699 271.719482,320.741699 
	C270.571991,315.429260 271.043854,311.348511 275.606812,307.086670 
	C292.257690,291.534790 308.559570,275.590240 324.532867,259.341370 
	C330.834198,252.931381 335.322449,245.026764 337.450195,236.022064 
	C341.455658,219.070923 331.460327,205.920532 314.105011,204.628174 
	C302.803650,203.786636 293.639557,207.829575 285.398163,214.951218 
	C283.663757,216.449951 281.959625,217.983704 280.062347,219.659622 
	C276.904297,216.409225 274.044830,213.466110 271.179077,210.516571 
	C284.032166,194.720154 305.288086,186.830368 328.590942,193.258560 
z"/>
<path fill="#FEFCFC" opacity="1.000000" stroke="none" 
	d="
M411.521545,210.426361 
	C407.557129,213.479904 403.888763,216.317184 399.853699,219.438065 
	C397.111603,216.312363 394.328491,213.139893 391.501251,209.917099 
	C405.528564,192.461395 432.828918,185.807571 453.569153,195.141159 
	C470.925690,202.951996 478.645050,223.186188 471.548279,242.563446 
	C467.103760,254.698746 459.210541,264.631866 450.405884,273.762512 
	C440.700775,283.826965 430.487183,293.401764 420.465576,303.159546 
	C419.194550,304.397095 417.744781,305.451080 415.544067,307.284851 
	C438.213043,307.284851 459.361267,307.284851 480.789398,307.284851 
	C480.789398,311.640778 480.789398,316.044861 480.789398,320.728821 
	C451.113770,320.728821 421.545227,320.728821 391.733582,320.728821 
	C390.550842,315.448212 391.032562,311.365936 395.590118,307.105988 
	C412.237366,291.545929 428.545654,275.604462 444.521729,259.354492 
	C450.823944,252.944229 455.315521,245.041153 457.445648,236.035278 
	C461.456390,219.078369 451.482391,205.743927 434.108917,204.684311 
	C426.035126,204.191910 418.528503,205.461182 411.521545,210.426361 
z"/>
<path fill="#A74343" opacity="1.000000" stroke="none" 
	d="
M197.871887,310.069458 
	C184.347534,309.975586 176.602966,302.542480 171.959122,291.172852 
	C166.420624,277.612793 165.740494,263.347382 166.560333,248.965622 
	C167.159286,238.458801 168.702835,228.139450 173.832153,218.664246 
	C178.872070,209.354202 186.571518,204.105225 197.135361,204.209274 
	C207.519394,204.311523 215.620483,209.450165 219.607391,218.946838 
	C222.778290,226.499802 225.217819,234.661133 226.199265,242.768219 
	C228.148483,258.869354 227.868866,275.060394 221.828979,290.509521 
	C217.630539,301.248444 210.723053,309.037292 197.871887,310.069458 
M184.799988,258.625031 
	C186.774750,266.250092 193.224945,270.401550 199.974503,268.391632 
	C206.928513,266.320770 210.466537,259.573853 208.755951,251.645599 
	C207.419769,245.452484 201.218048,241.265701 194.879868,242.277847 
	C187.637573,243.434372 183.670090,249.447632 184.799988,258.625031 
z"/>
<path fill="#FDFBFB" opacity="1.000000" stroke="none" 
	d="
M184.702789,258.237427 
	C183.670090,249.447632 187.637573,243.434372 194.879868,242.277847 
	C201.218048,241.265701 207.419769,245.452484 208.755951,251.645599 
	C210.466537,259.573853 206.928513,266.320770 199.974503,268.391632 
	C193.224945,270.401550 186.774750,266.250092 184.702789,258.237427 
z"/>
</svg>