<?xml version="1.0" encoding="UTF-8"?> <svg xmlns="http://www.w3.org/2000/svg" width="200" height="200" viewBox="0 0 200 200" fill="none"><path d="M165.772 200H34.2276C15.3562 200 0 184.644 0 165.772V34.2276C0 15.3562 15.3562 0 34.2276 0H165.772C184.644 0 200 15.3562 200 34.2276V165.772C200 184.644 184.644 200 165.772 200Z" fill="#012B41"></path><path fill-rule="evenodd" clip-rule="evenodd" d="M56.9471 94.5621C55.0446 94.5621 53.4505 95.2588 52.165 96.2652V94.6653H47.7943V111.773H52.3707V100.858C52.962 99.9551 54.5561 98.7681 56.4586 98.7681C57.1528 98.7681 57.7441 98.8713 58.2583 99.0778V94.6653C57.8213 94.5621 57.4356 94.5621 56.9471 94.5621Z" fill="white"></path><path fill-rule="evenodd" clip-rule="evenodd" d="M17.2769 106.561C18.4596 107.67 20.1564 108.264 21.9562 108.264C23.1388 108.264 24.1415 107.67 24.1415 106.87C24.1415 104.264 15.9657 105.167 15.9657 99.6711C15.9657 96.3682 19.1538 94.3813 22.4446 94.3813C24.63 94.3813 27.021 95.1813 28.2294 96.0844L26.1469 99.3873C25.2471 98.7938 24.1672 98.2003 22.856 98.2003C21.5448 98.2003 20.5678 98.6906 20.5678 99.5937C20.5678 101.787 28.7436 100.884 28.7436 106.896C28.7436 110.199 25.5556 112.186 21.9819 112.186C19.5651 112.16 17.1741 111.36 15.1944 109.864L17.2769 106.561Z" fill="white"></path><path fill-rule="evenodd" clip-rule="evenodd" d="M45.8672 103.052C45.8672 98.2523 42.5763 94.356 37.8971 94.356C32.8065 94.356 29.6185 98.5619 29.6185 103.258C29.6185 108.651 33.3978 112.16 38.4884 112.16C41.0852 112.16 43.759 111.051 45.4559 109.064L42.8592 106.458C42.0621 107.361 40.4681 108.445 38.5656 108.445C36.1745 108.445 34.1949 106.742 33.9892 104.342H45.7901C45.7901 103.955 45.8672 103.568 45.8672 103.052ZM34.2206 101.065C34.4262 99.4651 36.0203 98.0717 37.7943 98.0717C39.6968 98.0717 40.9823 99.5683 41.188 101.065H34.2206Z" fill="white"></path><path fill-rule="evenodd" clip-rule="evenodd" d="M69.0823 105.169L73.7615 94.6666H78.4665L70.6763 111.774H67.4883L59.7238 94.6666H64.5059L69.0823 105.169Z" fill="white"></path><path fill-rule="evenodd" clip-rule="evenodd" d="M82.3483 86.667C83.9423 86.667 85.3306 87.9572 85.3306 89.557C85.3306 91.1568 84.0451 92.447 82.3483 92.447C80.6514 92.447 79.3659 91.1568 79.3659 89.557C79.3659 87.9572 80.6514 86.667 82.3483 86.667Z" fill="white"></path><path d="M84.6364 94.6666H80.0599V111.774H84.6364V94.6666Z" fill="white"></path><path fill-rule="evenodd" clip-rule="evenodd" d="M103.354 108.265C101.375 110.974 98.8807 112.058 95.6927 112.058C90.4221 112.058 86.617 108.058 86.617 103.156C86.617 98.1496 90.6021 94.2533 95.7698 94.2533C98.6493 94.2533 101.349 95.6467 102.943 97.6594L99.7806 100.575C98.8807 99.3882 97.4924 98.5883 95.8984 98.5883C93.3016 98.5883 91.322 100.678 91.322 103.285C91.322 105.994 93.2245 107.981 96.0012 107.981C97.9037 107.981 99.2921 106.871 100.089 105.684L103.354 108.265Z" fill="white"></path><path fill-rule="evenodd" clip-rule="evenodd" d="M119.911 109.064C118.317 111.051 115.54 112.16 112.943 112.16C107.853 112.16 104.073 108.651 104.073 103.258C104.073 98.4587 107.261 94.356 112.352 94.356C117.031 94.356 120.322 98.3555 120.322 103.052C120.322 103.542 120.322 103.955 120.219 104.342H108.47C108.676 106.742 110.655 108.445 113.046 108.445C114.949 108.445 116.543 107.335 117.34 106.458L119.911 109.064ZM115.617 101.065C115.514 99.5683 114.126 98.0717 112.224 98.0717C110.321 98.0717 108.83 99.4651 108.65 101.065H115.617Z" fill="white"></path><path fill-rule="evenodd" clip-rule="evenodd" d="M122.097 111.773V94.6656H126.467V96.059C127.753 94.9494 129.347 94.356 131.249 94.356C133.64 94.356 135.723 95.4655 137.137 97.1427C138.243 98.4329 138.937 100.239 138.937 103.129V111.825H134.36V102.768C134.36 101.065 133.975 100.162 133.358 99.5683C132.766 98.9748 131.866 98.5619 130.761 98.5619C128.858 98.5619 127.264 99.7489 126.673 100.652V111.748H122.097V111.773Z" fill="white"></path><path fill-rule="evenodd" clip-rule="evenodd" d="M150.584 94.356C145.21 94.356 140.634 98.7426 140.634 104.265C140.634 107.155 141.817 109.761 143.719 111.67C144.413 112.367 145.519 112.367 146.316 111.773C147.422 110.87 148.913 110.38 150.61 110.38C152.306 110.38 153.695 110.87 154.903 111.773C155.7 112.367 156.806 112.264 157.5 111.567C159.402 109.761 160.585 107.18 160.585 104.265C160.457 98.8716 156.06 94.356 150.584 94.356ZM150.481 109.374C147.601 109.374 145.493 107.18 145.493 104.368C145.493 101.555 147.473 99.3619 150.481 99.3619C153.489 99.3619 155.469 101.658 155.469 104.368C155.469 107.077 153.463 109.374 150.481 109.374Z" fill="#73BD4E"></path><path fill-rule="evenodd" clip-rule="evenodd" d="M169.403 111.774H166.035L159.248 94.6666H163.824L167.526 104.472L171.203 94.6666H174.982L178.582 104.472L182.258 94.6666H186.86L180.073 111.774H176.679L173.106 102.072L169.403 111.774Z" fill="white"></path><path d="M184.368 109.658V109.968H183.751V111.774H183.366V109.968H182.774V109.658H184.368Z" fill="white"></path><path d="M185.755 110.974L186.552 109.658H186.86V111.774H186.449V110.562L185.858 111.465H185.549L185.061 110.562V111.774H184.649V109.658H184.958L185.755 110.974Z" fill="white"></path></svg> 