<?xml version="1.0" ?><svg viewBox="0 0 22.842 22.842" xmlns="http://www.w3.org/2000/svg"><g data-name="Layer 2" id="Layer_2"><g data-name="Layer 1" id="Layer_1-2"><path d="M22.81,13.6l-.436,1.626a.908.908,0,0,1-1.11.642l-1.176-.315a9.526,9.526,0,0,1-.754,1.307l.86.86a.907.907,0,0,1,0,1.282L19,20.193a.927.927,0,0,1-1.283,0l-.86-.859a9.526,9.526,0,0,1-1.307.754l.315,1.175a.91.91,0,0,1-.642,1.111L13.6,22.81a.911.911,0,0,1-1.111-.642l-.316-1.177a9.733,9.733,0,0,1-1.508,0l-.315,1.177a.912.912,0,0,1-1.111.642l-1.626-.436a.912.912,0,0,1-.641-1.111l.315-1.175a9.6,9.6,0,0,1-1.308-.754l-.86.859a.907.907,0,0,1-1.282,0L2.649,19a.907.907,0,0,1,0-1.282l.859-.86a9.521,9.521,0,0,1-.753-1.307l-1.176.315a.91.91,0,0,1-1.111-.642L.033,13.6A.912.912,0,0,1,.674,12.49l1.177-.315a9.733,9.733,0,0,1,0-1.508L.674,10.351A.907.907,0,0,1,.033,9.24L.468,7.615a.911.911,0,0,1,1.111-.641l1.176.315a9.473,9.473,0,0,1,.753-1.308l-.859-.86a.908.908,0,0,1,0-1.283l1.19-1.189a.927.927,0,0,1,1.282,0l.86.859a9.6,9.6,0,0,1,1.308-.754L6.974,1.579A.91.91,0,0,1,7.615.468L9.241.032a.913.913,0,0,1,1.111.642l.315,1.177a9.733,9.733,0,0,1,1.508,0c.231-.745.288-2.075,1.427-1.819l1.625.436a.909.909,0,0,1,.642,1.11c-.085.271-.126.867-.558.744a.346.346,0,0,1-.245-.424c.022-.187.3-.685-.018-.762L13.422.7a.216.216,0,0,0-.263.152l-.391,1.46a.342.342,0,0,1-.372.254,8.944,8.944,0,0,0-1.949,0,.345.345,0,0,1-.373-.254L9.683.853A.217.217,0,0,0,9.42.7l-1.626.435a.215.215,0,0,0-.151.263l.39,1.459a.346.346,0,0,1-.195.406,8.9,8.9,0,0,0-1.69.974A.345.345,0,0,1,5.7,4.2L4.632,3.138a.221.221,0,0,0-.3,0l-1.19,1.19a.215.215,0,0,0,0,.3L4.205,5.7a.345.345,0,0,1,.033.45,8.868,8.868,0,0,0-.974,1.69.346.346,0,0,1-.406.195c-.023.013-1.67-.5-1.621-.369a.211.211,0,0,0-.1.13L.7,9.42a.215.215,0,0,0,.152.263l1.46.391a.346.346,0,0,1,.254.372,8.953,8.953,0,0,0,0,1.95.345.345,0,0,1-.254.372l-1.46.392a.215.215,0,0,0-.152.263l.436,1.625A.213.213,0,0,0,1.4,15.2l1.458-.39a.346.346,0,0,1,.406.2,8.9,8.9,0,0,0,.974,1.69.345.345,0,0,1-.033.45L3.138,18.211a.214.214,0,0,0,0,.3l1.19,1.19a.215.215,0,0,0,.3,0L5.7,18.638a.345.345,0,0,1,.45-.034,8.854,8.854,0,0,0,1.69.974.346.346,0,0,1,.195.406l-.39,1.458a.214.214,0,0,0,.151.263l1.626.436a.217.217,0,0,0,.263-.152l.391-1.46a.347.347,0,0,1,.373-.254,9.071,9.071,0,0,0,1.949,0,.346.346,0,0,1,.372.254l.391,1.46a.216.216,0,0,0,.263.152l1.626-.436a.215.215,0,0,0,.152-.263l-.391-1.458a.345.345,0,0,1,.2-.406,8.9,8.9,0,0,0,1.689-.974.344.344,0,0,1,.45.034L18.21,19.7a.22.22,0,0,0,.3,0l1.19-1.19a.215.215,0,0,0,0-.3l-1.067-1.067a.345.345,0,0,1-.034-.45A8.9,8.9,0,0,0,19.578,15a.349.349,0,0,1,.407-.2l1.457.39a.217.217,0,0,0,.264-.151l.435-1.625a.215.215,0,0,0-.152-.263l-1.459-.392a.346.346,0,0,1-.255-.372,8.953,8.953,0,0,0,0-1.95.347.347,0,0,1,.255-.372l1.459-.391a.215.215,0,0,0,.152-.263l-.435-1.626a.217.217,0,0,0-.264-.152l-.5.134a.345.345,0,0,1-.423-.245c-.113-.435.458-.469.742-.557a.908.908,0,0,1,1.111.641L22.81,9.24a.908.908,0,0,1-.642,1.111l-1.177.316a9.733,9.733,0,0,1,0,1.508l1.177.315A.912.912,0,0,1,22.81,13.6ZM19.783,2.747a.347.347,0,0,1,.312.312c.885,7.739-4.85,13.418-12.437,12.614L6.113,17.219a.346.346,0,0,1-.489-.49l1.545-1.545C6.407,7.463,12.061,1.9,19.783,2.747ZM7.821,14.531l2.3-2.3V9.854a.346.346,0,0,1,.691,0v1.689l2.482-2.481V6.681a.346.346,0,0,1,.692,0V8.37l2.746-2.746a.346.346,0,1,1,.489.489L14.472,8.859h1.689a.346.346,0,0,1,0,.692H13.78L11.3,12.033h1.689a.346.346,0,0,1,0,.692H10.607l-2.3,2.3c6.921.395,11.736-4.679,11.119-11.609C12.5,2.8,7.425,7.611,7.821,14.531Z" data-name="sustainable technology" id="sustainable_technology"/></g></g></svg>