<?xml version="1.0" standalone="no"?>
<!DOCTYPE svg PUBLIC "-//W3C//DTD SVG 20010904//EN"
 "http://www.w3.org/TR/2001/REC-SVG-20010904/DTD/svg10.dtd">
<svg version="1.0" xmlns="http://www.w3.org/2000/svg"
 width="263.000000pt" height="129.000000pt" viewBox="0 0 263.000000 129.000000"
 preserveAspectRatio="xMidYMid meet">
<metadata>
Created by potrace 1.10, written by Peter Selinger 2001-2011
</metadata>
<g transform="translate(0.000000,129.000000) scale(0.100000,-0.100000)"
fill="#000000" stroke="none">
<path d="M1540 882 c0 -5 12 -14 27 -21 18 -8 23 -15 15 -20 -8 -5 2 -15 28
-30 28 -16 40 -29 40 -45 l0 -22 -442 -12 c-244 -7 -497 -18 -563 -26 -66 -8
-181 -15 -255 -16 -74 -1 -175 -5 -225 -10 -78 -7 -66 -8 83 -6 171 2 173 2
150 -16 -23 -19 -20 -19 192 -14 218 6 878 10 1025 8 45 -1 75 -6 70 -11 -6
-4 -109 -18 -230 -30 -121 -12 -294 -28 -385 -37 -186 -18 -190 -19 -190 -35
0 -8 22 -10 78 -5 156 12 423 25 647 31 l230 6 -139 -71 c-127 -65 -278 -159
-293 -182 -3 -6 2 -17 10 -26 18 -17 32 -13 96 29 l33 22 -22 -43 -22 -43 31
6 c17 4 124 48 238 99 152 68 216 103 242 129 26 26 48 37 77 41 48 7 101 37
84 48 -14 9 -8 13 43 29 25 9 37 18 37 31 0 23 -36 50 -66 50 -50 0 -259 61
-341 100 -153 73 -225 100 -264 100 -22 0 -39 -4 -39 -8z m414 -386 c-7 -18
-62 -45 -106 -51 -26 -4 -18 2 37 29 39 19 71 35 72 35 1 1 0 -5 -3 -13z"/>
</g>
</svg>
