<?xml version="1.0" encoding="UTF-8"?>
<svg xmlns="http://www.w3.org/2000/svg" xmlns:xlink="http://www.w3.org/1999/xlink" width="48px" height="48px" viewBox="0 0 48 48" version="1.1">
<g id="surface1">
<path style=" stroke:none;fill-rule:evenodd;fill:rgb(0%,0%,0%);fill-opacity:1;" d="M 24 0 C 10.738281 0 0 10.738281 0 24 C 0 34.621094 6.871094 43.589844 16.410156 46.769531 C 17.609375 46.980469 18.058594 46.261719 18.058594 45.628906 C 18.058594 45.058594 18.03125 43.171875 18.03125 41.160156 C 12 42.269531 10.441406 39.691406 9.960938 38.339844 C 9.691406 37.648438 8.519531 35.519531 7.5 34.949219 C 6.660156 34.5 5.460938 33.390625 7.46875 33.359375 C 9.359375 33.328125 10.710938 35.101562 11.160156 35.820312 C 13.320312 39.449219 16.769531 38.429688 18.148438 37.800781 C 18.359375 36.238281 18.988281 35.191406 19.679688 34.589844 C 14.339844 33.988281 8.761719 31.921875 8.761719 22.738281 C 8.761719 20.128906 9.691406 17.96875 11.21875 16.289062 C 10.980469 15.691406 10.140625 13.230469 11.460938 9.929688 C 11.460938 9.929688 13.46875 9.300781 18.058594 12.390625 C 19.980469 11.851562 22.019531 11.578125 24.058594 11.578125 C 26.101562 11.578125 28.140625 11.851562 30.058594 12.390625 C 34.648438 9.269531 36.660156 9.929688 36.660156 9.929688 C 37.980469 13.230469 37.140625 15.691406 36.898438 16.289062 C 38.429688 17.96875 39.359375 20.101562 39.359375 22.738281 C 39.359375 31.949219 33.75 33.988281 28.410156 34.589844 C 29.28125 35.339844 30.03125 36.78125 30.03125 39.03125 C 30.03125 42.238281 30 44.820312 30 45.628906 C 30 46.261719 30.449219 47.011719 31.648438 46.769531 C 41.417969 43.472656 47.996094 34.3125 48 24 C 48 10.738281 37.261719 0 24 0 Z M 24 0 "/>
</g>
</svg>
